# Blender 5.1.0
# www.blender.org
mtllib 5.mtl
o 5
v -0.073026 -0.122368 0.220000
v -0.112500 -0.175000 0.220000
v -0.011184 -0.223684 0.220000
v 0.075658 -0.094079 0.220000
v -0.023684 0.030263 0.220000
v -0.098684 0.004605 0.220000
v -0.125658 -0.036184 0.220000
v -0.140789 -0.019079 0.220000
v -0.122368 0.018421 0.220000
v -0.107895 0.225000 0.220000
v 0.027632 0.208553 0.220000
v 0.086842 0.215789 0.220000
v 0.113158 0.225658 0.220000
v 0.105921 0.194737 0.220000
v 0.001316 0.150000 0.220000
v -0.086184 0.159210 0.220000
v -0.086842 0.159210 0.220000
v -0.095395 0.040132 0.220000
v -0.007895 0.059210 0.220000
v 0.143421 -0.088158 0.220000
v -0.023684 -0.249342 0.220000
v -0.152632 -0.139474 0.220000
v -0.113158 -0.084868 0.220000
v -0.108913 -0.176724 0.220000
v -0.111890 -0.174187 0.220000
v -0.073026 -0.122368 -0.220000
v -0.112500 -0.175000 -0.220000
v -0.011184 -0.223684 -0.220000
v 0.075658 -0.094079 -0.220000
v -0.023684 0.030263 -0.220000
v -0.098684 0.004605 -0.220000
v -0.125658 -0.036184 -0.220000
v -0.140789 -0.019079 -0.220000
v -0.122368 0.018421 -0.220000
v -0.107895 0.225000 -0.220000
v 0.027632 0.208553 -0.220000
v 0.086842 0.215789 -0.220000
v 0.113158 0.225658 -0.220000
v 0.105921 0.194737 -0.220000
v 0.001316 0.150000 -0.220000
v -0.086184 0.159211 -0.220000
v -0.086842 0.159211 -0.220000
v -0.095395 0.040132 -0.220000
v -0.007895 0.059211 -0.220000
v 0.143421 -0.088158 -0.220000
v -0.023684 -0.249342 -0.220000
v -0.152632 -0.139474 -0.220000
v -0.113158 -0.084868 -0.220000
v -0.108913 -0.176724 -0.220000
v -0.111890 -0.174187 -0.220000
v -0.073026 -0.122368 -0.220000
v -0.064754 -0.121640 -0.219021
v -0.057292 -0.120982 -0.216180
v -0.051370 -0.120460 -0.211756
v -0.047567 -0.120125 -0.206180
v -0.046257 -0.120010 -0.200000
v -0.046257 -0.120010 0.200000
v -0.047567 -0.120125 0.206180
v -0.051370 -0.120460 0.211756
v -0.057292 -0.120982 0.216180
v -0.064754 -0.121640 0.219021
v -0.073026 -0.122368 0.220000
v -0.112500 -0.175000 -0.220000
v -0.103041 -0.172688 -0.219021
v -0.094508 -0.170603 -0.216180
v -0.087736 -0.168948 -0.211756
v -0.083388 -0.167886 -0.206180
v -0.081890 -0.167520 -0.200000
v -0.081890 -0.167520 0.200000
v -0.083388 -0.167886 0.206180
v -0.087736 -0.168948 0.211756
v -0.094508 -0.170603 0.216180
v -0.103041 -0.172688 0.219021
v -0.112500 -0.175000 0.220000
v -0.011184 -0.223684 -0.220000
v -0.013336 -0.215793 -0.219021
v -0.015278 -0.208675 -0.216180
v -0.016819 -0.203025 -0.211756
v -0.017808 -0.199398 -0.206180
v -0.018149 -0.198149 -0.200000
v -0.018149 -0.198149 0.200000
v -0.017808 -0.199398 0.206180
v -0.016819 -0.203025 0.211756
v -0.015278 -0.208675 0.216180
v -0.013336 -0.215793 0.219021
v -0.011184 -0.223684 0.220000
v 0.075658 -0.094079 -0.220000
v 0.068004 -0.094400 -0.219021
v 0.061098 -0.094689 -0.216180
v 0.055618 -0.094919 -0.211756
v 0.052100 -0.095066 -0.206180
v 0.050888 -0.095117 -0.200000
v 0.050888 -0.095117 0.200000
v 0.052100 -0.095066 0.206180
v 0.055618 -0.094919 0.211756
v 0.061098 -0.094689 0.216180
v 0.068004 -0.094400 0.219021
v 0.075658 -0.094079 0.220000
v -0.023684 0.030263 -0.220000
v -0.025798 0.023008 -0.219021
v -0.027705 0.016463 -0.216180
v -0.029219 0.011269 -0.211756
v -0.030191 0.007934 -0.206180
v -0.030526 0.006785 -0.200000
v -0.030526 0.006785 0.200000
v -0.030191 0.007934 0.206180
v -0.029219 0.011269 0.211756
v -0.027705 0.016463 0.216180
v -0.025798 0.023008 0.219021
v -0.023684 0.030263 0.220000
v -0.098684 0.004605 -0.220000
v -0.094691 -0.000561 -0.219021
v -0.091088 -0.005221 -0.216180
v -0.088230 -0.008919 -0.211756
v -0.086394 -0.011294 -0.206180
v -0.085762 -0.012112 -0.200000
v -0.085762 -0.012112 0.200000
v -0.086394 -0.011294 0.206180
v -0.088230 -0.008919 0.211756
v -0.091088 -0.005221 0.216180
v -0.094691 -0.000561 0.219021
v -0.098684 0.004605 0.220000
v -0.125658 -0.036184 -0.220000
v -0.124948 -0.046315 -0.219021
v -0.124307 -0.055454 -0.216180
v -0.123799 -0.062707 -0.211756
v -0.123472 -0.067363 -0.206180
v -0.123360 -0.068968 -0.200000
v -0.123360 -0.068968 0.200000
v -0.123472 -0.067363 0.206180
v -0.123799 -0.062707 0.211756
v -0.124307 -0.055454 0.216180
v -0.124948 -0.046315 0.219021
v -0.125658 -0.036184 0.220000
v -0.140789 -0.019079 -0.220000
v -0.148163 -0.020072 -0.219021
v -0.154814 -0.020967 -0.216180
v -0.160093 -0.021678 -0.211756
v -0.163482 -0.022134 -0.206180
v -0.164650 -0.022291 -0.200000
v -0.164650 -0.022291 0.200000
v -0.163482 -0.022134 0.206180
v -0.160093 -0.021678 0.211756
v -0.154814 -0.020967 0.216180
v -0.148163 -0.020072 0.219021
v -0.140789 -0.019079 0.220000
v -0.122368 0.018421 -0.220000
v -0.128449 0.020060 -0.219021
v -0.133935 0.021538 -0.216180
v -0.138288 0.022712 -0.211756
v -0.141083 0.023465 -0.206180
v -0.142046 0.023725 -0.200000
v -0.142046 0.023725 0.200000
v -0.141083 0.023465 0.206180
v -0.138288 0.022712 0.211756
v -0.133935 0.021538 0.216180
v -0.128449 0.020060 0.219021
v -0.122368 0.018421 0.220000
v -0.107895 0.225000 -0.220000
v -0.113605 0.231919 -0.219021
v -0.118757 0.238160 -0.216180
v -0.122846 0.243114 -0.211756
v -0.125471 0.246294 -0.206180
v -0.126375 0.247390 -0.200000
v -0.126375 0.247389 0.200000
v -0.125471 0.246294 0.206180
v -0.122846 0.243113 0.211756
v -0.118757 0.238160 0.216180
v -0.113605 0.231919 0.219021
v -0.107895 0.225000 0.220000
v 0.027632 0.208553 -0.220000
v 0.027629 0.214779 -0.219021
v 0.027627 0.220395 -0.216180
v 0.027625 0.224853 -0.211756
v 0.027623 0.227714 -0.206180
v 0.027623 0.228700 -0.200000
v 0.027623 0.228700 0.200000
v 0.027623 0.227714 0.206180
v 0.027625 0.224852 0.211756
v 0.027627 0.220395 0.216180
v 0.027629 0.214779 0.219021
v 0.027632 0.208553 0.220000
v 0.086842 0.215789 -0.220000
v 0.085361 0.221835 -0.219021
v 0.084026 0.227288 -0.216180
v 0.082966 0.231616 -0.211756
v 0.082285 0.234395 -0.206180
v 0.082051 0.235353 -0.200000
v 0.082051 0.235353 0.200000
v 0.082285 0.234395 0.206180
v 0.082966 0.231616 0.211756
v 0.084026 0.227288 0.216180
v 0.085361 0.221835 0.219021
v 0.086842 0.215789 0.220000
v 0.113158 0.225658 -0.220000
v 0.121809 0.235503 -0.219021
v 0.129614 0.244384 -0.216180
v 0.135808 0.251432 -0.211756
v 0.139784 0.255957 -0.206180
v 0.141155 0.257517 -0.200000
v 0.141155 0.257517 0.200000
v 0.139784 0.255957 0.206180
v 0.135808 0.251432 0.211756
v 0.129614 0.244384 0.216180
v 0.121809 0.235503 0.219021
v 0.113158 0.225658 0.220000
v 0.105921 0.194737 -0.220000
v 0.111226 0.190284 -0.219021
v 0.116012 0.186267 -0.216180
v 0.119810 0.183079 -0.211756
v 0.122249 0.181032 -0.206180
v 0.123089 0.180327 -0.200000
v 0.123089 0.180327 0.200000
v 0.122249 0.181032 0.206180
v 0.119810 0.183079 0.211756
v 0.116012 0.186267 0.216180
v 0.111226 0.190284 0.219021
v 0.105921 0.194737 0.220000
v 0.001316 0.150000 -0.220000
v 0.002268 0.143685 -0.219021
v 0.003127 0.137989 -0.216180
v 0.003808 0.133468 -0.211756
v 0.004246 0.130565 -0.206180
v 0.004396 0.129565 -0.200000
v 0.004396 0.129565 0.200000
v 0.004246 0.130565 0.206180
v 0.003808 0.133468 0.211756
v 0.003127 0.137989 0.216180
v 0.002268 0.143685 0.219021
v 0.001316 0.150000 0.220000
v -0.086184 0.159211 -0.220000
v -0.086509 0.153030 -0.219021
v -0.086801 0.147455 -0.216180
v -0.087033 0.143030 -0.211756
v -0.087183 0.140189 -0.206180
v -0.087234 0.139211 -0.200000
v -0.087234 0.139210 0.200000
v -0.087183 0.140189 0.206180
v -0.087033 0.143030 0.211756
v -0.086801 0.147455 0.216180
v -0.086509 0.153030 0.219021
v -0.086184 0.159210 0.220000
v -0.086842 0.159211 -0.220000
v -0.081090 0.153030 -0.219021
v -0.075900 0.147455 -0.216180
v -0.071782 0.143030 -0.211756
v -0.069138 0.140189 -0.206180
v -0.068227 0.139211 -0.200000
v -0.068227 0.139210 0.200000
v -0.069138 0.140189 0.206180
v -0.071782 0.143030 0.211756
v -0.075900 0.147455 0.216180
v -0.081090 0.153030 0.219021
v -0.086842 0.159210 0.220000
v -0.095395 0.040132 -0.220000
v -0.088638 0.047930 -0.219021
v -0.082543 0.054966 -0.216180
v -0.077706 0.060549 -0.211756
v -0.074601 0.064134 -0.206180
v -0.073531 0.065369 -0.200000
v -0.073531 0.065369 0.200000
v -0.074601 0.064134 0.206180
v -0.077706 0.060549 0.211756
v -0.082543 0.054966 0.216180
v -0.088638 0.047930 0.219021
v -0.095395 0.040132 0.220000
v -0.007895 0.059211 -0.220000
v -0.005964 0.065957 -0.219021
v -0.004222 0.072043 -0.216180
v -0.002840 0.076873 -0.211756
v -0.001952 0.079974 -0.206180
v -0.001646 0.081043 -0.200000
v -0.001646 0.081043 0.200000
v -0.001952 0.079974 0.206180
v -0.002840 0.076873 0.211756
v -0.004222 0.072043 0.216180
v -0.005964 0.065957 0.219021
v -0.007895 0.059210 0.220000
v 0.143421 -0.088158 -0.220000
v 0.152301 -0.088179 -0.219021
v 0.160312 -0.088199 -0.216180
v 0.166670 -0.088214 -0.211756
v 0.170751 -0.088224 -0.206180
v 0.172158 -0.088227 -0.200000
v 0.172158 -0.088227 0.200000
v 0.170751 -0.088224 0.206180
v 0.166670 -0.088214 0.211756
v 0.160312 -0.088199 0.216180
v 0.152301 -0.088179 0.219021
v 0.143421 -0.088158 0.220000
v -0.023684 -0.249342 -0.220000
v -0.023427 -0.257681 -0.219021
v -0.023195 -0.265203 -0.216180
v -0.023011 -0.271173 -0.211756
v -0.022892 -0.275006 -0.206180
v -0.022852 -0.276327 -0.200000
v -0.022852 -0.276327 0.200000
v -0.022892 -0.275006 0.206180
v -0.023011 -0.271173 0.211756
v -0.023195 -0.265203 0.216180
v -0.023427 -0.257681 0.219021
v -0.023684 -0.249342 0.220000
v -0.152632 -0.139474 -0.220000
v -0.160983 -0.140477 -0.219021
v -0.168517 -0.141383 -0.216180
v -0.174496 -0.142101 -0.211756
v -0.178335 -0.142562 -0.206180
v -0.179658 -0.142721 -0.200000
v -0.179658 -0.142721 0.200000
v -0.178335 -0.142563 0.206180
v -0.174496 -0.142101 0.211756
v -0.168517 -0.141383 0.216180
v -0.160983 -0.140477 0.219021
v -0.152632 -0.139474 0.220000
v -0.113158 -0.084868 -0.220000
v -0.114060 -0.075567 -0.219021
v -0.114874 -0.067176 -0.216180
v -0.115520 -0.060517 -0.211756
v -0.115934 -0.056241 -0.206180
v -0.116077 -0.054768 -0.200000
v -0.116077 -0.054768 0.200000
v -0.115934 -0.056241 0.206180
v -0.115520 -0.060517 0.211756
v -0.114874 -0.067176 0.216180
v -0.114060 -0.075567 0.219021
v -0.113158 -0.084868 0.220000
vn -0.0000 -0.0000 1.0000
vn -0.0000 -0.0000 -1.0000
vn 0.1427 0.0349 -0.9891
vn 0.1166 0.0103 -0.9931
vn 0.2882 0.0254 -0.9572
vn 0.3548 0.0867 -0.9309
vn 0.5237 0.0461 -0.8507
vn 0.5954 0.1455 -0.7902
vn 0.7495 0.0661 -0.6587
vn 0.8447 0.2064 -0.4938
vn 0.9267 0.0817 -0.3667
vn 0.9632 0.2354 -0.1299
vn 0.9911 0.0873 -0.1003
vn 0.9632 0.2354 0.1299
vn 0.9911 0.0873 0.1003
vn 0.9267 0.0817 0.3667
vn 0.7495 0.0661 0.6587
vn 0.8447 0.2064 0.4938
vn 0.5237 0.0461 0.8507
vn 0.5954 0.1455 0.7902
vn 0.2882 0.0254 0.9572
vn 0.3548 0.0867 0.9309
vn 0.1166 0.0103 0.9931
vn 0.1427 0.0349 0.9891
vn -0.0313 0.1146 -0.9929
vn 0.0972 0.0237 -0.9950
vn -0.0491 0.1802 -0.9824
vn -0.1146 0.4202 -0.9002
vn -0.1811 0.6641 -0.7254
vn -0.2386 0.8747 -0.4218
vn -0.2616 0.9591 0.1078
vn -0.2386 0.8747 0.4218
vn -0.1811 0.6641 0.7254
vn -0.1146 0.4202 0.9002
vn -0.0491 0.1802 0.9824
vn -0.0313 0.1146 0.9929
vn 0.0972 0.0237 0.9950
vn -0.1266 -0.0053 -0.9919
vn -0.2051 -0.0086 -0.9787
vn -0.4643 -0.0195 -0.8855
vn -0.7152 -0.0300 -0.6982
vn -0.2616 0.9591 -0.1078
vn -0.9175 -0.0384 -0.3959
vn -0.9941 -0.0417 0.1005
vn -0.9175 -0.0384 0.3959
vn -0.7152 -0.0300 0.6982
vn -0.4643 -0.0195 0.8855
vn -0.2051 -0.0086 0.9787
vn -0.1266 -0.0053 0.9919
vn -0.0359 -0.1233 -0.9917
vn -0.0586 -0.2012 -0.9778
vn -0.1318 -0.4522 -0.8821
vn -0.2019 -0.6927 -0.6924
vn -0.9941 -0.0416 -0.1005
vn -0.2575 -0.8838 -0.3906
vn -0.2784 -0.9554 0.0990
vn -0.2575 -0.8838 0.3906
vn -0.2019 -0.6927 0.6924
vn -0.1318 -0.4522 0.8821
vn -0.0586 -0.2012 0.9778
vn -0.0359 -0.1233 0.9917
vn 0.0907 -0.1173 -0.9889
vn 0.1624 -0.2101 -0.9641
vn 0.3335 -0.4314 -0.8383
vn 0.4778 -0.6181 -0.6242
vn -0.2784 -0.9554 -0.0990
vn 0.5763 -0.7456 -0.3346
vn 0.6094 -0.7884 0.0842
vn 0.5763 -0.7456 0.3346
vn 0.4778 -0.6181 0.6242
vn 0.3335 -0.4314 0.8383
vn 0.1624 -0.2101 0.9641
vn 0.0907 -0.1173 0.9889
vn 0.0067 -0.0957 -0.9954
vn 0.0176 -0.2516 -0.9677
vn 0.0325 -0.4639 -0.8853
vn 0.0487 -0.6954 -0.7170
vn 0.6094 -0.7884 -0.0842
vn 0.0635 -0.9064 -0.4176
vn 0.0694 -0.9904 0.1196
vn 0.0635 -0.9064 0.4176
vn 0.0487 -0.6954 0.7170
vn 0.0325 -0.4639 0.8853
vn 0.0176 -0.2516 0.9677
vn 0.0067 -0.0957 0.9954
vn -0.3052 -0.0411 -0.9514
vn -0.5521 -0.0743 -0.8305
vn -0.7721 -0.1040 -0.6270
vn -0.9317 -0.1254 -0.3410
vn -0.9869 -0.1329 -0.0911
vn 0.0694 -0.9904 -0.1196
vn -0.9869 -0.1329 0.0911
vn -0.9317 -0.1254 0.3410
vn -0.7721 -0.1040 0.6270
vn -0.5521 -0.0743 0.8305
vn -0.3052 -0.0411 0.9514
vn -0.2768 0.0746 -0.9580
vn -0.1293 -0.0174 -0.9915
vn -0.5484 0.1478 -0.8231
vn -0.7695 0.2074 -0.6040
vn -0.9148 0.2466 -0.3200
vn -0.9624 0.2594 -0.0807
vn -0.9624 0.2594 0.0807
vn -0.9148 0.2466 0.3200
vn -0.7695 0.2074 0.6040
vn -0.5484 0.1478 0.8231
vn -0.1293 -0.0174 0.9915
vn -0.2768 0.0746 0.9580
vn -0.0690 0.0837 -0.9941
vn -0.1483 0.0400 -0.9881
vn -0.1752 0.2123 -0.9614
vn -0.3200 0.3877 -0.8645
vn -0.4660 0.5646 -0.6812
vn -0.5873 0.7115 -0.3857
vn -0.6329 0.7668 0.1073
vn -0.5873 0.7115 0.3857
vn -0.4660 0.5646 0.6812
vn -0.3200 0.3877 0.8645
vn -0.1752 0.2123 0.9614
vn -0.0690 0.0837 0.9941
vn -0.1483 0.0400 0.9881
vn -0.0001 0.2961 -0.9551
vn -0.0002 0.5771 -0.8167
vn -0.0003 0.8028 -0.5963
vn -0.0004 0.9492 -0.3146
vn -0.0004 0.9968 -0.0795
vn -0.6329 0.7668 -0.1073
vn -0.0004 0.9968 0.0795
vn -0.0004 0.9492 0.3146
vn -0.0003 0.8028 0.5963
vn -0.0002 0.5771 0.8167
vn -0.0001 0.2961 0.9551
vn -0.0370 0.1509 -0.9879
vn -0.0001 0.1553 -0.9879
vn -0.0705 0.2879 -0.9551
vn -0.1374 0.5608 -0.8165
vn -0.1910 0.7799 -0.5961
vn -0.2258 0.9220 -0.3145
vn -0.2371 0.9682 0.0795
vn -0.2258 0.9220 0.3145
vn -0.1910 0.7799 0.5961
vn -0.1374 0.5608 0.8165
vn -0.0705 0.2879 0.9551
vn -0.0370 0.1509 0.9879
vn -0.0001 0.1553 0.9879
vn 0.0492 0.0559 -0.9972
vn 0.1365 0.1553 -0.9784
vn 0.2566 0.2920 -0.9213
vn 0.4079 0.4642 -0.7862
vn -0.2371 0.9682 -0.0795
vn 0.5768 0.6563 -0.4864
vn 0.6528 0.7428 0.1485
vn 0.5768 0.6563 0.4864
vn 0.4079 0.4642 0.7862
vn 0.2566 0.2920 0.9213
vn 0.1365 0.1553 0.9784
vn 0.0492 0.0559 0.9972
vn 0.2435 -0.2044 -0.9481
vn 0.4409 -0.3701 -0.8177
vn 0.6086 -0.5108 -0.6072
vn 0.7242 -0.6079 -0.3255
vn 0.7631 -0.6405 -0.0856
vn 0.6528 0.7428 -0.1485
vn 0.7631 -0.6405 0.0856
vn 0.7242 -0.6079 0.3255
vn 0.6086 -0.5108 0.6072
vn 0.4409 -0.3701 0.8177
vn 0.2435 -0.2044 0.9481
vn 0.0481 -0.3189 -0.9466
vn 0.1072 -0.0900 -0.9902
vn 0.0883 -0.5854 -0.8059
vn 0.1206 -0.7999 -0.5878
vn 0.1417 -0.9400 -0.3103
vn 0.1486 -0.9857 -0.0800
vn 0.1486 -0.9857 0.0800
vn 0.1417 -0.9400 0.3103
vn 0.1206 -0.7999 0.5878
vn 0.0883 -0.5854 0.8059
vn 0.1072 -0.0900 0.9902
vn 0.0481 -0.3189 0.9466
vn -0.9375 0.2973 -0.1811
vn 0.0226 -0.1498 -0.9885
vn -0.9819 0.1032 -0.1588
vn -0.9931 0.0141 -0.1164
vn -0.9976 -0.0323 -0.0614
vn -1.0000 0.0027 -0.0079
vn -1.0000 0.0028 0.0079
vn -0.9976 -0.0323 0.0614
vn -0.9931 0.0142 0.1164
vn -0.9819 0.1032 0.1588
vn 0.0226 -0.1498 0.9885
vn -0.9375 0.2974 0.1806
vn 0.0785 -0.0843 -0.9933
vn -0.0082 -0.1560 -0.9877
vn 0.5585 0.8113 -0.1726
vn 0.6826 0.7124 -0.1627
vn 0.7413 0.6579 -0.1333
vn 0.7802 0.6206 -0.0786
vn 0.7645 0.6445 0.0106
vn 0.7802 0.6206 0.0786
vn 0.7413 0.6579 0.1333
vn 0.6826 0.7124 0.1627
vn 0.5585 0.8113 0.1726
vn -0.0082 -0.1560 0.9877
vn 0.0891 0.1028 -0.9907
vn 0.2254 0.2601 -0.9389
vn 0.3847 0.4441 -0.8092
vn 0.5599 0.6463 -0.5185
vn 0.6485 0.7486 -0.1382
vn 0.7645 0.6445 -0.0106
vn 0.6485 0.7486 0.1382
vn 0.5599 0.6463 0.5185
vn 0.3847 0.4441 0.8092
vn 0.2254 0.2601 0.9389
vn 0.0785 -0.0843 0.9933
vn 0.0891 0.1028 0.9907
vn 0.0380 0.1328 -0.9904
vn 0.0618 0.0714 -0.9955
vn 0.0870 0.3041 -0.9487
vn 0.1575 0.5503 -0.8200
vn 0.2179 0.7613 -0.6107
vn 0.2599 0.9081 -0.3283
vn 0.2741 0.9578 -0.0866
vn 0.2599 0.9081 0.3283
vn 0.2179 0.7613 0.6107
vn 0.1575 0.5503 0.8200
vn 0.0870 0.3041 0.9487
vn 0.0380 0.1328 0.9904
vn 0.0618 0.0714 0.9955
vn 0.1096 -0.0003 -0.9940
vn 0.2771 -0.0007 -0.9608
vn 0.5057 -0.0012 -0.8627
vn 0.7348 -0.0018 -0.6783
vn 0.9237 -0.0022 -0.3832
vn 0.9943 -0.0024 0.1064
vn 0.2741 0.9578 0.0866
vn 0.9237 -0.0022 0.3832
vn 0.7348 -0.0018 0.6783
vn 0.5057 -0.0012 0.8627
vn 0.2771 -0.0007 0.9608
vn 0.1096 -0.0003 0.9940
vn 0.0089 -0.2883 -0.9575
vn 0.0162 -0.5241 -0.8515
vn 0.0232 -0.7509 -0.6600
vn 0.0287 -0.9294 -0.3678
vn 0.0307 -0.9944 -0.1007
vn 0.9943 -0.0024 -0.1064
vn 0.0307 -0.9944 0.1007
vn 0.0287 -0.9294 0.3678
vn 0.0232 -0.7509 0.6600
vn 0.0162 -0.5241 0.8515
vn 0.0089 -0.2884 0.9575
vn -0.1148 -0.0138 -0.9933
vn 0.0036 -0.1165 -0.9932
vn -0.2850 -0.0342 -0.9579
vn -0.5182 -0.0623 -0.8530
vn -0.7438 -0.0894 -0.6624
vn -0.9225 -0.1108 -0.3698
vn -0.9877 -0.1187 0.1014
vn -0.9225 -0.1109 0.3698
vn -0.7438 -0.0894 0.6624
vn -0.5182 -0.0623 0.8530
vn -0.2850 -0.0342 0.9579
vn -0.1148 -0.0138 0.9933
vn 0.0036 -0.1165 0.9932
vn -0.0101 0.1037 -0.9946
vn -0.0258 0.2664 -0.9635
vn -0.0473 0.4880 -0.8715
vn -0.0696 0.7175 -0.6931
vn -0.9877 -0.1187 -0.1014
vn -0.0886 0.9139 -0.3961
vn -0.0959 0.9892 -0.1112
vn -0.0886 0.9139 0.3961
vn -0.0696 0.7175 0.6931
vn -0.0473 0.4880 0.8715
vn -0.0258 0.2664 0.9635
vn -0.0101 0.1037 0.9946
vn -0.0959 0.9892 0.1112
vt 0.666667 0.000000
vt 0.625000 0.000000
vt 0.375000 0.000000
vt 0.291667 0.000000
vt 0.250000 0.000000
vt 0.208333 0.000000
vt 0.333333 0.000000
vt 0.708333 0.000000
vt 0.458333 0.000000
vt 0.416667 0.000000
vt 0.541667 0.000000
vt 0.500000 0.000000
vt 0.083333 0.000000
vt 0.833333 0.000000
vt 0.791667 0.000000
vt 0.125000 0.000000
vt 0.750000 0.000000
vt 0.166667 0.000000
vt 0.583333 0.000000
vt 0.958333 0.000000
vt 1.000000 0.000000
vt 0.000000 0.000000
vt 0.875000 0.000000
vt 0.916667 0.000000
vt 0.041667 0.000000
vt 0.043478 0.090909
vt 0.000000 0.090909
vt 0.043478 0.181818
vt 0.000000 0.181818
vt 0.043478 0.272727
vt 0.000000 0.272727
vt 0.043478 0.363636
vt 0.000000 0.363636
vt 0.043478 0.454545
vt 0.000000 0.454545
vt 0.043478 0.545455
vt 0.000000 0.545455
vt 0.000000 0.636364
vt 0.000000 0.727273
vt 0.043478 0.636364
vt 0.000000 0.818182
vt 0.043478 0.727273
vt 0.000000 0.909091
vt 0.043478 0.818182
vt 0.000000 1.000000
vt 0.043478 0.909091
vt 0.086957 0.000000
vt 0.043478 0.000000
vt 0.086957 0.090909
vt 0.086957 0.181818
vt 0.086957 0.272727
vt 0.086957 0.363636
vt 0.086957 0.545455
vt 0.086957 0.636364
vt 0.086957 0.727273
vt 0.086957 0.818182
vt 0.086957 0.909091
vt 0.086957 1.000000
vt 0.043478 1.000000
vt 0.130435 0.000000
vt 0.130435 0.090909
vt 0.130435 0.181818
vt 0.130435 0.272727
vt 0.086957 0.454545
vt 0.130435 0.363636
vt 0.130435 0.545455
vt 0.130435 0.636364
vt 0.130435 0.727273
vt 0.130435 0.818182
vt 0.130435 0.909091
vt 0.130435 1.000000
vt 0.173913 0.000000
vt 0.173913 0.090909
vt 0.173913 0.181818
vt 0.173913 0.272727
vt 0.130435 0.454545
vt 0.173913 0.363636
vt 0.173913 0.545455
vt 0.173913 0.636364
vt 0.173913 0.727273
vt 0.173913 0.818182
vt 0.173913 0.909091
vt 0.173913 1.000000
vt 0.217391 0.000000
vt 0.217391 0.090909
vt 0.217391 0.181818
vt 0.217391 0.272727
vt 0.173913 0.454545
vt 0.217391 0.363636
vt 0.217391 0.545455
vt 0.217391 0.636364
vt 0.217391 0.727273
vt 0.217391 0.818182
vt 0.217391 0.909091
vt 0.217391 1.000000
vt 0.260870 0.000000
vt 0.260870 0.090909
vt 0.260870 0.181818
vt 0.260870 0.272727
vt 0.217391 0.454545
vt 0.260870 0.363636
vt 0.260870 0.545455
vt 0.260870 0.636364
vt 0.260870 0.727273
vt 0.260870 0.818182
vt 0.260870 0.909091
vt 0.260870 1.000000
vt 0.304348 0.090909
vt 0.304348 0.181818
vt 0.304348 0.272727
vt 0.304348 0.363636
vt 0.304348 0.454545
vt 0.260870 0.454545
vt 0.304348 0.545455
vt 0.304348 0.636364
vt 0.304348 0.727273
vt 0.304348 0.818182
vt 0.304348 0.909091
vt 0.347826 0.090909
vt 0.304348 0.000000
vt 0.347826 0.181818
vt 0.347826 0.272727
vt 0.347826 0.363636
vt 0.347826 0.454545
vt 0.347826 0.545455
vt 0.347826 0.636364
vt 0.347826 0.727273
vt 0.347826 0.818182
vt 0.304348 1.000000
vt 0.347826 0.909091
vt 0.391304 0.000000
vt 0.347826 0.000000
vt 0.391304 0.090909
vt 0.391304 0.181818
vt 0.391304 0.272727
vt 0.391304 0.363636
vt 0.391304 0.545455
vt 0.391304 0.636364
vt 0.391304 0.727273
vt 0.391304 0.818182
vt 0.391304 0.909091
vt 0.391304 1.000000
vt 0.347826 1.000000
vt 0.434783 0.090909
vt 0.434783 0.181818
vt 0.434783 0.272727
vt 0.434783 0.363636
vt 0.434783 0.454545
vt 0.391304 0.454545
vt 0.434783 0.545455
vt 0.434783 0.636364
vt 0.434783 0.727273
vt 0.434783 0.818182
vt 0.434783 0.909091
vt 0.478261 0.000000
vt 0.434783 0.000000
vt 0.478261 0.090909
vt 0.478261 0.181818
vt 0.478261 0.272727
vt 0.478261 0.363636
vt 0.478261 0.545455
vt 0.478261 0.636364
vt 0.478261 0.727273
vt 0.478261 0.818182
vt 0.478261 0.909091
vt 0.478261 1.000000
vt 0.434783 1.000000
vt 0.521739 0.000000
vt 0.521739 0.090909
vt 0.521739 0.181818
vt 0.521739 0.272727
vt 0.478261 0.454545
vt 0.521739 0.363636
vt 0.521739 0.545455
vt 0.521739 0.636364
vt 0.521739 0.727273
vt 0.521739 0.818182
vt 0.521739 0.909091
vt 0.521739 1.000000
vt 0.565217 0.090909
vt 0.565217 0.181818
vt 0.565217 0.272727
vt 0.565217 0.363636
vt 0.565217 0.454545
vt 0.521739 0.454545
vt 0.565217 0.545455
vt 0.565217 0.636364
vt 0.565217 0.727273
vt 0.565217 0.818182
vt 0.565217 0.909091
vt 0.608696 0.090909
vt 0.565217 0.000000
vt 0.608696 0.181818
vt 0.608696 0.272727
vt 0.608696 0.363636
vt 0.608696 0.454545
vt 0.608696 0.545455
vt 0.608696 0.636364
vt 0.608696 0.727273
vt 0.608696 0.818182
vt 0.565217 1.000000
vt 0.608696 0.909091
vt 0.652174 0.090909
vt 0.608696 0.000000
vt 0.652174 0.181818
vt 0.652174 0.272727
vt 0.652174 0.363636
vt 0.652174 0.454545
vt 0.652174 0.545455
vt 0.652174 0.636364
vt 0.652174 0.727273
vt 0.652174 0.818182
vt 0.608696 1.000000
vt 0.652174 0.909091
vt 0.695652 0.000000
vt 0.652174 0.000000
vt 0.695652 0.090909
vt 0.695652 0.181818
vt 0.695652 0.272727
vt 0.695652 0.363636
vt 0.695652 0.545455
vt 0.695652 0.636364
vt 0.695652 0.727273
vt 0.695652 0.818182
vt 0.695652 0.909091
vt 0.652174 1.000000
vt 0.739130 0.090909
vt 0.739130 0.181818
vt 0.739130 0.272727
vt 0.739130 0.363636
vt 0.739130 0.454545
vt 0.695652 0.454545
vt 0.739130 0.545455
vt 0.739130 0.636364
vt 0.739130 0.727273
vt 0.739130 0.818182
vt 0.695652 1.000000
vt 0.739130 0.909091
vt 0.782609 0.000000
vt 0.739130 0.000000
vt 0.782609 0.090909
vt 0.782609 0.181818
vt 0.782609 0.272727
vt 0.782609 0.363636
vt 0.782609 0.454545
vt 0.782609 0.636364
vt 0.782609 0.727273
vt 0.782609 0.818182
vt 0.782609 0.909091
vt 0.782609 1.000000
vt 0.739130 1.000000
vt 0.826087 0.000000
vt 0.826087 0.090909
vt 0.826087 0.181818
vt 0.826087 0.272727
vt 0.826087 0.363636
vt 0.826087 0.545455
vt 0.782609 0.545455
vt 0.826087 0.636364
vt 0.826087 0.727273
vt 0.826087 0.818182
vt 0.826087 0.909091
vt 0.826087 1.000000
vt 0.869565 0.090909
vt 0.869565 0.181818
vt 0.869565 0.272727
vt 0.869565 0.363636
vt 0.869565 0.454545
vt 0.826087 0.454545
vt 0.869565 0.545455
vt 0.869565 0.636364
vt 0.869565 0.727273
vt 0.869565 0.818182
vt 0.869565 0.909091
vt 0.913043 0.000000
vt 0.869565 0.000000
vt 0.913043 0.090909
vt 0.913043 0.181818
vt 0.913043 0.272727
vt 0.913043 0.363636
vt 0.913043 0.545455
vt 0.913043 0.636364
vt 0.913043 0.727273
vt 0.913043 0.818182
vt 0.913043 0.909091
vt 0.913043 1.000000
vt 0.869565 1.000000
vt 0.956522 0.000000
vt 0.956522 0.090909
vt 0.956522 0.181818
vt 0.956522 0.272727
vt 0.913043 0.454545
vt 0.956522 0.363636
vt 0.956522 0.454545
vt 0.956522 0.636364
vt 0.956522 0.727273
vt 0.956522 0.818182
vt 0.956522 0.909091
vt 0.956522 1.000000
vt 1.000000 0.090909
vt 1.000000 0.181818
vt 1.000000 0.272727
vt 1.000000 0.363636
vt 1.000000 0.454545
vt 0.956522 0.545455
vt 1.000000 0.545455
vt 1.000000 0.636364
vt 1.000000 0.727273
vt 1.000000 0.818182
vt 1.000000 0.909091
vt 1.000000 1.000000
s 0
usemtl マテリアル.023
f 17/1/1 16/2/1 10/3/1
f 8/4/1 7/5/1 6/6/1
f 9/7/1 8/4/1 6/6/1
f 6/6/1 18/8/1 9/7/1
f 18/8/1 17/1/1 9/7/1
f 17/1/1 10/3/1 9/7/1
f 12/9/1 11/10/1 14/11/1
f 14/11/1 13/12/1 12/9/1
f 3/13/1 21/14/1 20/15/1
f 20/15/1 4/16/1 3/13/1
f 19/17/1 5/18/1 4/16/1
f 4/16/1 20/15/1 19/17/1
f 14/11/1 11/10/1 15/19/1
f 21/14/1 3/13/1 24/20/1
f 25/21/1 1/22/1 22/23/1
f 23/24/1 22/23/1 1/22/1
f 18/8/1 6/6/1 5/18/1
f 5/18/1 19/17/1 18/8/1
f 15/19/1 11/10/1 16/2/1
f 10/3/1 16/2/1 11/10/1
f 2/25/1 24/20/1 25/21/1
f 42/1/2 35/3/2 41/2/2
f 33/4/2 31/6/2 32/5/2
f 34/7/2 31/6/2 33/4/2
f 31/6/2 34/7/2 43/8/2
f 43/8/2 34/7/2 42/1/2
f 42/1/2 34/7/2 35/3/2
f 37/9/2 39/11/2 36/10/2
f 39/11/2 37/9/2 38/12/2
f 28/13/2 45/15/2 46/14/2
f 45/15/2 28/13/2 29/16/2
f 44/17/2 29/16/2 30/18/2
f 29/16/2 44/17/2 45/15/2
f 39/11/2 40/19/2 36/10/2
f 46/14/2 49/20/2 28/13/2
f 50/21/2 47/23/2 26/22/2
f 48/24/2 26/22/2 47/23/2
f 43/8/2 30/18/2 31/6/2
f 30/18/2 43/8/2 44/17/2
f 40/19/2 41/2/2 36/10/2
f 35/3/2 36/10/2 41/2/2
f 27/25/2 50/21/2 49/20/2
s 1
f 64/26/3 51/22/4 52/27/5
f 65/28/6 52/27/5 53/29/7
f 66/30/8 53/29/7 54/31/9
f 67/32/10 54/31/9 55/33/11
f 68/34/12 55/33/11 56/35/13
f 69/36/14 56/35/13 57/37/15
f 58/38/16 69/36/14 57/37/15
f 59/39/17 70/40/18 58/38/16
f 60/41/19 71/42/20 59/39/17
f 61/43/21 72/44/22 60/41/19
f 62/45/23 73/46/24 61/43/21
f 64/26/3 75/47/25 63/48/26
f 65/28/6 76/49/27 64/26/3
f 66/30/8 77/50/28 65/28/6
f 67/32/10 78/51/29 66/30/8
f 68/34/12 79/52/30 67/32/10
f 81/53/31 68/34/12 69/36/14
f 82/54/32 69/36/14 70/40/18
f 83/55/33 70/40/18 71/42/20
f 84/56/34 71/42/20 72/44/22
f 85/57/35 72/44/22 73/46/24
f 86/58/36 73/46/24 74/59/37
f 76/49/27 87/60/38 75/47/25
f 77/50/28 88/61/39 76/49/27
f 78/51/29 89/62/40 77/50/28
f 79/52/30 90/63/41 78/51/29
f 80/64/42 91/65/43 79/52/30
f 93/66/44 80/64/42 81/53/31
f 94/67/45 81/53/31 82/54/32
f 95/68/46 82/54/32 83/55/33
f 96/69/47 83/55/33 84/56/34
f 97/70/48 84/56/34 85/57/35
f 98/71/49 85/57/35 86/58/36
f 88/61/39 99/72/50 87/60/38
f 89/62/40 100/73/51 88/61/39
f 90/63/41 101/74/52 89/62/40
f 91/65/43 102/75/53 90/63/41
f 92/76/54 103/77/55 91/65/43
f 105/78/56 92/76/54 93/66/44
f 106/79/57 93/66/44 94/67/45
f 107/80/58 94/67/45 95/68/46
f 108/81/59 95/68/46 96/69/47
f 109/82/60 96/69/47 97/70/48
f 110/83/61 97/70/48 98/71/49
f 100/73/51 111/84/62 99/72/50
f 101/74/52 112/85/63 100/73/51
f 102/75/53 113/86/64 101/74/52
f 103/77/55 114/87/65 102/75/53
f 104/88/66 115/89/67 103/77/55
f 117/90/68 104/88/66 105/78/56
f 118/91/69 105/78/56 106/79/57
f 119/92/70 106/79/57 107/80/58
f 120/93/71 107/80/58 108/81/59
f 121/94/72 108/81/59 109/82/60
f 122/95/73 109/82/60 110/83/61
f 112/85/63 123/96/74 111/84/62
f 113/86/64 124/97/75 112/85/63
f 114/87/65 125/98/76 113/86/64
f 115/89/67 126/99/77 114/87/65
f 116/100/78 127/101/79 115/89/67
f 129/102/80 116/100/78 117/90/68
f 130/103/81 117/90/68 118/91/69
f 131/104/82 118/91/69 119/92/70
f 132/105/83 119/92/70 120/93/71
f 133/106/84 120/93/71 121/94/72
f 134/107/85 121/94/72 122/95/73
f 136/108/86 123/96/74 124/97/75
f 137/109/87 124/97/75 125/98/76
f 138/110/88 125/98/76 126/99/77
f 139/111/89 126/99/77 127/101/79
f 140/112/90 127/101/79 128/113/91
f 141/114/92 128/113/91 129/102/80
f 130/103/81 141/114/92 129/102/80
f 131/104/82 142/115/93 130/103/81
f 132/105/83 143/116/94 131/104/82
f 133/106/84 144/117/95 132/105/83
f 134/107/85 145/118/96 133/106/84
f 148/119/97 135/120/98 136/108/86
f 149/121/99 136/108/86 137/109/87
f 150/122/100 137/109/87 138/110/88
f 151/123/101 138/110/88 139/111/89
f 152/124/102 139/111/89 140/112/90
f 153/125/103 140/112/90 141/114/92
f 142/115/93 153/125/103 141/114/92
f 143/116/94 154/126/104 142/115/93
f 144/117/95 155/127/105 143/116/94
f 145/118/96 156/128/106 144/117/95
f 146/129/107 157/130/108 145/118/96
f 148/119/97 159/131/109 147/132/110
f 149/121/99 160/133/111 148/119/97
f 150/122/100 161/134/112 149/121/99
f 151/123/101 162/135/113 150/122/100
f 152/124/102 163/136/114 151/123/101
f 165/137/115 152/124/102 153/125/103
f 166/138/116 153/125/103 154/126/104
f 167/139/117 154/126/104 155/127/105
f 168/140/118 155/127/105 156/128/106
f 169/141/119 156/128/106 157/130/108
f 170/142/120 157/130/108 158/143/121
f 172/144/122 159/131/109 160/133/111
f 173/145/123 160/133/111 161/134/112
f 174/146/124 161/134/112 162/135/113
f 175/147/125 162/135/113 163/136/114
f 176/148/126 163/136/114 164/149/127
f 177/150/128 164/149/127 165/137/115
f 166/138/116 177/150/128 165/137/115
f 167/139/117 178/151/129 166/138/116
f 168/140/118 179/152/130 167/139/117
f 169/141/119 180/153/131 168/140/118
f 170/142/120 181/154/132 169/141/119
f 172/144/122 183/155/133 171/156/134
f 173/145/123 184/157/135 172/144/122
f 174/146/124 185/158/136 173/145/123
f 175/147/125 186/159/137 174/146/124
f 176/148/126 187/160/138 175/147/125
f 189/161/139 176/148/126 177/150/128
f 190/162/140 177/150/128 178/151/129
f 191/163/141 178/151/129 179/152/130
f 192/164/142 179/152/130 180/153/131
f 193/165/143 180/153/131 181/154/132
f 194/166/144 181/154/132 182/167/145
f 184/157/135 195/168/146 183/155/133
f 185/158/136 196/169/147 184/157/135
f 186/159/137 197/170/148 185/158/136
f 187/160/138 198/171/149 186/159/137
f 188/172/150 199/173/151 187/160/138
f 201/174/152 188/172/150 189/161/139
f 202/175/153 189/161/139 190/162/140
f 203/176/154 190/162/140 191/163/141
f 204/177/155 191/163/141 192/164/142
f 205/178/156 192/164/142 193/165/143
f 206/179/157 193/165/143 194/166/144
f 208/180/158 195/168/146 196/169/147
f 209/181/159 196/169/147 197/170/148
f 210/182/160 197/170/148 198/171/149
f 211/183/161 198/171/149 199/173/151
f 212/184/162 199/173/151 200/185/163
f 213/186/164 200/185/163 201/174/152
f 202/175/153 213/186/164 201/174/152
f 203/176/154 214/187/165 202/175/153
f 204/177/155 215/188/166 203/176/154
f 205/178/156 216/189/167 204/177/155
f 206/179/157 217/190/168 205/178/156
f 220/191/169 207/192/170 208/180/158
f 221/193/171 208/180/158 209/181/159
f 222/194/172 209/181/159 210/182/160
f 223/195/173 210/182/160 211/183/161
f 224/196/174 211/183/161 212/184/162
f 225/197/175 212/184/162 213/186/164
f 214/187/165 225/197/175 213/186/164
f 215/188/166 226/198/176 214/187/165
f 216/189/167 227/199/177 215/188/166
f 217/190/168 228/200/178 216/189/167
f 218/201/179 229/202/180 217/190/168
f 232/203/181 219/204/182 220/191/169
f 233/205/183 220/191/169 221/193/171
f 234/206/184 221/193/171 222/194/172
f 235/207/185 222/194/172 223/195/173
f 236/208/186 223/195/173 224/196/174
f 237/209/187 224/196/174 225/197/175
f 226/198/176 237/209/187 225/197/175
f 227/199/177 238/210/188 226/198/176
f 228/200/178 239/211/189 227/199/177
f 229/202/180 240/212/190 228/200/178
f 230/213/191 241/214/192 229/202/180
f 232/203/181 243/215/193 231/216/194
f 233/205/183 244/217/195 232/203/181
f 234/206/184 245/218/196 233/205/183
f 235/207/185 246/219/197 234/206/184
f 236/208/186 247/220/198 235/207/185
f 249/221/199 236/208/186 237/209/187
f 250/222/200 237/209/187 238/210/188
f 251/223/201 238/210/188 239/211/189
f 252/224/202 239/211/189 240/212/190
f 253/225/203 240/212/190 241/214/192
f 242/226/204 253/225/203 241/214/192
f 256/227/205 243/215/193 244/217/195
f 257/228/206 244/217/195 245/218/196
f 258/229/207 245/218/196 246/219/197
f 259/230/208 246/219/197 247/220/198
f 260/231/209 247/220/198 248/232/210
f 261/233/211 248/232/210 249/221/199
f 250/222/200 261/233/211 249/221/199
f 251/223/201 262/234/212 250/222/200
f 252/224/202 263/235/213 251/223/201
f 253/225/203 264/236/214 252/224/202
f 254/237/215 265/238/216 253/225/203
f 256/227/205 267/239/217 255/240/218
f 257/228/206 268/241/219 256/227/205
f 258/229/207 269/242/220 257/228/206
f 259/230/208 270/243/221 258/229/207
f 260/231/209 271/244/222 259/230/208
f 261/233/211 272/245/223 260/231/209
f 274/246/224 261/233/211 262/234/212
f 275/247/225 262/234/212 263/235/213
f 276/248/226 263/235/213 264/236/214
f 277/249/227 264/236/214 265/238/216
f 278/250/228 265/238/216 266/251/229
f 268/241/219 279/252/230 267/239/217
f 269/242/220 280/253/231 268/241/219
f 270/243/221 281/254/232 269/242/220
f 271/244/222 282/255/233 270/243/221
f 272/245/223 283/256/234 271/244/222
f 285/257/235 272/245/223 273/258/236
f 286/259/237 273/258/236 274/246/224
f 287/260/238 274/246/224 275/247/225
f 288/261/239 275/247/225 276/248/226
f 289/262/240 276/248/226 277/249/227
f 290/263/241 277/249/227 278/250/228
f 292/264/242 279/252/230 280/253/231
f 293/265/243 280/253/231 281/254/232
f 294/266/244 281/254/232 282/255/233
f 295/267/245 282/255/233 283/256/234
f 296/268/246 283/256/234 284/269/247
f 297/270/248 284/269/247 285/257/235
f 286/259/237 297/270/248 285/257/235
f 287/260/238 298/271/249 286/259/237
f 288/261/239 299/272/250 287/260/238
f 289/262/240 300/273/251 288/261/239
f 290/263/241 301/274/252 289/262/240
f 292/264/242 303/275/253 291/276/254
f 293/265/243 304/277/255 292/264/242
f 294/266/244 305/278/256 293/265/243
f 295/267/245 306/279/257 294/266/244
f 296/268/246 307/280/258 295/267/245
f 309/281/259 296/268/246 297/270/248
f 310/282/260 297/270/248 298/271/249
f 311/283/261 298/271/249 299/272/250
f 312/284/262 299/272/250 300/273/251
f 313/285/263 300/273/251 301/274/252
f 314/286/264 301/274/252 302/287/265
f 304/277/255 315/288/266 303/275/253
f 305/278/256 316/289/267 304/277/255
f 306/279/257 317/290/268 305/278/256
f 307/280/258 318/291/269 306/279/257
f 308/292/270 319/293/271 307/280/258
f 309/281/259 320/294/272 308/292/270
f 322/295/273 309/281/259 310/282/260
f 323/296/274 310/282/260 311/283/261
f 324/297/275 311/283/261 312/284/262
f 325/298/276 312/284/262 313/285/263
f 326/299/277 313/285/263 314/286/264
f 52/300/5 315/288/266 316/289/267
f 53/301/7 316/289/267 317/290/268
f 54/302/9 317/290/268 318/291/269
f 55/303/11 318/291/269 319/293/271
f 56/304/13 319/293/271 320/294/272
f 321/305/278 56/304/13 320/294/272
f 322/295/273 57/306/15 321/305/278
f 323/296/274 58/307/16 322/295/273
f 324/297/275 59/308/17 323/296/274
f 325/298/276 60/309/19 324/297/275
f 326/299/277 61/310/21 325/298/276
f 64/26/3 63/48/26 51/22/4
f 65/28/6 64/26/3 52/27/5
f 66/30/8 65/28/6 53/29/7
f 67/32/10 66/30/8 54/31/9
f 68/34/12 67/32/10 55/33/11
f 69/36/14 68/34/12 56/35/13
f 58/38/16 70/40/18 69/36/14
f 59/39/17 71/42/20 70/40/18
f 60/41/19 72/44/22 71/42/20
f 61/43/21 73/46/24 72/44/22
f 62/45/23 74/59/37 73/46/24
f 64/26/3 76/49/27 75/47/25
f 65/28/6 77/50/28 76/49/27
f 66/30/8 78/51/29 77/50/28
f 67/32/10 79/52/30 78/51/29
f 68/34/12 80/64/42 79/52/30
f 81/53/31 80/64/42 68/34/12
f 82/54/32 81/53/31 69/36/14
f 83/55/33 82/54/32 70/40/18
f 84/56/34 83/55/33 71/42/20
f 85/57/35 84/56/34 72/44/22
f 86/58/36 85/57/35 73/46/24
f 76/49/27 88/61/39 87/60/38
f 77/50/28 89/62/40 88/61/39
f 78/51/29 90/63/41 89/62/40
f 79/52/30 91/65/43 90/63/41
f 80/64/42 92/76/54 91/65/43
f 93/66/44 92/76/54 80/64/42
f 94/67/45 93/66/44 81/53/31
f 95/68/46 94/67/45 82/54/32
f 96/69/47 95/68/46 83/55/33
f 97/70/48 96/69/47 84/56/34
f 98/71/49 97/70/48 85/57/35
f 88/61/39 100/73/51 99/72/50
f 89/62/40 101/74/52 100/73/51
f 90/63/41 102/75/53 101/74/52
f 91/65/43 103/77/55 102/75/53
f 92/76/54 104/88/66 103/77/55
f 105/78/56 104/88/66 92/76/54
f 106/79/57 105/78/56 93/66/44
f 107/80/58 106/79/57 94/67/45
f 108/81/59 107/80/58 95/68/46
f 109/82/60 108/81/59 96/69/47
f 110/83/61 109/82/60 97/70/48
f 100/73/51 112/85/63 111/84/62
f 101/74/52 113/86/64 112/85/63
f 102/75/53 114/87/65 113/86/64
f 103/77/55 115/89/67 114/87/65
f 104/88/66 116/100/78 115/89/67
f 117/90/68 116/100/78 104/88/66
f 118/91/69 117/90/68 105/78/56
f 119/92/70 118/91/69 106/79/57
f 120/93/71 119/92/70 107/80/58
f 121/94/72 120/93/71 108/81/59
f 122/95/73 121/94/72 109/82/60
f 112/85/63 124/97/75 123/96/74
f 113/86/64 125/98/76 124/97/75
f 114/87/65 126/99/77 125/98/76
f 115/89/67 127/101/79 126/99/77
f 116/100/78 128/113/91 127/101/79
f 129/102/80 128/113/91 116/100/78
f 130/103/81 129/102/80 117/90/68
f 131/104/82 130/103/81 118/91/69
f 132/105/83 131/104/82 119/92/70
f 133/106/84 132/105/83 120/93/71
f 134/107/85 133/106/84 121/94/72
f 136/108/86 135/120/98 123/96/74
f 137/109/87 136/108/86 124/97/75
f 138/110/88 137/109/87 125/98/76
f 139/111/89 138/110/88 126/99/77
f 140/112/90 139/111/89 127/101/79
f 141/114/92 140/112/90 128/113/91
f 130/103/81 142/115/93 141/114/92
f 131/104/82 143/116/94 142/115/93
f 132/105/83 144/117/95 143/116/94
f 133/106/84 145/118/96 144/117/95
f 134/107/85 146/129/107 145/118/96
f 148/119/97 147/132/110 135/120/98
f 149/121/99 148/119/97 136/108/86
f 150/122/100 149/121/99 137/109/87
f 151/123/101 150/122/100 138/110/88
f 152/124/102 151/123/101 139/111/89
f 153/125/103 152/124/102 140/112/90
f 142/115/93 154/126/104 153/125/103
f 143/116/94 155/127/105 154/126/104
f 144/117/95 156/128/106 155/127/105
f 145/118/96 157/130/108 156/128/106
f 146/129/107 158/143/121 157/130/108
f 148/119/97 160/133/111 159/131/109
f 149/121/99 161/134/112 160/133/111
f 150/122/100 162/135/113 161/134/112
f 151/123/101 163/136/114 162/135/113
f 152/124/102 164/149/127 163/136/114
f 165/137/115 164/149/127 152/124/102
f 166/138/116 165/137/115 153/125/103
f 167/139/117 166/138/116 154/126/104
f 168/140/118 167/139/117 155/127/105
f 169/141/119 168/140/118 156/128/106
f 170/142/120 169/141/119 157/130/108
f 172/144/122 171/156/134 159/131/109
f 173/145/123 172/144/122 160/133/111
f 174/146/124 173/145/123 161/134/112
f 175/147/125 174/146/124 162/135/113
f 176/148/126 175/147/125 163/136/114
f 177/150/128 176/148/126 164/149/127
f 166/138/116 178/151/129 177/150/128
f 167/139/117 179/152/130 178/151/129
f 168/140/118 180/153/131 179/152/130
f 169/141/119 181/154/132 180/153/131
f 170/142/120 182/167/145 181/154/132
f 172/144/122 184/157/135 183/155/133
f 173/145/123 185/158/136 184/157/135
f 174/146/124 186/159/137 185/158/136
f 175/147/125 187/160/138 186/159/137
f 176/148/126 188/172/150 187/160/138
f 189/161/139 188/172/150 176/148/126
f 190/162/140 189/161/139 177/150/128
f 191/163/141 190/162/140 178/151/129
f 192/164/142 191/163/141 179/152/130
f 193/165/143 192/164/142 180/153/131
f 194/166/144 193/165/143 181/154/132
f 184/157/135 196/169/147 195/168/146
f 185/158/136 197/170/148 196/169/147
f 186/159/137 198/171/149 197/170/148
f 187/160/138 199/173/151 198/171/149
f 188/172/150 200/185/163 199/173/151
f 201/174/152 200/185/163 188/172/150
f 202/175/153 201/174/152 189/161/139
f 203/176/154 202/175/153 190/162/140
f 204/177/155 203/176/154 191/163/141
f 205/178/156 204/177/155 192/164/142
f 206/179/157 205/178/156 193/165/143
f 208/180/158 207/192/170 195/168/146
f 209/181/159 208/180/158 196/169/147
f 210/182/160 209/181/159 197/170/148
f 211/183/161 210/182/160 198/171/149
f 212/184/162 211/183/161 199/173/151
f 213/186/164 212/184/162 200/185/163
f 202/175/153 214/187/165 213/186/164
f 203/176/154 215/188/166 214/187/165
f 204/177/155 216/189/167 215/188/166
f 205/178/156 217/190/168 216/189/167
f 206/179/157 218/201/179 217/190/168
f 220/191/169 219/204/182 207/192/170
f 221/193/171 220/191/169 208/180/158
f 222/194/172 221/193/171 209/181/159
f 223/195/173 222/194/172 210/182/160
f 224/196/174 223/195/173 211/183/161
f 225/197/175 224/196/174 212/184/162
f 214/187/165 226/198/176 225/197/175
f 215/188/166 227/199/177 226/198/176
f 216/189/167 228/200/178 227/199/177
f 217/190/168 229/202/180 228/200/178
f 218/201/179 230/213/191 229/202/180
f 232/203/181 231/216/194 219/204/182
f 233/205/183 232/203/181 220/191/169
f 234/206/184 233/205/183 221/193/171
f 235/207/185 234/206/184 222/194/172
f 236/208/186 235/207/185 223/195/173
f 237/209/187 236/208/186 224/196/174
f 226/198/176 238/210/188 237/209/187
f 227/199/177 239/211/189 238/210/188
f 228/200/178 240/212/190 239/211/189
f 229/202/180 241/214/192 240/212/190
f 230/213/191 242/226/204 241/214/192
f 232/203/181 244/217/195 243/215/193
f 233/205/183 245/218/196 244/217/195
f 234/206/184 246/219/197 245/218/196
f 235/207/185 247/220/198 246/219/197
f 236/208/186 248/232/210 247/220/198
f 249/221/199 248/232/210 236/208/186
f 250/222/200 249/221/199 237/209/187
f 251/223/201 250/222/200 238/210/188
f 252/224/202 251/223/201 239/211/189
f 253/225/203 252/224/202 240/212/190
f 242/226/204 254/237/215 253/225/203
f 256/227/205 255/240/218 243/215/193
f 257/228/206 256/227/205 244/217/195
f 258/229/207 257/228/206 245/218/196
f 259/230/208 258/229/207 246/219/197
f 260/231/209 259/230/208 247/220/198
f 261/233/211 260/231/209 248/232/210
f 250/222/200 262/234/212 261/233/211
f 251/223/201 263/235/213 262/234/212
f 252/224/202 264/236/214 263/235/213
f 253/225/203 265/238/216 264/236/214
f 254/237/215 266/251/229 265/238/216
f 256/227/205 268/241/219 267/239/217
f 257/228/206 269/242/220 268/241/219
f 258/229/207 270/243/221 269/242/220
f 259/230/208 271/244/222 270/243/221
f 260/231/209 272/245/223 271/244/222
f 261/233/211 273/258/236 272/245/223
f 274/246/224 273/258/236 261/233/211
f 275/247/225 274/246/224 262/234/212
f 276/248/226 275/247/225 263/235/213
f 277/249/227 276/248/226 264/236/214
f 278/250/228 277/249/227 265/238/216
f 268/241/219 280/253/231 279/252/230
f 269/242/220 281/254/232 280/253/231
f 270/243/221 282/255/233 281/254/232
f 271/244/222 283/256/234 282/255/233
f 272/245/223 284/269/247 283/256/234
f 285/257/235 284/269/247 272/245/223
f 286/259/237 285/257/235 273/258/236
f 287/260/238 286/259/237 274/246/224
f 288/261/239 287/260/238 275/247/225
f 289/262/240 288/261/239 276/248/226
f 290/263/241 289/262/240 277/249/227
f 292/264/242 291/276/254 279/252/230
f 293/265/243 292/264/242 280/253/231
f 294/266/244 293/265/243 281/254/232
f 295/267/245 294/266/244 282/255/233
f 296/268/246 295/267/245 283/256/234
f 297/270/248 296/268/246 284/269/247
f 286/259/237 298/271/249 297/270/248
f 287/260/238 299/272/250 298/271/249
f 288/261/239 300/273/251 299/272/250
f 289/262/240 301/274/252 300/273/251
f 290/263/241 302/287/265 301/274/252
f 292/264/242 304/277/255 303/275/253
f 293/265/243 305/278/256 304/277/255
f 294/266/244 306/279/257 305/278/256
f 295/267/245 307/280/258 306/279/257
f 296/268/246 308/292/270 307/280/258
f 309/281/259 308/292/270 296/268/246
f 310/282/260 309/281/259 297/270/248
f 311/283/261 310/282/260 298/271/249
f 312/284/262 311/283/261 299/272/250
f 313/285/263 312/284/262 300/273/251
f 314/286/264 313/285/263 301/274/252
f 304/277/255 316/289/267 315/288/266
f 305/278/256 317/290/268 316/289/267
f 306/279/257 318/291/269 317/290/268
f 307/280/258 319/293/271 318/291/269
f 308/292/270 320/294/272 319/293/271
f 309/281/259 321/305/278 320/294/272
f 322/295/273 321/305/278 309/281/259
f 323/296/274 322/295/273 310/282/260
f 324/297/275 323/296/274 311/283/261
f 325/298/276 324/297/275 312/284/262
f 326/299/277 325/298/276 313/285/263
f 52/300/5 51/21/4 315/288/266
f 53/301/7 52/300/5 316/289/267
f 54/302/9 53/301/7 317/290/268
f 55/303/11 54/302/9 318/291/269
f 56/304/13 55/303/11 319/293/271
f 321/305/278 57/306/15 56/304/13
f 322/295/273 58/307/16 57/306/15
f 323/296/274 59/308/17 58/307/16
f 324/297/275 60/309/19 59/308/17
f 325/298/276 61/310/21 60/309/19
f 326/299/277 62/311/23 61/310/21
