# Blender 5.1.0
# www.blender.org
mtllib player_leftArm.mtl
o leftArm
v 0.158335 -0.164160 0.103034
v 0.137599 0.170691 -0.000000
v 0.158335 -0.164160 -0.103034
v 0.243810 -0.147546 0.103034
v 0.243810 -0.147546 -0.103034
v 0.158335 -0.164160 -0.000000
v 0.243810 -0.147546 -0.000000
v 0.158335 -0.164160 0.051517
v 0.243810 -0.147546 0.051517
v 0.158335 -0.164160 -0.051517
v 0.243810 -0.147546 -0.051517
v 0.201072 -0.155853 0.103034
v 0.201072 -0.155853 -0.103034
v 0.201072 -0.155853 -0.000000
v 0.201072 -0.155853 0.051517
v 0.201072 -0.155853 -0.051517
vn 0.1908 -0.9816 -0.0000
vn -0.0300 0.1544 -0.9875
vn -0.0302 0.1544 -0.9875
vn 0.9816 0.1908 -0.0000
vn 0.9816 0.1910 0.0066
vn -0.9816 -0.1908 -0.0000
vn -0.9816 -0.1906 -0.0066
vn -0.0300 0.1544 0.9875
vn -0.0298 0.1545 0.9875
vn -0.9816 -0.1906 0.0066
vn 0.9816 0.1910 -0.0066
vn -0.0302 0.1544 0.9875
vn -0.0298 0.1545 -0.9875
vt 0.750000 0.750000
vt 0.875000 0.687500
vt 0.750000 0.687500
vt 0.375000 1.000000
vt 0.625000 1.000000
vt 0.625000 0.875000
vt 0.375000 0.250000
vt 0.625000 0.250000
vt 0.625000 0.187500
vt 0.375000 0.750000
vt 0.625000 0.750000
vt 0.625000 0.687500
vt 0.375000 0.500000
vt 0.625000 0.500000
vt 0.625000 0.375000
vt 0.375000 0.625000
vt 0.625000 0.625000
vt 0.625000 0.562500
vt 0.375000 0.125000
vt 0.625000 0.125000
vt 0.625000 0.062500
vt 0.750000 0.625000
vt 0.875000 0.562500
vt 0.750000 0.562500
vt 0.875000 0.500000
vt 0.750000 0.500000
vt 0.375000 0.562500
vt 0.375000 0.187500
vt 0.375000 0.062500
vt 0.625000 0.000000
vt 0.375000 0.687500
vt 0.875000 0.625000
vt 0.375000 0.375000
vt 0.375000 0.875000
vt 0.875000 0.750000
s 1
usemtl Material.004
f 13/1/1 11/2/1 16/3/1
f 2/4/2 5/5/3 13/6/2
f 2/7/4 4/8/5 9/9/4
f 2/10/6 3/11/7 10/12/6
f 2/13/8 1/14/9 12/15/8
f 2/16/6 6/17/6 8/18/6
f 2/19/4 7/20/4 11/21/4
f 14/22/1 9/23/1 15/24/1
f 15/24/1 4/25/1 12/26/1
f 2/27/6 8/18/6 1/14/10
f 2/28/4 9/9/4 7/20/4
f 2/29/4 11/21/4 5/30/11
f 2/31/6 10/12/6 6/17/6
f 16/3/1 7/32/1 14/22/1
f 10/12/1 14/22/1 6/17/1
f 8/18/1 12/26/1 1/14/1
f 6/17/1 15/24/1 8/18/1
f 2/33/8 12/15/8 4/8/12
f 2/34/2 13/6/2 3/11/13
f 3/11/1 16/3/1 10/12/1
f 13/1/1 5/35/1 11/2/1
f 14/22/1 7/32/1 9/23/1
f 15/24/1 9/23/1 4/25/1
f 16/3/1 11/2/1 7/32/1
f 10/12/1 16/3/1 14/22/1
f 8/18/1 15/24/1 12/26/1
f 6/17/1 14/22/1 15/24/1
f 3/11/1 13/1/1 16/3/1
