# Blender 5.1.0
# www.blender.org
mtllib 4.mtl
o 4
v 0.024342 -0.192763 0.220000
v 0.024342 -0.121053 0.220000
v -0.164474 -0.121053 0.220000
v -0.164474 -0.088158 0.220000
v 0.059211 0.224342 0.220000
v 0.083553 0.224342 0.220000
v 0.083553 -0.092105 0.220000
v 0.158553 -0.092105 0.220000
v 0.158553 -0.121053 0.220000
v 0.084211 -0.121053 0.220000
v 0.084211 -0.197368 0.220000
v 0.106579 -0.214474 0.220000
v 0.142105 -0.214474 0.220000
v 0.142105 -0.240132 0.220000
v -0.042105 -0.240132 0.220000
v -0.042105 -0.214474 0.220000
v 0.003289 -0.214474 0.220000
v 0.024342 0.131579 0.220000
v -0.134868 -0.092105 0.220000
v 0.024342 -0.092105 0.220000
v 0.024342 -0.192763 -0.220000
v 0.024342 -0.121053 -0.220000
v -0.164474 -0.121053 -0.220000
v -0.164474 -0.088158 -0.220000
v 0.059211 0.224342 -0.220000
v 0.083553 0.224342 -0.220000
v 0.083553 -0.092105 -0.220000
v 0.158553 -0.092105 -0.220000
v 0.158553 -0.121053 -0.220000
v 0.084211 -0.121053 -0.220000
v 0.084211 -0.197368 -0.220000
v 0.106579 -0.214474 -0.220000
v 0.142105 -0.214474 -0.220000
v 0.142105 -0.240132 -0.220000
v -0.042105 -0.240132 -0.220000
v -0.042105 -0.214474 -0.220000
v 0.003289 -0.214474 -0.220000
v 0.024342 0.131579 -0.220000
v -0.134868 -0.092105 -0.220000
v 0.024342 -0.092105 -0.220000
v 0.024342 -0.192763 -0.220000
v 0.018162 -0.190259 -0.219021
v 0.012586 -0.187999 -0.216180
v 0.008162 -0.186206 -0.211756
v 0.005321 -0.185055 -0.206180
v 0.004342 -0.184659 -0.200000
v 0.004342 -0.184659 0.200000
v 0.005321 -0.185055 0.206180
v 0.008162 -0.186206 0.211756
v 0.012586 -0.187999 0.216180
v 0.018162 -0.190259 0.219021
v 0.024342 -0.192763 0.220000
v 0.024342 -0.121053 -0.220000
v 0.018162 -0.127233 -0.219021
v 0.012586 -0.132808 -0.216180
v 0.008162 -0.137233 -0.211756
v 0.005321 -0.140074 -0.206180
v 0.004342 -0.141053 -0.200000
v 0.004342 -0.141053 0.200000
v 0.005321 -0.140074 0.206180
v 0.008162 -0.137233 0.211756
v 0.012586 -0.132808 0.216180
v 0.018162 -0.127233 0.219021
v 0.024342 -0.121053 0.220000
v -0.164474 -0.121053 -0.220000
v -0.170654 -0.127233 -0.219021
v -0.176229 -0.132808 -0.216180
v -0.180654 -0.137233 -0.211756
v -0.183495 -0.140074 -0.206180
v -0.184474 -0.141053 -0.200000
v -0.184474 -0.141053 0.200000
v -0.183495 -0.140074 0.206180
v -0.180654 -0.137233 0.211756
v -0.176229 -0.132808 0.216180
v -0.170654 -0.127233 0.219021
v -0.164474 -0.121053 0.220000
v -0.164474 -0.088158 -0.220000
v -0.170654 -0.086174 -0.219021
v -0.176229 -0.084384 -0.216180
v -0.180654 -0.082964 -0.211756
v -0.183495 -0.082052 -0.206180
v -0.184474 -0.081738 -0.200000
v -0.184474 -0.081738 0.200000
v -0.183495 -0.082052 0.206180
v -0.180654 -0.082964 0.211756
v -0.176229 -0.084384 0.216180
v -0.170654 -0.086174 0.219021
v -0.164474 -0.088158 0.220000
v 0.059211 0.224342 -0.220000
v 0.056034 0.230522 -0.219021
v 0.053168 0.236098 -0.216180
v 0.050894 0.240522 -0.211756
v 0.049434 0.243363 -0.206180
v 0.048931 0.244342 -0.200000
v 0.048931 0.244342 0.200000
v 0.049434 0.243363 0.206180
v 0.050894 0.240522 0.211756
v 0.053168 0.236098 0.216180
v 0.056034 0.230522 0.219021
v 0.059211 0.224342 0.220000
v 0.083553 0.224342 -0.220000
v 0.089733 0.230522 -0.219021
v 0.095308 0.236098 -0.216180
v 0.099733 0.240522 -0.211756
v 0.102574 0.243363 -0.206180
v 0.103553 0.244342 -0.200000
v 0.103553 0.244342 0.200000
v 0.102574 0.243363 0.206180
v 0.099733 0.240522 0.211756
v 0.095308 0.236098 0.216180
v 0.089733 0.230522 0.219021
v 0.083553 0.224342 0.220000
v 0.083553 -0.092105 -0.220000
v 0.089733 -0.085925 -0.219021
v 0.095308 -0.080350 -0.216180
v 0.099733 -0.075925 -0.211756
v 0.102574 -0.073084 -0.206180
v 0.103553 -0.072105 -0.200000
v 0.103553 -0.072105 0.200000
v 0.102574 -0.073084 0.206180
v 0.099733 -0.075925 0.211756
v 0.095308 -0.080350 0.216180
v 0.089733 -0.085925 0.219021
v 0.083553 -0.092105 0.220000
v 0.158553 -0.092105 -0.220000
v 0.164733 -0.085925 -0.219021
v 0.170308 -0.080350 -0.216180
v 0.174733 -0.075925 -0.211756
v 0.177574 -0.073084 -0.206180
v 0.178553 -0.072105 -0.200000
v 0.178553 -0.072105 0.200000
v 0.177574 -0.073084 0.206180
v 0.174733 -0.075925 0.211756
v 0.170308 -0.080350 0.216180
v 0.164733 -0.085925 0.219021
v 0.158553 -0.092105 0.220000
v 0.158553 -0.121053 -0.220000
v 0.164733 -0.127233 -0.219021
v 0.170308 -0.132808 -0.216180
v 0.174733 -0.137233 -0.211756
v 0.177574 -0.140074 -0.206180
v 0.178553 -0.141053 -0.200000
v 0.178553 -0.141053 0.200000
v 0.177574 -0.140074 0.206180
v 0.174733 -0.137233 0.211756
v 0.170308 -0.132808 0.216180
v 0.164733 -0.127233 0.219021
v 0.158553 -0.121053 0.220000
v 0.084211 -0.121053 -0.220000
v 0.090391 -0.127233 -0.219021
v 0.095966 -0.132808 -0.216180
v 0.100391 -0.137233 -0.211756
v 0.103232 -0.140074 -0.206180
v 0.104211 -0.141053 -0.200000
v 0.104211 -0.141053 0.200000
v 0.103232 -0.140074 0.206180
v 0.100391 -0.137233 0.211756
v 0.095966 -0.132808 0.216180
v 0.090391 -0.127233 0.219021
v 0.084211 -0.121053 0.220000
v 0.084211 -0.197368 -0.220000
v 0.090391 -0.194314 -0.219021
v 0.095966 -0.191559 -0.216180
v 0.100391 -0.189373 -0.211756
v 0.103232 -0.187969 -0.206180
v 0.104211 -0.187485 -0.200000
v 0.104211 -0.187485 0.200000
v 0.103232 -0.187969 0.206180
v 0.100391 -0.189373 0.211756
v 0.095966 -0.191559 0.216180
v 0.090391 -0.194314 0.219021
v 0.084211 -0.197368 0.220000
v 0.106579 -0.214474 -0.220000
v 0.108671 -0.208293 -0.219021
v 0.110559 -0.202718 -0.216180
v 0.112057 -0.198293 -0.211756
v 0.113018 -0.195453 -0.206180
v 0.113350 -0.194474 -0.200000
v 0.113350 -0.194474 0.200000
v 0.113018 -0.195453 0.206180
v 0.112057 -0.198293 0.211756
v 0.110559 -0.202718 0.216180
v 0.108671 -0.208293 0.219021
v 0.106579 -0.214474 0.220000
v 0.142105 -0.214474 -0.220000
v 0.148286 -0.208293 -0.219021
v 0.153861 -0.202718 -0.216180
v 0.158286 -0.198293 -0.211756
v 0.161126 -0.195453 -0.206180
v 0.162105 -0.194474 -0.200000
v 0.162105 -0.194474 0.200000
v 0.161126 -0.195453 0.206180
v 0.158286 -0.198293 0.211756
v 0.153861 -0.202718 0.216180
v 0.148286 -0.208293 0.219021
v 0.142105 -0.214474 0.220000
v 0.142105 -0.240132 -0.220000
v 0.148286 -0.246312 -0.219021
v 0.153861 -0.251887 -0.216180
v 0.158286 -0.256312 -0.211756
v 0.161126 -0.259153 -0.206180
v 0.162105 -0.260132 -0.200000
v 0.162105 -0.260132 0.200000
v 0.161126 -0.259153 0.206180
v 0.158286 -0.256312 0.211756
v 0.153861 -0.251887 0.216180
v 0.148286 -0.246312 0.219021
v 0.142105 -0.240132 0.220000
v -0.042105 -0.240132 -0.220000
v -0.048286 -0.246312 -0.219021
v -0.053861 -0.251887 -0.216180
v -0.058286 -0.256312 -0.211756
v -0.061126 -0.259153 -0.206180
v -0.062105 -0.260132 -0.200000
v -0.062105 -0.260132 0.200000
v -0.061126 -0.259153 0.206180
v -0.058286 -0.256312 0.211756
v -0.053861 -0.251887 0.216180
v -0.048286 -0.246312 0.219021
v -0.042105 -0.240132 0.220000
v -0.042105 -0.214474 -0.220000
v -0.048286 -0.208293 -0.219021
v -0.053861 -0.202718 -0.216180
v -0.058286 -0.198293 -0.211756
v -0.061126 -0.195453 -0.206180
v -0.062105 -0.194474 -0.200000
v -0.062105 -0.194474 0.200000
v -0.061126 -0.195453 0.206180
v -0.058286 -0.198293 0.211756
v -0.053861 -0.202718 0.216180
v -0.048286 -0.208293 0.219021
v -0.042105 -0.214474 0.220000
v 0.003289 -0.214474 -0.220000
v 0.000674 -0.208293 -0.219021
v -0.001686 -0.202718 -0.216180
v -0.003559 -0.198293 -0.211756
v -0.004761 -0.195453 -0.206180
v -0.005176 -0.194474 -0.200000
v -0.005176 -0.194474 0.200000
v -0.004761 -0.195453 0.206180
v -0.003559 -0.198293 0.211756
v -0.001686 -0.202718 0.216180
v 0.000674 -0.208293 0.219021
v 0.003289 -0.214474 0.220000
v 0.024342 0.131579 -0.220000
v 0.018162 0.112238 -0.219021
v 0.012586 0.094790 -0.216180
v 0.008162 0.080943 -0.211756
v 0.005321 0.072053 -0.206180
v 0.004342 0.068990 -0.200000
v 0.004342 0.068990 0.200000
v 0.005321 0.072053 0.206180
v 0.008162 0.080943 0.211756
v 0.012586 0.094790 0.216180
v 0.018162 0.112238 0.219021
v 0.024342 0.131579 0.220000
v -0.134868 -0.092105 -0.220000
v -0.122883 -0.085925 -0.219021
v -0.112072 -0.080350 -0.216180
v -0.103491 -0.075925 -0.211756
v -0.097983 -0.073084 -0.206180
v -0.096084 -0.072105 -0.200000
v -0.096084 -0.072105 0.200000
v -0.097983 -0.073084 0.206180
v -0.103491 -0.075925 0.211756
v -0.112072 -0.080350 0.216180
v -0.122883 -0.085925 0.219021
v -0.134868 -0.092105 0.220000
v 0.024342 -0.092105 -0.220000
v 0.018162 -0.085925 -0.219021
v 0.012586 -0.080350 -0.216180
v 0.008162 -0.075925 -0.211756
v 0.005321 -0.073084 -0.206180
v 0.004342 -0.072105 -0.200000
v 0.004342 -0.072105 0.200000
v 0.005321 -0.073084 0.206180
v 0.008162 -0.075925 0.211756
v 0.012586 -0.080350 0.216180
v 0.018162 -0.085925 0.219021
v 0.024342 -0.092105 0.220000
vn -0.0000 -0.0000 1.0000
vn -0.0000 -0.0000 -1.0000
vn -0.1203 -0.1203 -0.9854
vn -0.1346 0.0545 -0.9894
vn -0.2369 0.0960 -0.9668
vn -0.2882 -0.2882 -0.9132
vn -0.4943 0.2003 -0.8459
vn -0.4666 -0.4666 -0.7513
vn -0.7161 0.2902 -0.6349
vn -0.6319 -0.6319 -0.4487
vn -0.8707 0.3528 -0.3428
vn -0.7024 -0.7023 -0.1158
vn -0.9233 0.3742 -0.0863
vn -0.7024 -0.7023 0.1158
vn -0.9233 0.3742 0.0863
vn -0.8707 0.3528 0.3428
vn -0.7161 0.2902 0.6349
vn -0.6319 -0.6319 0.4487
vn -0.4943 0.2003 0.8459
vn -0.4666 -0.4666 0.7513
vn -0.2369 0.0960 0.9668
vn -0.2882 -0.2882 0.9132
vn -0.1346 0.0545 0.9894
vn -0.1203 -0.1203 0.9854
vn -0.0787 -0.0787 -0.9938
vn -0.1980 -0.1980 -0.9600
vn -0.3610 -0.3610 -0.8599
vn -0.5226 -0.5226 -0.6736
vn -0.6543 -0.6543 -0.3793
vn -0.7032 -0.7032 0.1049
vn -0.6543 -0.6543 0.3793
vn -0.5226 -0.5226 0.6736
vn -0.3610 -0.3610 0.8599
vn -0.1980 -0.1980 0.9600
vn -0.0787 -0.0787 0.9938
vn -0.3073 0.0987 -0.9465
vn -0.5614 0.1802 -0.8077
vn -0.7680 0.2465 -0.5912
vn -0.9043 0.2903 -0.3130
vn -0.9490 0.3047 -0.0810
vn -0.7032 -0.7032 -0.1049
vn -0.9490 0.3046 0.0810
vn -0.9043 0.2903 0.3130
vn -0.7680 0.2465 0.5912
vn -0.5614 0.1802 0.8077
vn -0.3073 0.0987 0.9465
vn -0.0638 0.1241 -0.9902
vn -0.1420 0.0456 -0.9888
vn -0.1451 0.2824 -0.9483
vn -0.2628 0.5113 -0.8183
vn -0.3629 0.7061 -0.6081
vn -0.4321 0.8407 -0.3262
vn -0.4555 0.8861 0.0858
vn -0.4321 0.8407 0.3262
vn -0.3629 0.7061 0.6081
vn -0.2628 0.5113 0.8183
vn -0.1451 0.2824 0.9483
vn -0.0638 0.1241 0.9902
vn -0.1420 0.0456 0.9888
vn 0.0787 0.0787 -0.9938
vn 0.1980 0.1980 -0.9600
vn 0.3610 0.3610 -0.8599
vn 0.5226 0.5226 -0.6736
vn -0.4555 0.8861 -0.0858
vn 0.6543 0.6543 -0.3793
vn 0.7032 0.7032 0.1049
vn 0.6543 0.6543 0.3793
vn 0.5226 0.5226 0.6736
vn 0.3610 0.3610 0.8599
vn 0.1980 0.1980 0.9600
vn 0.0787 0.0787 0.9938
vn 0.1203 0.1203 -0.9854
vn 0.2882 0.2882 -0.9132
vn 0.4666 0.4666 -0.7513
vn 0.6319 0.6319 -0.4487
vn 0.7024 0.7023 -0.1158
vn 0.7032 0.7032 -0.1049
vn 0.7024 0.7023 0.1158
vn 0.6319 0.6319 0.4487
vn 0.4666 0.4666 0.7513
vn 0.2882 0.2882 0.9132
vn 0.1203 0.1203 0.9854
vn 0.1980 -0.1980 -0.9600
vn 0.3610 -0.3610 -0.8599
vn 0.5226 -0.5226 -0.6736
vn 0.6543 -0.6543 -0.3792
vn 0.7032 -0.7032 -0.1049
vn 0.7032 -0.7032 0.1049
vn 0.6543 -0.6543 0.3793
vn 0.5226 -0.5226 0.6736
vn 0.3610 -0.3610 0.8599
vn 0.0787 -0.0787 0.9938
vn 0.1203 -0.1203 -0.9854
vn 0.0787 -0.0787 -0.9938
vn 0.2882 -0.2882 -0.9132
vn 0.4666 -0.4666 -0.7513
vn 0.6319 -0.6319 -0.4487
vn 0.7024 -0.7023 -0.1158
vn 0.7024 -0.7023 0.1158
vn 0.6319 -0.6319 0.4487
vn 0.4666 -0.4666 0.7513
vn 0.1980 -0.1980 0.9600
vn 0.2882 -0.2882 0.9132
vn 0.1203 -0.1203 0.9854
vn 0.1260 0.0623 -0.9901
vn 0.2166 0.1070 -0.9704
vn 0.4624 0.2285 -0.8567
vn 0.6806 0.3363 -0.6509
vn 0.8380 0.4141 -0.3554
vn 0.8929 0.4412 0.0895
vn 0.8380 0.4141 0.3554
vn 0.6806 0.3363 0.6509
vn 0.4624 0.2285 0.8567
vn 0.2166 0.1070 0.9704
vn 0.1260 0.0623 0.9901
vn 0.0476 0.1405 -0.9889
vn 0.0853 0.2519 -0.9640
vn 0.1750 0.5168 -0.8380
vn 0.2506 0.7403 -0.6238
vn 0.8929 0.4412 -0.0895
vn 0.3022 0.8927 -0.3344
vn 0.3195 0.9438 0.0842
vn 0.3022 0.8927 0.3344
vn 0.2506 0.7403 0.6238
vn 0.1750 0.5168 0.8380
vn 0.0853 0.2519 0.9640
vn 0.0476 0.1405 0.9889
vn 0.3195 0.9438 -0.0842
vn 0.6543 -0.6543 -0.3793
vn -0.1980 0.1980 -0.9600
vn -0.3610 0.3610 -0.8599
vn -0.5226 0.5226 -0.6736
vn -0.6543 0.6543 -0.3793
vn -0.7032 0.7032 -0.1049
vn -0.7032 0.7032 0.1049
vn -0.5226 0.5226 0.6736
vn -0.3610 0.3610 0.8599
vn -0.1980 0.1980 0.9600
vn -0.0787 0.0787 0.9938
vn -0.0985 0.2328 -0.9675
vn -0.0787 0.0787 -0.9938
vn -0.2066 0.4880 -0.8480
vn -0.3001 0.7091 -0.6380
vn -0.3658 0.8643 -0.3452
vn -0.3883 0.9174 -0.0869
vn -0.3883 0.9174 0.0869
vn -0.6543 0.6543 0.3793
vn -0.3658 0.8643 0.3452
vn -0.3001 0.7091 0.6380
vn -0.2066 0.4880 0.8480
vn -0.0985 0.2328 0.9675
vn -0.0563 0.1329 -0.9895
vn -0.0563 0.1329 0.9895
vn -0.0179 -0.0559 -0.9983
vn 0.0643 0.0332 -0.9974
vn -0.0147 -0.0459 -0.9988
vn -0.0513 -0.1607 -0.9857
vn 0.0857 0.0442 -0.9953
vn -0.0984 -0.3078 -0.9463
vn 0.2314 0.1193 -0.9655
vn -0.1860 -0.5822 -0.7915
vn 0.4205 0.2168 -0.8810
vn -0.2922 -0.9145 -0.2799
vn 0.6875 0.3545 -0.6338
vn 0.8737 0.4506 0.1834
vn -0.2922 -0.9145 0.2799
vn 0.6875 0.3545 0.6338
vn -0.1860 -0.5822 0.7915
vn 0.4205 0.2168 0.8810
vn -0.0984 -0.3078 0.9463
vn 0.2313 0.1193 0.9655
vn -0.0513 -0.1607 0.9857
vn 0.0857 0.0442 0.9953
vn -0.0179 -0.0559 0.9983
vn 0.0643 0.0332 0.9974
vn -0.0147 -0.0459 0.9988
vn -0.1203 0.1203 -0.9854
vn -0.2882 0.2882 -0.9132
vn -0.4666 0.4666 -0.7513
vn 0.8737 0.4505 -0.1834
vn -0.6319 0.6319 -0.4487
vn -0.7024 0.7023 0.1158
vn -0.6319 0.6319 0.4487
vn -0.4666 0.4666 0.7513
vn -0.2882 0.2882 0.9132
vn -0.1203 0.1203 0.9854
vn -0.7023 0.7024 -0.1158
vt 0.157895 0.000000
vt 0.105263 0.000000
vt 0.947368 0.000000
vt 0.789474 0.000000
vt 0.736842 0.000000
vt 0.842105 0.000000
vt 0.052632 0.000000
vt 1.000000 0.000000
vt 0.894737 0.000000
vt 0.578947 0.000000
vt 0.684211 0.000000
vt 0.631579 0.000000
vt 0.421053 0.000000
vt 0.368421 0.000000
vt 0.473684 0.000000
vt 0.315789 0.000000
vt 0.526316 0.000000
vt 0.000000 0.000000
vt 0.263158 0.000000
vt 0.210526 0.000000
vt 0.058824 0.090909
vt 0.000000 0.090909
vt 0.058824 0.181818
vt 0.000000 0.181818
vt 0.058824 0.272727
vt 0.000000 0.272727
vt 0.058824 0.363636
vt 0.000000 0.363636
vt 0.058824 0.454545
vt 0.000000 0.454545
vt 0.058824 0.545455
vt 0.000000 0.545455
vt 0.000000 0.636364
vt 0.000000 0.727273
vt 0.058824 0.636364
vt 0.000000 0.818182
vt 0.058824 0.727273
vt 0.000000 0.909091
vt 0.058824 0.818182
vt 0.000000 1.000000
vt 0.058824 0.909091
vt 0.117647 0.000000
vt 0.058824 0.000000
vt 0.117647 0.090909
vt 0.117647 0.181818
vt 0.117647 0.272727
vt 0.117647 0.363636
vt 0.117647 0.545455
vt 0.117647 0.636364
vt 0.117647 0.727273
vt 0.117647 0.818182
vt 0.117647 0.909091
vt 0.117647 1.000000
vt 0.058824 1.000000
vt 0.176471 0.090909
vt 0.176471 0.181818
vt 0.176471 0.272727
vt 0.176471 0.363636
vt 0.176471 0.454545
vt 0.117647 0.454545
vt 0.176471 0.545455
vt 0.176471 0.636364
vt 0.176471 0.727273
vt 0.176471 0.818182
vt 0.176471 0.909091
vt 0.235294 0.000000
vt 0.176471 0.000000
vt 0.235294 0.090909
vt 0.235294 0.181818
vt 0.235294 0.272727
vt 0.235294 0.363636
vt 0.235294 0.545455
vt 0.235294 0.636364
vt 0.235294 0.727273
vt 0.235294 0.818182
vt 0.235294 0.909091
vt 0.235294 1.000000
vt 0.176471 1.000000
vt 0.294118 0.000000
vt 0.294118 0.090909
vt 0.294118 0.181818
vt 0.294118 0.272727
vt 0.235294 0.454545
vt 0.294118 0.363636
vt 0.294118 0.545455
vt 0.294118 0.636364
vt 0.294118 0.727273
vt 0.294118 0.818182
vt 0.294118 0.909091
vt 0.294118 1.000000
vt 0.352941 0.090909
vt 0.352941 0.181818
vt 0.352941 0.272727
vt 0.352941 0.363636
vt 0.352941 0.454545
vt 0.294118 0.454545
vt 0.352941 0.545455
vt 0.352941 0.636364
vt 0.352941 0.727273
vt 0.352941 0.818182
vt 0.352941 0.909091
vt 0.411765 0.000000
vt 0.352941 0.000000
vt 0.411765 0.090909
vt 0.411765 0.181818
vt 0.411765 0.272727
vt 0.411765 0.363636
vt 0.411765 0.545455
vt 0.411765 0.636364
vt 0.411765 0.727273
vt 0.411765 0.818182
vt 0.411765 0.909091
vt 0.411765 1.000000
vt 0.352941 1.000000
vt 0.470588 0.090909
vt 0.470588 0.181818
vt 0.470588 0.272727
vt 0.470588 0.363636
vt 0.470588 0.454545
vt 0.411765 0.454545
vt 0.470588 0.545455
vt 0.470588 0.636364
vt 0.470588 0.727273
vt 0.470588 0.818182
vt 0.470588 1.000000
vt 0.529412 0.090909
vt 0.470588 0.000000
vt 0.529412 0.181818
vt 0.529412 0.272727
vt 0.529412 0.363636
vt 0.529412 0.454545
vt 0.529412 0.545455
vt 0.529412 0.636364
vt 0.529412 0.727273
vt 0.470588 0.909091
vt 0.529412 0.818182
vt 0.529412 0.909091
vt 0.588235 0.000000
vt 0.529412 0.000000
vt 0.588235 0.090909
vt 0.588235 0.181818
vt 0.588235 0.272727
vt 0.588235 0.363636
vt 0.588235 0.545455
vt 0.588235 0.636364
vt 0.588235 0.727273
vt 0.588235 0.818182
vt 0.588235 0.909091
vt 0.588235 1.000000
vt 0.529412 1.000000
vt 0.647059 0.000000
vt 0.647059 0.090909
vt 0.647059 0.181818
vt 0.647059 0.272727
vt 0.588235 0.454545
vt 0.647059 0.363636
vt 0.647059 0.545455
vt 0.647059 0.636364
vt 0.647059 0.727273
vt 0.647059 0.818182
vt 0.647059 0.909091
vt 0.647059 1.000000
vt 0.705882 0.000000
vt 0.705882 0.090909
vt 0.705882 0.181818
vt 0.705882 0.272727
vt 0.647059 0.454545
vt 0.705882 0.363636
vt 0.705882 0.545455
vt 0.705882 0.636364
vt 0.705882 0.727273
vt 0.705882 0.818182
vt 0.705882 0.909091
vt 0.705882 1.000000
vt 0.764706 0.000000
vt 0.764706 0.090909
vt 0.764706 0.272727
vt 0.764706 0.363636
vt 0.705882 0.454545
vt 0.764706 0.545455
vt 0.764706 0.636364
vt 0.764706 0.727273
vt 0.764706 0.818182
vt 0.764706 1.000000
vt 0.823529 0.090909
vt 0.823529 0.181818
vt 0.764706 0.181818
vt 0.823529 0.272727
vt 0.823529 0.363636
vt 0.764706 0.454545
vt 0.823529 0.545455
vt 0.823529 0.636364
vt 0.823529 0.818182
vt 0.823529 0.909091
vt 0.764706 0.909091
vt 0.882353 0.090909
vt 0.823529 0.000000
vt 0.882353 0.181818
vt 0.882353 0.272727
vt 0.882353 0.363636
vt 0.882353 0.454545
vt 0.823529 0.454545
vt 0.882353 0.545455
vt 0.882353 0.727273
vt 0.823529 0.727273
vt 0.882353 0.818182
vt 0.882353 0.909091
vt 0.882353 1.000000
vt 0.823529 1.000000
vt 0.941176 0.090909
vt 0.882353 0.000000
vt 0.941176 0.181818
vt 0.941176 0.272727
vt 0.941176 0.363636
vt 0.941176 0.454545
vt 0.941176 0.545455
vt 0.882353 0.636364
vt 0.941176 0.636364
vt 0.941176 0.727273
vt 0.941176 0.818182
vt 0.941176 0.909091
vt 0.941176 0.000000
vt 1.000000 0.090909
vt 1.000000 0.181818
vt 1.000000 0.272727
vt 1.000000 0.363636
vt 1.000000 0.545455
vt 1.000000 0.636364
vt 1.000000 0.727273
vt 1.000000 0.818182
vt 1.000000 0.909091
vt 1.000000 1.000000
vt 0.941176 1.000000
vt 0.333333 0.000000
vt 0.333333 0.090909
vt 0.333333 0.181818
vt 0.333333 0.272727
vt 0.333333 0.363636
vt 0.333333 0.545455
vt 0.333333 0.636364
vt 0.333333 0.727273
vt 0.333333 0.818182
vt 0.333333 0.909091
vt 0.333333 1.000000
vt 0.666667 0.000000
vt 0.666667 0.090909
vt 0.666667 0.181818
vt 0.666667 0.272727
vt 0.333333 0.454545
vt 0.666667 0.363636
vt 0.666667 0.545455
vt 0.666667 0.636364
vt 0.666667 0.727273
vt 0.666667 0.818182
vt 0.666667 0.909091
vt 0.666667 1.000000
vt 1.000000 0.454545
vt 0.666667 0.454545
s 0
usemtl マテリアル.022
f 4/1/1 3/2/1 19/3/1
f 16/4/1 15/5/1 17/6/1
f 19/3/1 3/2/1 2/7/1
f 2/7/1 20/8/1 19/3/1
f 4/1/1 19/3/1 18/9/1
f 12/10/1 14/11/1 13/12/1
f 9/13/1 8/14/1 10/15/1
f 7/16/1 10/15/1 8/14/1
f 17/6/1 15/5/1 14/11/1
f 14/11/1 12/10/1 17/6/1
f 12/10/1 11/17/1 17/6/1
f 1/18/1 17/6/1 11/17/1
f 11/17/1 10/15/1 1/18/1
f 2/7/1 1/18/1 10/15/1
f 10/15/1 7/16/1 2/7/1
f 20/8/1 2/7/1 7/16/1
f 18/9/1 20/8/1 7/16/1
f 18/9/1 7/16/1 6/19/1
f 6/19/1 5/20/1 18/9/1
f 4/1/1 18/9/1 5/20/1
f 24/1/2 39/3/2 23/2/2
f 36/4/2 37/6/2 35/5/2
f 39/3/2 22/7/2 23/2/2
f 22/7/2 39/3/2 40/8/2
f 24/1/2 38/9/2 39/3/2
f 32/10/2 33/12/2 34/11/2
f 29/13/2 30/15/2 28/14/2
f 27/16/2 28/14/2 30/15/2
f 37/6/2 34/11/2 35/5/2
f 34/11/2 37/6/2 32/10/2
f 32/10/2 37/6/2 31/17/2
f 21/18/2 31/17/2 37/6/2
f 31/17/2 21/18/2 30/15/2
f 22/7/2 30/15/2 21/18/2
f 30/15/2 22/7/2 27/16/2
f 40/8/2 27/16/2 22/7/2
f 38/9/2 27/16/2 40/8/2
f 38/9/2 26/19/2 27/16/2
f 26/19/2 38/9/2 25/20/2
f 24/1/2 25/20/2 38/9/2
s 1
f 54/21/3 41/18/4 42/22/5
f 55/23/6 42/22/5 43/24/7
f 56/25/8 43/24/7 44/26/9
f 57/27/10 44/26/9 45/28/11
f 58/29/12 45/28/11 46/30/13
f 59/31/14 46/30/13 47/32/15
f 48/33/16 59/31/14 47/32/15
f 49/34/17 60/35/18 48/33/16
f 50/36/19 61/37/20 49/34/17
f 51/38/21 62/39/22 50/36/19
f 52/40/23 63/41/24 51/38/21
f 54/21/3 65/42/25 53/43/25
f 55/23/6 66/44/26 54/21/3
f 56/25/8 67/45/27 55/23/6
f 57/27/10 68/46/28 56/25/8
f 58/29/12 69/47/29 57/27/10
f 71/48/30 58/29/12 59/31/14
f 72/49/31 59/31/14 60/35/18
f 73/50/32 60/35/18 61/37/20
f 74/51/33 61/37/20 62/39/22
f 75/52/34 62/39/22 63/41/24
f 76/53/35 63/41/24 64/54/35
f 78/55/36 65/42/25 66/44/26
f 79/56/37 66/44/26 67/45/27
f 80/57/38 67/45/27 68/46/28
f 81/58/39 68/46/28 69/47/29
f 82/59/40 69/47/29 70/60/41
f 83/61/42 70/60/41 71/48/30
f 72/49/31 83/61/42 71/48/30
f 73/50/32 84/62/43 72/49/31
f 74/51/33 85/63/44 73/50/32
f 75/52/34 86/64/45 74/51/33
f 76/53/35 87/65/46 75/52/34
f 78/55/36 89/66/47 77/67/48
f 79/56/37 90/68/49 78/55/36
f 80/57/38 91/69/50 79/56/37
f 81/58/39 92/70/51 80/57/38
f 82/59/40 93/71/52 81/58/39
f 95/72/53 82/59/40 83/61/42
f 96/73/54 83/61/42 84/62/43
f 97/74/55 84/62/43 85/63/44
f 98/75/56 85/63/44 86/64/45
f 99/76/57 86/64/45 87/65/46
f 100/77/58 87/65/46 88/78/59
f 90/68/49 101/79/60 89/66/47
f 91/69/50 102/80/61 90/68/49
f 92/70/51 103/81/62 91/69/50
f 93/71/52 104/82/63 92/70/51
f 94/83/64 105/84/65 93/71/52
f 107/85/66 94/83/64 95/72/53
f 108/86/67 95/72/53 96/73/54
f 109/87/68 96/73/54 97/74/55
f 110/88/69 97/74/55 98/75/56
f 111/89/70 98/75/56 99/76/57
f 112/90/71 99/76/57 100/77/58
f 114/91/72 101/79/60 102/80/61
f 115/92/73 102/80/61 103/81/62
f 116/93/74 103/81/62 104/82/63
f 117/94/75 104/82/63 105/84/65
f 118/95/76 105/84/65 106/96/77
f 119/97/78 106/96/77 107/85/66
f 108/86/67 119/97/78 107/85/66
f 109/87/68 120/98/79 108/86/67
f 110/88/69 121/99/80 109/87/68
f 111/89/70 122/100/81 110/88/69
f 112/90/71 123/101/82 111/89/70
f 114/91/72 125/102/60 113/103/60
f 115/92/73 126/104/61 114/91/72
f 116/93/74 127/105/62 115/92/73
f 117/94/75 128/106/63 116/93/74
f 118/95/76 129/107/65 117/94/75
f 131/108/66 118/95/76 119/97/78
f 132/109/67 119/97/78 120/98/79
f 133/110/68 120/98/79 121/99/80
f 134/111/69 121/99/80 122/100/81
f 135/112/70 122/100/81 123/101/82
f 136/113/71 123/101/82 124/114/71
f 138/115/83 125/102/60 126/104/61
f 139/116/84 126/104/61 127/105/62
f 140/117/85 127/105/62 128/106/63
f 141/118/86 128/106/63 129/107/65
f 142/119/87 129/107/65 130/120/77
f 143/121/88 130/120/77 131/108/66
f 144/122/89 131/108/66 132/109/67
f 145/123/90 132/109/67 133/110/68
f 146/124/91 133/110/68 134/111/69
f 135/112/70 146/124/91 134/111/69
f 148/125/92 135/112/70 136/113/71
f 150/126/93 137/127/94 138/115/83
f 151/128/95 138/115/83 139/116/84
f 152/129/96 139/116/84 140/117/85
f 153/130/97 140/117/85 141/118/86
f 154/131/98 141/118/86 142/119/87
f 155/132/99 142/119/87 143/121/88
f 144/122/89 155/132/99 143/121/88
f 145/123/90 156/133/100 144/122/89
f 146/124/91 157/134/101 145/123/90
f 147/135/102 158/136/103 146/124/91
f 148/125/92 159/137/104 147/135/102
f 150/126/93 161/138/105 149/139/94
f 151/128/95 162/140/106 150/126/93
f 152/129/96 163/141/107 151/128/95
f 153/130/97 164/142/108 152/129/96
f 154/131/98 165/143/109 153/130/97
f 167/144/110 154/131/98 155/132/99
f 168/145/111 155/132/99 156/133/100
f 169/146/112 156/133/100 157/134/101
f 170/147/113 157/134/101 158/136/103
f 171/148/114 158/136/103 159/137/104
f 172/149/115 159/137/104 160/150/92
f 162/140/106 173/151/116 161/138/105
f 163/141/107 174/152/117 162/140/106
f 164/142/108 175/153/118 163/141/107
f 165/143/109 176/154/119 164/142/108
f 166/155/120 177/156/121 165/143/109
f 179/157/122 166/155/120 167/144/110
f 180/158/123 167/144/110 168/145/111
f 181/159/124 168/145/111 169/146/112
f 182/160/125 169/146/112 170/147/113
f 183/161/126 170/147/113 171/148/114
f 184/162/127 171/148/114 172/149/115
f 174/152/117 185/163/60 173/151/116
f 175/153/118 186/164/61 174/152/117
f 176/154/119 187/165/62 175/153/118
f 177/156/121 188/166/63 176/154/119
f 178/167/128 189/168/65 177/156/121
f 191/169/66 178/167/128 179/157/122
f 192/170/67 179/157/122 180/158/123
f 193/171/68 180/158/123 181/159/124
f 194/172/69 181/159/124 182/160/125
f 195/173/70 182/160/125 183/161/126
f 196/174/71 183/161/126 184/162/127
f 186/164/61 197/175/94 185/163/60
f 187/165/62 198/176/83 186/164/61
f 200/177/85 187/165/62 188/166/63
f 201/178/129 188/166/63 189/168/65
f 190/179/77 201/178/129 189/168/65
f 203/180/88 190/179/77 191/169/66
f 204/181/89 191/169/66 192/170/67
f 205/182/90 192/170/67 193/171/68
f 206/183/91 193/171/68 194/172/69
f 195/173/70 206/183/91 194/172/69
f 208/184/92 195/173/70 196/174/71
f 210/185/26 197/175/94 198/176/83
f 211/186/27 198/176/83 199/187/84
f 212/188/28 199/187/84 200/177/85
f 213/189/29 200/177/85 201/178/129
f 202/190/87 213/189/29 201/178/129
f 215/191/30 202/190/87 203/180/88
f 216/192/31 203/180/88 204/181/89
f 205/182/90 216/192/31 204/181/89
f 218/193/33 205/182/90 206/183/91
f 219/194/34 206/183/91 207/195/102
f 208/184/92 219/194/34 207/195/102
f 222/196/130 209/197/25 210/185/26
f 223/198/131 210/185/26 211/186/27
f 224/199/132 211/186/27 212/188/28
f 225/200/133 212/188/28 213/189/29
f 226/201/134 213/189/29 214/202/41
f 227/203/135 214/202/41 215/191/30
f 216/192/31 227/203/135 215/191/30
f 229/204/136 216/192/31 217/205/32
f 230/206/137 217/205/32 218/193/33
f 231/207/138 218/193/33 219/194/34
f 232/208/139 219/194/34 220/209/35
f 234/210/140 221/211/141 222/196/130
f 235/212/142 222/196/130 223/198/131
f 236/213/143 223/198/131 224/199/132
f 237/214/144 224/199/132 225/200/133
f 238/215/145 225/200/133 226/201/134
f 239/216/146 226/201/134 227/203/135
f 228/217/147 239/216/146 227/203/135
f 229/204/136 240/218/148 228/217/147
f 230/206/137 241/219/149 229/204/136
f 231/207/138 242/220/150 230/206/137
f 232/208/139 243/221/151 231/207/138
f 234/210/140 41/8/4 233/222/152
f 235/212/142 42/223/5 234/210/140
f 236/213/143 43/224/7 235/212/142
f 237/214/144 44/225/9 236/213/143
f 238/215/145 45/226/11 237/214/144
f 47/227/15 238/215/145 239/216/146
f 48/228/16 239/216/146 240/218/148
f 49/229/17 240/218/148 241/219/149
f 50/230/19 241/219/149 242/220/150
f 51/231/21 242/220/150 243/221/151
f 52/232/23 243/221/151 244/233/153
f 246/22/154 257/234/155 245/18/156
f 247/24/157 258/235/158 246/22/154
f 248/26/159 259/236/160 247/24/157
f 249/28/161 260/237/162 248/26/159
f 250/30/163 261/238/164 249/28/161
f 263/239/165 250/30/163 251/32/166
f 264/240/167 251/32/166 252/33/168
f 265/241/169 252/33/168 253/34/170
f 266/242/171 253/34/170 254/36/172
f 267/243/173 254/36/172 255/38/174
f 268/244/175 255/38/174 256/40/176
f 258/235/158 269/245/141 257/234/155
f 259/236/160 270/246/177 258/235/158
f 260/237/162 271/247/178 259/236/160
f 261/238/164 272/248/179 260/237/162
f 262/249/180 273/250/181 261/238/164
f 275/251/182 262/249/180 263/239/165
f 276/252/183 263/239/165 264/240/167
f 277/253/184 264/240/167 265/241/169
f 278/254/185 265/241/169 266/242/171
f 279/255/186 266/242/171 267/243/173
f 280/256/139 267/243/173 268/244/175
f 246/223/154 269/245/141 270/246/177
f 247/224/157 270/246/177 271/247/178
f 248/225/159 271/247/178 272/248/179
f 249/226/161 272/248/179 273/250/181
f 250/257/163 273/250/181 274/258/187
f 251/227/166 274/258/187 275/251/182
f 276/252/183 251/227/166 275/251/182
f 277/253/184 252/228/168 276/252/183
f 278/254/185 253/229/170 277/253/184
f 279/255/186 254/230/172 278/254/185
f 280/256/139 255/231/174 279/255/186
f 54/21/3 53/43/25 41/18/4
f 55/23/6 54/21/3 42/22/5
f 56/25/8 55/23/6 43/24/7
f 57/27/10 56/25/8 44/26/9
f 58/29/12 57/27/10 45/28/11
f 59/31/14 58/29/12 46/30/13
f 48/33/16 60/35/18 59/31/14
f 49/34/17 61/37/20 60/35/18
f 50/36/19 62/39/22 61/37/20
f 51/38/21 63/41/24 62/39/22
f 52/40/23 64/54/35 63/41/24
f 54/21/3 66/44/26 65/42/25
f 55/23/6 67/45/27 66/44/26
f 56/25/8 68/46/28 67/45/27
f 57/27/10 69/47/29 68/46/28
f 58/29/12 70/60/41 69/47/29
f 71/48/30 70/60/41 58/29/12
f 72/49/31 71/48/30 59/31/14
f 73/50/32 72/49/31 60/35/18
f 74/51/33 73/50/32 61/37/20
f 75/52/34 74/51/33 62/39/22
f 76/53/35 75/52/34 63/41/24
f 78/55/36 77/67/48 65/42/25
f 79/56/37 78/55/36 66/44/26
f 80/57/38 79/56/37 67/45/27
f 81/58/39 80/57/38 68/46/28
f 82/59/40 81/58/39 69/47/29
f 83/61/42 82/59/40 70/60/41
f 72/49/31 84/62/43 83/61/42
f 73/50/32 85/63/44 84/62/43
f 74/51/33 86/64/45 85/63/44
f 75/52/34 87/65/46 86/64/45
f 76/53/35 88/78/59 87/65/46
f 78/55/36 90/68/49 89/66/47
f 79/56/37 91/69/50 90/68/49
f 80/57/38 92/70/51 91/69/50
f 81/58/39 93/71/52 92/70/51
f 82/59/40 94/83/64 93/71/52
f 95/72/53 94/83/64 82/59/40
f 96/73/54 95/72/53 83/61/42
f 97/74/55 96/73/54 84/62/43
f 98/75/56 97/74/55 85/63/44
f 99/76/57 98/75/56 86/64/45
f 100/77/58 99/76/57 87/65/46
f 90/68/49 102/80/61 101/79/60
f 91/69/50 103/81/62 102/80/61
f 92/70/51 104/82/63 103/81/62
f 93/71/52 105/84/65 104/82/63
f 94/83/64 106/96/77 105/84/65
f 107/85/66 106/96/77 94/83/64
f 108/86/67 107/85/66 95/72/53
f 109/87/68 108/86/67 96/73/54
f 110/88/69 109/87/68 97/74/55
f 111/89/70 110/88/69 98/75/56
f 112/90/71 111/89/70 99/76/57
f 114/91/72 113/103/60 101/79/60
f 115/92/73 114/91/72 102/80/61
f 116/93/74 115/92/73 103/81/62
f 117/94/75 116/93/74 104/82/63
f 118/95/76 117/94/75 105/84/65
f 119/97/78 118/95/76 106/96/77
f 108/86/67 120/98/79 119/97/78
f 109/87/68 121/99/80 120/98/79
f 110/88/69 122/100/81 121/99/80
f 111/89/70 123/101/82 122/100/81
f 112/90/71 124/114/71 123/101/82
f 114/91/72 126/104/61 125/102/60
f 115/92/73 127/105/62 126/104/61
f 116/93/74 128/106/63 127/105/62
f 117/94/75 129/107/65 128/106/63
f 118/95/76 130/120/77 129/107/65
f 131/108/66 130/120/77 118/95/76
f 132/109/67 131/108/66 119/97/78
f 133/110/68 132/109/67 120/98/79
f 134/111/69 133/110/68 121/99/80
f 135/112/70 134/111/69 122/100/81
f 136/113/71 135/112/70 123/101/82
f 138/115/83 137/127/94 125/102/60
f 139/116/84 138/115/83 126/104/61
f 140/117/85 139/116/84 127/105/62
f 141/118/86 140/117/85 128/106/63
f 142/119/87 141/118/86 129/107/65
f 143/121/88 142/119/87 130/120/77
f 144/122/89 143/121/88 131/108/66
f 145/123/90 144/122/89 132/109/67
f 146/124/91 145/123/90 133/110/68
f 135/112/70 147/135/102 146/124/91
f 148/125/92 147/135/102 135/112/70
f 150/126/93 149/139/94 137/127/94
f 151/128/95 150/126/93 138/115/83
f 152/129/96 151/128/95 139/116/84
f 153/130/97 152/129/96 140/117/85
f 154/131/98 153/130/97 141/118/86
f 155/132/99 154/131/98 142/119/87
f 144/122/89 156/133/100 155/132/99
f 145/123/90 157/134/101 156/133/100
f 146/124/91 158/136/103 157/134/101
f 147/135/102 159/137/104 158/136/103
f 148/125/92 160/150/92 159/137/104
f 150/126/93 162/140/106 161/138/105
f 151/128/95 163/141/107 162/140/106
f 152/129/96 164/142/108 163/141/107
f 153/130/97 165/143/109 164/142/108
f 154/131/98 166/155/120 165/143/109
f 167/144/110 166/155/120 154/131/98
f 168/145/111 167/144/110 155/132/99
f 169/146/112 168/145/111 156/133/100
f 170/147/113 169/146/112 157/134/101
f 171/148/114 170/147/113 158/136/103
f 172/149/115 171/148/114 159/137/104
f 162/140/106 174/152/117 173/151/116
f 163/141/107 175/153/118 174/152/117
f 164/142/108 176/154/119 175/153/118
f 165/143/109 177/156/121 176/154/119
f 166/155/120 178/167/128 177/156/121
f 179/157/122 178/167/128 166/155/120
f 180/158/123 179/157/122 167/144/110
f 181/159/124 180/158/123 168/145/111
f 182/160/125 181/159/124 169/146/112
f 183/161/126 182/160/125 170/147/113
f 184/162/127 183/161/126 171/148/114
f 174/152/117 186/164/61 185/163/60
f 175/153/118 187/165/62 186/164/61
f 176/154/119 188/166/63 187/165/62
f 177/156/121 189/168/65 188/166/63
f 178/167/128 190/179/77 189/168/65
f 191/169/66 190/179/77 178/167/128
f 192/170/67 191/169/66 179/157/122
f 193/171/68 192/170/67 180/158/123
f 194/172/69 193/171/68 181/159/124
f 195/173/70 194/172/69 182/160/125
f 196/174/71 195/173/70 183/161/126
f 186/164/61 198/176/83 197/175/94
f 187/165/62 199/187/84 198/176/83
f 200/177/85 199/187/84 187/165/62
f 201/178/129 200/177/85 188/166/63
f 190/179/77 202/190/87 201/178/129
f 203/180/88 202/190/87 190/179/77
f 204/181/89 203/180/88 191/169/66
f 205/182/90 204/181/89 192/170/67
f 206/183/91 205/182/90 193/171/68
f 195/173/70 207/195/102 206/183/91
f 208/184/92 207/195/102 195/173/70
f 210/185/26 209/197/25 197/175/94
f 211/186/27 210/185/26 198/176/83
f 212/188/28 211/186/27 199/187/84
f 213/189/29 212/188/28 200/177/85
f 202/190/87 214/202/41 213/189/29
f 215/191/30 214/202/41 202/190/87
f 216/192/31 215/191/30 203/180/88
f 205/182/90 217/205/32 216/192/31
f 218/193/33 217/205/32 205/182/90
f 219/194/34 218/193/33 206/183/91
f 208/184/92 220/209/35 219/194/34
f 222/196/130 221/211/141 209/197/25
f 223/198/131 222/196/130 210/185/26
f 224/199/132 223/198/131 211/186/27
f 225/200/133 224/199/132 212/188/28
f 226/201/134 225/200/133 213/189/29
f 227/203/135 226/201/134 214/202/41
f 216/192/31 228/217/147 227/203/135
f 229/204/136 228/217/147 216/192/31
f 230/206/137 229/204/136 217/205/32
f 231/207/138 230/206/137 218/193/33
f 232/208/139 231/207/138 219/194/34
f 234/210/140 233/222/152 221/211/141
f 235/212/142 234/210/140 222/196/130
f 236/213/143 235/212/142 223/198/131
f 237/214/144 236/213/143 224/199/132
f 238/215/145 237/214/144 225/200/133
f 239/216/146 238/215/145 226/201/134
f 228/217/147 240/218/148 239/216/146
f 229/204/136 241/219/149 240/218/148
f 230/206/137 242/220/150 241/219/149
f 231/207/138 243/221/151 242/220/150
f 232/208/139 244/233/153 243/221/151
f 234/210/140 42/223/5 41/8/4
f 235/212/142 43/224/7 42/223/5
f 236/213/143 44/225/9 43/224/7
f 237/214/144 45/226/11 44/225/9
f 238/215/145 46/257/13 45/226/11
f 47/227/15 46/257/13 238/215/145
f 48/228/16 47/227/15 239/216/146
f 49/229/17 48/228/16 240/218/148
f 50/230/19 49/229/17 241/219/149
f 51/231/21 50/230/19 242/220/150
f 52/232/23 51/231/21 243/221/151
f 246/22/154 258/235/158 257/234/155
f 247/24/157 259/236/160 258/235/158
f 248/26/159 260/237/162 259/236/160
f 249/28/161 261/238/164 260/237/162
f 250/30/163 262/249/180 261/238/164
f 263/239/165 262/249/180 250/30/163
f 264/240/167 263/239/165 251/32/166
f 265/241/169 264/240/167 252/33/168
f 266/242/171 265/241/169 253/34/170
f 267/243/173 266/242/171 254/36/172
f 268/244/175 267/243/173 255/38/174
f 258/235/158 270/246/177 269/245/141
f 259/236/160 271/247/178 270/246/177
f 260/237/162 272/248/179 271/247/178
f 261/238/164 273/250/181 272/248/179
f 262/249/180 274/258/187 273/250/181
f 275/251/182 274/258/187 262/249/180
f 276/252/183 275/251/182 263/239/165
f 277/253/184 276/252/183 264/240/167
f 278/254/185 277/253/184 265/241/169
f 279/255/186 278/254/185 266/242/171
f 280/256/139 279/255/186 267/243/173
f 246/223/154 245/8/156 269/245/141
f 247/224/157 246/223/154 270/246/177
f 248/225/159 247/224/157 271/247/178
f 249/226/161 248/225/159 272/248/179
f 250/257/163 249/226/161 273/250/181
f 251/227/166 250/257/163 274/258/187
f 276/252/183 252/228/168 251/227/166
f 277/253/184 253/229/170 252/228/168
f 278/254/185 254/230/172 253/229/170
f 279/255/186 255/231/174 254/230/172
f 280/256/139 256/232/176 255/231/174
