# Blender 5.1.0
# www.blender.org
mtllib water.mtl
o Cube
v 0.500000 1.000000 -0.500000
v 0.500000 0.000000 -0.500000
v 0.500000 1.000000 0.500000
v 0.500000 0.000000 0.500000
v -0.500000 1.000000 -0.500000
v -0.500000 0.000000 -0.500000
v -0.500000 1.000000 0.500000
v -0.500000 0.000000 0.500000
vn -0.0000 1.0000 -0.0000
vn -0.0000 -0.0000 1.0000
vn -1.0000 -0.0000 -0.0000
vn -0.0000 -1.0000 -0.0000
vn 1.0000 -0.0000 -0.0000
vn -0.0000 -0.0000 -1.0000
vt 0.000087 0.500000
vt 0.250043 0.250043
vt 0.250043 0.500000
vt 0.500000 0.000087
vt 0.500000 0.250043
vt 0.250043 0.999913
vt 0.500000 0.749957
vt 0.500000 0.999913
vt 0.500000 0.500000
vt 0.749957 0.250043
vt 0.749957 0.500000
vt 0.250043 0.749957
vt 0.000087 0.250043
vt 0.250043 0.000087
s 0
usemtl マテリアル
f 5/1/1 3/2/1 1/3/1
f 3/2/2 8/4/2 4/5/2
f 2/9/4 8/10/4 6/11/4
f 5/12/6 2/9/6 6/7/6
f 5/1/1 7/13/1 3/2/1
f 3/2/2 7/14/2 8/4/2
f 2/9/4 4/5/4 8/10/4
f 5/12/6 1/3/6 2/9/6
