# Blender 5.1.0
# www.blender.org
mtllib player_cloneObject_handing.mtl
o cloneObject_handing
v 0.014975 0.138724 0.154242
v -0.025816 -0.053658 0.022481
v 0.012042 0.077145 0.042826
v 0.016394 0.001743 0.013940
v 0.040425 -0.070081 0.031520
v 0.002697 -0.141023 0.083555
v 0.067791 0.075600 0.058834
v 0.096819 -0.011790 0.048557
v 0.088820 -0.097412 0.075487
v 0.025204 0.125091 0.100772
v 0.121297 0.046409 0.093630
v 0.140276 -0.039145 0.111402
v 0.137144 0.050629 0.141234
v 0.115646 -0.108001 0.145875
v 0.153002 -0.026686 0.183646
v 0.095562 0.107601 0.166531
v 0.131813 0.049878 0.211069
v 0.137168 -0.023341 0.231313
v 0.063244 -0.150556 0.149350
v 0.098196 0.044264 0.271007
v 0.102533 -0.109698 0.229020
v 0.029180 -0.026575 0.317927
v 0.080107 -0.036938 0.294706
v 0.061845 0.097645 0.254632
v 0.045972 -0.107223 0.275509
v -0.000309 0.046456 0.308175
v -0.074544 -0.027191 0.300661
v 0.014123 -0.148459 0.232201
v -0.015448 0.111158 0.256639
v -0.038324 -0.097830 0.288105
v 0.025789 0.137194 0.195044
v -0.074204 0.050990 0.287305
v -0.065180 -0.136126 0.229538
v -0.118597 -0.073156 0.241617
v -0.128626 0.072339 0.184340
v -0.033146 -0.157528 0.191510
v -0.085552 0.108038 0.206888
v -0.144644 0.009014 0.213765
v -0.143867 -0.055728 0.183223
v -0.115317 -0.111079 0.160515
v -0.143727 0.016080 0.118931
v -0.037448 0.134795 0.183681
v -0.129566 -0.069273 0.107121
v -0.084666 0.098149 0.101718
v -0.095948 -0.011919 0.045176
v -0.069450 -0.141748 0.123040
v 0.007010 -0.163913 0.160779
v -0.055565 0.124191 0.127207
v -0.049046 -0.097499 0.048678
v -0.061003 0.070889 0.051651
vn 0.0805 -0.2115 -0.9741
vn -0.0089 -0.5094 -0.8605
vn 0.2072 0.7301 -0.6512
vn 0.2674 -0.6583 -0.7036
vn 0.4177 0.2417 -0.8759
vn 0.3795 -0.0982 -0.9200
vn 0.3677 -0.8105 -0.4558
vn 0.8347 0.0718 -0.5460
vn 0.7973 -0.4729 -0.3750
vn 0.5307 0.7653 -0.3642
vn 0.7060 0.6451 -0.2922
vn 0.5363 0.8368 -0.1108
vn 0.9772 0.0968 -0.1888
vn 0.8771 -0.4628 0.1289
vn 0.8201 0.5681 0.0687
vn 0.4683 0.8400 0.2741
vn 0.3958 -0.8817 0.2570
vn 0.7395 0.0315 0.6724
vn 0.6637 0.6713 0.3299
vn 0.3654 -0.7934 0.4868
vn 0.1635 0.8647 0.4750
vn 0.3207 0.4705 0.8221
vn 0.0060 -0.9775 0.2109
vn 0.0827 -0.4504 0.8890
vn -0.1642 0.0651 0.9843
vn -0.1870 0.5849 0.7893
vn -0.1436 -0.7968 0.5869
vn -0.1545 -0.9109 0.3825
vn -0.5482 -0.4106 0.7286
vn -0.3055 0.8750 0.3756
vn -0.6951 0.5364 0.4786
vn -0.0468 0.9977 0.0498
vn -0.8324 -0.5142 0.2068
vn -0.7061 -0.6520 0.2763
vn -0.9216 -0.1746 0.3467
vn -0.4993 -0.8639 0.0656
vn -0.5169 -0.8535 0.0658
vn -0.9684 0.2492 0.0092
vn -0.9773 -0.1402 -0.1587
vn -0.2309 -0.9678 -0.1006
vn -0.6209 0.7790 -0.0870
vn -0.6933 -0.6455 -0.3204
vn -0.8490 -0.0683 -0.5240
vn -0.7232 0.4028 -0.5611
vn -0.7197 0.3506 -0.5993
vn -0.6271 -0.3717 -0.6845
vn -0.1987 0.7899 -0.5802
vn -0.2846 0.1935 -0.9389
vn -0.0969 0.9599 -0.2633
vn -0.1406 0.7783 -0.6120
vn 0.0315 -0.6020 -0.7979
vn 0.2668 0.3582 -0.8947
vn 0.1653 -0.9430 -0.2888
vn 0.5445 -0.2975 -0.7842
vn 0.6285 0.2935 -0.7203
vn 0.7353 -0.2649 -0.6238
vn 0.6178 0.6960 -0.3661
vn 0.5810 -0.7426 -0.3331
vn 0.9356 0.1403 -0.3239
vn 0.3450 0.9307 -0.1216
vn 0.9207 -0.3779 -0.0970
vn 0.6315 -0.7708 0.0839
vn 0.9677 0.2404 0.0765
vn 0.8774 -0.3603 0.3167
vn 0.9411 0.1523 0.3019
vn 0.8468 0.1984 0.4935
vn 0.7385 -0.3120 0.5978
vn 0.2617 -0.9484 0.1791
vn 0.5523 -0.4584 0.6963
vn 0.4364 0.1611 0.8852
vn 0.3153 -0.3895 0.8654
vn 0.3459 0.2601 0.9015
vn 0.1310 0.6362 0.7603
vn 0.0203 -0.7315 0.6815
vn -0.1575 -0.2506 0.9552
vn -0.2588 0.1638 0.9519
vn -0.0954 0.9382 0.3327
vn -0.4302 0.7065 0.5619
vn -0.5354 -0.5732 0.6203
vn -0.7857 -0.0398 0.6173
vn -0.7493 0.1147 0.6522
vn -0.7630 0.4209 0.4906
vn -0.9999 -0.0072 -0.0102
vn -0.4887 0.8724 -0.0070
vn -0.8999 -0.4259 -0.0933
vn -0.6140 0.7861 -0.0717
vn -0.8081 0.5258 -0.2657
vn -0.5946 -0.6086 -0.5253
vn -0.1497 0.9794 -0.1359
vn -0.4409 -0.2766 -0.8539
vn -0.2047 0.8158 -0.5409
vn -0.2915 -0.7848 -0.5470
vn -0.1405 -0.9514 -0.2742
vn -0.2743 0.0610 -0.9597
vn -0.1417 0.3470 -0.9271
vn 0.6765 0.5942 0.4351
vt 0.733968 0.531639
vt 0.703418 0.374010
vt 0.776289 0.413454
vt 0.814300 0.315765
vt 0.687434 0.842616
vt 0.655174 0.685436
vt 0.735448 0.700595
vt 0.625136 0.308542
vt 0.743319 0.184465
vt 0.640730 0.498465
vt 0.543846 0.151198
vt 0.588384 0.620143
vt 0.558226 0.444718
vt 0.530084 0.281839
vt 0.498906 0.780849
vt 0.527845 0.632520
vt 0.596497 0.950869
vt 0.344108 0.893837
vt 0.487185 0.469809
vt 0.416215 0.288089
vt 0.449922 0.634153
vt 0.347223 0.749260
vt 0.284200 0.146293
vt 0.428766 0.476849
vt 0.371137 0.614718
vt 0.336780 0.447196
vt 0.313278 0.283303
vt 0.221959 0.787785
vt 0.253570 0.619562
vt 0.322841 0.023694
vt 0.105261 0.087063
vt 0.272596 0.470646
vt 0.203511 0.321162
vt 0.170573 0.469165
vt 0.163734 0.625012
vt 0.122488 0.214001
vt 0.084237 0.370028
vt 0.061795 0.902583
vt 0.067577 0.782984
vt 0.027869 0.679447
vt 0.109375 1.000000
vt 0.017101 0.406417
vt 0.015588 0.281661
vt 0.052070 0.536262
vt 0.000000 0.145717
vt 1.000000 0.562500
vt 0.987550 0.685434
vt 0.945531 0.552211
vt 0.931725 0.377225
vt 1.000000 0.406417
vt 0.915811 0.178789
vt 0.914931 0.025309
vt 0.984375 0.062500
vt 0.903369 0.855412
vt 0.891220 0.749038
vt 0.983275 0.277996
vt 0.856618 0.503008
vt 0.827720 0.673839
vt 0.635640 0.052855
vt 0.000000 0.500000
vt 1.000000 0.812500
vt 0.970533 0.902583
s 1
usemtl マテリアル.008
f 4/1/1 5/2/1 2/3/1
f 2/3/2 5/2/2 49/4/2
f 10/5/3 7/6/3 3/7/3
f 5/2/4 9/8/4 6/9/4
f 7/6/5 8/10/5 4/1/5
f 4/1/6 8/10/6 5/2/6
f 9/8/7 19/11/7 6/9/7
f 8/10/8 11/12/8 12/13/8
f 9/8/9 12/13/9 14/14/9
f 10/5/10 16/15/10 7/6/10
f 16/15/11 13/16/11 11/12/11
f 10/5/12 1/17/12 31/18/12
f 13/16/13 15/19/13 12/13/13
f 14/14/14 15/19/14 21/20/14
f 13/16/15 16/15/15 17/21/15
f 16/15/16 31/18/16 24/22/16
f 21/20/17 28/23/17 19/11/17
f 18/24/18 20/25/18 23/26/18
f 24/22/19 17/21/19 16/15/19
f 21/20/20 25/27/20 28/23/20
f 31/18/21 29/28/21 24/22/21
f 24/22/22 26/29/22 20/25/22
f 47/30/23 28/23/23 36/31/23
f 25/27/24 22/32/24 30/33/24
f 22/32/25 26/29/25 27/34/25
f 26/29/26 29/28/26 32/35/26
f 28/23/27 30/33/27 33/36/27
f 28/23/28 33/36/28 36/31/28
f 27/34/29 34/37/29 30/33/29
f 29/28/30 42/38/30 37/39/30
f 32/35/31 37/39/31 35/40/31
f 31/18/32 1/41/32 42/38/32
f 34/37/33 39/42/33 40/43/33
f 34/37/34 40/43/34 33/36/34
f 38/44/35 39/42/35 34/37/35
f 33/36/36 46/45/36 36/31/36
f 33/36/37 40/43/37 46/45/37
f 38/46/38 35/47/38 41/48/38
f 41/48/39 43/49/39 39/50/39
f 46/51/40 47/52/40 36/53/40
f 48/54/41 44/55/41 35/47/41
f 43/49/42 46/51/42 40/56/42
f 41/48/43 45/57/43 43/49/43
f 44/55/44 50/58/44 41/48/44
f 41/48/45 50/58/45 45/57/45
f 45/57/46 49/4/46 43/49/46
f 44/55/47 48/54/47 10/5/47
f 45/57/48 50/58/48 4/1/48
f 48/54/49 1/17/49 10/5/49
f 50/58/50 10/5/50 3/7/50
f 49/4/51 5/2/51 6/9/51
f 3/7/52 7/6/52 4/1/52
f 47/59/53 6/9/53 19/11/53
f 5/2/54 8/10/54 9/8/54
f 7/6/55 11/12/55 8/10/55
f 8/10/56 12/13/56 9/8/56
f 7/6/57 16/15/57 11/12/57
f 9/8/58 14/14/58 19/11/58
f 12/13/59 11/12/59 13/16/59
f 16/15/60 10/5/60 31/18/60
f 14/14/61 12/13/61 15/19/61
f 14/14/62 21/20/62 19/11/62
f 15/19/63 13/16/63 17/21/63
f 15/19/64 18/24/64 21/20/64
f 18/24/65 15/19/65 17/21/65
f 18/24/66 17/21/66 20/25/66
f 18/24/67 23/26/67 21/20/67
f 19/11/68 28/23/68 47/30/68
f 21/20/69 23/26/69 25/27/69
f 20/25/70 22/32/70 23/26/70
f 25/27/71 23/26/71 22/32/71
f 22/32/72 20/25/72 26/29/72
f 26/29/73 24/22/73 29/28/73
f 28/23/74 25/27/74 30/33/74
f 22/32/75 27/34/75 30/33/75
f 27/34/76 26/29/76 32/35/76
f 31/18/77 42/38/77 29/28/77
f 32/35/78 29/28/78 37/39/78
f 30/33/79 34/37/79 33/36/79
f 27/34/80 38/44/80 34/37/80
f 27/34/81 32/35/81 38/44/81
f 38/44/82 32/35/82 35/40/82
f 38/44/83 41/60/83 39/42/83
f 37/61/84 42/62/84 48/54/84
f 40/56/85 39/50/85 43/49/85
f 37/61/86 48/54/86 35/47/86
f 35/47/87 44/55/87 41/48/87
f 43/49/88 49/4/88 46/51/88
f 42/62/89 1/17/89 48/54/89
f 45/57/90 2/3/90 49/4/90
f 44/55/91 10/5/91 50/58/91
f 6/9/92 46/51/92 49/4/92
f 47/52/93 46/51/93 6/9/93
f 45/57/94 4/1/94 2/3/94
f 4/1/95 50/58/95 3/7/95
f 24/22/96 20/25/96 17/21/96
