# Blender 5.1.0
# www.blender.org
mtllib player_rightArm_next.mtl
o rightArm_next
v -0.144205 -0.158323 0.109105
v -0.137441 0.169481 -0.016076
v -0.131322 -0.031877 0.271307
v -0.230363 -0.146028 0.106363
v -0.217480 -0.019582 0.268565
v -0.137764 -0.095100 0.190206
v -0.223922 -0.082805 0.187464
v -0.140984 -0.126712 0.149656
v -0.227142 -0.114416 0.146914
v -0.134543 -0.063489 0.230757
v -0.220701 -0.051193 0.228015
v -0.187284 -0.152175 0.107734
v -0.174401 -0.025729 0.269936
v -0.180843 -0.088952 0.188835
v -0.184063 -0.120564 0.148285
v -0.177622 -0.057341 0.229386
vn -0.1305 -0.7769 0.6160
vn 0.0823 0.7282 0.6804
vn 0.0825 0.7282 0.6804
vn -0.9895 0.1412 -0.0315
vn -0.9898 0.1373 -0.0368
vn 0.9895 -0.1412 0.0315
vn 0.9899 -0.1370 0.0366
vn -0.0412 -0.4837 -0.8742
vn -0.0414 -0.4837 -0.8742
vn 0.9891 -0.1451 0.0262
vn -0.9890 0.1454 -0.0264
vn -0.0410 -0.4838 -0.8742
vn 0.0821 0.7282 0.6804
vt 0.750000 0.750000
vt 0.875000 0.687500
vt 0.750000 0.687500
vt 0.375000 1.000000
vt 0.625000 1.000000
vt 0.625000 0.875000
vt 0.375000 0.250000
vt 0.625000 0.250000
vt 0.625000 0.187500
vt 0.375000 0.750000
vt 0.625000 0.750000
vt 0.625000 0.687500
vt 0.375000 0.500000
vt 0.625000 0.500000
vt 0.625000 0.375000
vt 0.375000 0.625000
vt 0.625000 0.625000
vt 0.625000 0.562500
vt 0.375000 0.125000
vt 0.625000 0.125000
vt 0.625000 0.062500
vt 0.750000 0.625000
vt 0.875000 0.562500
vt 0.750000 0.562500
vt 0.875000 0.500000
vt 0.750000 0.500000
vt 0.375000 0.562500
vt 0.375000 0.187500
vt 0.375000 0.062500
vt 0.625000 0.000000
vt 0.375000 0.687500
vt 0.875000 0.625000
vt 0.375000 0.375000
vt 0.375000 0.875000
vt 0.875000 0.750000
s 1
usemtl Material.009
f 13/1/1 11/2/1 16/3/1
f 2/4/2 5/5/3 13/6/2
f 2/7/4 4/8/5 9/9/4
f 2/10/6 3/11/7 10/12/6
f 2/13/8 1/14/9 12/15/8
f 2/16/6 6/17/6 8/18/6
f 2/19/4 7/20/4 11/21/4
f 14/22/1 9/23/1 15/24/1
f 15/24/1 4/25/1 12/26/1
f 2/27/6 8/18/6 1/14/10
f 2/28/4 9/9/4 7/20/4
f 2/29/4 11/21/4 5/30/11
f 2/31/6 10/12/6 6/17/6
f 14/22/1 11/2/1 7/32/1
f 10/12/1 14/22/1 6/17/1
f 8/18/1 12/26/1 1/14/1
f 6/17/1 15/24/1 8/18/1
f 2/33/8 12/15/8 4/8/12
f 2/34/2 13/6/2 3/11/13
f 10/12/1 13/1/1 16/3/1
f 13/1/1 5/35/1 11/2/1
f 14/22/1 7/32/1 9/23/1
f 15/24/1 9/23/1 4/25/1
f 14/22/1 16/3/1 11/2/1
f 10/12/1 16/3/1 14/22/1
f 8/18/1 15/24/1 12/26/1
f 6/17/1 14/22/1 15/24/1
f 10/12/1 3/11/1 13/1/1
