# Blender 5.1.0
# www.blender.org
mtllib 9.mtl
o 9
v -0.061184 -0.165790 0.230000
v -0.075658 -0.204605 0.230000
v -0.030921 -0.226316 0.230000
v 0.086842 -0.007237 0.230000
v -0.026316 -0.068421 0.230000
v -0.155921 0.067763 0.230000
v -0.004605 0.225658 0.230000
v 0.152632 0.004605 0.230000
v -0.032895 -0.249342 0.230000
v -0.138816 -0.174342 0.230000
v -0.096711 -0.128947 0.230000
v 0.084868 0.080921 0.230000
v -0.004605 0.201974 0.230000
v -0.087500 0.080921 0.230000
v -0.003947 -0.033553 0.230000
v -0.061184 -0.165789 -0.230000
v -0.075658 -0.204605 -0.230000
v -0.030921 -0.226316 -0.230000
v 0.086842 -0.007237 -0.230000
v -0.026316 -0.068421 -0.230000
v -0.155921 0.067763 -0.230000
v -0.004605 0.225658 -0.230000
v 0.152632 0.004605 -0.230000
v -0.032895 -0.249342 -0.230000
v -0.138816 -0.174342 -0.230000
v -0.096711 -0.128947 -0.230000
v 0.084868 0.080921 -0.230000
v -0.004605 0.201974 -0.230000
v -0.087500 0.080921 -0.230000
v -0.003947 -0.033553 -0.230000
v -0.061184 -0.165789 -0.230000
v -0.050458 -0.163558 -0.228532
v -0.040782 -0.161544 -0.224270
v -0.033102 -0.159946 -0.217634
v -0.028172 -0.158920 -0.209270
v -0.026473 -0.158567 -0.200000
v -0.026473 -0.158567 0.200000
v -0.028172 -0.158920 0.209270
v -0.033102 -0.159946 0.217634
v -0.040782 -0.161544 0.224270
v -0.050458 -0.163558 0.228532
v -0.061184 -0.165790 0.230000
v -0.075658 -0.204605 -0.230000
v -0.064026 -0.199946 -0.228532
v -0.053533 -0.195742 -0.224271
v -0.045206 -0.192406 -0.217634
v -0.039860 -0.190264 -0.209271
v -0.038017 -0.189526 -0.200000
v -0.038017 -0.189526 0.200000
v -0.039860 -0.190264 0.209270
v -0.045206 -0.192406 0.217634
v -0.053533 -0.195742 0.224270
v -0.064026 -0.199946 0.228532
v -0.075658 -0.204605 0.230000
v -0.030921 -0.226316 -0.230000
v -0.034875 -0.214092 -0.228532
v -0.038443 -0.203065 -0.224271
v -0.041274 -0.194314 -0.217634
v -0.043091 -0.188696 -0.209271
v -0.043718 -0.186760 -0.200000
v -0.043718 -0.186760 0.200000
v -0.043091 -0.188696 0.209270
v -0.041274 -0.194314 0.217634
v -0.038443 -0.203065 0.224270
v -0.034875 -0.214092 0.228532
v -0.030921 -0.226316 0.230000
v 0.086842 -0.007237 -0.230000
v 0.064019 -0.030116 -0.228532
v 0.043429 -0.050756 -0.224270
v 0.027089 -0.067136 -0.217634
v 0.016598 -0.077653 -0.209270
v 0.012983 -0.081277 -0.200000
v 0.012983 -0.081277 0.200000
v 0.016598 -0.077653 0.209270
v 0.027089 -0.067136 0.217634
v 0.043429 -0.050756 0.224270
v 0.064019 -0.030116 0.228532
v 0.086842 -0.007237 0.230000
v -0.026316 -0.068421 -0.230000
v -0.028143 -0.079948 -0.228532
v -0.029792 -0.090347 -0.224270
v -0.031100 -0.098599 -0.217634
v -0.031940 -0.103898 -0.209270
v -0.032230 -0.105723 -0.200000
v -0.032230 -0.105723 0.200000
v -0.031940 -0.103898 0.209270
v -0.031100 -0.098599 0.217634
v -0.029792 -0.090347 0.224270
v -0.028143 -0.079948 0.228532
v -0.026316 -0.068421 0.230000
v -0.155921 0.067763 -0.230000
v -0.168740 0.067785 -0.228532
v -0.180304 0.067805 -0.224270
v -0.189481 0.067821 -0.217634
v -0.195374 0.067832 -0.209270
v -0.197404 0.067835 -0.200000
v -0.197404 0.067835 0.200000
v -0.195374 0.067832 0.209270
v -0.189481 0.067821 0.217634
v -0.180304 0.067805 0.224270
v -0.168740 0.067785 0.228532
v -0.155921 0.067763 0.230000
v -0.004605 0.225658 -0.230000
v -0.003546 0.240162 -0.228532
v -0.002590 0.253246 -0.224270
v -0.001831 0.263630 -0.217634
v -0.001344 0.270297 -0.209270
v -0.001176 0.272594 -0.200000
v -0.001176 0.272594 0.200000
v -0.001344 0.270297 0.209271
v -0.001831 0.263630 0.217634
v -0.002590 0.253246 0.224271
v -0.003546 0.240162 0.228532
v -0.004605 0.225658 0.230000
v 0.152632 0.004605 -0.230000
v 0.164060 0.004533 -0.228532
v 0.174369 0.004467 -0.224270
v 0.182551 0.004416 -0.217634
v 0.187804 0.004382 -0.209270
v 0.189614 0.004371 -0.200000
v 0.189614 0.004371 0.200000
v 0.187804 0.004382 0.209270
v 0.182551 0.004416 0.217634
v 0.174369 0.004467 0.224270
v 0.164060 0.004533 0.228532
v 0.152632 0.004605 0.230000
v -0.032895 -0.249342 -0.230000
v -0.030797 -0.262186 -0.228532
v -0.028905 -0.273773 -0.224271
v -0.027404 -0.282969 -0.217634
v -0.026440 -0.288873 -0.209271
v -0.026108 -0.290907 -0.200000
v -0.026108 -0.290907 0.200000
v -0.026440 -0.288873 0.209270
v -0.027404 -0.282969 0.217634
v -0.028905 -0.273773 0.224270
v -0.030797 -0.262186 0.228532
v -0.032895 -0.249342 0.230000
v -0.138816 -0.174342 -0.230000
v -0.152807 -0.175794 -0.228532
v -0.165429 -0.177104 -0.224271
v -0.175446 -0.178144 -0.217634
v -0.181877 -0.178812 -0.209271
v -0.184093 -0.179042 -0.200000
v -0.184093 -0.179042 0.200000
v -0.181877 -0.178812 0.209270
v -0.175446 -0.178144 0.217634
v -0.165429 -0.177104 0.224270
v -0.152807 -0.175794 0.228532
v -0.138816 -0.174342 0.230000
v -0.096711 -0.128947 -0.230000
v -0.096841 -0.115456 -0.228532
v -0.096959 -0.103286 -0.224270
v -0.097053 -0.093627 -0.217634
v -0.097113 -0.087426 -0.209270
v -0.097134 -0.085289 -0.200000
v -0.097134 -0.085289 0.200000
v -0.097113 -0.087426 0.209270
v -0.097053 -0.093627 0.217634
v -0.096959 -0.103286 0.224270
v -0.096841 -0.115456 0.228532
v -0.096711 -0.128947 0.230000
v 0.084868 0.080921 -0.230000
v 0.073240 0.081057 -0.228532
v 0.062750 0.081179 -0.224270
v 0.054425 0.081276 -0.217634
v 0.049080 0.081339 -0.209270
v 0.047239 0.081360 -0.200000
v 0.047239 0.081360 0.200000
v 0.049080 0.081339 0.209270
v 0.054425 0.081276 0.217634
v 0.062750 0.081179 0.224270
v 0.073240 0.081057 0.228532
v 0.084868 0.080921 0.230000
v -0.004605 0.201974 -0.230000
v -0.004317 0.185987 -0.228532
v -0.004057 0.171565 -0.224270
v -0.003850 0.160120 -0.217634
v -0.003718 0.152772 -0.209270
v -0.003672 0.150239 -0.200000
v -0.003672 0.150239 0.200000
v -0.003718 0.152771 0.209270
v -0.003850 0.160120 0.217634
v -0.004057 0.171565 0.224271
v -0.004317 0.185987 0.228532
v -0.004605 0.201974 0.230000
v -0.087500 0.080921 -0.230000
v -0.076147 0.081092 -0.228532
v -0.065906 0.081246 -0.224270
v -0.057778 0.081368 -0.217634
v -0.052560 0.081446 -0.209270
v -0.050762 0.081473 -0.200000
v -0.050762 0.081473 0.200000
v -0.052560 0.081446 0.209270
v -0.057778 0.081368 0.217634
v -0.065906 0.081246 0.224270
v -0.076147 0.081092 0.228532
v -0.087500 0.080921 0.230000
v -0.003947 -0.033553 -0.230000
v -0.003721 -0.018138 -0.228532
v -0.003517 -0.004232 -0.224270
v -0.003355 0.006804 -0.217634
v -0.003251 0.013889 -0.209270
v -0.003215 0.016331 -0.200000
v -0.003215 0.016331 0.200000
v -0.003251 0.013889 0.209270
v -0.003355 0.006804 0.217634
v -0.003517 -0.004232 0.224270
v -0.003721 -0.018138 0.228532
v -0.003947 -0.033553 0.230000
vn -0.0000 -0.0000 1.0000
vn -0.0000 -0.0000 -1.0000
vn 0.1683 0.0674 -0.9834
vn 0.1300 0.0271 -0.9911
vn 0.3042 0.0633 -0.9505
vn 0.3959 0.1586 -0.9045
vn 0.5503 0.1145 -0.8271
vn 0.6306 0.2526 -0.7338
vn 0.7668 0.1596 -0.6218
vn 0.4416 -0.8938 -0.0779
vn 0.9218 0.1918 -0.3369
vn 0.4170 -0.9088 -0.0105
vn 0.9751 0.2029 -0.0896
vn 0.4170 -0.9088 0.0105
vn 0.9751 0.2029 0.0896
vn 0.9218 0.1918 0.3369
vn 0.7668 0.1596 0.6218
vn 0.4416 -0.8938 0.0779
vn 0.5503 0.1145 0.8271
vn 0.6306 0.2527 0.7338
vn 0.3042 0.0633 0.9505
vn 0.3959 0.1586 0.9045
vn 0.1300 0.0271 0.9911
vn 0.1683 0.0674 0.9834
vn -0.0539 0.1666 -0.9846
vn 0.1080 0.0433 -0.9932
vn -0.1280 0.3958 -0.9094
vn -0.2058 0.6362 -0.7436
vn -0.9693 -0.2328 -0.0794
vn -0.9653 -0.2607 0.0108
vn -0.9693 -0.2328 0.0794
vn -0.2058 0.6362 0.7436
vn -0.1280 0.3957 0.9094
vn 0.1080 0.0433 0.9932
vn -0.0539 0.1665 0.9846
vn -0.0387 -0.0388 -0.9985
vn -0.0349 0.1080 -0.9935
vn -0.1119 -0.1121 -0.9874
vn -0.2153 -0.2158 -0.9524
vn -0.4137 -0.4147 -0.8105
vn -0.6744 -0.6760 -0.2970
vn -0.9653 -0.2608 -0.0108
vn -0.6744 -0.6760 0.2970
vn -0.4137 -0.4147 0.8105
vn -0.2153 -0.2158 0.9524
vn -0.1119 -0.1121 0.9874
vn -0.0350 0.1080 0.9935
vn -0.0387 -0.0388 0.9985
vn -0.0195 -0.1233 -0.9922
vn -0.0321 -0.0321 -0.9990
vn -0.0471 -0.2970 -0.9537
vn -0.0853 -0.5378 -0.8387
vn -0.1204 -0.7591 -0.6398
vn -0.1466 -0.9247 -0.3513
vn -0.1559 -0.9832 0.0947
vn -0.1466 -0.9247 0.3513
vn -0.1204 -0.7591 0.6398
vn -0.0853 -0.5378 0.8387
vn -0.0471 -0.2970 0.9537
vn -0.0195 -0.1233 0.9922
vn -0.0321 -0.0321 0.9990
vn -0.1138 0.0002 -0.9935
vn -0.2841 0.0005 -0.9588
vn -0.5172 0.0009 -0.8559
vn -0.7450 0.0013 -0.6671
vn -0.1559 -0.9832 -0.0947
vn -0.9275 0.0016 -0.3737
vn -0.9947 0.0017 0.1029
vn -0.9275 0.0016 0.3737
vn -0.7450 0.0013 0.6671
vn -0.5172 0.0009 0.8559
vn -0.2841 0.0005 0.9588
vn -0.1138 0.0002 0.9935
vn 0.0073 0.1002 -0.9949
vn 0.0190 0.2601 -0.9654
vn 0.0349 0.4779 -0.8777
vn 0.0518 0.7086 -0.7037
vn -0.9947 0.0017 -0.1029
vn 0.0666 0.9117 -0.4055
vn 0.0724 0.9907 -0.1148
vn 0.0666 0.9117 0.4055
vn 0.0518 0.7086 0.7037
vn 0.0349 0.4779 0.8777
vn 0.0190 0.2601 0.9654
vn 0.0073 0.1002 0.9949
vn 0.3042 -0.0019 -0.9526
vn 0.5505 -0.0035 -0.8348
vn 0.7735 -0.0049 -0.6337
vn 0.9381 -0.0059 -0.3464
vn 0.9956 -0.0063 -0.0930
vn 0.9956 -0.0063 0.0930
vn 0.0724 0.9907 0.1148
vn 0.9381 -0.0059 0.3464
vn 0.7735 -0.0049 0.6337
vn 0.5505 -0.0035 0.8348
vn 0.3042 -0.0019 0.9526
vn 0.0181 -0.1106 -0.9937
vn 0.1274 -0.0008 -0.9918
vn 0.0453 -0.2777 -0.9596
vn 0.0826 -0.5060 -0.8586
vn 0.1194 -0.7313 -0.6715
vn 0.1492 -0.9139 -0.3774
vn 0.1603 -0.9816 0.1042
vn 0.1492 -0.9139 0.3774
vn 0.1194 -0.7313 0.6715
vn 0.0826 -0.5060 0.8586
vn 0.0453 -0.2777 0.9596
vn 0.0181 -0.1106 0.9937
vn 0.1274 -0.0008 0.9918
vn -0.1033 -0.0107 -0.9946
vn -0.2656 -0.0276 -0.9637
vn -0.4867 -0.0505 -0.8721
vn -0.7160 -0.0743 -0.6941
vn 0.1603 -0.9816 -0.1042
vn -0.9129 -0.0948 -0.3970
vn -0.9884 -0.1026 0.1116
vn -0.9129 -0.0948 0.3970
vn -0.7160 -0.0743 0.6941
vn -0.4867 -0.0505 0.8721
vn -0.2656 -0.0276 0.9637
vn -0.1033 -0.0107 0.9946
vn -0.0027 0.2747 -0.9615
vn -0.0049 0.5019 -0.8649
vn -0.0071 0.7313 -0.6820
vn -0.0090 0.9223 -0.3864
vn -0.0096 0.9942 -0.1076
vn -0.9884 -0.1026 -0.1116
vn -0.0096 0.9942 0.1076
vn -0.0090 0.9223 0.3864
vn -0.0071 0.7313 0.6820
vn -0.0049 0.5019 0.8649
vn -0.0027 0.2747 0.9615
vn -0.0010 0.1082 -0.9941
vn -0.0010 0.1082 0.9941
vn 0.0024 -0.1303 -0.9915
vn -0.1253 0.0015 -0.9921
vn -0.2018 0.0024 -0.9794
vn 0.0060 -0.3328 -0.9430
vn -0.4592 0.0054 -0.8883
vn 0.0103 -0.5732 -0.8193
vn -0.7109 0.0083 -0.7033
vn 0.0153 -0.8463 -0.5324
vn -0.9162 0.0107 -0.4006
vn 0.0178 -0.9896 -0.1431
vn -0.9947 0.0116 -0.1018
vn 0.0179 -0.9896 0.1431
vn -0.9947 0.0116 0.1018
vn -0.9162 0.0107 0.4006
vn -0.7109 0.0083 0.7033
vn 0.0153 -0.8463 0.5324
vn -0.4592 0.0054 0.8883
vn 0.0103 -0.5732 0.8193
vn -0.2018 0.0024 0.9794
vn 0.0060 -0.3328 0.9430
vn -0.1253 0.0015 0.9921
vn 0.0023 -0.1303 0.9915
vn 0.1282 0.0019 -0.9917
vn 0.0016 -0.0914 -0.9958
vn 0.2090 0.0031 -0.9779
vn 0.4702 0.0071 -0.8825
vn 0.7208 0.0108 -0.6931
vn 0.9202 0.0138 -0.3912
vn 0.9950 0.0150 0.0992
vn 0.9202 0.0138 0.3912
vn 0.7208 0.0108 0.6931
vn 0.4702 0.0071 0.8825
vn 0.2090 0.0031 0.9779
vn 0.1282 0.0019 0.9917
vn 0.0016 -0.0914 0.9958
vn 0.0020 0.1367 -0.9906
vn 0.0051 0.3456 -0.9384
vn 0.0086 0.5892 -0.8079
vn 0.0126 0.8560 -0.5168
vn 0.0145 0.9904 -0.1376
vn 0.9950 0.0150 -0.0992
vn 0.0145 0.9904 0.1376
vn 0.0126 0.8560 0.5168
vn 0.0086 0.5892 0.8079
vn 0.0051 0.3456 0.9384
vn 0.0020 0.1367 0.9906
vn 0.0014 0.0948 -0.9955
vn 0.0014 0.0948 0.9955
vt 0.571429 0.000000
vt 0.071429 0.000000
vt 0.642857 0.000000
vt 0.000000 0.000000
vt 0.714286 0.000000
vt 0.785714 0.000000
vt 1.000000 0.000000
vt 0.214286 0.000000
vt 0.500000 0.000000
vt 0.142857 0.000000
vt 0.285714 0.000000
vt 0.428571 0.000000
vt 0.857143 0.000000
vt 0.928571 0.000000
vt 0.357143 0.000000
vt 0.090909 0.090909
vt 0.000000 0.090909
vt 0.090909 0.181818
vt 0.000000 0.181818
vt 0.090909 0.272727
vt 0.000000 0.272727
vt 0.090909 0.363636
vt 0.000000 0.363636
vt 0.090909 0.454545
vt 0.000000 0.454545
vt 0.090909 0.545455
vt 0.000000 0.545455
vt 0.000000 0.636364
vt 0.000000 0.727273
vt 0.090909 0.636364
vt 0.000000 0.818182
vt 0.090909 0.727273
vt 0.000000 0.909091
vt 0.090909 0.818182
vt 0.000000 1.000000
vt 0.090909 0.909091
vt 0.181818 0.090909
vt 0.090909 0.000000
vt 0.181818 0.181818
vt 0.181818 0.272727
vt 0.181818 0.363636
vt 0.181818 0.545455
vt 0.181818 0.636364
vt 0.181818 0.727273
vt 0.181818 0.818182
vt 0.090909 1.000000
vt 0.181818 0.909091
vt 0.272727 0.090909
vt 0.181818 0.000000
vt 0.272727 0.181818
vt 0.272727 0.272727
vt 0.272727 0.363636
vt 0.272727 0.454545
vt 0.181818 0.454545
vt 0.272727 0.545455
vt 0.272727 0.636364
vt 0.272727 0.727273
vt 0.272727 0.818182
vt 0.181818 1.000000
vt 0.272727 0.909091
vt 0.363636 0.000000
vt 0.272727 0.000000
vt 0.363636 0.090909
vt 0.363636 0.181818
vt 0.363636 0.272727
vt 0.363636 0.363636
vt 0.363636 0.545455
vt 0.363636 0.636364
vt 0.363636 0.727273
vt 0.363636 0.818182
vt 0.363636 0.909091
vt 0.363636 1.000000
vt 0.272727 1.000000
vt 0.454545 0.000000
vt 0.454545 0.090909
vt 0.454545 0.181818
vt 0.454545 0.272727
vt 0.363636 0.454545
vt 0.454545 0.363636
vt 0.454545 0.545455
vt 0.454545 0.636364
vt 0.454545 0.727273
vt 0.454545 0.818182
vt 0.454545 0.909091
vt 0.454545 1.000000
vt 0.545455 0.000000
vt 0.545455 0.090909
vt 0.545455 0.181818
vt 0.545455 0.272727
vt 0.454545 0.454545
vt 0.545455 0.363636
vt 0.545455 0.454545
vt 0.545455 0.636364
vt 0.545455 0.727273
vt 0.545455 0.818182
vt 0.545455 0.909091
vt 0.545455 1.000000
vt 0.636364 0.090909
vt 0.636364 0.181818
vt 0.636364 0.272727
vt 0.636364 0.363636
vt 0.636364 0.454545
vt 0.636364 0.545455
vt 0.545455 0.545455
vt 0.636364 0.636364
vt 0.636364 0.727273
vt 0.636364 0.818182
vt 0.636364 0.909091
vt 0.727273 0.000000
vt 0.636364 0.000000
vt 0.727273 0.090909
vt 0.727273 0.181818
vt 0.727273 0.272727
vt 0.727273 0.363636
vt 0.727273 0.545455
vt 0.727273 0.636364
vt 0.727273 0.727273
vt 0.727273 0.818182
vt 0.727273 0.909091
vt 0.727273 1.000000
vt 0.636364 1.000000
vt 0.818182 0.000000
vt 0.818182 0.090909
vt 0.818182 0.181818
vt 0.818182 0.272727
vt 0.727273 0.454545
vt 0.818182 0.363636
vt 0.818182 0.545455
vt 0.818182 0.636364
vt 0.818182 0.727273
vt 0.818182 0.818182
vt 0.818182 0.909091
vt 0.818182 1.000000
vt 0.909091 0.090909
vt 0.909091 0.181818
vt 0.909091 0.272727
vt 0.909091 0.363636
vt 0.909091 0.454545
vt 0.818182 0.454545
vt 0.909091 0.545455
vt 0.909091 0.636364
vt 0.909091 0.727273
vt 0.909091 0.818182
vt 0.909091 0.909091
vt 1.000000 0.090909
vt 0.909091 0.000000
vt 1.000000 0.181818
vt 1.000000 0.272727
vt 1.000000 0.363636
vt 1.000000 0.454545
vt 1.000000 0.545455
vt 1.000000 0.636364
vt 1.000000 0.727273
vt 1.000000 0.818182
vt 0.909091 1.000000
vt 1.000000 0.909091
vt 0.250000 0.090909
vt 0.250000 0.181818
vt 0.250000 0.272727
vt 0.250000 0.363636
vt 0.250000 0.454545
vt 0.250000 0.545455
vt 0.250000 0.636364
vt 0.250000 0.727273
vt 0.250000 0.818182
vt 0.250000 0.909091
vt 0.250000 0.000000
vt 0.500000 0.090909
vt 0.500000 0.181818
vt 0.500000 0.272727
vt 0.500000 0.363636
vt 0.500000 0.545455
vt 0.500000 0.636364
vt 0.500000 0.727273
vt 0.500000 0.818182
vt 0.500000 0.909091
vt 0.500000 1.000000
vt 0.250000 1.000000
vt 0.750000 0.090909
vt 0.750000 0.181818
vt 0.750000 0.272727
vt 0.750000 0.363636
vt 0.750000 0.454545
vt 0.500000 0.454545
vt 0.750000 0.545455
vt 0.750000 0.636364
vt 0.750000 0.727273
vt 0.750000 0.818182
vt 0.750000 0.909091
vt 0.750000 0.000000
vt 1.000000 1.000000
vt 0.750000 1.000000
s 0
usemtl マテリアル.027
f 9/1/1 2/2/1 10/3/1
f 2/2/1 1/4/1 10/3/1
f 11/5/1 10/3/1 1/4/1
f 12/6/1 15/7/1 4/8/1
f 4/8/1 8/9/1 12/6/1
f 8/9/1 4/8/1 3/10/1
f 4/8/1 15/7/1 5/11/1
f 7/12/1 13/13/1 12/6/1
f 12/6/1 8/9/1 7/12/1
f 8/9/1 3/10/1 9/1/1
f 2/2/1 9/1/1 3/10/1
f 14/14/1 6/15/1 5/11/1
f 5/11/1 15/7/1 14/14/1
f 6/15/1 14/14/1 13/13/1
f 13/13/1 7/12/1 6/15/1
f 24/1/2 25/3/2 17/2/2
f 17/2/2 25/3/2 16/4/2
f 26/5/2 16/4/2 25/3/2
f 27/6/2 19/8/2 30/7/2
f 19/8/2 27/6/2 23/9/2
f 23/9/2 18/10/2 19/8/2
f 19/8/2 20/11/2 30/7/2
f 22/12/2 27/6/2 28/13/2
f 27/6/2 22/12/2 23/9/2
f 23/9/2 24/1/2 18/10/2
f 17/2/2 18/10/2 24/1/2
f 29/14/2 20/11/2 21/15/2
f 20/11/2 29/14/2 30/7/2
f 21/15/2 28/13/2 29/14/2
f 28/13/2 21/15/2 22/12/2
s 1
f 44/16/3 31/4/4 32/17/5
f 45/18/6 32/17/5 33/19/7
f 46/20/8 33/19/7 34/21/9
f 47/22/10 34/21/9 35/23/11
f 48/24/12 35/23/11 36/25/13
f 49/26/14 36/25/13 37/27/15
f 38/28/16 49/26/14 37/27/15
f 39/29/17 50/30/18 38/28/16
f 40/31/19 51/32/20 39/29/17
f 41/33/21 52/34/22 40/31/19
f 42/35/23 53/36/24 41/33/21
f 56/37/25 43/38/26 44/16/3
f 57/39/27 44/16/3 45/18/6
f 58/40/28 45/18/6 46/20/8
f 47/22/10 58/40/28 46/20/8
f 48/24/12 59/41/29 47/22/10
f 61/42/30 48/24/12 49/26/14
f 62/43/31 49/26/14 50/30/18
f 51/32/20 62/43/31 50/30/18
f 52/34/22 63/44/32 51/32/20
f 53/36/24 64/45/33 52/34/22
f 54/46/34 65/47/35 53/36/24
f 68/48/36 55/49/37 56/37/25
f 69/50/38 56/37/25 57/39/27
f 70/51/39 57/39/27 58/40/28
f 71/52/40 58/40/28 59/41/29
f 72/53/41 59/41/29 60/54/42
f 73/55/43 60/54/42 61/42/30
f 62/43/31 73/55/43 61/42/30
f 63/44/32 74/56/44 62/43/31
f 64/45/33 75/57/45 63/44/32
f 65/47/35 76/58/46 64/45/33
f 66/59/47 77/60/48 65/47/35
f 68/48/36 79/61/49 67/62/50
f 69/50/38 80/63/51 68/48/36
f 70/51/39 81/64/52 69/50/38
f 71/52/40 82/65/53 70/51/39
f 72/53/41 83/66/54 71/52/40
f 85/67/55 72/53/41 73/55/43
f 86/68/56 73/55/43 74/56/44
f 87/69/57 74/56/44 75/57/45
f 88/70/58 75/57/45 76/58/46
f 89/71/59 76/58/46 77/60/48
f 90/72/60 77/60/48 78/73/61
f 80/63/51 91/74/62 79/61/49
f 81/64/52 92/75/63 80/63/51
f 82/65/53 93/76/64 81/64/52
f 83/66/54 94/77/65 82/65/53
f 84/78/66 95/79/67 83/66/54
f 97/80/68 84/78/66 85/67/55
f 98/81/69 85/67/55 86/68/56
f 99/82/70 86/68/56 87/69/57
f 100/83/71 87/69/57 88/70/58
f 101/84/72 88/70/58 89/71/59
f 102/85/73 89/71/59 90/72/60
f 92/75/63 103/86/74 91/74/62
f 93/76/64 104/87/75 92/75/63
f 94/77/65 105/88/76 93/76/64
f 95/79/67 106/89/77 94/77/65
f 96/90/78 107/91/79 95/79/67
f 97/80/68 108/92/80 96/90/78
f 110/93/81 97/80/68 98/81/69
f 111/94/82 98/81/69 99/82/70
f 112/95/83 99/82/70 100/83/71
f 113/96/84 100/83/71 101/84/72
f 114/97/85 101/84/72 102/85/73
f 116/98/86 103/86/74 104/87/75
f 117/99/87 104/87/75 105/88/76
f 118/100/88 105/88/76 106/89/77
f 119/101/89 106/89/77 107/91/79
f 120/102/90 107/91/79 108/92/80
f 121/103/91 108/92/80 109/104/92
f 110/93/81 121/103/91 109/104/92
f 111/94/82 122/105/93 110/93/81
f 112/95/83 123/106/94 111/94/82
f 113/96/84 124/107/95 112/95/83
f 114/97/85 125/108/96 113/96/84
f 116/98/86 127/109/97 115/110/98
f 117/99/87 128/111/99 116/98/86
f 118/100/88 129/112/100 117/99/87
f 119/101/89 130/113/101 118/100/88
f 120/102/90 131/114/102 119/101/89
f 133/115/103 120/102/90 121/103/91
f 134/116/104 121/103/91 122/105/93
f 135/117/105 122/105/93 123/106/94
f 136/118/106 123/106/94 124/107/95
f 137/119/107 124/107/95 125/108/96
f 138/120/108 125/108/96 126/121/109
f 128/111/99 139/122/110 127/109/97
f 129/112/100 140/123/111 128/111/99
f 130/113/101 141/124/112 129/112/100
f 131/114/102 142/125/113 130/113/101
f 132/126/114 143/127/115 131/114/102
f 145/128/116 132/126/114 133/115/103
f 146/129/117 133/115/103 134/116/104
f 147/130/118 134/116/104 135/117/105
f 148/131/119 135/117/105 136/118/106
f 149/132/120 136/118/106 137/119/107
f 150/133/121 137/119/107 138/120/108
f 152/134/122 139/122/110 140/123/111
f 153/135/123 140/123/111 141/124/112
f 154/136/124 141/124/112 142/125/113
f 155/137/125 142/125/113 143/127/115
f 156/138/126 143/127/115 144/139/127
f 145/128/116 156/138/126 144/139/127
f 146/129/117 157/140/128 145/128/116
f 147/130/118 158/141/129 146/129/117
f 148/131/119 159/142/130 147/130/118
f 149/132/120 160/143/131 148/131/119
f 150/133/121 161/144/132 149/132/120
f 32/145/5 151/146/133 152/134/122
f 33/147/7 152/134/122 153/135/123
f 34/148/9 153/135/123 154/136/124
f 35/149/11 154/136/124 155/137/125
f 36/150/13 155/137/125 156/138/126
f 37/151/15 156/138/126 157/140/128
f 158/141/129 37/151/15 157/140/128
f 159/142/130 38/152/16 158/141/129
f 160/143/131 39/153/17 159/142/130
f 161/144/132 40/154/19 160/143/131
f 162/155/134 41/156/21 161/144/132
f 176/157/135 163/4/136 164/17/137
f 177/158/138 164/17/137 165/19/139
f 178/159/140 165/19/139 166/21/141
f 179/160/142 166/21/141 167/23/143
f 180/161/144 167/23/143 168/25/145
f 181/162/146 168/25/145 169/27/147
f 170/28/148 181/162/146 169/27/147
f 171/29/149 182/163/150 170/28/148
f 172/31/151 183/164/152 171/29/149
f 173/33/153 184/165/154 172/31/151
f 174/35/155 185/166/156 173/33/153
f 176/157/135 187/9/157 175/167/158
f 177/158/138 188/168/159 176/157/135
f 178/159/140 189/169/160 177/158/138
f 179/160/142 190/170/161 178/159/140
f 180/161/144 191/171/162 179/160/142
f 193/172/163 180/161/144 181/162/146
f 194/173/164 181/162/146 182/163/150
f 195/174/165 182/163/150 183/164/152
f 196/175/166 183/164/152 184/165/154
f 197/176/167 184/165/154 185/166/156
f 198/177/168 185/166/156 186/178/169
f 200/179/170 187/9/157 188/168/159
f 201/180/171 188/168/159 189/169/160
f 202/181/172 189/169/160 190/170/161
f 203/182/173 190/170/161 191/171/162
f 204/183/174 191/171/162 192/184/175
f 205/185/176 192/184/175 193/172/163
f 194/173/164 205/185/176 193/172/163
f 195/174/165 206/186/177 194/173/164
f 196/175/166 207/187/178 195/174/165
f 197/176/167 208/188/179 196/175/166
f 198/177/168 209/189/180 197/176/167
f 200/179/170 163/7/136 199/190/181
f 201/180/171 164/145/137 200/179/170
f 202/181/172 165/147/139 201/180/171
f 203/182/173 166/148/141 202/181/172
f 204/183/174 167/149/143 203/182/173
f 169/151/147 204/183/174 205/185/176
f 170/152/148 205/185/176 206/186/177
f 171/153/149 206/186/177 207/187/178
f 172/154/151 207/187/178 208/188/179
f 173/156/153 208/188/179 209/189/180
f 174/191/155 209/189/180 210/192/182
f 44/16/3 43/38/26 31/4/4
f 45/18/6 44/16/3 32/17/5
f 46/20/8 45/18/6 33/19/7
f 47/22/10 46/20/8 34/21/9
f 48/24/12 47/22/10 35/23/11
f 49/26/14 48/24/12 36/25/13
f 38/28/16 50/30/18 49/26/14
f 39/29/17 51/32/20 50/30/18
f 40/31/19 52/34/22 51/32/20
f 41/33/21 53/36/24 52/34/22
f 42/35/23 54/46/34 53/36/24
f 56/37/25 55/49/37 43/38/26
f 57/39/27 56/37/25 44/16/3
f 58/40/28 57/39/27 45/18/6
f 47/22/10 59/41/29 58/40/28
f 48/24/12 60/54/42 59/41/29
f 61/42/30 60/54/42 48/24/12
f 62/43/31 61/42/30 49/26/14
f 51/32/20 63/44/32 62/43/31
f 52/34/22 64/45/33 63/44/32
f 53/36/24 65/47/35 64/45/33
f 54/46/34 66/59/47 65/47/35
f 68/48/36 67/62/50 55/49/37
f 69/50/38 68/48/36 56/37/25
f 70/51/39 69/50/38 57/39/27
f 71/52/40 70/51/39 58/40/28
f 72/53/41 71/52/40 59/41/29
f 73/55/43 72/53/41 60/54/42
f 62/43/31 74/56/44 73/55/43
f 63/44/32 75/57/45 74/56/44
f 64/45/33 76/58/46 75/57/45
f 65/47/35 77/60/48 76/58/46
f 66/59/47 78/73/61 77/60/48
f 68/48/36 80/63/51 79/61/49
f 69/50/38 81/64/52 80/63/51
f 70/51/39 82/65/53 81/64/52
f 71/52/40 83/66/54 82/65/53
f 72/53/41 84/78/66 83/66/54
f 85/67/55 84/78/66 72/53/41
f 86/68/56 85/67/55 73/55/43
f 87/69/57 86/68/56 74/56/44
f 88/70/58 87/69/57 75/57/45
f 89/71/59 88/70/58 76/58/46
f 90/72/60 89/71/59 77/60/48
f 80/63/51 92/75/63 91/74/62
f 81/64/52 93/76/64 92/75/63
f 82/65/53 94/77/65 93/76/64
f 83/66/54 95/79/67 94/77/65
f 84/78/66 96/90/78 95/79/67
f 97/80/68 96/90/78 84/78/66
f 98/81/69 97/80/68 85/67/55
f 99/82/70 98/81/69 86/68/56
f 100/83/71 99/82/70 87/69/57
f 101/84/72 100/83/71 88/70/58
f 102/85/73 101/84/72 89/71/59
f 92/75/63 104/87/75 103/86/74
f 93/76/64 105/88/76 104/87/75
f 94/77/65 106/89/77 105/88/76
f 95/79/67 107/91/79 106/89/77
f 96/90/78 108/92/80 107/91/79
f 97/80/68 109/104/92 108/92/80
f 110/93/81 109/104/92 97/80/68
f 111/94/82 110/93/81 98/81/69
f 112/95/83 111/94/82 99/82/70
f 113/96/84 112/95/83 100/83/71
f 114/97/85 113/96/84 101/84/72
f 116/98/86 115/110/98 103/86/74
f 117/99/87 116/98/86 104/87/75
f 118/100/88 117/99/87 105/88/76
f 119/101/89 118/100/88 106/89/77
f 120/102/90 119/101/89 107/91/79
f 121/103/91 120/102/90 108/92/80
f 110/93/81 122/105/93 121/103/91
f 111/94/82 123/106/94 122/105/93
f 112/95/83 124/107/95 123/106/94
f 113/96/84 125/108/96 124/107/95
f 114/97/85 126/121/109 125/108/96
f 116/98/86 128/111/99 127/109/97
f 117/99/87 129/112/100 128/111/99
f 118/100/88 130/113/101 129/112/100
f 119/101/89 131/114/102 130/113/101
f 120/102/90 132/126/114 131/114/102
f 133/115/103 132/126/114 120/102/90
f 134/116/104 133/115/103 121/103/91
f 135/117/105 134/116/104 122/105/93
f 136/118/106 135/117/105 123/106/94
f 137/119/107 136/118/106 124/107/95
f 138/120/108 137/119/107 125/108/96
f 128/111/99 140/123/111 139/122/110
f 129/112/100 141/124/112 140/123/111
f 130/113/101 142/125/113 141/124/112
f 131/114/102 143/127/115 142/125/113
f 132/126/114 144/139/127 143/127/115
f 145/128/116 144/139/127 132/126/114
f 146/129/117 145/128/116 133/115/103
f 147/130/118 146/129/117 134/116/104
f 148/131/119 147/130/118 135/117/105
f 149/132/120 148/131/119 136/118/106
f 150/133/121 149/132/120 137/119/107
f 152/134/122 151/146/133 139/122/110
f 153/135/123 152/134/122 140/123/111
f 154/136/124 153/135/123 141/124/112
f 155/137/125 154/136/124 142/125/113
f 156/138/126 155/137/125 143/127/115
f 145/128/116 157/140/128 156/138/126
f 146/129/117 158/141/129 157/140/128
f 147/130/118 159/142/130 158/141/129
f 148/131/119 160/143/131 159/142/130
f 149/132/120 161/144/132 160/143/131
f 150/133/121 162/155/134 161/144/132
f 32/145/5 31/7/4 151/146/133
f 33/147/7 32/145/5 152/134/122
f 34/148/9 33/147/7 153/135/123
f 35/149/11 34/148/9 154/136/124
f 36/150/13 35/149/11 155/137/125
f 37/151/15 36/150/13 156/138/126
f 158/141/129 38/152/16 37/151/15
f 159/142/130 39/153/17 38/152/16
f 160/143/131 40/154/19 39/153/17
f 161/144/132 41/156/21 40/154/19
f 162/155/134 42/191/23 41/156/21
f 176/157/135 175/167/158 163/4/136
f 177/158/138 176/157/135 164/17/137
f 178/159/140 177/158/138 165/19/139
f 179/160/142 178/159/140 166/21/141
f 180/161/144 179/160/142 167/23/143
f 181/162/146 180/161/144 168/25/145
f 170/28/148 182/163/150 181/162/146
f 171/29/149 183/164/152 182/163/150
f 172/31/151 184/165/154 183/164/152
f 173/33/153 185/166/156 184/165/154
f 174/35/155 186/178/169 185/166/156
f 176/157/135 188/168/159 187/9/157
f 177/158/138 189/169/160 188/168/159
f 178/159/140 190/170/161 189/169/160
f 179/160/142 191/171/162 190/170/161
f 180/161/144 192/184/175 191/171/162
f 193/172/163 192/184/175 180/161/144
f 194/173/164 193/172/163 181/162/146
f 195/174/165 194/173/164 182/163/150
f 196/175/166 195/174/165 183/164/152
f 197/176/167 196/175/166 184/165/154
f 198/177/168 197/176/167 185/166/156
f 200/179/170 199/190/181 187/9/157
f 201/180/171 200/179/170 188/168/159
f 202/181/172 201/180/171 189/169/160
f 203/182/173 202/181/172 190/170/161
f 204/183/174 203/182/173 191/171/162
f 205/185/176 204/183/174 192/184/175
f 194/173/164 206/186/177 205/185/176
f 195/174/165 207/187/178 206/186/177
f 196/175/166 208/188/179 207/187/178
f 197/176/167 209/189/180 208/188/179
f 198/177/168 210/192/182 209/189/180
f 200/179/170 164/145/137 163/7/136
f 201/180/171 165/147/139 164/145/137
f 202/181/172 166/148/141 165/147/139
f 203/182/173 167/149/143 166/148/141
f 204/183/174 168/150/145 167/149/143
f 169/151/147 168/150/145 204/183/174
f 170/152/148 169/151/147 205/185/176
f 171/153/149 170/152/148 206/186/177
f 172/154/151 171/153/149 207/187/178
f 173/156/153 172/154/151 208/188/179
f 174/191/155 173/156/153 209/189/180
