# Blender 5.1.0
# www.blender.org
mtllib 0.mtl
o 0
v 0.159868 -0.003947 0.230000
v 0.001974 -0.249342 0.230000
v -0.155263 -0.010526 0.230000
v 0.001316 0.225658 0.230000
v 0.003289 -0.226316 0.230000
v 0.094079 -0.073026 0.230000
v 0.094079 -0.013158 0.230000
v 0.094079 0.046710 0.230000
v 0.001974 0.201974 0.230000
v -0.089474 0.044079 0.230000
v -0.089474 -0.011842 0.230000
v -0.089474 -0.068421 0.230000
v 0.159868 -0.003947 -0.230000
v 0.001974 -0.249342 -0.230000
v -0.155263 -0.010526 -0.230000
v 0.001316 0.225658 -0.230000
v 0.003289 -0.226316 -0.230000
v 0.094079 -0.073026 -0.230000
v 0.094079 -0.013158 -0.230000
v 0.094079 0.046711 -0.230000
v 0.001974 0.201974 -0.230000
v -0.089474 0.044079 -0.230000
v -0.089474 -0.011842 -0.230000
v -0.089474 -0.068421 -0.230000
v 0.159868 -0.003947 -0.230000
v 0.171009 -0.003766 -0.228532
v 0.181059 -0.003602 -0.224270
v 0.189035 -0.003472 -0.217634
v 0.194156 -0.003388 -0.209270
v 0.195920 -0.003360 -0.200000
v 0.195920 -0.003360 0.200000
v 0.194156 -0.003388 0.209270
v 0.189035 -0.003472 0.217634
v 0.181059 -0.003602 0.224270
v 0.171009 -0.003766 0.228532
v 0.159868 -0.003947 0.230000
v 0.001974 -0.249342 -0.230000
v 0.002063 -0.266336 -0.228532
v 0.002144 -0.281666 -0.224271
v 0.002208 -0.293833 -0.217634
v 0.002249 -0.301644 -0.209271
v 0.002263 -0.304335 -0.200000
v 0.002263 -0.304335 0.200000
v 0.002249 -0.301644 0.209270
v 0.002208 -0.293833 0.217634
v 0.002144 -0.281666 0.224270
v 0.002063 -0.266336 0.228532
v 0.001974 -0.249342 0.230000
v -0.155263 -0.010526 -0.230000
v -0.166374 -0.010509 -0.228532
v -0.176398 -0.010493 -0.224270
v -0.184352 -0.010480 -0.217634
v -0.189459 -0.010472 -0.209270
v -0.191219 -0.010469 -0.200000
v -0.191219 -0.010469 0.200000
v -0.189459 -0.010472 0.209270
v -0.184352 -0.010480 0.217634
v -0.176398 -0.010493 0.224270
v -0.166374 -0.010509 0.228532
v -0.155263 -0.010526 0.230000
v 0.001316 0.225658 -0.230000
v 0.001159 0.242199 -0.228532
v 0.001018 0.257122 -0.224270
v 0.000906 0.268964 -0.217634
v 0.000834 0.276567 -0.209270
v 0.000809 0.279187 -0.200000
v 0.000809 0.279187 0.200000
v 0.000834 0.276567 0.209271
v 0.000906 0.268964 0.217634
v 0.001018 0.257122 0.224271
v 0.001159 0.242199 0.228532
v 0.001316 0.225658 0.230000
v 0.003289 -0.226316 -0.230000
v 0.003322 -0.208070 -0.228532
v 0.003351 -0.191609 -0.224271
v 0.003374 -0.178546 -0.217634
v 0.003389 -0.170159 -0.209270
v 0.003394 -0.167270 -0.200000
v 0.003394 -0.167270 0.200000
v 0.003389 -0.170160 0.209270
v 0.003374 -0.178546 0.217634
v 0.003351 -0.191609 0.224270
v 0.003322 -0.208070 0.228532
v 0.003289 -0.226316 0.230000
v 0.094079 -0.073026 -0.230000
v 0.084808 -0.070487 -0.228532
v 0.076445 -0.068196 -0.224270
v 0.069808 -0.066378 -0.217634
v 0.065547 -0.065211 -0.209270
v 0.064079 -0.064809 -0.200000
v 0.064079 -0.064809 0.200000
v 0.065547 -0.065211 0.209270
v 0.069808 -0.066378 0.217634
v 0.076445 -0.068196 0.224270
v 0.084808 -0.070487 0.228532
v 0.094079 -0.073026 0.230000
v 0.094079 -0.013158 -0.230000
v 0.084808 -0.013158 -0.228532
v 0.076445 -0.013158 -0.224270
v 0.069808 -0.013158 -0.217634
v 0.065547 -0.013158 -0.209270
v 0.064079 -0.013158 -0.200000
v 0.064079 -0.013158 0.200000
v 0.065547 -0.013158 0.209270
v 0.069808 -0.013158 0.217634
v 0.076445 -0.013158 0.224270
v 0.084808 -0.013158 0.228532
v 0.094079 -0.013158 0.230000
v 0.094079 0.046711 -0.230000
v 0.084808 0.044168 -0.228532
v 0.076445 0.041874 -0.224270
v 0.069808 0.040053 -0.217634
v 0.065547 0.038884 -0.209270
v 0.064079 0.038482 -0.200000
v 0.064079 0.038482 0.200000
v 0.065547 0.038884 0.209270
v 0.069808 0.040053 0.217634
v 0.076445 0.041874 0.224270
v 0.084808 0.044168 0.228532
v 0.094079 0.046710 0.230000
v 0.001974 0.201974 -0.230000
v 0.002070 0.183642 -0.228532
v 0.002156 0.167104 -0.224270
v 0.002225 0.153980 -0.217634
v 0.002269 0.145554 -0.209270
v 0.002284 0.142650 -0.200000
v 0.002284 0.142650 0.200000
v 0.002269 0.145554 0.209270
v 0.002225 0.153980 0.217634
v 0.002156 0.167104 0.224270
v 0.002070 0.183642 0.228532
v 0.001974 0.201974 0.230000
v -0.089474 0.044079 -0.230000
v -0.080203 0.041588 -0.228532
v -0.071840 0.039341 -0.224270
v -0.065203 0.037558 -0.217634
v -0.060942 0.036413 -0.209270
v -0.059474 0.036019 -0.200000
v -0.059474 0.036019 0.200000
v -0.060942 0.036413 0.209270
v -0.065203 0.037558 0.217634
v -0.071840 0.039341 0.224270
v -0.080203 0.041588 0.228532
v -0.089474 0.044079 0.230000
v -0.089474 -0.011842 -0.230000
v -0.080203 -0.011842 -0.228532
v -0.071840 -0.011842 -0.224270
v -0.065203 -0.011842 -0.217634
v -0.060942 -0.011842 -0.209270
v -0.059474 -0.011842 -0.200000
v -0.059474 -0.011842 0.200000
v -0.060942 -0.011842 0.209270
v -0.065203 -0.011842 0.217634
v -0.071840 -0.011842 0.224270
v -0.080203 -0.011842 0.228532
v -0.089474 -0.011842 0.230000
v -0.089474 -0.068421 -0.230000
v -0.080203 -0.065899 -0.228532
v -0.071840 -0.063624 -0.224270
v -0.065203 -0.061819 -0.217634
v -0.060942 -0.060660 -0.209270
v -0.059474 -0.060261 -0.200000
v -0.059474 -0.060261 0.200000
v -0.060942 -0.060660 0.209270
v -0.065203 -0.061819 0.217634
v -0.071840 -0.063625 0.224270
v -0.080203 -0.065899 0.228532
v -0.089474 -0.068421 0.230000
vn -0.0000 -0.0000 1.0000
vn -0.0000 -0.0000 -1.0000
vn 0.3082 0.0050 -0.9513
vn 0.0005 -0.0861 -0.9963
vn 0.1306 0.0021 -0.9914
vn 0.5574 0.0091 -0.8302
vn 0.0012 -0.2322 -0.9727
vn 0.7793 0.0127 -0.6265
vn 0.0023 -0.4319 -0.9019
vn 0.9401 0.0153 -0.3407
vn 0.0035 -0.6641 -0.7476
vn 0.9957 0.0162 -0.0910
vn 0.0047 -0.8947 -0.4466
vn 0.0052 -0.9913 0.1313
vn 0.9957 0.0162 0.0910
vn 0.0047 -0.8947 0.4466
vn 0.9401 0.0153 0.3407
vn 0.0035 -0.6641 0.7476
vn 0.7793 0.0127 0.6265
vn 0.0023 -0.4319 0.9019
vn 0.5574 0.0091 0.8302
vn 0.0012 -0.2322 0.9727
vn 0.3082 0.0050 0.9513
vn 0.0005 -0.0861 0.9963
vn 0.1306 0.0021 0.9914
vn -0.3086 0.0005 -0.9512
vn -0.5583 0.0009 -0.8297
vn -0.7800 0.0012 -0.6257
vn -0.9404 0.0015 -0.3400
vn -0.9959 0.0016 -0.0907
vn 0.0052 -0.9913 -0.1313
vn -0.9959 0.0016 0.0907
vn -0.9404 0.0015 0.3400
vn -0.7800 0.0012 0.6257
vn -0.5583 0.0009 0.8297
vn -0.3086 0.0005 0.9512
vn -0.0008 0.0884 -0.9961
vn -0.1310 0.0002 -0.9914
vn -0.0022 0.2371 -0.9715
vn -0.0042 0.4400 -0.8980
vn -0.0064 0.6724 -0.7402
vn -0.0085 0.8983 -0.4394
vn -0.0094 0.9917 -0.1283
vn -0.0085 0.8983 0.4394
vn -0.0064 0.6724 0.7402
vn -0.0042 0.4400 0.8980
vn -0.0022 0.2371 0.9715
vn -0.0008 0.0884 0.9961
vn -0.1310 0.0002 0.9914
vn -0.0094 0.9917 0.1284
vn 0.0002 0.1099 -0.9939
vn -0.1456 0.0399 -0.9885
vn 0.0001 0.0802 -0.9968
vn 0.0005 0.2901 -0.9570
vn -0.2658 0.0728 -0.9613
vn 0.0009 0.5162 -0.8564
vn -0.5367 0.1470 -0.8309
vn 0.0014 0.8077 -0.5895
vn -0.7611 0.2085 -0.6142
vn 0.0018 0.9864 -0.1645
vn -0.9114 0.2496 -0.3272
vn -0.9612 0.2633 0.0824
vn 0.0017 0.9864 0.1645
vn -0.9114 0.2496 0.3272
vn 0.0014 0.8077 0.5895
vn -0.7611 0.2085 0.6142
vn 0.0009 0.5162 0.8564
vn -0.5367 0.1470 0.8309
vn 0.0005 0.2901 0.9570
vn -0.2658 0.0728 0.9613
vn 0.0002 0.1099 0.9939
vn -0.1456 0.0399 0.9885
vn 0.0001 0.0802 0.9968
vn -0.1564 -0.0000 -0.9877
vn -0.3090 -0.0000 -0.9511
vn -0.5878 -0.0000 -0.8090
vn -0.8090 -0.0000 -0.5878
vn -0.9612 0.2633 -0.0824
vn -0.9511 -0.0000 -0.3090
vn -0.9969 -0.0000 0.0785
vn -0.9511 -0.0000 0.3090
vn -0.8090 -0.0000 0.5878
vn -0.5878 -0.0000 0.8090
vn -0.3090 -0.0000 0.9511
vn -0.1564 -0.0000 0.9877
vn -0.2658 -0.0729 -0.9613
vn -0.5366 -0.1472 -0.8309
vn -0.7610 -0.2087 -0.6142
vn -0.9113 -0.2500 -0.3273
vn -0.9611 -0.2636 -0.0824
vn -0.9969 -0.0000 -0.0785
vn -0.9611 -0.2636 0.0824
vn -0.9113 -0.2500 0.3273
vn -0.7610 -0.2087 0.6142
vn -0.5366 -0.1472 0.8309
vn -0.2658 -0.0729 0.9613
vn 0.0006 -0.1092 -0.9940
vn -0.1456 -0.0399 -0.9885
vn 0.0015 -0.2887 -0.9574
vn 0.0027 -0.5142 -0.8576
vn 0.0042 -0.8062 -0.5916
vn 0.0052 -0.9862 -0.1653
vn 0.0052 -0.9862 0.1653
vn 0.0042 -0.8062 0.5916
vn 0.0027 -0.5142 0.8576
vn 0.0015 -0.2887 0.9574
vn -0.1456 -0.0399 0.9885
vn 0.0006 -0.1092 0.9940
vn 0.1460 -0.0392 -0.9885
vn 0.0004 -0.0798 -0.9968
vn 0.2669 -0.0717 -0.9610
vn 0.5382 -0.1446 -0.8303
vn 0.7627 -0.2049 -0.6134
vn 0.9128 -0.2452 -0.3267
vn 0.9625 -0.2586 -0.0823
vn 0.9128 -0.2452 0.3267
vn 0.7627 -0.2049 0.6134
vn 0.5382 -0.1446 0.8303
vn 0.2669 -0.0717 0.9610
vn 0.1460 -0.0392 0.9885
vn 0.0004 -0.0798 0.9968
vn 0.1564 -0.0000 -0.9877
vn 0.3090 -0.0000 -0.9511
vn 0.5878 -0.0000 -0.8090
vn 0.8090 -0.0000 -0.5878
vn 0.9511 -0.0000 -0.3090
vn 0.9969 -0.0000 0.0785
vn 0.9625 -0.2586 0.0823
vn 0.9511 -0.0000 0.3090
vn 0.8090 -0.0000 0.5878
vn 0.5878 -0.0000 0.8090
vn 0.3090 -0.0000 0.9511
vn 0.1564 -0.0000 0.9877
vn 0.2662 0.0724 -0.9612
vn 0.5372 0.1461 -0.8307
vn 0.7617 0.2072 -0.6139
vn 0.9119 0.2480 -0.3270
vn 0.9617 0.2616 -0.0824
vn 0.9969 -0.0000 -0.0785
vn 0.9617 0.2616 0.0824
vn 0.9119 0.2480 0.3270
vn 0.7617 0.2072 0.6139
vn 0.5372 0.1461 0.8307
vn 0.2662 0.0724 0.9612
vn 0.1458 0.0397 -0.9885
vn 0.1458 0.0397 0.9885
vt 0.181818 0.000000
vt 1.000000 0.000000
vt 0.909091 0.000000
vt 0.090909 0.000000
vt 0.818182 0.000000
vt 0.272727 0.000000
vt 0.636364 0.000000
vt 0.545455 0.000000
vt 0.000000 0.000000
vt 0.454545 0.000000
vt 0.363636 0.000000
vt 0.727273 0.000000
vt 0.000000 0.090909
vt 0.250000 0.000000
vt 0.000000 0.181818
vt 0.250000 0.090909
vt 0.000000 0.272727
vt 0.250000 0.181818
vt 0.000000 0.363636
vt 0.250000 0.272727
vt 0.000000 0.454545
vt 0.250000 0.363636
vt 0.250000 0.545455
vt 0.000000 0.545455
vt 0.250000 0.636364
vt 0.000000 0.636364
vt 0.250000 0.727273
vt 0.000000 0.727273
vt 0.250000 0.818182
vt 0.000000 0.818182
vt 0.250000 0.909091
vt 0.000000 0.909091
vt 0.250000 1.000000
vt 0.000000 1.000000
vt 0.500000 0.090909
vt 0.500000 0.181818
vt 0.500000 0.272727
vt 0.500000 0.363636
vt 0.500000 0.454545
vt 0.250000 0.454545
vt 0.500000 0.545455
vt 0.500000 0.636364
vt 0.500000 0.727273
vt 0.500000 0.818182
vt 0.500000 0.909091
vt 0.750000 0.000000
vt 0.500000 0.000000
vt 0.750000 0.090909
vt 0.750000 0.181818
vt 0.750000 0.272727
vt 0.750000 0.363636
vt 0.750000 0.454545
vt 0.750000 0.636364
vt 0.750000 0.727273
vt 0.750000 0.818182
vt 0.750000 0.909091
vt 0.750000 1.000000
vt 0.500000 1.000000
vt 1.000000 0.090909
vt 1.000000 0.181818
vt 1.000000 0.272727
vt 1.000000 0.363636
vt 1.000000 0.454545
vt 1.000000 0.545455
vt 0.750000 0.545455
vt 1.000000 0.636364
vt 1.000000 0.727273
vt 1.000000 0.818182
vt 1.000000 0.909091
vt 0.125000 0.000000
vt 0.125000 0.090909
vt 0.125000 0.181818
vt 0.125000 0.272727
vt 0.125000 0.363636
vt 0.125000 0.545455
vt 0.125000 0.636364
vt 0.125000 0.727273
vt 0.125000 0.818182
vt 0.125000 0.909091
vt 0.125000 1.000000
vt 0.125000 0.454545
vt 0.375000 0.090909
vt 0.375000 0.181818
vt 0.375000 0.272727
vt 0.375000 0.363636
vt 0.375000 0.454545
vt 0.375000 0.545455
vt 0.375000 0.636364
vt 0.375000 0.727273
vt 0.375000 0.818182
vt 0.375000 0.909091
vt 0.375000 0.000000
vt 0.375000 1.000000
vt 0.625000 0.000000
vt 0.625000 0.090909
vt 0.625000 0.181818
vt 0.625000 0.272727
vt 0.625000 0.363636
vt 0.625000 0.454545
vt 0.625000 0.636364
vt 0.625000 0.727273
vt 0.625000 0.818182
vt 0.625000 0.909091
vt 0.625000 1.000000
vt 0.625000 0.545455
vt 0.875000 0.090909
vt 0.875000 0.181818
vt 0.875000 0.272727
vt 0.875000 0.363636
vt 0.875000 0.454545
vt 0.875000 0.545455
vt 0.875000 0.636364
vt 0.875000 0.727273
vt 0.875000 0.818182
vt 0.875000 0.909091
vt 0.875000 0.000000
vt 0.875000 1.000000
vt 1.000000 1.000000
s 0
usemtl マテリアル.028
f 3/1/1 12/2/1 11/3/1
f 12/2/1 3/1/1 2/4/1
f 3/1/1 11/3/1 10/5/1
f 10/5/1 4/6/1 3/1/1
f 8/7/1 7/8/1 1/9/1
f 1/9/1 7/8/1 6/10/1
f 1/9/1 6/10/1 2/4/1
f 6/10/1 5/11/1 2/4/1
f 12/2/1 2/4/1 5/11/1
f 4/6/1 10/5/1 9/12/1
f 9/12/1 8/7/1 4/6/1
f 8/7/1 1/9/1 4/6/1
f 15/1/2 23/3/2 24/2/2
f 24/2/2 14/4/2 15/1/2
f 15/1/2 22/5/2 23/3/2
f 22/5/2 15/1/2 16/6/2
f 20/7/2 13/9/2 19/8/2
f 13/9/2 18/10/2 19/8/2
f 13/9/2 14/4/2 18/10/2
f 18/10/2 14/4/2 17/11/2
f 24/2/2 17/11/2 14/4/2
f 16/6/2 21/12/2 22/5/2
f 21/12/2 16/6/2 20/7/2
f 20/7/2 16/6/2 13/9/2
s 1
f 26/13/3 37/14/4 25/9/5
f 27/15/6 38/16/7 26/13/3
f 28/17/8 39/18/9 27/15/6
f 29/19/10 40/20/11 28/17/8
f 30/21/12 41/22/13 29/19/10
f 43/23/14 30/21/12 31/24/15
f 44/25/16 31/24/15 32/26/17
f 45/27/18 32/26/17 33/28/19
f 46/29/20 33/28/19 34/30/21
f 47/31/22 34/30/21 35/32/23
f 48/33/24 35/32/23 36/34/25
f 50/35/26 37/14/4 38/16/7
f 51/36/27 38/16/7 39/18/9
f 52/37/28 39/18/9 40/20/11
f 53/38/29 40/20/11 41/22/13
f 54/39/30 41/22/13 42/40/31
f 55/41/32 42/40/31 43/23/14
f 44/25/16 55/41/32 43/23/14
f 45/27/18 56/42/33 44/25/16
f 46/29/20 57/43/34 45/27/18
f 47/31/22 58/44/35 46/29/20
f 48/33/24 59/45/36 47/31/22
f 50/35/26 61/46/37 49/47/38
f 51/36/27 62/48/39 50/35/26
f 52/37/28 63/49/40 51/36/27
f 53/38/29 64/50/41 52/37/28
f 54/39/30 65/51/42 53/38/29
f 55/41/32 66/52/43 54/39/30
f 68/53/44 55/41/32 56/42/33
f 69/54/45 56/42/33 57/43/34
f 70/55/46 57/43/34 58/44/35
f 71/56/47 58/44/35 59/45/36
f 72/57/48 59/45/36 60/58/49
f 26/59/3 61/46/37 62/48/39
f 27/60/6 62/48/39 63/49/40
f 28/61/8 63/49/40 64/50/41
f 29/62/10 64/50/41 65/51/42
f 30/63/12 65/51/42 66/52/43
f 31/64/15 66/52/43 67/65/50
f 68/53/44 31/64/15 67/65/50
f 69/54/45 32/66/17 68/53/44
f 70/55/46 33/67/19 69/54/45
f 71/56/47 34/68/21 70/55/46
f 72/57/48 35/69/23 71/56/47
f 74/13/51 85/70/52 73/9/53
f 75/15/54 86/71/55 74/13/51
f 76/17/56 87/72/57 75/15/54
f 77/19/58 88/73/59 76/17/56
f 78/21/60 89/74/61 77/19/58
f 91/75/62 78/21/60 79/24/63
f 92/76/64 79/24/63 80/26/65
f 93/77/66 80/26/65 81/28/67
f 94/78/68 81/28/67 82/30/69
f 95/79/70 82/30/69 83/32/71
f 96/80/72 83/32/71 84/34/73
f 86/71/55 97/14/74 85/70/52
f 87/72/57 98/16/75 86/71/55
f 88/73/59 99/18/76 87/72/57
f 89/74/61 100/20/77 88/73/59
f 90/81/78 101/22/79 89/74/61
f 103/23/80 90/81/78 91/75/62
f 104/25/81 91/75/62 92/76/64
f 105/27/82 92/76/64 93/77/66
f 106/29/83 93/77/66 94/78/68
f 107/31/84 94/78/68 95/79/70
f 108/33/85 95/79/70 96/80/72
f 110/82/86 97/14/74 98/16/75
f 111/83/87 98/16/75 99/18/76
f 112/84/88 99/18/76 100/20/77
f 113/85/89 100/20/77 101/22/79
f 114/86/90 101/22/79 102/40/91
f 115/87/92 102/40/91 103/23/80
f 104/25/81 115/87/92 103/23/80
f 105/27/82 116/88/93 104/25/81
f 106/29/83 117/89/94 105/27/82
f 107/31/84 118/90/95 106/29/83
f 108/33/85 119/91/96 107/31/84
f 122/35/97 109/92/98 110/82/86
f 123/36/99 110/82/86 111/83/87
f 124/37/100 111/83/87 112/84/88
f 125/38/101 112/84/88 113/85/89
f 126/39/102 113/85/89 114/86/90
f 127/41/103 114/86/90 115/87/92
f 116/88/93 127/41/103 115/87/92
f 117/89/94 128/42/104 116/88/93
f 118/90/95 129/43/105 117/89/94
f 119/91/96 130/44/106 118/90/95
f 120/93/107 131/45/108 119/91/96
f 122/35/97 133/94/109 121/47/110
f 123/36/99 134/95/111 122/35/97
f 124/37/100 135/96/112 123/36/99
f 125/38/101 136/97/113 124/37/100
f 126/39/102 137/98/114 125/38/101
f 127/41/103 138/99/115 126/39/102
f 140/100/116 127/41/103 128/42/104
f 141/101/117 128/42/104 129/43/105
f 142/102/118 129/43/105 130/44/106
f 143/103/119 130/44/106 131/45/108
f 144/104/120 131/45/108 132/58/121
f 134/95/111 145/46/122 133/94/109
f 135/96/112 146/48/123 134/95/111
f 136/97/113 147/49/124 135/96/112
f 137/98/114 148/50/125 136/97/113
f 138/99/115 149/51/126 137/98/114
f 151/65/127 138/99/115 139/105/128
f 152/53/129 139/105/128 140/100/116
f 153/54/130 140/100/116 141/101/117
f 154/55/131 141/101/117 142/102/118
f 155/56/132 142/102/118 143/103/119
f 156/57/133 143/103/119 144/104/120
f 158/106/134 145/46/122 146/48/123
f 159/107/135 146/48/123 147/49/124
f 160/108/136 147/49/124 148/50/125
f 161/109/137 148/50/125 149/51/126
f 162/110/138 149/51/126 150/52/139
f 151/65/127 162/110/138 150/52/139
f 152/53/129 163/111/140 151/65/127
f 153/54/130 164/112/141 152/53/129
f 154/55/131 165/113/142 153/54/130
f 155/56/132 166/114/143 154/55/131
f 156/57/133 167/115/144 155/56/132
f 74/59/51 157/116/145 158/106/134
f 75/60/54 158/106/134 159/107/135
f 76/61/56 159/107/135 160/108/136
f 77/62/58 160/108/136 161/109/137
f 78/63/60 161/109/137 162/110/138
f 79/64/63 162/110/138 163/111/140
f 164/112/141 79/64/63 163/111/140
f 165/113/142 80/66/65 164/112/141
f 166/114/143 81/67/67 165/113/142
f 167/115/144 82/68/69 166/114/143
f 168/117/146 83/69/71 167/115/144
f 26/13/3 38/16/7 37/14/4
f 27/15/6 39/18/9 38/16/7
f 28/17/8 40/20/11 39/18/9
f 29/19/10 41/22/13 40/20/11
f 30/21/12 42/40/31 41/22/13
f 43/23/14 42/40/31 30/21/12
f 44/25/16 43/23/14 31/24/15
f 45/27/18 44/25/16 32/26/17
f 46/29/20 45/27/18 33/28/19
f 47/31/22 46/29/20 34/30/21
f 48/33/24 47/31/22 35/32/23
f 50/35/26 49/47/38 37/14/4
f 51/36/27 50/35/26 38/16/7
f 52/37/28 51/36/27 39/18/9
f 53/38/29 52/37/28 40/20/11
f 54/39/30 53/38/29 41/22/13
f 55/41/32 54/39/30 42/40/31
f 44/25/16 56/42/33 55/41/32
f 45/27/18 57/43/34 56/42/33
f 46/29/20 58/44/35 57/43/34
f 47/31/22 59/45/36 58/44/35
f 48/33/24 60/58/49 59/45/36
f 50/35/26 62/48/39 61/46/37
f 51/36/27 63/49/40 62/48/39
f 52/37/28 64/50/41 63/49/40
f 53/38/29 65/51/42 64/50/41
f 54/39/30 66/52/43 65/51/42
f 55/41/32 67/65/50 66/52/43
f 68/53/44 67/65/50 55/41/32
f 69/54/45 68/53/44 56/42/33
f 70/55/46 69/54/45 57/43/34
f 71/56/47 70/55/46 58/44/35
f 72/57/48 71/56/47 59/45/36
f 26/59/3 25/2/5 61/46/37
f 27/60/6 26/59/3 62/48/39
f 28/61/8 27/60/6 63/49/40
f 29/62/10 28/61/8 64/50/41
f 30/63/12 29/62/10 65/51/42
f 31/64/15 30/63/12 66/52/43
f 68/53/44 32/66/17 31/64/15
f 69/54/45 33/67/19 32/66/17
f 70/55/46 34/68/21 33/67/19
f 71/56/47 35/69/23 34/68/21
f 72/57/48 36/118/25 35/69/23
f 74/13/51 86/71/55 85/70/52
f 75/15/54 87/72/57 86/71/55
f 76/17/56 88/73/59 87/72/57
f 77/19/58 89/74/61 88/73/59
f 78/21/60 90/81/78 89/74/61
f 91/75/62 90/81/78 78/21/60
f 92/76/64 91/75/62 79/24/63
f 93/77/66 92/76/64 80/26/65
f 94/78/68 93/77/66 81/28/67
f 95/79/70 94/78/68 82/30/69
f 96/80/72 95/79/70 83/32/71
f 86/71/55 98/16/75 97/14/74
f 87/72/57 99/18/76 98/16/75
f 88/73/59 100/20/77 99/18/76
f 89/74/61 101/22/79 100/20/77
f 90/81/78 102/40/91 101/22/79
f 103/23/80 102/40/91 90/81/78
f 104/25/81 103/23/80 91/75/62
f 105/27/82 104/25/81 92/76/64
f 106/29/83 105/27/82 93/77/66
f 107/31/84 106/29/83 94/78/68
f 108/33/85 107/31/84 95/79/70
f 110/82/86 109/92/98 97/14/74
f 111/83/87 110/82/86 98/16/75
f 112/84/88 111/83/87 99/18/76
f 113/85/89 112/84/88 100/20/77
f 114/86/90 113/85/89 101/22/79
f 115/87/92 114/86/90 102/40/91
f 104/25/81 116/88/93 115/87/92
f 105/27/82 117/89/94 116/88/93
f 106/29/83 118/90/95 117/89/94
f 107/31/84 119/91/96 118/90/95
f 108/33/85 120/93/107 119/91/96
f 122/35/97 121/47/110 109/92/98
f 123/36/99 122/35/97 110/82/86
f 124/37/100 123/36/99 111/83/87
f 125/38/101 124/37/100 112/84/88
f 126/39/102 125/38/101 113/85/89
f 127/41/103 126/39/102 114/86/90
f 116/88/93 128/42/104 127/41/103
f 117/89/94 129/43/105 128/42/104
f 118/90/95 130/44/106 129/43/105
f 119/91/96 131/45/108 130/44/106
f 120/93/107 132/58/121 131/45/108
f 122/35/97 134/95/111 133/94/109
f 123/36/99 135/96/112 134/95/111
f 124/37/100 136/97/113 135/96/112
f 125/38/101 137/98/114 136/97/113
f 126/39/102 138/99/115 137/98/114
f 127/41/103 139/105/128 138/99/115
f 140/100/116 139/105/128 127/41/103
f 141/101/117 140/100/116 128/42/104
f 142/102/118 141/101/117 129/43/105
f 143/103/119 142/102/118 130/44/106
f 144/104/120 143/103/119 131/45/108
f 134/95/111 146/48/123 145/46/122
f 135/96/112 147/49/124 146/48/123
f 136/97/113 148/50/125 147/49/124
f 137/98/114 149/51/126 148/50/125
f 138/99/115 150/52/139 149/51/126
f 151/65/127 150/52/139 138/99/115
f 152/53/129 151/65/127 139/105/128
f 153/54/130 152/53/129 140/100/116
f 154/55/131 153/54/130 141/101/117
f 155/56/132 154/55/131 142/102/118
f 156/57/133 155/56/132 143/103/119
f 158/106/134 157/116/145 145/46/122
f 159/107/135 158/106/134 146/48/123
f 160/108/136 159/107/135 147/49/124
f 161/109/137 160/108/136 148/50/125
f 162/110/138 161/109/137 149/51/126
f 151/65/127 163/111/140 162/110/138
f 152/53/129 164/112/141 163/111/140
f 153/54/130 165/113/142 164/112/141
f 154/55/131 166/114/143 165/113/142
f 155/56/132 167/115/144 166/114/143
f 156/57/133 168/117/146 167/115/144
f 74/59/51 73/2/53 157/116/145
f 75/60/54 74/59/51 158/106/134
f 76/61/56 75/60/54 159/107/135
f 77/62/58 76/61/56 160/108/136
f 78/63/60 77/62/58 161/109/137
f 79/64/63 78/63/60 162/110/138
f 164/112/141 80/66/65 79/64/63
f 165/113/142 81/67/67 80/66/65
f 166/114/143 82/68/69 81/67/67
f 167/115/144 83/69/71 82/68/69
f 168/117/146 84/118/73 83/69/71
