# Blender 5.1.0
# www.blender.org
mtllib plate.mtl
o Cube
v 1.000000 0.150000 -0.743055
v 0.743055 0.150000 -1.000000
v 0.980441 0.150000 -0.841384
v 0.924743 0.150000 -0.924743
v 0.841384 0.150000 -0.980441
v 0.743055 0.000000 -1.000000
v 1.000000 0.000000 -0.743055
v 0.841384 0.000000 -0.980441
v 0.924743 0.000000 -0.924743
v 0.980441 0.000000 -0.841384
v 0.743055 0.150000 1.000000
v 1.000000 0.150000 0.743055
v 0.841384 0.150000 0.980441
v 0.924743 0.150000 0.924743
v 0.980441 0.150000 0.841384
v 1.000000 0.000000 0.743055
v 0.743055 0.000000 1.000000
v 0.980441 0.000000 0.841384
v 0.924743 0.000000 0.924743
v 0.841384 0.000000 0.980441
v -0.743055 0.150000 -1.000000
v -1.000000 0.150000 -0.743055
v -0.841384 0.150000 -0.980441
v -0.924743 0.150000 -0.924743
v -0.980441 0.150000 -0.841384
v -1.000000 0.000000 -0.743055
v -0.743055 0.000000 -1.000000
v -0.980441 0.000000 -0.841384
v -0.924743 0.000000 -0.924743
v -0.841384 0.000000 -0.980441
v -1.000000 0.150000 0.743055
v -0.743055 0.150000 1.000000
v -0.980441 0.150000 0.841384
v -0.924743 0.150000 0.924743
v -0.841384 0.150000 0.980441
v -0.743055 0.000000 1.000000
v -1.000000 0.000000 0.743055
v -0.841384 0.000000 0.980441
v -0.924743 0.000000 0.924743
v -0.980441 0.000000 0.841384
vn 0.9952 -0.0000 -0.0980
vn 0.9239 -0.0000 -0.3827
vn 0.7071 -0.0000 -0.7071
vn 0.3827 -0.0000 -0.9239
vn 0.0980 -0.0000 -0.9952
vn -0.0980 -0.0000 0.9952
vn -0.3827 -0.0000 0.9239
vn -0.7071 -0.0000 0.7071
vn -0.9239 -0.0000 0.3827
vn -0.9952 -0.0000 0.0980
vn 0.0980 -0.0000 0.9952
vn 0.3827 -0.0000 0.9239
vn 0.7071 -0.0000 0.7071
vn 0.9239 -0.0000 0.3827
vn 0.9952 -0.0000 0.0980
vn -0.0980 -0.0000 -0.9952
vn -0.3827 -0.0000 -0.9239
vn -0.7071 -0.0000 -0.7071
vn -0.9239 -0.0000 -0.3827
vn -0.9952 -0.0000 -0.0980
vn -0.0000 1.0000 -0.0000
vn -0.0000 -1.0000 -0.0000
vt 0.625000 0.532118
vt 0.375000 0.532118
vt 0.374185 0.519827
vt 0.625815 0.519827
vt 0.371864 0.503136
vt 0.628136 0.503136
vt 0.368391 0.487597
vt 0.631609 0.487597
vt 0.364294 0.478588
vt 0.635706 0.478588
vt 0.375000 0.967882
vt 0.625000 0.967882
vt 0.625000 0.980173
vt 0.375000 0.980173
vt 0.625000 1.000000
vt 0.375000 1.000000
vt 0.375000 0.000000
vt 0.625000 0.000000
vt 0.625000 0.019827
vt 0.375000 0.019827
vt 0.625000 0.032118
vt 0.375000 0.032118
vt 0.635706 0.771412
vt 0.364294 0.771412
vt 0.368391 0.762403
vt 0.631609 0.762403
vt 0.371864 0.746864
vt 0.628136 0.746864
vt 0.374185 0.730173
vt 0.625815 0.730173
vt 0.375000 0.717882
vt 0.625000 0.717882
vt 0.625000 0.282118
vt 0.375000 0.282118
vt 0.375000 0.269827
vt 0.625000 0.269827
vt 0.375000 0.250000
vt 0.625000 0.250000
vt 0.375000 0.230173
vt 0.625000 0.230173
vt 0.375000 0.217882
vt 0.625000 0.217882
vt 0.842882 0.500000
vt 0.855173 0.502445
vt 0.865593 0.509407
vt 0.872555 0.519827
vt 0.875000 0.532118
vt 0.875000 0.717882
vt 0.872555 0.730173
vt 0.865593 0.740593
vt 0.855173 0.747555
vt 0.842882 0.750000
vt 0.125000 0.532118
vt 0.127445 0.519827
vt 0.134407 0.509407
vt 0.144827 0.502445
vt 0.157118 0.500000
vt 0.157118 0.750000
vt 0.144827 0.747555
vt 0.134407 0.740593
vt 0.127445 0.730173
vt 0.125000 0.717882
s 1
usemtl Material
f 1/1/1 7/2/1 10/3/2
f 1/1/1 10/3/2 3/4/2
f 3/4/2 10/3/2 9/5/3
f 3/4/2 9/5/3 4/6/3
f 4/6/3 9/5/3 8/7/4
f 4/6/3 8/7/4 5/8/4
f 5/8/4 8/7/4 6/9/5
f 5/8/4 6/9/5 2/10/5
f 36/11/6 32/12/6 35/13/7
f 36/11/6 35/13/7 38/14/7
f 38/14/7 35/13/7 34/15/8
f 38/14/7 34/15/8 39/16/8
f 39/17/8 34/18/8 33/19/9
f 39/17/8 33/19/9 40/20/9
f 40/20/9 33/19/9 31/21/10
f 40/20/9 31/21/10 37/22/10
f 11/23/11 17/24/11 20/25/12
f 11/23/11 20/25/12 13/26/12
f 13/26/12 20/25/12 19/27/13
f 13/26/12 19/27/13 14/28/13
f 14/28/13 19/27/13 18/29/14
f 14/28/13 18/29/14 15/30/14
f 15/30/14 18/29/14 16/31/15
f 15/30/14 16/31/15 12/32/15
f 21/33/16 27/34/16 30/35/17
f 21/33/16 30/35/17 23/36/17
f 23/36/17 30/35/17 29/37/18
f 23/36/17 29/37/18 24/38/18
f 24/38/18 29/37/18 28/39/19
f 24/38/18 28/39/19 25/40/19
f 25/40/19 28/39/19 26/41/20
f 25/40/19 26/41/20 22/42/20
f 27/34/16 21/33/16 2/10/5
f 27/34/16 2/10/5 6/9/5
f 7/2/1 1/1/1 12/32/15
f 7/2/1 12/32/15 16/31/15
f 1/1/21 3/4/21 4/6/21
f 1/1/21 4/6/21 5/8/21
f 1/1/21 5/8/21 2/10/21
f 1/1/21 2/10/21 21/43/21
f 1/1/21 21/43/21 23/44/21
f 1/1/21 23/44/21 24/45/21
f 1/1/21 24/45/21 25/46/21
f 1/1/21 25/46/21 22/47/21
f 1/1/21 22/47/21 31/48/21
f 1/1/21 31/48/21 33/49/21
f 1/1/21 33/49/21 34/50/21
f 1/1/21 34/50/21 35/51/21
f 1/1/21 35/51/21 32/52/21
f 1/1/21 32/52/21 11/23/21
f 1/1/21 11/23/21 13/26/21
f 1/1/21 13/26/21 14/28/21
f 1/1/21 14/28/21 15/30/21
f 1/1/21 15/30/21 12/32/21
f 26/53/22 28/54/22 29/55/22
f 26/53/22 29/55/22 30/56/22
f 26/53/22 30/56/22 27/57/22
f 26/53/22 27/57/22 6/9/22
f 26/53/22 6/9/22 8/7/22
f 26/53/22 8/7/22 9/5/22
f 26/53/22 9/5/22 10/3/22
f 26/53/22 10/3/22 7/2/22
f 26/53/22 7/2/22 16/31/22
f 26/53/22 16/31/22 18/29/22
f 26/53/22 18/29/22 19/27/22
f 26/53/22 19/27/22 20/25/22
f 26/53/22 20/25/22 17/24/22
f 26/53/22 17/24/22 36/58/22
f 26/53/22 36/58/22 38/59/22
f 26/53/22 38/59/22 39/60/22
f 26/53/22 39/60/22 40/61/22
f 26/53/22 40/61/22 37/62/22
f 17/24/11 11/23/11 32/12/6
f 17/24/11 32/12/6 36/11/6
f 37/22/10 31/21/10 22/42/20
f 37/22/10 22/42/20 26/41/20
