# Blender 5.1.0
# www.blender.org
mtllib cloneObject.mtl
o cloneObject
v -0.046284 0.168118 -0.384613
v 0.035002 0.051524 -0.431779
v -0.040894 -0.315573 -0.326817
v 0.000089 -0.412602 -0.201556
v 0.083366 -0.189485 -0.400276
v 0.213362 -0.025561 -0.378029
v 0.201553 0.206217 -0.300261
v 0.079591 0.368994 -0.135017
v 0.280256 -0.195877 -0.289228
v 0.047703 -0.455603 0.000035
v 0.315899 0.209218 -0.173493
v 0.380579 0.015297 -0.208817
v 0.361756 -0.233656 -0.130701
v 0.186863 -0.393792 -0.156251
v 0.264947 0.301556 0.003625
v 0.410336 0.082955 0.069591
v 0.320283 -0.304651 0.058395
v 0.395323 -0.170112 0.086317
v 0.131364 0.370761 -0.003044
v 0.271579 0.212609 0.212356
v 0.273632 -0.236725 0.259745
v 0.267100 0.010107 0.327103
v 0.148035 -0.417819 0.104169
v 0.075001 0.324953 0.218667
v 0.111273 0.171362 0.351853
v 0.056539 -0.361664 0.252926
v -0.008185 -0.032534 0.419572
v 0.052749 -0.210622 0.381288
v -0.113190 0.130201 0.368578
v -0.124073 0.301826 0.219400
v -0.275124 0.121438 0.281018
v -0.277982 -0.076134 0.318173
v -0.230938 -0.225432 0.295621
v -0.249408 -0.346254 0.146953
v -0.087049 -0.401253 0.191775
v -0.077496 0.385798 0.047110
v -0.393137 -0.128181 0.124148
v -0.279773 0.280975 0.087492
v -0.379010 0.165815 0.024855
v -0.426574 0.020424 0.015514
v -0.102516 -0.447172 -0.035032
v -0.380663 -0.231654 -0.080099
v -0.252744 0.279590 -0.156478
v -0.369256 0.050242 -0.207600
v -0.232155 0.051515 -0.361018
v -0.267327 -0.280230 -0.239675
v -0.216009 -0.376767 -0.148930
v -0.161349 0.247909 -0.287292
v -0.228309 -0.144863 -0.365299
v -0.033784 0.340303 -0.224457
vn -0.0066 -0.9783 -0.2071
vn 0.2802 -0.6742 -0.6833
vn 0.1456 0.6681 -0.7297
vn 0.2294 -0.7317 -0.6419
vn 0.4565 0.7788 -0.4302
vn 0.6511 0.2710 -0.7089
vn 0.0627 0.9973 -0.0379
vn 0.8463 -0.2167 -0.4867
vn 0.4590 0.8675 -0.1917
vn 0.8726 -0.4884 0.0080
vn 0.8378 0.5443 -0.0428
vn 0.5500 -0.8351 0.0050
vn 0.7787 0.5857 0.2249
vn 0.8030 0.2803 0.5259
vn 0.4295 0.8566 0.2862
vn 0.7837 -0.5105 0.3538
vn 0.4098 -0.7411 0.5318
vn 0.4494 -0.2241 0.8648
vn 0.2956 0.1406 0.9449
vn 0.0833 -0.9143 0.3964
vn -0.1036 0.9048 0.4130
vn -0.1431 -0.6430 0.7524
vn -0.0617 0.6455 0.7612
vn -0.1023 -0.9736 0.2041
vn -0.3596 0.0597 0.9312
vn -0.4002 -0.6862 0.6074
vn -0.4106 0.5832 0.7009
vn -0.3854 0.8662 0.3180
vn -0.7905 0.4632 0.4008
vn -0.3650 -0.9074 0.2086
vn -0.8779 0.2614 0.4013
vn -0.7721 -0.3257 0.5456
vn -0.8258 -0.5219 0.2140
vn -0.9805 -0.1929 0.0379
vn -0.6605 -0.7508 0.0029
vn -0.4683 0.8817 -0.0569
vn 0.9938 -0.0649 -0.0904
vn -0.8390 -0.1957 -0.5077
vn -0.7456 -0.0001 -0.6663
vn -0.8246 -0.2384 -0.5131
vn -0.3708 -0.5720 -0.7316
vn -0.3407 -0.7337 -0.5878
vn -0.2635 -0.8025 -0.5354
vn -0.3805 0.4421 -0.8123
vn -0.2326 -0.9138 -0.3330
vn -0.2505 0.2079 -0.9455
vn -0.1320 -0.1545 -0.9791
vn 0.2583 -0.0741 -0.9632
vn 0.2124 0.4901 -0.8454
vn 0.2572 0.7766 -0.5751
vn 0.3652 -0.6317 -0.6838
vn 0.3947 0.3103 -0.8648
vn 0.4685 -0.2568 -0.8454
vn 0.1549 -0.9581 -0.2410
vn 0.7185 -0.0782 -0.6911
vn 0.6320 -0.6150 -0.4715
vn 0.6925 0.3463 -0.6329
vn 0.5061 0.8159 -0.2798
vn 0.8341 -0.1246 0.5374
vn 0.6799 -0.7230 -0.1223
vn 0.9225 0.3407 -0.1814
vn 0.3784 -0.9252 -0.0289
vn -0.3082 -0.2363 0.9215
vn 0.4761 0.8144 0.3319
vn 0.5764 -0.7245 0.3780
vn 0.5380 0.4065 0.7384
vn 0.1250 0.9649 0.2311
vn 0.3267 -0.6073 0.7242
vn 0.3942 0.6535 0.6462
vn 0.3295 -0.0893 0.9399
vn 0.0454 -0.9523 0.3018
vn 0.0145 0.3075 0.9514
vn -0.1987 -0.6138 0.7640
vn -0.0729 0.6516 0.7550
vn -0.8818 0.1325 0.4526
vn -0.4758 0.1692 0.8631
vn -0.5444 0.6408 0.5413
vn -0.6638 0.4605 -0.5893
vn -0.7615 -0.4535 0.4631
vn -0.5449 -0.8381 0.0249
vn -0.9282 0.3163 -0.1962
vn -0.9631 -0.0776 -0.2578
vn -0.7315 0.6765 -0.0849
vn -0.6982 -0.6510 -0.2977
vn -0.8309 0.4835 -0.2752
vn -0.3204 0.9245 -0.2065
vn -0.3660 0.8131 -0.4526
vn -0.1049 0.9779 -0.1807
vn -0.2560 0.0161 -0.9665
vn -0.1565 -0.3775 -0.9127
vn -0.1377 0.6799 -0.7202
vn 0.9865 -0.1122 -0.1197
vn 0.8761 -0.0201 0.4816
vn -0.2630 -0.2879 0.9208
vn -0.8673 0.1041 0.4868
vn -0.6672 0.4681 -0.5795
vt 0.116650 0.436035
vt 0.132355 0.539347
vt 0.065377 0.523698
vt 0.495519 0.340740
vt 0.557820 0.275727
vt 0.581389 0.352696
vt 0.499581 0.005926
vt 0.614120 0.069365
vt 0.487215 0.094726
vt 0.119781 0.375562
vt 0.212254 0.457771
vt 0.450801 0.514959
vt 0.390728 0.644207
vt 0.364359 0.541515
vt 0.690980 0.166820
vt 0.622474 0.190695
vt 0.559782 0.472499
vt 0.505441 0.556093
vt 0.891743 0.026671
vt 0.772904 0.065665
vt 0.801847 0.008785
vt 0.487562 0.634363
vt 0.807665 0.166527
vt 0.727209 0.162107
vt 0.488360 0.698259
vt 0.293817 0.558318
vt 0.193086 0.594488
vt 0.594398 0.671921
vt 0.934053 0.154836
vt 0.984238 0.243435
vt 0.896529 0.292797
vt 0.624127 0.572241
vt 0.771945 0.274064
vt 0.250400 0.660819
vt 0.155005 0.672298
vt 0.711816 0.489410
vt 0.786992 0.606182
vt 0.710286 0.626083
vt 0.761311 0.406187
vt 0.816875 0.509839
vt 0.076033 0.628837
vt 0.656522 0.477937
vt 0.867537 0.696316
vt 0.802855 0.693791
vt 0.816065 0.354777
vt 0.876930 0.426338
vt 0.951015 0.536446
vt 0.933555 0.620222
vt 0.949463 0.669664
vt 0.896634 0.356809
vt 0.956432 0.431785
vt 0.612673 0.395693
vt 0.127201 0.006132
vt 0.142796 0.052816
vt 0.023047 0.075954
vt 0.020037 0.615750
vt 0.144104 0.131951
vt 0.018565 0.181642
vt 0.087145 0.207992
vt 0.025991 0.262992
vt 0.093741 0.328095
vt 0.189778 0.253427
vt 0.202896 0.355070
vt 0.493824 0.369630
vt 0.262052 0.114073
vt 0.318506 0.196682
vt 0.316122 0.096192
vt 0.280135 0.288425
vt 0.405688 0.301786
vt 0.417393 0.252818
vt 0.431597 0.352696
vt 0.021403 0.462566
vt 0.427038 0.046730
vt 0.392835 0.153470
vt 0.526092 0.162099
vt 0.422457 0.458636
vt 0.208327 0.356295
vt 0.283294 0.392156
vt 0.664430 0.275661
vt 0.317260 0.460623
vt 0.670686 0.072859
vt 0.969733 0.051447
vt 0.977671 0.303588
vt 0.674142 0.625524
vt 0.940288 0.359956
vt 0.290368 0.021286
vt 0.245942 0.018234
vt 0.418128 0.393066
s 0
usemtl マテリアル
f 4/1/1 10/2/1 41/3/1
f 3/4/2 5/5/2 14/6/2
f 50/7/3 7/8/3 1/9/3
f 3/10/4 14/11/4 4/1/4
f 8/12/5 11/13/5 7/14/5
f 7/8/6 12/15/6 6/16/6
f 8/12/7 36/17/7 19/18/7
f 12/19/8 13/20/8 9/21/8
f 8/12/9 19/18/9 15/22/9
f 13/20/10 18/23/10 17/24/10
f 11/13/11 15/22/11 16/25/11
f 14/11/12 17/26/12 23/27/12
f 16/25/13 15/22/13 20/28/13
f 16/29/14 20/30/14 22/31/14
f 15/22/15 19/18/15 24/32/15
f 17/24/16 18/23/16 21/33/16
f 21/34/17 26/35/17 23/27/17
f 22/36/18 28/37/18 21/38/18
f 22/36/19 25/39/19 27/40/19
f 23/27/20 26/35/20 35/41/20
f 24/32/21 36/17/21 30/42/21
f 28/37/22 35/43/22 26/44/22
f 25/39/23 24/45/23 29/46/23
f 10/2/24 35/41/24 41/3/24
f 27/40/25 29/46/25 32/47/25
f 33/48/26 34/49/26 35/43/26
f 29/46/27 30/50/27 31/51/27
f 36/17/28 38/52/28 30/42/28
f 38/53/29 39/54/29 31/55/29
f 35/41/30 34/56/30 41/3/30
f 31/55/31 39/54/31 40/57/31
f 32/58/32 37/59/32 33/60/32
f 34/61/33 37/59/33 42/62/33
f 40/57/34 42/62/34 37/59/34
f 34/61/35 42/62/35 47/63/35
f 38/52/36 36/17/36 43/64/36
f 18/23/37 12/19/37 16/29/37
f 44/65/38 49/66/38 42/62/38
f 44/65/39 45/67/39 49/66/39
f 49/66/40 46/68/40 42/62/40
f 46/69/41 49/70/41 3/4/41
f 46/69/42 3/4/42 47/71/42
f 47/72/43 3/10/43 4/1/43
f 48/73/44 1/9/44 45/74/44
f 47/72/45 4/1/45 41/3/45
f 45/74/46 1/9/46 2/75/46
f 2/75/47 5/5/47 49/70/47
f 2/75/48 6/16/48 5/5/48
f 1/9/49 7/8/49 2/75/49
f 50/76/50 8/12/50 7/14/50
f 5/77/51 9/78/51 14/11/51
f 2/75/52 7/8/52 6/16/52
f 5/5/53 6/16/53 9/79/53
f 10/2/54 4/1/54 14/11/54
f 6/16/55 12/15/55 9/79/55
f 9/78/56 13/80/56 14/11/56
f 12/15/57 7/8/57 11/81/57
f 8/12/58 15/22/58 11/13/58
f 18/23/59 22/31/59 21/33/59
f 14/11/60 13/80/60 17/26/60
f 12/19/61 11/82/61 16/29/61
f 14/11/62 23/27/62 10/2/62
f 33/48/63 27/40/63 32/47/63
f 15/22/64 24/32/64 20/28/64
f 17/26/65 21/34/65 23/27/65
f 22/31/66 20/30/66 25/83/66
f 24/32/67 19/18/67 36/17/67
f 21/38/68 28/37/68 26/44/68
f 25/84/69 20/28/69 24/32/69
f 22/36/70 27/40/70 28/37/70
f 10/2/71 23/27/71 35/41/71
f 27/40/72 25/39/72 29/46/72
f 28/37/73 33/48/73 35/43/73
f 29/46/74 24/45/74 30/50/74
f 37/59/75 31/55/75 40/57/75
f 32/47/76 29/46/76 31/51/76
f 31/51/77 30/50/77 38/85/77
f 44/65/78 48/86/78 45/67/78
f 34/61/79 33/60/79 37/59/79
f 34/56/80 47/72/80 41/3/80
f 40/57/81 39/54/81 44/65/81
f 40/57/82 44/65/82 42/62/82
f 39/54/83 38/53/83 43/87/83
f 47/63/84 42/62/84 46/68/84
f 39/54/85 43/87/85 44/65/85
f 43/64/86 36/17/86 50/76/86
f 43/64/87 50/76/87 48/88/87
f 50/76/88 36/17/88 8/12/88
f 45/74/89 2/75/89 49/70/89
f 49/70/90 5/5/90 3/4/90
f 1/9/91 48/73/91 50/7/91
f 18/23/92 13/20/92 12/19/92
f 18/23/93 16/29/93 22/31/93
f 33/48/94 28/37/94 27/40/94
f 37/59/95 32/58/95 31/55/95
f 44/65/96 43/87/96 48/86/96
