# Blender 5.1.0
# www.blender.org
mtllib 3.mtl
o 3
v -0.038000 0.391000 0.220000
v 0.163000 0.213000 0.220000
v 0.076000 0.060000 0.220000
v 0.174000 -0.102000 0.220000
v -0.041000 -0.309000 0.220000
v -0.186000 -0.270000 0.220000
v -0.186000 -0.164000 0.220000
v -0.034000 -0.216000 0.220000
v 0.076000 -0.107000 0.220000
v -0.070000 0.007000 0.220000
v -0.070000 0.097000 0.220000
v 0.065000 0.196000 0.220000
v -0.053000 0.298000 0.220000
v -0.169000 0.269000 0.220000
v -0.169000 0.362000 0.220000
v -0.038000 0.391000 -0.220000
v 0.163000 0.213000 -0.220000
v 0.076000 0.060000 -0.220000
v 0.174000 -0.102000 -0.220000
v -0.041000 -0.309000 -0.220000
v -0.186000 -0.270000 -0.220000
v -0.186000 -0.164000 -0.220000
v -0.034000 -0.216000 -0.220000
v 0.076000 -0.107000 -0.220000
v -0.070000 0.007000 -0.220000
v -0.070000 0.097000 -0.220000
v 0.065000 0.196000 -0.220000
v -0.053000 0.298000 -0.220000
v -0.169000 0.269000 -0.220000
v -0.169000 0.362000 -0.220000
v -0.038000 0.391000 -0.220000
v -0.036261 0.397715 -0.219021
v -0.034691 0.403773 -0.216180
v -0.033446 0.408580 -0.211756
v -0.032647 0.411667 -0.206180
v -0.032371 0.412730 -0.200000
v -0.032371 0.412730 0.200000
v -0.032647 0.411667 0.206180
v -0.033446 0.408580 0.211756
v -0.034691 0.403773 0.216180
v -0.036261 0.397715 0.219021
v -0.038000 0.391000 0.220000
v 0.163000 0.213000 -0.220000
v 0.170851 0.214303 -0.219021
v 0.177933 0.215479 -0.216180
v 0.183553 0.216412 -0.211756
v 0.187162 0.217011 -0.206180
v 0.188405 0.217217 -0.200000
v 0.188405 0.217217 0.200000
v 0.187162 0.217011 0.206180
v 0.183553 0.216412 0.211756
v 0.177933 0.215479 0.216180
v 0.170851 0.214303 0.219021
v 0.163000 0.213000 0.220000
v 0.076000 0.060000 -0.220000
v 0.083165 0.060097 -0.219021
v 0.089628 0.060184 -0.216180
v 0.094757 0.060253 -0.211756
v 0.098051 0.060298 -0.206180
v 0.099185 0.060313 -0.200000
v 0.099185 0.060313 0.200000
v 0.098051 0.060298 0.206180
v 0.094757 0.060253 0.211756
v 0.089628 0.060184 0.216180
v 0.083165 0.060097 0.219021
v 0.076000 0.060000 0.220000
v 0.174000 -0.102000 -0.220000
v 0.181844 -0.103027 -0.219021
v 0.188921 -0.103953 -0.216180
v 0.194537 -0.104688 -0.211756
v 0.198142 -0.105160 -0.206180
v 0.199385 -0.105323 -0.200000
v 0.199385 -0.105323 0.200000
v 0.198142 -0.105160 0.206180
v 0.194537 -0.104688 0.211756
v 0.188921 -0.103953 0.216180
v 0.181844 -0.103027 0.219021
v 0.174000 -0.102000 0.220000
v -0.041000 -0.309000 -0.220000
v -0.039231 -0.315876 -0.219021
v -0.037635 -0.322079 -0.216180
v -0.036368 -0.327001 -0.211756
v -0.035555 -0.330162 -0.206180
v -0.035275 -0.331251 -0.200000
v -0.035275 -0.331251 0.200000
v -0.035555 -0.330162 0.206180
v -0.036368 -0.327001 0.211756
v -0.037635 -0.322079 0.216180
v -0.039231 -0.315876 0.219021
v -0.041000 -0.309000 0.220000
v -0.186000 -0.270000 -0.220000
v -0.192180 -0.274738 -0.219021
v -0.197756 -0.279012 -0.216180
v -0.202180 -0.282403 -0.211756
v -0.205021 -0.284581 -0.206180
v -0.206000 -0.285331 -0.200000
v -0.206000 -0.285331 0.200000
v -0.205021 -0.284581 0.206180
v -0.202180 -0.282403 0.211756
v -0.197756 -0.279012 0.216180
v -0.192180 -0.274738 0.219021
v -0.186000 -0.270000 0.220000
v -0.186000 -0.164000 -0.220000
v -0.192180 -0.155354 -0.219021
v -0.197756 -0.147554 -0.216180
v -0.202180 -0.141364 -0.211756
v -0.205021 -0.137389 -0.206180
v -0.206000 -0.136020 -0.200000
v -0.206000 -0.136020 0.200000
v -0.205021 -0.137389 0.206180
v -0.202180 -0.141364 0.211756
v -0.197756 -0.147554 0.216180
v -0.192180 -0.155354 0.219021
v -0.186000 -0.164000 0.220000
v -0.034000 -0.216000 -0.220000
v -0.035627 -0.208911 -0.219021
v -0.037095 -0.202517 -0.216180
v -0.038259 -0.197442 -0.211756
v -0.039007 -0.194184 -0.206180
v -0.039265 -0.193061 -0.200000
v -0.039265 -0.193061 0.200000
v -0.039007 -0.194184 0.206180
v -0.038259 -0.197442 0.211756
v -0.037095 -0.202517 0.216180
v -0.035627 -0.208911 0.219021
v -0.034000 -0.216000 0.220000
v 0.076000 -0.107000 -0.220000
v 0.066663 -0.107551 -0.219021
v 0.058241 -0.108048 -0.216180
v 0.051557 -0.108443 -0.211756
v 0.047265 -0.108696 -0.206180
v 0.045786 -0.108783 -0.200000
v 0.045786 -0.108783 0.200000
v 0.047265 -0.108696 0.206180
v 0.051557 -0.108443 0.211756
v 0.058241 -0.108048 0.216180
v 0.066663 -0.107551 0.219021
v 0.076000 -0.107000 0.220000
v -0.070000 0.007000 -0.220000
v -0.076180 0.003985 -0.219021
v -0.081756 0.001264 -0.216180
v -0.086180 -0.000895 -0.211756
v -0.089021 -0.002281 -0.206180
v -0.090000 -0.002758 -0.200000
v -0.090000 -0.002758 0.200000
v -0.089021 -0.002281 0.206180
v -0.086180 -0.000895 0.211756
v -0.081756 0.001264 0.216180
v -0.076180 0.003985 0.219021
v -0.070000 0.007000 0.220000
v -0.070000 0.097000 -0.220000
v -0.076180 0.100132 -0.219021
v -0.081756 0.102957 -0.216180
v -0.086180 0.105199 -0.211756
v -0.089021 0.106639 -0.206180
v -0.090000 0.107135 -0.200000
v -0.090000 0.107135 0.200000
v -0.089021 0.106639 0.206180
v -0.086180 0.105199 0.211756
v -0.081756 0.102957 0.216180
v -0.076180 0.100132 0.219021
v -0.070000 0.097000 0.220000
v 0.065000 0.196000 -0.220000
v 0.055090 0.196397 -0.219021
v 0.046150 0.196755 -0.216180
v 0.039056 0.197039 -0.211756
v 0.034501 0.197221 -0.206180
v 0.032931 0.197284 -0.200000
v 0.032931 0.197284 0.200000
v 0.034501 0.197221 0.206180
v 0.039056 0.197039 0.211756
v 0.046150 0.196755 0.216180
v 0.055090 0.196397 0.219021
v 0.065000 0.196000 0.220000
v -0.053000 0.298000 -0.220000
v -0.054614 0.291226 -0.219021
v -0.056070 0.285115 -0.216180
v -0.057226 0.280265 -0.211756
v -0.057968 0.277152 -0.206180
v -0.058223 0.276079 -0.200000
v -0.058223 0.276079 0.200000
v -0.057968 0.277152 0.206180
v -0.057226 0.280265 0.211756
v -0.056070 0.285115 0.216180
v -0.054614 0.291226 0.219021
v -0.053000 0.298000 0.220000
v -0.169000 0.269000 -0.220000
v -0.175180 0.261084 -0.219021
v -0.180756 0.253944 -0.216180
v -0.185180 0.248277 -0.211756
v -0.188021 0.244638 -0.206180
v -0.189000 0.243384 -0.200000
v -0.189000 0.243384 0.200000
v -0.188021 0.244638 0.206180
v -0.185180 0.248277 0.211756
v -0.180756 0.253944 0.216180
v -0.175180 0.261084 0.219021
v -0.169000 0.269000 0.220000
v -0.169000 0.362000 -0.220000
v -0.175180 0.366962 -0.219021
v -0.180756 0.371438 -0.216180
v -0.185180 0.374990 -0.211756
v -0.188021 0.377271 -0.206180
v -0.189000 0.378057 -0.200000
v -0.189000 0.378057 0.200000
v -0.188021 0.377271 0.206180
v -0.185180 0.374990 0.211756
v -0.180756 0.371438 0.216180
v -0.175180 0.366962 0.219021
v -0.169000 0.362000 0.220000
vn -0.0000 -0.0000 1.0000
vn -0.0000 -0.0000 -1.0000
vn 0.0797 0.3076 -0.9482
vn 0.1204 0.0200 -0.9925
vn 0.0350 0.1353 -0.9902
vn 0.1443 0.5569 -0.8179
vn 0.2928 0.0486 -0.9549
vn 0.1992 0.7689 -0.6076
vn 0.5309 0.0881 -0.8429
vn 0.2371 0.9152 -0.3258
vn 0.7528 0.1250 -0.6463
vn 0.2498 0.9645 -0.0857
vn 0.9217 0.1530 -0.3566
vn 0.9819 0.1630 0.0966
vn 0.2498 0.9645 0.0857
vn 0.9217 0.1530 0.3566
vn 0.2371 0.9152 0.3258
vn 0.7528 0.1250 0.6463
vn 0.1992 0.7689 0.6076
vn 0.5309 0.0881 0.8429
vn 0.1443 0.5569 0.8179
vn 0.2928 0.0486 0.9549
vn 0.0797 0.3076 0.9482
vn 0.1204 0.0200 0.9925
vn 0.0350 0.1353 0.9902
vn 0.2272 0.0031 -0.9739
vn 0.4964 0.0067 -0.8681
vn 0.7434 0.0100 -0.6688
vn 0.9289 0.0125 -0.3701
vn 0.9955 0.0134 -0.0934
vn 0.9819 0.1630 -0.0966
vn 0.9955 0.0135 0.0934
vn 0.9289 0.0125 0.3701
vn 0.7434 0.0100 0.6688
vn 0.4964 0.0067 0.8681
vn 0.2272 0.0031 0.9739
vn 0.1218 -0.0159 -0.9924
vn 0.1353 0.0018 -0.9908
vn 0.2953 -0.0387 -0.9546
vn 0.5352 -0.0701 -0.8418
vn 0.7581 -0.0992 -0.6446
vn 0.9269 -0.1213 -0.3552
vn 0.9869 -0.1292 0.0961
vn 0.9269 -0.1213 0.3552
vn 0.7581 -0.0992 0.6446
vn 0.5352 -0.0701 0.8418
vn 0.2953 -0.0387 0.9546
vn 0.1218 -0.0159 0.9924
vn 0.1353 0.0018 0.9908
vn 0.0784 -0.3049 -0.9492
vn 0.1419 -0.5515 -0.8220
vn 0.1967 -0.7645 -0.6139
vn 0.2352 -0.9140 -0.3307
vn 0.2482 -0.9647 -0.0874
vn 0.9869 -0.1292 -0.0961
vn 0.2482 -0.9647 0.0874
vn 0.2352 -0.9140 0.3307
vn 0.1967 -0.7645 0.6139
vn 0.1419 -0.5515 0.8220
vn 0.0784 -0.3048 0.9492
vn -0.0990 -0.0759 -0.9922
vn 0.0340 -0.1323 -0.9906
vn -0.2385 -0.1828 -0.9538
vn -0.4320 -0.3312 -0.8389
vn -0.6098 -0.4674 -0.6400
vn -0.7430 -0.5696 -0.3515
vn -0.7901 -0.6056 0.0948
vn -0.7430 -0.5696 0.3515
vn -0.6098 -0.4674 0.6400
vn -0.4320 -0.3312 0.8389
vn -0.2385 -0.1828 0.9538
vn -0.0990 -0.0759 0.9922
vn 0.0340 -0.1323 0.9906
vn -0.0533 0.0746 -0.9958
vn -0.1418 0.1984 -0.9698
vn -0.2624 0.3671 -0.8924
vn -0.3975 0.5561 -0.7299
vn -0.7901 -0.6057 -0.0948
vn -0.5251 0.7347 -0.4295
vn -0.5770 0.8072 0.1243
vn -0.5251 0.7347 0.4295
vn -0.3975 0.5561 0.7299
vn -0.2624 0.3671 0.8924
vn -0.1418 0.1984 0.9698
vn -0.0533 0.0746 0.9958
vn -0.0497 0.2164 -0.9750
vn -0.1094 0.4768 -0.8722
vn -0.1649 0.7187 -0.6755
vn -0.2073 0.9032 -0.3758
vn -0.2227 0.9703 -0.0950
vn -0.5770 0.8072 -0.1243
vn -0.2227 0.9703 0.0950
vn -0.2073 0.9032 0.3758
vn -0.1649 0.7187 0.6755
vn -0.1094 0.4768 0.8722
vn -0.0497 0.2164 0.9750
vn -0.1548 -0.0091 -0.9879
vn -0.0298 0.1300 -0.9911
vn -0.3799 -0.0224 -0.9247
vn -0.6294 -0.0371 -0.7762
vn -0.8775 -0.0518 -0.4768
vn -0.9905 -0.0584 -0.1245
vn -0.9905 -0.0585 0.1245
vn -0.8775 -0.0518 0.4768
vn -0.6294 -0.0371 0.7762
vn -0.3799 -0.0224 0.9247
vn -0.0298 0.1300 0.9911
vn -0.1548 -0.0091 0.9879
vn -0.1267 -0.0618 -0.9900
vn -0.1039 -0.0061 -0.9946
vn -0.2864 -0.1397 -0.9479
vn -0.5189 -0.2532 -0.8165
vn -0.7154 -0.3490 -0.6053
vn -0.8502 -0.4148 -0.3240
vn -0.8955 -0.4369 0.0851
vn -0.8502 -0.4148 0.3240
vn -0.7154 -0.3490 0.6053
vn -0.5189 -0.2532 0.8165
vn -0.2864 -0.1397 0.9479
vn -0.1267 -0.0618 0.9900
vn -0.1039 -0.0061 0.9946
vn -0.1248 0.0632 -0.9902
vn -0.2835 0.1437 -0.9481
vn -0.5134 0.2602 -0.8177
vn -0.7087 0.3591 -0.6073
vn -0.8955 -0.4369 -0.0851
vn -0.8434 0.4274 -0.3256
vn -0.8887 0.4504 0.0856
vn -0.8434 0.4274 0.3256
vn -0.7087 0.3591 0.6073
vn -0.5134 0.2602 0.8177
vn -0.2835 0.1437 0.9481
vn -0.1248 0.0632 0.9902
vn -0.1432 0.0057 -0.9897
vn -0.3582 0.0143 -0.9335
vn -0.6044 0.0242 -0.7963
vn -0.8644 0.0346 -0.5015
vn -0.9904 0.0397 -0.1325
vn -0.8887 0.4503 -0.0856
vn -0.9904 0.0396 0.1325
vn -0.8644 0.0346 0.5015
vn -0.6044 0.0242 0.7963
vn -0.3582 0.0143 0.9335
vn -0.1432 0.0057 0.9897
vn -0.0323 -0.1354 -0.9903
vn -0.0981 0.0039 -0.9952
vn -0.0551 -0.2312 -0.9713
vn -0.1184 -0.4967 -0.8598
vn -0.1750 -0.7345 -0.6557
vn -0.2163 -0.9078 -0.3592
vn -0.2308 -0.9688 0.0905
vn -0.2163 -0.9078 0.3592
vn -0.1750 -0.7345 0.6557
vn -0.1184 -0.4967 0.8598
vn -0.0551 -0.2312 0.9713
vn -0.0323 -0.1354 0.9903
vn -0.0981 0.0039 0.9952
vn -0.0597 -0.0765 -0.9953
vn -0.1565 -0.2004 -0.9671
vn -0.2883 -0.3692 -0.8835
vn -0.4310 -0.5520 -0.7138
vn -0.2308 -0.9688 -0.0905
vn -0.5600 -0.7173 -0.4146
vn -0.6111 -0.7826 0.1184
vn -0.5600 -0.7173 0.4146
vn -0.4310 -0.5520 0.7138
vn -0.2883 -0.3692 0.8835
vn -0.1565 -0.2004 0.9671
vn -0.0597 -0.0765 0.9953
vn -0.2320 0.1863 -0.9547
vn -0.4205 0.3376 -0.8421
vn -0.5958 0.4783 -0.6451
vn -0.7288 0.5851 -0.3556
vn -0.7762 0.6231 -0.0963
vn -0.6111 -0.7827 -0.1184
vn -0.7762 0.6231 0.0963
vn -0.7288 0.5851 0.3556
vn -0.5958 0.4783 0.6451
vn -0.4205 0.3376 0.8421
vn -0.2320 0.1863 0.9547
vn -0.0956 0.0767 -0.9925
vn -0.0956 0.0767 0.9925
vt 0.857143 0.000000
vt 1.000000 0.000000
vt 0.928571 0.000000
vt 0.142857 0.000000
vt 0.571429 0.000000
vt 0.214286 0.000000
vt 0.500000 0.000000
vt 0.285714 0.000000
vt 0.071429 0.000000
vt 0.785714 0.000000
vt 0.000000 0.000000
vt 0.357143 0.000000
vt 0.428571 0.000000
vt 0.642857 0.000000
vt 0.714286 0.000000
vt 0.000000 0.090909
vt 0.066667 0.000000
vt 0.000000 0.181818
vt 0.066667 0.090909
vt 0.000000 0.272727
vt 0.066667 0.181818
vt 0.000000 0.363636
vt 0.066667 0.272727
vt 0.000000 0.454545
vt 0.066667 0.363636
vt 0.066667 0.545455
vt 0.000000 0.545455
vt 0.066667 0.636364
vt 0.000000 0.636364
vt 0.066667 0.727273
vt 0.000000 0.727273
vt 0.066667 0.818182
vt 0.000000 0.818182
vt 0.066667 0.909091
vt 0.000000 0.909091
vt 0.066667 1.000000
vt 0.000000 1.000000
vt 0.133333 0.090909
vt 0.133333 0.181818
vt 0.133333 0.272727
vt 0.133333 0.363636
vt 0.133333 0.454545
vt 0.066667 0.454545
vt 0.133333 0.545455
vt 0.133333 0.636364
vt 0.133333 0.727273
vt 0.133333 0.818182
vt 0.133333 0.909091
vt 0.200000 0.000000
vt 0.133333 0.000000
vt 0.200000 0.090909
vt 0.200000 0.181818
vt 0.200000 0.272727
vt 0.200000 0.363636
vt 0.200000 0.545455
vt 0.200000 0.636364
vt 0.200000 0.727273
vt 0.200000 0.818182
vt 0.200000 0.909091
vt 0.200000 1.000000
vt 0.133333 1.000000
vt 0.266667 0.090909
vt 0.266667 0.181818
vt 0.266667 0.272727
vt 0.266667 0.363636
vt 0.266667 0.454545
vt 0.200000 0.454545
vt 0.266667 0.545455
vt 0.266667 0.636364
vt 0.266667 0.727273
vt 0.266667 0.818182
vt 0.266667 0.909091
vt 0.333333 0.000000
vt 0.266667 0.000000
vt 0.333333 0.090909
vt 0.333333 0.181818
vt 0.333333 0.272727
vt 0.333333 0.363636
vt 0.333333 0.545455
vt 0.333333 0.636364
vt 0.333333 0.727273
vt 0.333333 0.818182
vt 0.333333 0.909091
vt 0.333333 1.000000
vt 0.266667 1.000000
vt 0.400000 0.000000
vt 0.400000 0.090909
vt 0.400000 0.181818
vt 0.400000 0.272727
vt 0.333333 0.454545
vt 0.400000 0.363636
vt 0.400000 0.545455
vt 0.400000 0.636364
vt 0.400000 0.727273
vt 0.400000 0.818182
vt 0.400000 0.909091
vt 0.400000 1.000000
vt 0.466667 0.090909
vt 0.466667 0.181818
vt 0.466667 0.272727
vt 0.466667 0.363636
vt 0.466667 0.454545
vt 0.400000 0.454545
vt 0.466667 0.545455
vt 0.466667 0.636364
vt 0.466667 0.727273
vt 0.466667 0.818182
vt 0.466667 0.909091
vt 0.533333 0.090909
vt 0.466667 0.000000
vt 0.533333 0.181818
vt 0.533333 0.272727
vt 0.533333 0.363636
vt 0.533333 0.454545
vt 0.533333 0.545455
vt 0.533333 0.636364
vt 0.533333 0.727273
vt 0.533333 0.818182
vt 0.466667 1.000000
vt 0.533333 0.909091
vt 0.600000 0.000000
vt 0.533333 0.000000
vt 0.600000 0.090909
vt 0.600000 0.181818
vt 0.600000 0.272727
vt 0.600000 0.363636
vt 0.600000 0.545455
vt 0.600000 0.636364
vt 0.600000 0.727273
vt 0.600000 0.818182
vt 0.600000 0.909091
vt 0.600000 1.000000
vt 0.533333 1.000000
vt 0.666667 0.000000
vt 0.666667 0.090909
vt 0.666667 0.181818
vt 0.666667 0.272727
vt 0.600000 0.454545
vt 0.666667 0.363636
vt 0.666667 0.545455
vt 0.666667 0.636364
vt 0.666667 0.727273
vt 0.666667 0.818182
vt 0.666667 0.909091
vt 0.666667 1.000000
vt 0.733333 0.090909
vt 0.733333 0.181818
vt 0.733333 0.272727
vt 0.733333 0.363636
vt 0.733333 0.454545
vt 0.666667 0.454545
vt 0.733333 0.545455
vt 0.733333 0.636364
vt 0.733333 0.727273
vt 0.733333 0.818182
vt 0.733333 0.909091
vt 0.800000 0.000000
vt 0.733333 0.000000
vt 0.800000 0.090909
vt 0.800000 0.181818
vt 0.800000 0.272727
vt 0.800000 0.363636
vt 0.800000 0.545455
vt 0.800000 0.636364
vt 0.800000 0.727273
vt 0.800000 0.818182
vt 0.800000 0.909091
vt 0.800000 1.000000
vt 0.733333 1.000000
vt 0.866667 0.000000
vt 0.866667 0.090909
vt 0.866667 0.181818
vt 0.866667 0.272727
vt 0.800000 0.454545
vt 0.866667 0.363636
vt 0.866667 0.545455
vt 0.866667 0.636364
vt 0.866667 0.727273
vt 0.866667 0.818182
vt 0.866667 0.909091
vt 0.866667 1.000000
vt 0.933333 0.090909
vt 0.933333 0.181818
vt 0.933333 0.272727
vt 0.933333 0.363636
vt 0.933333 0.454545
vt 0.866667 0.454545
vt 0.933333 0.545455
vt 0.933333 0.636364
vt 0.933333 0.727273
vt 0.933333 0.818182
vt 0.933333 0.909091
vt 1.000000 0.090909
vt 0.933333 0.000000
vt 1.000000 0.181818
vt 1.000000 0.272727
vt 1.000000 0.363636
vt 1.000000 0.454545
vt 1.000000 0.545455
vt 1.000000 0.636364
vt 1.000000 0.727273
vt 1.000000 0.818182
vt 0.933333 1.000000
vt 1.000000 0.909091
vt 1.000000 1.000000
s 0
usemtl マテリアル.021
f 13/1/1 15/2/1 14/3/1
f 3/4/1 9/5/1 4/6/1
f 8/7/1 5/8/1 4/6/1
f 4/6/1 9/5/1 8/7/1
f 3/4/1 2/9/1 12/10/1
f 1/11/1 12/10/1 2/9/1
f 5/8/1 8/7/1 6/12/1
f 7/13/1 6/12/1 8/7/1
f 9/5/1 3/4/1 10/14/1
f 11/15/1 10/14/1 3/4/1
f 3/4/1 12/10/1 11/15/1
f 12/10/1 1/11/1 13/1/1
f 15/2/1 13/1/1 1/11/1
f 28/1/2 29/3/2 30/2/2
f 18/4/2 19/6/2 24/5/2
f 23/7/2 19/6/2 20/8/2
f 19/6/2 23/7/2 24/5/2
f 18/4/2 27/10/2 17/9/2
f 16/11/2 17/9/2 27/10/2
f 20/8/2 21/12/2 23/7/2
f 22/13/2 23/7/2 21/12/2
f 24/5/2 25/14/2 18/4/2
f 26/15/2 18/4/2 25/14/2
f 18/4/2 26/15/2 27/10/2
f 27/10/2 28/1/2 16/11/2
f 30/2/2 16/11/2 28/1/2
s 1
f 32/16/3 43/17/4 31/11/5
f 33/18/6 44/19/7 32/16/3
f 34/20/8 45/21/9 33/18/6
f 35/22/10 46/23/11 34/20/8
f 36/24/12 47/25/13 35/22/10
f 49/26/14 36/24/12 37/27/15
f 50/28/16 37/27/15 38/29/17
f 51/30/18 38/29/17 39/31/19
f 52/32/20 39/31/19 40/33/21
f 53/34/22 40/33/21 41/35/23
f 54/36/24 41/35/23 42/37/25
f 56/38/26 43/17/4 44/19/7
f 57/39/27 44/19/7 45/21/9
f 58/40/28 45/21/9 46/23/11
f 59/41/29 46/23/11 47/25/13
f 60/42/30 47/25/13 48/43/31
f 61/44/32 48/43/31 49/26/14
f 50/28/16 61/44/32 49/26/14
f 51/30/18 62/45/33 50/28/16
f 52/32/20 63/46/34 51/30/18
f 53/34/22 64/47/35 52/32/20
f 54/36/24 65/48/36 53/34/22
f 56/38/26 67/49/37 55/50/38
f 57/39/27 68/51/39 56/38/26
f 58/40/28 69/52/40 57/39/27
f 59/41/29 70/53/41 58/40/28
f 60/42/30 71/54/42 59/41/29
f 73/55/43 60/42/30 61/44/32
f 74/56/44 61/44/32 62/45/33
f 75/57/45 62/45/33 63/46/34
f 76/58/46 63/46/34 64/47/35
f 77/59/47 64/47/35 65/48/36
f 78/60/48 65/48/36 66/61/49
f 80/62/50 67/49/37 68/51/39
f 81/63/51 68/51/39 69/52/40
f 82/64/52 69/52/40 70/53/41
f 83/65/53 70/53/41 71/54/42
f 84/66/54 71/54/42 72/67/55
f 85/68/56 72/67/55 73/55/43
f 74/56/44 85/68/56 73/55/43
f 75/57/45 86/69/57 74/56/44
f 76/58/46 87/70/58 75/57/45
f 77/59/47 88/71/59 76/58/46
f 78/60/48 89/72/60 77/59/47
f 80/62/50 91/73/61 79/74/62
f 81/63/51 92/75/63 80/62/50
f 82/64/52 93/76/64 81/63/51
f 83/65/53 94/77/65 82/64/52
f 84/66/54 95/78/66 83/65/53
f 97/79/67 84/66/54 85/68/56
f 98/80/68 85/68/56 86/69/57
f 99/81/69 86/69/57 87/70/58
f 100/82/70 87/70/58 88/71/59
f 101/83/71 88/71/59 89/72/60
f 102/84/72 89/72/60 90/85/73
f 92/75/63 103/86/74 91/73/61
f 93/76/64 104/87/75 92/75/63
f 94/77/65 105/88/76 93/76/64
f 95/78/66 106/89/77 94/77/65
f 96/90/78 107/91/79 95/78/66
f 109/92/80 96/90/78 97/79/67
f 110/93/81 97/79/67 98/80/68
f 111/94/82 98/80/68 99/81/69
f 112/95/83 99/81/69 100/82/70
f 113/96/84 100/82/70 101/83/71
f 114/97/85 101/83/71 102/84/72
f 116/98/86 103/86/74 104/87/75
f 117/99/87 104/87/75 105/88/76
f 118/100/88 105/88/76 106/89/77
f 119/101/89 106/89/77 107/91/79
f 120/102/90 107/91/79 108/103/91
f 121/104/92 108/103/91 109/92/80
f 110/93/81 121/104/92 109/92/80
f 111/94/82 122/105/93 110/93/81
f 112/95/83 123/106/94 111/94/82
f 113/96/84 124/107/95 112/95/83
f 114/97/85 125/108/96 113/96/84
f 128/109/97 115/110/98 116/98/86
f 129/111/99 116/98/86 117/99/87
f 130/112/100 117/99/87 118/100/88
f 131/113/101 118/100/88 119/101/89
f 132/114/102 119/101/89 120/102/90
f 133/115/103 120/102/90 121/104/92
f 122/105/93 133/115/103 121/104/92
f 123/106/94 134/116/104 122/105/93
f 124/107/95 135/117/105 123/106/94
f 125/108/96 136/118/106 124/107/95
f 126/119/107 137/120/108 125/108/96
f 128/109/97 139/121/109 127/122/110
f 129/111/99 140/123/111 128/109/97
f 130/112/100 141/124/112 129/111/99
f 131/113/101 142/125/113 130/112/100
f 132/114/102 143/126/114 131/113/101
f 145/127/115 132/114/102 133/115/103
f 146/128/116 133/115/103 134/116/104
f 147/129/117 134/116/104 135/117/105
f 148/130/118 135/117/105 136/118/106
f 149/131/119 136/118/106 137/120/108
f 150/132/120 137/120/108 138/133/121
f 140/123/111 151/134/122 139/121/109
f 141/124/112 152/135/123 140/123/111
f 142/125/113 153/136/124 141/124/112
f 143/126/114 154/137/125 142/125/113
f 144/138/126 155/139/127 143/126/114
f 157/140/128 144/138/126 145/127/115
f 158/141/129 145/127/115 146/128/116
f 159/142/130 146/128/116 147/129/117
f 160/143/131 147/129/117 148/130/118
f 161/144/132 148/130/118 149/131/119
f 162/145/133 149/131/119 150/132/120
f 164/146/134 151/134/122 152/135/123
f 165/147/135 152/135/123 153/136/124
f 166/148/136 153/136/124 154/137/125
f 167/149/137 154/137/125 155/139/127
f 168/150/138 155/139/127 156/151/139
f 169/152/140 156/151/139 157/140/128
f 158/141/129 169/152/140 157/140/128
f 159/142/130 170/153/141 158/141/129
f 160/143/131 171/154/142 159/142/130
f 161/144/132 172/155/143 160/143/131
f 162/145/133 173/156/144 161/144/132
f 164/146/134 175/157/145 163/158/146
f 165/147/135 176/159/147 164/146/134
f 166/148/136 177/160/148 165/147/135
f 167/149/137 178/161/149 166/148/136
f 168/150/138 179/162/150 167/149/137
f 181/163/151 168/150/138 169/152/140
f 182/164/152 169/152/140 170/153/141
f 183/165/153 170/153/141 171/154/142
f 184/166/154 171/154/142 172/155/143
f 185/167/155 172/155/143 173/156/144
f 186/168/156 173/156/144 174/169/157
f 176/159/147 187/170/158 175/157/145
f 177/160/148 188/171/159 176/159/147
f 178/161/149 189/172/160 177/160/148
f 179/162/150 190/173/161 178/161/149
f 180/174/162 191/175/163 179/162/150
f 193/176/164 180/174/162 181/163/151
f 194/177/165 181/163/151 182/164/152
f 195/178/166 182/164/152 183/165/153
f 196/179/167 183/165/153 184/166/154
f 197/180/168 184/166/154 185/167/155
f 198/181/169 185/167/155 186/168/156
f 200/182/170 187/170/158 188/171/159
f 201/183/171 188/171/159 189/172/160
f 202/184/172 189/172/160 190/173/161
f 203/185/173 190/173/161 191/175/163
f 204/186/174 191/175/163 192/187/175
f 205/188/176 192/187/175 193/176/164
f 194/177/165 205/188/176 193/176/164
f 195/178/166 206/189/177 194/177/165
f 196/179/167 207/190/178 195/178/166
f 197/180/168 208/191/179 196/179/167
f 198/181/169 209/192/180 197/180/168
f 32/193/3 199/194/181 200/182/170
f 33/195/6 200/182/170 201/183/171
f 34/196/8 201/183/171 202/184/172
f 35/197/10 202/184/172 203/185/173
f 36/198/12 203/185/173 204/186/174
f 37/199/15 204/186/174 205/188/176
f 206/189/177 37/199/15 205/188/176
f 207/190/178 38/200/17 206/189/177
f 208/191/179 39/201/19 207/190/178
f 209/192/180 40/202/21 208/191/179
f 210/203/182 41/204/23 209/192/180
f 32/16/3 44/19/7 43/17/4
f 33/18/6 45/21/9 44/19/7
f 34/20/8 46/23/11 45/21/9
f 35/22/10 47/25/13 46/23/11
f 36/24/12 48/43/31 47/25/13
f 49/26/14 48/43/31 36/24/12
f 50/28/16 49/26/14 37/27/15
f 51/30/18 50/28/16 38/29/17
f 52/32/20 51/30/18 39/31/19
f 53/34/22 52/32/20 40/33/21
f 54/36/24 53/34/22 41/35/23
f 56/38/26 55/50/38 43/17/4
f 57/39/27 56/38/26 44/19/7
f 58/40/28 57/39/27 45/21/9
f 59/41/29 58/40/28 46/23/11
f 60/42/30 59/41/29 47/25/13
f 61/44/32 60/42/30 48/43/31
f 50/28/16 62/45/33 61/44/32
f 51/30/18 63/46/34 62/45/33
f 52/32/20 64/47/35 63/46/34
f 53/34/22 65/48/36 64/47/35
f 54/36/24 66/61/49 65/48/36
f 56/38/26 68/51/39 67/49/37
f 57/39/27 69/52/40 68/51/39
f 58/40/28 70/53/41 69/52/40
f 59/41/29 71/54/42 70/53/41
f 60/42/30 72/67/55 71/54/42
f 73/55/43 72/67/55 60/42/30
f 74/56/44 73/55/43 61/44/32
f 75/57/45 74/56/44 62/45/33
f 76/58/46 75/57/45 63/46/34
f 77/59/47 76/58/46 64/47/35
f 78/60/48 77/59/47 65/48/36
f 80/62/50 79/74/62 67/49/37
f 81/63/51 80/62/50 68/51/39
f 82/64/52 81/63/51 69/52/40
f 83/65/53 82/64/52 70/53/41
f 84/66/54 83/65/53 71/54/42
f 85/68/56 84/66/54 72/67/55
f 74/56/44 86/69/57 85/68/56
f 75/57/45 87/70/58 86/69/57
f 76/58/46 88/71/59 87/70/58
f 77/59/47 89/72/60 88/71/59
f 78/60/48 90/85/73 89/72/60
f 80/62/50 92/75/63 91/73/61
f 81/63/51 93/76/64 92/75/63
f 82/64/52 94/77/65 93/76/64
f 83/65/53 95/78/66 94/77/65
f 84/66/54 96/90/78 95/78/66
f 97/79/67 96/90/78 84/66/54
f 98/80/68 97/79/67 85/68/56
f 99/81/69 98/80/68 86/69/57
f 100/82/70 99/81/69 87/70/58
f 101/83/71 100/82/70 88/71/59
f 102/84/72 101/83/71 89/72/60
f 92/75/63 104/87/75 103/86/74
f 93/76/64 105/88/76 104/87/75
f 94/77/65 106/89/77 105/88/76
f 95/78/66 107/91/79 106/89/77
f 96/90/78 108/103/91 107/91/79
f 109/92/80 108/103/91 96/90/78
f 110/93/81 109/92/80 97/79/67
f 111/94/82 110/93/81 98/80/68
f 112/95/83 111/94/82 99/81/69
f 113/96/84 112/95/83 100/82/70
f 114/97/85 113/96/84 101/83/71
f 116/98/86 115/110/98 103/86/74
f 117/99/87 116/98/86 104/87/75
f 118/100/88 117/99/87 105/88/76
f 119/101/89 118/100/88 106/89/77
f 120/102/90 119/101/89 107/91/79
f 121/104/92 120/102/90 108/103/91
f 110/93/81 122/105/93 121/104/92
f 111/94/82 123/106/94 122/105/93
f 112/95/83 124/107/95 123/106/94
f 113/96/84 125/108/96 124/107/95
f 114/97/85 126/119/107 125/108/96
f 128/109/97 127/122/110 115/110/98
f 129/111/99 128/109/97 116/98/86
f 130/112/100 129/111/99 117/99/87
f 131/113/101 130/112/100 118/100/88
f 132/114/102 131/113/101 119/101/89
f 133/115/103 132/114/102 120/102/90
f 122/105/93 134/116/104 133/115/103
f 123/106/94 135/117/105 134/116/104
f 124/107/95 136/118/106 135/117/105
f 125/108/96 137/120/108 136/118/106
f 126/119/107 138/133/121 137/120/108
f 128/109/97 140/123/111 139/121/109
f 129/111/99 141/124/112 140/123/111
f 130/112/100 142/125/113 141/124/112
f 131/113/101 143/126/114 142/125/113
f 132/114/102 144/138/126 143/126/114
f 145/127/115 144/138/126 132/114/102
f 146/128/116 145/127/115 133/115/103
f 147/129/117 146/128/116 134/116/104
f 148/130/118 147/129/117 135/117/105
f 149/131/119 148/130/118 136/118/106
f 150/132/120 149/131/119 137/120/108
f 140/123/111 152/135/123 151/134/122
f 141/124/112 153/136/124 152/135/123
f 142/125/113 154/137/125 153/136/124
f 143/126/114 155/139/127 154/137/125
f 144/138/126 156/151/139 155/139/127
f 157/140/128 156/151/139 144/138/126
f 158/141/129 157/140/128 145/127/115
f 159/142/130 158/141/129 146/128/116
f 160/143/131 159/142/130 147/129/117
f 161/144/132 160/143/131 148/130/118
f 162/145/133 161/144/132 149/131/119
f 164/146/134 163/158/146 151/134/122
f 165/147/135 164/146/134 152/135/123
f 166/148/136 165/147/135 153/136/124
f 167/149/137 166/148/136 154/137/125
f 168/150/138 167/149/137 155/139/127
f 169/152/140 168/150/138 156/151/139
f 158/141/129 170/153/141 169/152/140
f 159/142/130 171/154/142 170/153/141
f 160/143/131 172/155/143 171/154/142
f 161/144/132 173/156/144 172/155/143
f 162/145/133 174/169/157 173/156/144
f 164/146/134 176/159/147 175/157/145
f 165/147/135 177/160/148 176/159/147
f 166/148/136 178/161/149 177/160/148
f 167/149/137 179/162/150 178/161/149
f 168/150/138 180/174/162 179/162/150
f 181/163/151 180/174/162 168/150/138
f 182/164/152 181/163/151 169/152/140
f 183/165/153 182/164/152 170/153/141
f 184/166/154 183/165/153 171/154/142
f 185/167/155 184/166/154 172/155/143
f 186/168/156 185/167/155 173/156/144
f 176/159/147 188/171/159 187/170/158
f 177/160/148 189/172/160 188/171/159
f 178/161/149 190/173/161 189/172/160
f 179/162/150 191/175/163 190/173/161
f 180/174/162 192/187/175 191/175/163
f 193/176/164 192/187/175 180/174/162
f 194/177/165 193/176/164 181/163/151
f 195/178/166 194/177/165 182/164/152
f 196/179/167 195/178/166 183/165/153
f 197/180/168 196/179/167 184/166/154
f 198/181/169 197/180/168 185/167/155
f 200/182/170 199/194/181 187/170/158
f 201/183/171 200/182/170 188/171/159
f 202/184/172 201/183/171 189/172/160
f 203/185/173 202/184/172 190/173/161
f 204/186/174 203/185/173 191/175/163
f 205/188/176 204/186/174 192/187/175
f 194/177/165 206/189/177 205/188/176
f 195/178/166 207/190/178 206/189/177
f 196/179/167 208/191/179 207/190/178
f 197/180/168 209/192/180 208/191/179
f 198/181/169 210/203/182 209/192/180
f 32/193/3 31/2/5 199/194/181
f 33/195/6 32/193/3 200/182/170
f 34/196/8 33/195/6 201/183/171
f 35/197/10 34/196/8 202/184/172
f 36/198/12 35/197/10 203/185/173
f 37/199/15 36/198/12 204/186/174
f 206/189/177 38/200/17 37/199/15
f 207/190/178 39/201/19 38/200/17
f 208/191/179 40/202/21 39/201/19
f 209/192/180 41/204/23 40/202/21
f 210/203/182 42/205/25 41/204/23
