# Blender 5.1.0
# www.blender.org
mtllib clone_leftArm.mtl
o leftArm
v 0.158335 -0.164160 0.103034
v 0.137599 0.170691 -0.000000
v 0.158335 -0.164160 -0.103034
v 0.243810 -0.147546 0.103034
v 0.243810 -0.147546 -0.103034
v 0.158335 -0.164160 -0.000000
v 0.243810 -0.147546 -0.000000
v 0.158335 -0.164160 0.051517
v 0.243810 -0.147546 0.051517
v 0.158335 -0.164160 -0.051517
v 0.243810 -0.147546 -0.051517
v 0.201072 -0.155853 0.103034
v 0.201072 -0.155853 -0.103034
v 0.201072 -0.155853 -0.000000
v 0.201072 -0.155853 0.051517
v 0.201072 -0.155853 -0.051517
vn 0.1908 -0.9816 -0.0000
vn -0.0300 0.1544 -0.9875
vn -0.0302 0.1544 -0.9875
vn 0.9816 0.1908 -0.0000
vn 0.9816 0.1910 0.0066
vn -0.9816 -0.1908 -0.0000
vn -0.9816 -0.1906 -0.0066
vn -0.0300 0.1544 0.9875
vn -0.0298 0.1545 0.9875
vn -0.9816 -0.1906 0.0066
vn 0.9816 0.1910 -0.0066
vn -0.0302 0.1544 0.9875
vn -0.0298 0.1545 -0.9875
vt 0.416707 0.938250
vt 0.341279 0.848997
vt 0.416707 0.848997
vt 0.773717 0.000000
vt 0.849145 0.603335
vt 0.773717 0.603335
vt 0.519784 -0.000000
vt 0.698290 0.581239
vt 0.609037 0.581239
vt 0.341279 0.000000
vt 0.341279 0.608032
vt 0.255959 0.581829
vt 0.924573 0.000000
vt 1.000000 0.603336
vt 0.924572 0.603335
vt 0.170639 0.555627
vt 0.085320 0.529424
vt 0.519784 0.581239
vt 0.430532 0.581239
vt 0.416707 0.759744
vt 0.341279 0.670492
vt 0.416707 0.670492
vt 0.341279 0.581239
vt 0.416707 0.581239
vt -0.000000 0.503221
vt 0.341279 0.581239
vt 0.341279 0.759744
vt 0.492134 0.848997
vt 0.492134 0.759744
vt 0.492134 0.670492
vt 0.492134 0.581239
vt 0.849145 0.603336
vt 0.698290 0.603336
vt 0.492134 0.938250
vt 0.341279 0.938250
s 1
usemtl マテリアル.007
f 13/1/1 11/2/1 16/3/1
f 2/4/2 5/5/3 13/6/2
f 2/7/4 4/8/5 9/9/4
f 2/10/6 3/11/7 10/12/6
f 2/13/8 1/14/9 12/15/8
f 2/10/6 6/16/6 8/17/6
f 2/7/4 7/18/4 11/19/4
f 14/20/1 9/21/1 15/22/1
f 15/22/1 4/23/1 12/24/1
f 2/10/6 8/17/6 1/25/10
f 2/7/4 9/9/4 7/18/4
f 2/7/4 11/19/4 5/26/11
f 2/10/6 10/12/6 6/16/6
f 16/3/1 7/27/1 14/20/1
f 10/28/1 14/20/1 6/29/1
f 8/30/1 12/24/1 1/31/1
f 6/29/1 15/22/1 8/30/1
f 2/13/8 12/15/8 4/32/12
f 2/4/2 13/6/2 3/33/13
f 3/34/1 16/3/1 10/28/1
f 13/1/1 5/35/1 11/2/1
f 14/20/1 7/27/1 9/21/1
f 15/22/1 9/21/1 4/23/1
f 16/3/1 11/2/1 7/27/1
f 10/28/1 16/3/1 14/20/1
f 8/30/1 15/22/1 12/24/1
f 6/29/1 14/20/1 15/22/1
f 3/34/1 13/1/1 16/3/1
