# Blender 5.1.0
# www.blender.org
mtllib Door.mtl
o Cube.001
v -0.144939 0.800768 0.434008
v -0.144939 0.781311 0.435924
v 0.144939 0.800768 0.434008
v -0.144939 0.820225 0.435924
v -0.144939 0.838934 0.441599
v 0.144939 0.820225 0.435924
v 0.144939 0.838934 0.441599
v 0.144939 0.856176 0.450815
v 0.144939 0.871289 0.463218
v -0.144939 0.856176 0.450815
v -0.144939 0.871289 0.463218
v -0.144939 0.883692 0.478331
v -0.144939 0.892908 0.495574
v 0.144939 0.883692 0.478331
v 0.144939 0.892908 0.495574
v 0.144939 0.898583 0.514283
v 0.144939 0.900500 0.533739
v -0.144939 0.898583 0.514283
v -0.144939 0.900500 0.533739
v -0.144939 0.898583 0.553196
v -0.144939 0.892908 0.571905
v 0.144939 0.898583 0.553196
v 0.144939 0.892908 0.571905
v 0.144939 0.883692 0.589147
v 0.144939 0.871289 0.604260
v -0.144939 0.883692 0.589147
v -0.144939 0.871289 0.604260
v -0.144939 0.856176 0.616663
v -0.144939 0.838934 0.625879
v 0.144939 0.856176 0.616663
v 0.144939 0.838934 0.625879
v 0.144939 0.820225 0.631555
v 0.144939 0.800768 0.633471
v -0.144939 0.820225 0.631555
v -0.144939 0.800768 0.633471
v -0.144939 0.781311 0.631555
v -0.144939 0.762602 0.625879
v 0.144939 0.781311 0.631555
v 0.144939 0.762602 0.625879
v 0.144939 0.745360 0.616663
v 0.144939 0.730247 0.604260
v -0.144939 0.745360 0.616663
v -0.144939 0.730247 0.604260
v -0.144939 0.717844 0.589147
v -0.144939 0.708628 0.571905
v 0.144939 0.717844 0.589147
v 0.144939 0.708628 0.571905
v 0.144939 0.702953 0.553196
v 0.144939 0.701036 0.533739
v -0.144939 0.702953 0.553196
v -0.144939 0.701036 0.533739
v -0.144939 0.702953 0.514283
v -0.144939 0.708628 0.495574
v 0.144939 0.702953 0.514283
v 0.144939 0.708628 0.495574
v 0.144939 0.717844 0.478331
v 0.144939 0.730247 0.463218
v -0.144939 0.717844 0.478331
v -0.144939 0.730247 0.463218
v -0.144939 0.745360 0.450815
v -0.144939 0.762602 0.441599
v 0.144939 0.745360 0.450815
v 0.144939 0.762602 0.441599
v 0.144939 0.781311 0.435924
v 0.101774 0.125139 -0.844920
v 0.101774 0.125139 0.844920
v -0.101774 0.125139 -0.844920
v -0.101774 0.125139 0.844920
v 0.101774 1.105158 -0.844920
v 0.101774 1.814979 -0.135099
v 0.101774 1.324505 -0.810179
v 0.101774 1.522380 -0.709356
v 0.101774 1.679415 -0.552321
v 0.101774 1.780238 -0.354445
v 0.101774 1.814979 0.135099
v 0.101774 1.105158 0.844920
v 0.101774 1.780238 0.354445
v 0.101774 1.679415 0.552321
v 0.101774 1.522380 0.709356
v 0.101774 1.324505 0.810179
v -0.101774 1.814979 -0.135099
v -0.101774 1.105158 -0.844920
v -0.101774 1.780238 -0.354445
v -0.101774 1.679415 -0.552321
v -0.101774 1.522380 -0.709356
v -0.101774 1.324505 -0.810179
v -0.101774 1.105158 0.844920
v -0.101774 1.814979 0.135099
v -0.101774 1.324505 0.810179
v -0.101774 1.522380 0.709356
v -0.101774 1.679415 0.552321
v -0.101774 1.780238 0.354445
v 0.146036 0.000265 -0.969795
v -0.146036 0.000265 -0.969795
v 0.146036 0.000265 0.969795
v 0.146036 1.125125 -0.969795
v 0.146036 1.376890 -0.929919
v -0.146036 1.125125 -0.969795
v 0.146036 1.105158 -0.844920
v 0.146036 1.324505 -0.810179
v 0.146036 0.125139 -0.844920
v -0.146036 1.105158 -0.844920
v -0.146036 0.125139 -0.844920
v -0.146036 1.324505 -0.810179
v -0.146036 1.522380 -0.709356
v -0.146036 1.679415 -0.552321
v 0.146036 1.522380 -0.709356
v 0.146036 1.679415 -0.552321
v 0.146036 1.780238 -0.354446
v 0.146036 1.814979 -0.135099
v -0.146036 1.780238 -0.354446
v -0.146036 1.814979 -0.135099
v -0.146036 1.939854 -0.155065
v -0.146036 1.814979 0.135099
v -0.146036 1.780238 0.354446
v 0.146036 1.814979 0.135099
v 0.146036 1.939854 0.155065
v 0.146036 1.780238 0.354446
v 0.146036 1.679415 0.552321
v 0.146036 1.522380 0.709356
v -0.146036 1.679415 0.552321
v -0.146036 1.522380 0.709356
v -0.146036 1.324505 0.810179
v -0.146036 1.105158 0.844920
v 0.146036 1.324505 0.810179
v 0.146036 1.105158 0.844920
v 0.146036 0.125139 0.844920
v -0.146036 0.125139 0.844920
v -0.146036 1.125125 0.969795
v -0.146036 1.376890 0.929919
v 0.146036 1.125125 0.969795
v -0.146036 0.000265 0.969795
v 0.146036 1.376890 0.929919
v 0.146036 1.604010 0.814195
v 0.146036 1.784254 0.633951
v -0.146036 1.604010 0.814195
v -0.146036 1.784254 0.633951
v -0.146036 1.899978 0.406831
v -0.146036 1.939854 0.155065
v 0.146036 1.899978 0.406831
v 0.146036 1.939854 -0.155065
v 0.146036 1.899978 -0.406831
v -0.146036 1.899978 -0.406831
v 0.146036 1.784254 -0.633951
v -0.146036 1.784254 -0.633951
v 0.146036 1.604010 -0.814195
v -0.146036 1.604010 -0.814195
v -0.146036 1.376890 -0.929919
vn -1.0000 -0.0000 -0.0000
vn -0.0000 -0.0000 -1.0000
vn -0.0000 -0.1951 -0.9808
vn -0.0000 0.1951 -0.9808
vn -0.0000 0.3827 -0.9239
vn 1.0000 -0.0000 -0.0000
vn -0.0000 0.5556 -0.8315
vn -0.0000 0.7071 -0.7071
vn -0.0000 0.8315 -0.5556
vn -0.0000 0.9239 -0.3827
vn -0.0000 0.9808 -0.1951
vn -0.0000 1.0000 -0.0000
vn -0.0000 0.9808 0.1951
vn -0.0000 0.9239 0.3827
vn -0.0000 0.8315 0.5556
vn -0.0000 0.7071 0.7071
vn -0.0000 0.5556 0.8315
vn -0.0000 0.3827 0.9239
vn -0.0000 0.1951 0.9808
vn -0.0000 -0.0000 1.0000
vn -0.0000 -0.1951 0.9808
vn -0.0000 -0.3827 0.9239
vn -0.0000 -0.5556 0.8315
vn -0.0000 -0.7071 0.7071
vn -0.0000 -0.8315 0.5556
vn -0.0000 -0.9239 0.3827
vn -0.0000 -0.9808 0.1951
vn -0.0000 -1.0000 -0.0000
vn -0.0000 -0.9808 -0.1951
vn -0.0000 -0.9239 -0.3827
vn -0.0000 -0.8315 -0.5556
vn -0.0000 -0.7071 -0.7071
vn -0.0000 -0.5556 -0.8315
vn -0.0000 -0.3827 -0.9239
vn -0.0000 0.9969 0.0785
vn -0.0000 0.9511 0.3090
vn -0.0000 0.8090 0.5878
vn -0.0000 0.5878 0.8090
vn -0.0000 0.3090 0.9511
vn -0.0000 0.0785 0.9969
vn -0.0000 0.9969 -0.0785
vn -0.0000 0.9511 -0.3090
vn -0.0000 0.8090 -0.5878
vn -0.0000 0.5878 -0.8090
vn -0.0000 0.3090 -0.9511
vn -0.0000 0.0785 -0.9969
vn -0.0000 -0.3090 0.9511
vn -0.0000 -0.0785 0.9969
vn -0.0000 -0.5878 0.8090
vn -0.0000 -0.8090 0.5878
vn -0.0000 -0.9511 0.3090
vn -0.0000 -0.9969 0.0785
vn -0.0000 -0.9969 -0.0785
vn -0.0000 -0.9511 -0.3090
vn -0.0000 -0.8090 -0.5878
vn -0.0000 -0.5878 -0.8090
vn -0.0000 -0.3090 -0.9511
vn -0.0000 -0.0785 -0.9969
vt 0.085049 0.000608
vt 0.067246 0.036214
vt 0.085049 0.036214
vt 0.085049 0.071819
vt 0.566720 0.398923
vt 0.567827 0.810082
vt 0.517919 0.404934
vt 0.997873 0.565602
vt 0.956814 0.616447
vt 0.952928 0.571444
vt 0.999802 0.619076
vt 0.946824 0.661538
vt 0.988871 0.693736
vt 0.919358 0.703141
vt 0.951744 0.737734
vt 0.884129 0.731039
vt 0.906790 0.770956
vt 0.840170 0.749317
vt 0.939679 0.519089
vt 0.957705 0.454261
vt 0.982230 0.502969
vt 0.919247 0.478442
vt 0.922990 0.412190
vt 0.885898 0.445996
vt 0.851828 0.399147
vt 0.891899 0.394665
vt 0.845290 0.427777
vt 0.819502 0.392707
vt 0.813210 0.419907
vt 0.779880 0.379864
vt 0.572728 0.352116
vt 0.628855 0.852383
vt 0.616629 0.804070
vt 0.981946 0.146999
vt 0.960288 0.343546
vt 0.297271 0.447473
vt 0.067393 0.480315
vt 0.075498 0.414522
vt 0.039912 0.921830
vt 0.001772 0.486055
vt 0.439111 0.828316
vt 0.341351 0.849189
vt 0.383779 0.834655
vt 0.374729 0.506422
vt 0.457432 0.573864
vt 0.405348 0.552560
vt 0.333558 0.499119
vt 0.340205 0.454452
vt 0.194668 0.774577
vt 0.132319 0.727168
vt 0.194668 0.727168
vt 0.194668 0.517960
vt 0.132319 0.517960
vt 0.299479 0.424521
vt 0.340441 0.432240
vt 0.132319 0.821985
vt 0.132319 0.774577
vt 0.194668 0.869393
vt 0.194668 0.821985
vt 0.213588 0.306178
vt 0.275938 0.258769
vt 0.275938 0.306178
vt 0.213588 0.258769
vt 0.275938 0.211361
vt 0.523179 0.151679
vt 0.548096 0.256627
vt 0.516442 0.209739
vt 0.213588 0.211361
vt 0.275938 0.153681
vt 0.213588 0.153681
vt 0.275938 0.106273
vt 0.275938 0.058864
vt 0.213588 0.106273
vt 0.213588 0.058864
vt 0.861833 0.916643
vt 0.814425 0.854293
vt 0.861833 0.854293
vt 0.767017 0.916643
vt 0.814425 0.916643
vt 0.719608 0.854293
vt 0.767017 0.854293
vt 0.719608 0.916643
vt 0.510401 0.854293
vt 0.001910 0.000252
vt 0.064260 0.360987
vt 0.001910 0.360987
vt 0.425501 0.912334
vt 0.350062 0.874323
vt 0.397892 0.856207
vt 0.117721 0.982792
vt 0.105533 0.916087
vt 0.477639 0.880458
vt 0.524756 0.839189
vt 0.475422 0.787321
vt 0.547553 0.738710
vt 0.486385 0.733955
vt 0.548096 0.679422
vt 0.484951 0.683754
vt 0.537232 0.607157
vt 0.474514 0.622637
vt 0.518420 0.548438
vt 0.489390 0.491156
vt 0.425405 0.526876
vt 0.382945 0.457753
vt 0.434257 0.453553
vt 0.992161 0.668541
vt 0.856874 0.793362
vt 0.775163 0.422584
vt 0.708217 0.001733
vt 0.911421 0.080310
vt 0.951965 0.108070
vt 0.998429 0.193288
vt 0.999802 0.242405
vt 0.985930 0.289543
vt 0.929619 0.375565
vt 0.291648 0.497823
vt 0.459862 0.684232
vt 0.289290 0.520627
vt 0.097104 0.508931
vt 0.460790 0.728438
vt 0.448758 0.773111
vt 0.130831 0.883437
vt 0.420275 0.809177
vt 0.329029 0.519607
vt 0.450375 0.631158
vt 0.435340 0.588998
vt 0.366404 0.528514
vt 0.461165 0.397232
vt 0.486485 0.356872
vt 0.509758 0.371345
vt 0.480352 0.418696
vt 0.198444 0.002029
vt 0.440169 0.080292
vt 0.426546 0.104734
vt 0.216881 0.037390
vt 0.424134 0.425472
vt 0.110070 0.393310
vt 0.381223 0.433762
vt 0.132319 0.869393
vt 0.467276 0.129357
vt 0.487748 0.109659
vt 0.543912 0.202236
vt 0.535287 0.309712
vt 0.508883 0.303366
vt 0.520110 0.257131
vt 0.498278 0.165730
vt 0.510401 0.916643
vt 0.064260 0.000252
vt 0.370058 0.934358
vt 0.540448 0.795461
s 1
usemtl マテリアル.001
f 36/1/1 20/1/1 4/1/1
f 3/2/2 2/3/3 1/2/2
f 6/2/4 1/2/2 4/1/4
f 7/3/5 4/1/4 5/2/5
f 31/1/6 47/1/6 63/1/6
f 8/2/7 5/2/5 10/2/7
f 9/2/8 10/2/7 11/2/8
f 14/2/9 11/2/8 12/3/9
f 15/3/10 12/3/9 13/2/10
f 16/2/11 13/2/10 18/2/11
f 17/2/12 18/2/11 19/2/12
f 22/2/13 19/2/12 20/1/13
f 23/1/14 20/1/13 21/2/14
f 24/2/15 21/2/14 26/2/15
f 25/2/16 26/2/15 27/2/16
f 30/2/17 27/2/16 28/3/17
f 31/1/18 28/3/17 29/2/18
f 32/2/19 29/2/18 34/4/19
f 33/2/20 34/4/19 35/2/20
f 38/2/21 35/2/20 36/1/21
f 39/3/22 36/1/21 37/2/22
f 40/2/23 37/2/22 42/3/23
f 41/2/24 42/3/23 43/2/24
f 46/2/25 43/2/24 44/4/25
f 47/1/26 44/4/25 45/2/26
f 48/2/27 45/2/26 50/2/27
f 49/2/28 50/2/27 51/2/28
f 54/2/29 51/2/28 52/3/29
f 55/3/30 52/3/29 53/2/30
f 56/2/31 53/2/30 58/2/31
f 57/2/32 58/2/31 59/2/32
f 62/2/33 59/2/32 60/1/33
f 63/1/34 60/1/33 61/2/34
f 64/2/3 61/2/34 2/3/3
f 65/5/28 68/6/28 67/7/28
f 88/8/35 77/9/36 75/10/35
f 92/11/36 78/12/37 77/9/36
f 91/13/37 79/14/38 78/12/37
f 90/15/38 80/16/39 79/14/38
f 89/17/39 76/18/40 80/16/39
f 70/19/41 83/20/42 81/21/41
f 74/22/42 84/23/43 83/20/42
f 73/24/43 85/25/44 84/26/43
f 72/27/44 86/28/45 85/25/44
f 71/29/45 82/30/46 86/28/45
f 82/30/46 65/5/2 67/31/2
f 72/27/6 75/10/6 80/16/6
f 81/21/41 75/10/35 70/19/41
f 76/18/40 68/32/20 66/33/20
f 90/34/1 81/35/1 86/28/1
f 98/36/46 93/37/2 94/38/2
f 93/37/28 132/39/28 94/40/28
f 134/41/6 126/42/6 125/43/6
f 146/44/6 142/45/6 108/46/6
f 97/47/45 98/36/46 148/48/45
f 100/49/47 102/50/48 99/51/48
f 101/52/20 102/50/48 103/53/20
f 148/48/1 102/54/1 104/55/1
f 100/49/47 105/56/49 104/57/47
f 108/58/50 105/56/49 107/59/49
f 108/60/50 111/61/51 106/62/50
f 109/63/51 112/64/52 111/61/51
f 136/65/1 138/66/1 121/67/1
f 110/68/52 114/69/53 112/64/52
f 116/70/53 115/71/54 114/69/53
f 121/72/55 118/73/54 119/74/55
f 119/75/55 122/76/56 121/77/55
f 125/78/57 122/76/56 120/79/56
f 125/78/57 124/80/58 123/81/57
f 126/82/58 128/83/2 124/80/58
f 101/84/12 128/85/12 127/86/12
f 130/87/39 131/88/40 133/89/39
f 131/88/40 132/90/20 95/91/20
f 136/92/38 133/89/39 134/41/38
f 137/93/37 134/41/38 135/94/37
f 138/95/36 135/94/37 140/96/36
f 139/97/35 140/96/36 117/98/35
f 113/99/41 117/98/35 141/100/41
f 141/100/41 143/101/42 113/99/41
f 142/45/42 145/102/43 143/101/42
f 144/103/43 147/104/44 145/105/43
f 146/44/44 148/48/45 147/104/44
f 4/1/1 1/2/1 2/3/1
f 2/3/1 61/2/1 60/1/1
f 60/1/1 59/2/1 58/2/1
f 58/2/1 53/2/1 52/3/1
f 52/3/1 51/2/1 50/2/1
f 50/2/1 45/2/1 44/4/1
f 44/4/1 43/2/1 42/3/1
f 42/3/1 37/2/1 36/1/1
f 36/1/1 35/2/1 34/4/1
f 34/4/1 29/2/1 28/3/1
f 28/3/1 27/2/1 26/2/1
f 26/2/1 21/2/1 20/1/1
f 20/1/1 19/2/1 18/2/1
f 18/2/1 13/2/1 12/3/1
f 12/3/1 11/2/1 10/2/1
f 10/2/1 5/2/1 4/1/1
f 4/1/1 2/3/1 60/1/1
f 60/1/1 58/2/1 52/3/1
f 52/3/1 50/2/1 44/4/1
f 44/4/1 42/3/1 36/1/1
f 36/1/1 34/4/1 28/3/1
f 28/3/1 26/2/1 20/1/1
f 20/1/1 18/2/1 12/3/1
f 12/3/1 10/2/1 4/1/1
f 4/1/1 60/1/1 52/3/1
f 52/3/1 44/4/1 36/1/1
f 36/1/1 28/3/1 20/1/1
f 20/1/1 12/3/1 4/1/1
f 4/1/1 52/3/1 36/1/1
f 3/2/2 64/2/3 2/3/3
f 6/2/4 3/2/2 1/2/2
f 7/3/5 6/2/4 4/1/4
f 63/1/6 64/2/6 3/2/6
f 3/2/6 6/2/6 7/3/6
f 7/3/6 8/2/6 9/2/6
f 9/2/6 14/2/6 15/3/6
f 15/3/6 16/2/6 17/2/6
f 17/2/6 22/2/6 23/1/6
f 23/1/6 24/2/6 25/2/6
f 25/2/6 30/2/6 31/1/6
f 31/1/6 32/2/6 33/2/6
f 33/2/6 38/2/6 39/3/6
f 39/3/6 40/2/6 41/2/6
f 41/2/6 46/2/6 47/1/6
f 47/1/6 48/2/6 49/2/6
f 49/2/6 54/2/6 55/3/6
f 55/3/6 56/2/6 57/2/6
f 57/2/6 62/2/6 63/1/6
f 63/1/6 3/2/6 7/3/6
f 7/3/6 9/2/6 15/3/6
f 15/3/6 17/2/6 23/1/6
f 23/1/6 25/2/6 31/1/6
f 31/1/6 33/2/6 39/3/6
f 39/3/6 41/2/6 47/1/6
f 47/1/6 49/2/6 55/3/6
f 55/3/6 57/2/6 63/1/6
f 63/1/6 7/3/6 15/3/6
f 15/3/6 23/1/6 31/1/6
f 31/1/6 39/3/6 47/1/6
f 47/1/6 55/3/6 63/1/6
f 63/1/6 15/3/6 31/1/6
f 8/2/7 7/3/5 5/2/5
f 9/2/8 8/2/7 10/2/7
f 14/2/9 9/2/8 11/2/8
f 15/3/10 14/2/9 12/3/9
f 16/2/11 15/3/10 13/2/10
f 17/2/12 16/2/11 18/2/11
f 22/2/13 17/2/12 19/2/12
f 23/1/14 22/2/13 20/1/13
f 24/2/15 23/1/14 21/2/14
f 25/2/16 24/2/15 26/2/15
f 30/2/17 25/2/16 27/2/16
f 31/1/18 30/2/17 28/3/17
f 32/2/19 31/1/18 29/2/18
f 33/2/20 32/2/19 34/4/19
f 38/2/21 33/2/20 35/2/20
f 39/3/22 38/2/21 36/1/21
f 40/2/23 39/3/22 37/2/22
f 41/2/24 40/2/23 42/3/23
f 46/2/25 41/2/24 43/2/24
f 47/1/26 46/2/25 44/4/25
f 48/2/27 47/1/26 45/2/26
f 49/2/28 48/2/27 50/2/27
f 54/2/29 49/2/28 51/2/28
f 55/3/30 54/2/29 52/3/29
f 56/2/31 55/3/30 53/2/30
f 57/2/32 56/2/31 58/2/31
f 62/2/33 57/2/32 59/2/32
f 63/1/34 62/2/33 60/1/33
f 64/2/3 63/1/34 61/2/34
f 65/5/28 66/33/28 68/6/28
f 88/8/35 92/11/36 77/9/36
f 92/11/36 91/106/37 78/12/37
f 91/13/37 90/15/38 79/14/38
f 90/15/38 89/17/39 80/16/39
f 89/17/39 87/107/40 76/18/40
f 70/19/41 74/22/42 83/20/42
f 74/22/42 73/24/43 84/23/43
f 73/24/43 72/27/44 85/25/44
f 72/27/44 71/29/45 86/28/45
f 71/29/45 69/108/46 82/30/46
f 82/30/46 69/108/46 65/5/2
f 66/33/6 65/5/6 69/108/6
f 69/108/6 71/29/6 72/27/6
f 72/27/6 73/24/6 74/22/6
f 74/22/6 70/19/6 75/10/6
f 75/10/6 77/9/6 78/12/6
f 78/12/6 79/14/6 80/16/6
f 80/16/6 76/18/6 66/33/6
f 66/33/6 69/108/6 72/27/6
f 72/27/6 74/22/6 75/10/6
f 75/10/6 78/12/6 80/16/6
f 80/16/6 66/33/6 72/27/6
f 81/21/41 88/8/35 75/10/35
f 76/18/40 87/107/40 68/32/20
f 67/31/1 68/109/1 87/110/1
f 87/110/1 89/111/1 90/34/1
f 90/34/1 91/112/1 92/113/1
f 92/113/1 88/114/1 81/35/1
f 81/35/1 83/115/1 84/26/1
f 84/26/1 85/25/1 86/28/1
f 86/28/1 82/30/1 67/31/1
f 67/31/1 87/110/1 90/34/1
f 90/34/1 92/113/1 81/35/1
f 81/35/1 84/26/1 86/28/1
f 86/28/1 67/31/1 90/34/1
f 98/36/46 96/116/46 93/37/2
f 93/37/28 95/91/28 132/39/28
f 116/117/6 117/98/6 140/96/6
f 140/96/6 135/94/6 134/41/6
f 134/41/6 133/89/6 131/88/6
f 93/37/6 96/116/6 99/118/6
f 93/37/6 99/118/6 101/119/6
f 134/41/6 131/88/6 95/91/6
f 118/120/6 116/117/6 140/96/6
f 119/121/6 118/120/6 140/96/6
f 95/91/6 93/37/6 101/119/6
f 95/91/6 101/119/6 127/122/6
f 119/121/6 140/96/6 134/41/6
f 120/123/6 119/121/6 134/41/6
f 95/91/6 127/122/6 126/42/6
f 125/43/6 120/123/6 134/41/6
f 134/41/6 95/91/6 126/42/6
f 100/124/6 99/118/6 96/116/6
f 96/116/6 97/47/6 146/44/6
f 146/44/6 144/103/6 142/45/6
f 142/45/6 141/100/6 117/98/6
f 117/98/6 116/117/6 110/125/6
f 117/98/6 110/125/6 109/126/6
f 100/124/6 96/116/6 146/44/6
f 107/127/6 100/124/6 146/44/6
f 142/45/6 117/98/6 109/126/6
f 108/46/6 107/127/6 146/44/6
f 142/45/6 109/126/6 108/46/6
f 97/47/45 96/116/46 98/36/46
f 100/49/47 104/57/47 102/50/48
f 101/52/20 99/51/48 102/50/48
f 111/128/1 112/129/1 113/130/1
f 113/130/1 143/131/1 145/105/1
f 145/105/1 147/104/1 148/48/1
f 148/48/1 98/36/1 94/38/1
f 132/132/1 129/133/1 124/134/1
f 132/132/1 124/134/1 128/135/1
f 111/128/1 113/130/1 145/105/1
f 106/136/1 111/128/1 145/105/1
f 94/38/1 132/132/1 128/135/1
f 94/38/1 128/135/1 103/137/1
f 106/136/1 145/105/1 148/48/1
f 105/138/1 106/136/1 148/48/1
f 148/48/1 94/38/1 103/137/1
f 148/48/1 103/137/1 102/54/1
f 104/55/1 105/138/1 148/48/1
f 100/49/47 107/59/49 105/56/49
f 108/58/50 106/139/50 105/56/49
f 108/60/50 109/63/51 111/61/51
f 109/63/51 110/68/52 112/64/52
f 123/140/1 124/134/1 129/133/1
f 129/133/1 130/141/1 136/65/1
f 136/65/1 137/142/1 138/66/1
f 138/66/1 139/143/1 113/130/1
f 113/130/1 112/129/1 114/144/1
f 113/130/1 114/144/1 115/145/1
f 123/140/1 129/133/1 136/65/1
f 122/146/1 123/140/1 136/65/1
f 138/66/1 113/130/1 115/145/1
f 121/67/1 122/146/1 136/65/1
f 138/66/1 115/145/1 121/67/1
f 110/68/52 116/70/53 114/69/53
f 116/70/53 118/73/54 115/71/54
f 121/72/55 115/71/54 118/73/54
f 119/75/55 120/79/56 122/76/56
f 125/78/57 123/81/57 122/76/56
f 125/78/57 126/82/58 124/80/58
f 126/82/58 127/147/2 128/83/2
f 101/84/12 103/148/12 128/85/12
f 130/87/39 129/149/40 131/88/40
f 131/88/40 129/149/40 132/90/20
f 136/92/38 130/87/39 133/89/39
f 137/93/37 136/92/38 134/41/38
f 138/95/36 137/150/37 135/94/37
f 139/97/35 138/95/36 140/96/36
f 113/99/41 139/97/35 117/98/35
f 141/100/41 142/45/42 143/101/42
f 142/45/42 144/103/43 145/102/43
f 144/103/43 146/44/44 147/104/44
f 146/44/44 97/47/45 148/48/45
