# Blender 5.1.0
# www.blender.org
mtllib 7.mtl
o 7
v 0.108553 0.164474 0.230000
v -0.073684 0.164474 0.230000
v -0.107237 0.124342 0.230000
v -0.121711 0.070395 0.230000
v -0.144079 0.070395 0.230000
v -0.119079 0.225000 0.230000
v -0.118421 0.225000 0.230000
v -0.117105 0.225000 0.230000
v -0.060526 0.217105 0.230000
v 0.155921 0.217105 0.230000
v 0.155921 0.203947 0.230000
v 0.061842 -0.007237 0.230000
v 0.033553 -0.211842 0.230000
v -0.002632 -0.249342 0.230000
v -0.038816 -0.202632 0.230000
v 0.108553 0.164474 -0.230000
v -0.073684 0.164474 -0.230000
v -0.107237 0.124342 -0.230000
v -0.121711 0.070395 -0.230000
v -0.144079 0.070395 -0.230000
v -0.119079 0.225000 -0.230000
v -0.118421 0.225000 -0.230000
v -0.117105 0.225000 -0.230000
v -0.060526 0.217105 -0.230000
v 0.155921 0.217105 -0.230000
v 0.155921 0.203947 -0.230000
v 0.061842 -0.007237 -0.230000
v 0.033553 -0.211842 -0.230000
v -0.002632 -0.249342 -0.230000
v -0.038816 -0.202632 -0.230000
v 0.108553 0.164474 -0.230000
v 0.094842 0.155203 -0.228532
v 0.082473 0.146840 -0.224270
v 0.072657 0.140203 -0.217634
v 0.066354 0.135942 -0.209270
v 0.064183 0.134474 -0.200000
v 0.064183 0.134474 0.200000
v 0.066354 0.135942 0.209270
v 0.072657 0.140203 0.217634
v 0.082473 0.146840 0.224270
v 0.094842 0.155203 0.228532
v 0.108553 0.164474 0.230000
v -0.073684 0.164474 -0.230000
v -0.069351 0.155203 -0.228532
v -0.065442 0.146840 -0.224270
v -0.062340 0.140203 -0.217634
v -0.060349 0.135942 -0.209270
v -0.059662 0.134474 -0.200000
v -0.059662 0.134474 0.200000
v -0.060349 0.135942 0.209270
v -0.062340 0.140203 0.217634
v -0.065442 0.146840 0.224270
v -0.069351 0.155203 0.228532
v -0.073684 0.164474 0.230000
v -0.107237 0.124342 -0.230000
v -0.098813 0.119965 -0.228532
v -0.091214 0.116016 -0.224270
v -0.085183 0.112882 -0.217634
v -0.081311 0.110870 -0.209270
v -0.079976 0.110177 -0.200000
v -0.079976 0.110177 0.200000
v -0.081311 0.110870 0.209270
v -0.085183 0.112882 0.217634
v -0.091214 0.116016 0.224270
v -0.098813 0.119965 0.228532
v -0.107237 0.124342 0.230000
v -0.121711 0.070395 -0.230000
v -0.114599 0.061124 -0.228532
v -0.108184 0.052761 -0.224270
v -0.103093 0.046124 -0.217634
v -0.099825 0.041863 -0.209270
v -0.098698 0.040395 -0.200000
v -0.098698 0.040395 0.200000
v -0.099825 0.041863 0.209270
v -0.103093 0.046124 0.217634
v -0.108184 0.052761 0.224270
v -0.114599 0.061124 0.228532
v -0.121711 0.070395 0.230000
v -0.144079 0.070395 -0.230000
v -0.154969 0.061124 -0.228532
v -0.164793 0.052761 -0.224270
v -0.172589 0.046124 -0.217634
v -0.177595 0.041863 -0.209270
v -0.179320 0.040395 -0.200000
v -0.179320 0.040395 0.200000
v -0.177595 0.041863 0.209270
v -0.172589 0.046124 0.217634
v -0.164793 0.052761 0.224270
v -0.154969 0.061124 0.228532
v -0.144079 0.070395 0.230000
v -0.119079 0.225000 -0.230000
v -0.126971 0.234271 -0.228532
v -0.134090 0.242634 -0.224270
v -0.139740 0.249271 -0.217634
v -0.143368 0.253532 -0.209270
v -0.144618 0.255000 -0.200000
v -0.144618 0.255000 0.200000
v -0.143368 0.253532 0.209271
v -0.139740 0.249270 0.217634
v -0.134090 0.242634 0.224271
v -0.126971 0.234270 0.228532
v -0.119079 0.225000 0.230000
v -0.118421 0.225000 -0.230000
v -0.118421 0.234271 -0.228532
v -0.118421 0.242634 -0.224270
v -0.118421 0.249271 -0.217634
v -0.118421 0.253532 -0.209270
v -0.118421 0.255000 -0.200000
v -0.118421 0.255000 0.200000
v -0.118421 0.253532 0.209271
v -0.118421 0.249270 0.217634
v -0.118421 0.242634 0.224271
v -0.118421 0.234270 0.228532
v -0.118421 0.225000 0.230000
v -0.117105 0.225000 -0.230000
v -0.116462 0.234271 -0.228532
v -0.115881 0.242634 -0.224270
v -0.115420 0.249271 -0.217634
v -0.115124 0.253532 -0.209270
v -0.115022 0.255000 -0.200000
v -0.115022 0.255000 0.200000
v -0.115124 0.253532 0.209271
v -0.115420 0.249270 0.217634
v -0.115881 0.242634 0.224271
v -0.116462 0.234270 0.228532
v -0.117105 0.225000 0.230000
v -0.060526 0.217105 -0.230000
v -0.059883 0.226376 -0.228532
v -0.059302 0.234739 -0.224270
v -0.058841 0.241376 -0.217634
v -0.058545 0.245637 -0.209270
v -0.058443 0.247105 -0.200000
v -0.058443 0.247105 0.200000
v -0.058545 0.245637 0.209271
v -0.058841 0.241376 0.217634
v -0.059302 0.234739 0.224271
v -0.059883 0.226376 0.228532
v -0.060526 0.217105 0.230000
v 0.155921 0.217105 -0.230000
v 0.165192 0.226376 -0.228532
v 0.173555 0.234739 -0.224270
v 0.180192 0.241376 -0.217634
v 0.184453 0.245637 -0.209270
v 0.185921 0.247105 -0.200000
v 0.185921 0.247105 0.200000
v 0.184453 0.245637 0.209271
v 0.180192 0.241376 0.217634
v 0.173555 0.234739 0.224271
v 0.165192 0.226376 0.228532
v 0.155921 0.217105 0.230000
v 0.155921 0.203947 -0.230000
v 0.165192 0.201976 -0.228532
v 0.173555 0.200197 -0.224270
v 0.180192 0.198786 -0.217634
v 0.184453 0.197880 -0.209270
v 0.185921 0.197567 -0.200000
v 0.185921 0.197567 0.200000
v 0.184453 0.197880 0.209271
v 0.180192 0.198786 0.217634
v 0.173555 0.200197 0.224271
v 0.165192 0.201976 0.228532
v 0.155921 0.203947 0.230000
v 0.061842 -0.007237 -0.230000
v 0.070845 -0.009809 -0.228532
v 0.078967 -0.012129 -0.224270
v 0.085413 -0.013970 -0.217634
v 0.089551 -0.015152 -0.209270
v 0.090977 -0.015559 -0.200000
v 0.090977 -0.015559 0.200000
v 0.089551 -0.015152 0.209270
v 0.085413 -0.013970 0.217634
v 0.078967 -0.012129 0.224270
v 0.070845 -0.009809 0.228532
v 0.061842 -0.007237 0.230000
v 0.033553 -0.211842 -0.230000
v 0.042322 -0.216105 -0.228532
v 0.050233 -0.219950 -0.224271
v 0.056511 -0.223002 -0.217634
v 0.060542 -0.224962 -0.209271
v 0.061931 -0.225637 -0.200000
v 0.061931 -0.225637 0.200000
v 0.060542 -0.224962 0.209270
v 0.056511 -0.223002 0.217634
v 0.050233 -0.219950 0.224270
v 0.042322 -0.216105 0.228532
v 0.033553 -0.211842 0.230000
v -0.002632 -0.249342 -0.230000
v -0.003399 -0.263489 -0.228532
v -0.004092 -0.276251 -0.224271
v -0.004642 -0.286379 -0.217634
v -0.004995 -0.292881 -0.209271
v -0.005117 -0.295122 -0.200000
v -0.005117 -0.295122 0.200000
v -0.004995 -0.292881 0.209270
v -0.004642 -0.286379 0.217634
v -0.004092 -0.276251 0.224270
v -0.003399 -0.263489 0.228532
v -0.002632 -0.249342 0.230000
v -0.038816 -0.202632 -0.230000
v -0.049398 -0.204109 -0.228532
v -0.058945 -0.205441 -0.224271
v -0.066521 -0.206498 -0.217634
v -0.071385 -0.207177 -0.209271
v -0.073062 -0.207411 -0.200000
v -0.073062 -0.207411 0.200000
v -0.071385 -0.207177 0.209270
v -0.066521 -0.206498 0.217634
v -0.058945 -0.205441 0.224270
v -0.049398 -0.204109 0.228532
v -0.038816 -0.202632 0.230000
vn -0.0000 -0.0000 1.0000
vn -0.0000 -0.0000 -1.0000
vn -0.1032 -0.0698 -0.9922
vn 0.0601 -0.1287 -0.9899
vn -0.0732 -0.0495 -0.9961
vn -0.2660 -0.1799 -0.9470
vn 0.1041 -0.2227 -0.9693
vn -0.4625 -0.3127 -0.8297
vn 0.2207 -0.4722 -0.8534
vn -0.6933 -0.4688 -0.5473
vn 0.3232 -0.6916 -0.6460
vn -0.8193 -0.5539 -0.1484
vn 0.3964 -0.8481 -0.3514
vn 0.4218 -0.9024 0.0885
vn -0.8193 -0.5539 0.1484
vn 0.3964 -0.8481 0.3514
vn -0.6933 -0.4688 0.5473
vn 0.3232 -0.6916 0.6460
vn -0.4625 -0.3127 0.8297
vn 0.2207 -0.4722 0.8534
vn -0.2660 -0.1799 0.9470
vn 0.1041 -0.2227 0.9693
vn -0.1032 -0.0698 0.9922
vn 0.0601 -0.1287 0.9899
vn -0.0732 -0.0495 0.9961
vn 0.1356 -0.0705 -0.9882
vn 0.2513 -0.1306 -0.9590
vn 0.5009 -0.2603 -0.8254
vn 0.7051 -0.3664 -0.6071
vn 0.4218 -0.9024 -0.0885
vn 0.8401 -0.4365 -0.3221
vn 0.8844 -0.4596 0.0812
vn 0.8401 -0.4365 0.3221
vn 0.7051 -0.3664 0.6071
vn 0.5009 -0.2603 0.8254
vn 0.2513 -0.1306 0.9590
vn 0.1356 -0.0705 0.9882
vn 0.0759 -0.0989 -0.9922
vn 0.1829 -0.2384 -0.9538
vn 0.3313 -0.4318 -0.8389
vn 0.4676 -0.6096 -0.6401
vn 0.8844 -0.4596 -0.0812
vn 0.5698 -0.7428 -0.3515
vn 0.6059 -0.7899 0.0948
vn 0.5698 -0.7428 0.3515
vn 0.4676 -0.6096 0.6401
vn 0.3313 -0.4318 0.8389
vn 0.1829 -0.2384 0.9538
vn 0.0759 -0.0989 0.9922
vn -0.0778 -0.0662 -0.9948
vn -0.2010 -0.1711 -0.9645
vn -0.3687 -0.3139 -0.8749
vn -0.5446 -0.4636 -0.6989
vn 0.6059 -0.7899 -0.0948
vn -0.6975 -0.5938 -0.4012
vn -0.7566 -0.6440 0.1132
vn -0.6975 -0.5938 0.4012
vn -0.5446 -0.4636 0.6989
vn -0.3687 -0.3139 0.8749
vn -0.2010 -0.1711 0.9645
vn -0.0778 -0.0662 0.9948
vn -0.1902 0.2234 -0.9560
vn -0.3451 0.4054 -0.8465
vn -0.4915 0.5773 -0.6520
vn -0.6044 0.7100 -0.3612
vn -0.6451 0.7578 -0.0983
vn -0.7566 -0.6441 -0.1132
vn -0.6451 0.7578 0.0983
vn -0.6044 0.7100 0.3612
vn -0.4915 0.5773 0.6520
vn -0.3451 0.4054 0.8465
vn -0.1902 0.2234 0.9560
vn -0.0000 0.3090 -0.9511
vn -0.0776 0.0912 -0.9928
vn -0.0000 0.5878 -0.8090
vn -0.0000 0.8090 -0.5878
vn -0.0000 0.9511 -0.3090
vn -0.0000 0.9969 -0.0785
vn -0.0000 0.9969 0.0785
vn -0.0000 0.9511 0.3090
vn -0.0000 0.8090 0.5878
vn -0.0000 0.5878 0.8090
vn -0.0776 0.0912 0.9928
vn -0.0000 0.3090 0.9511
vn 0.0108 0.1557 -0.9877
vn -0.0000 0.1564 -0.9877
vn 0.0218 0.3138 -0.9492
vn 0.0410 0.5900 -0.8064
vn 0.0562 0.8088 -0.5854
vn 0.0659 0.9492 -0.3076
vn 0.0691 0.9945 0.0784
vn 0.0659 0.9492 0.3076
vn 0.0562 0.8088 0.5854
vn 0.0410 0.5900 0.8064
vn 0.0218 0.3138 0.9492
vn 0.0108 0.1557 0.9877
vn -0.0000 0.1564 0.9877
vn 0.0209 0.3014 -0.9533
vn 0.0403 0.5810 -0.8129
vn 0.0558 0.8040 -0.5920
vn 0.0658 0.9479 -0.3117
vn 0.0690 0.9945 -0.0789
vn 0.0691 0.9945 -0.0784
vn 0.0690 0.9945 0.0789
vn 0.0658 0.9479 0.3117
vn 0.0558 0.8040 0.5920
vn 0.0403 0.5810 0.8129
vn 0.0209 0.3014 0.9533
vn 0.0787 0.0787 -0.9938
vn 0.1980 0.1980 -0.9600
vn 0.3610 0.3610 -0.8599
vn 0.5226 0.5226 -0.6736
vn 0.6543 0.6543 -0.3793
vn 0.7032 0.7032 0.1049
vn 0.6543 0.6543 0.3793
vn 0.5226 0.5226 0.6736
vn 0.3610 0.3610 0.8599
vn 0.1980 0.1980 0.9600
vn 0.0787 0.0787 0.9938
vn 0.3145 -0.0669 -0.9469
vn 0.5801 -0.1234 -0.8051
vn 0.7925 -0.1685 -0.5861
vn 0.9303 -0.1979 -0.3088
vn 0.9750 -0.2074 -0.0793
vn 0.7032 0.7032 -0.1049
vn 0.9750 -0.2074 0.0793
vn 0.9303 -0.1979 0.3088
vn 0.7925 -0.1685 0.5861
vn 0.5801 -0.1234 0.8051
vn 0.3145 -0.0669 0.9469
vn 0.2824 -0.0807 -0.9559
vn 0.1497 -0.0318 -0.9882
vn 0.5527 -0.1579 -0.8183
vn 0.7705 -0.2201 -0.5982
vn 0.9123 -0.2606 -0.3159
vn 0.9585 -0.2738 -0.0798
vn 0.9585 -0.2738 0.0798
vn 0.9123 -0.2606 0.3159
vn 0.7705 -0.2201 0.5982
vn 0.5527 -0.1579 0.8183
vn 0.1497 -0.0318 0.9882
vn 0.2824 -0.0807 0.9559
vn 0.1339 -0.0651 -0.9889
vn 0.1490 -0.0426 -0.9879
vn 0.2903 -0.1411 -0.9465
vn 0.5300 -0.2577 -0.8079
vn 0.7252 -0.3525 -0.5915
vn 0.8541 -0.4152 -0.3132
vn 0.8964 -0.4357 0.0811
vn 0.8541 -0.4152 0.3132
vn 0.7252 -0.3525 0.5915
vn 0.5300 -0.2577 0.8079
vn 0.2903 -0.1411 0.9465
vn 0.1339 -0.0651 0.9889
vn 0.1490 -0.0426 0.9879
vn -0.0056 -0.1029 -0.9947
vn -0.0144 -0.2653 -0.9641
vn -0.0264 -0.4864 -0.8733
vn -0.0389 -0.7168 -0.6962
vn 0.8964 -0.4357 -0.0811
vn -0.0497 -0.9157 -0.3988
vn -0.0539 -0.9922 0.1123
vn -0.0497 -0.9157 0.3988
vn -0.0389 -0.7168 0.6962
vn -0.0264 -0.4864 0.8733
vn -0.0144 -0.2653 0.9641
vn -0.0056 -0.1029 0.9947
vn -0.3113 -0.0435 -0.9493
vn -0.5632 -0.0786 -0.8226
vn -0.7811 -0.1090 -0.6148
vn -0.9344 -0.1304 -0.3315
vn -0.9866 -0.1377 -0.0877
vn -0.0538 -0.9922 -0.1123
vn -0.9866 -0.1377 0.0877
vn -0.9344 -0.1304 0.3315
vn -0.7811 -0.1090 0.6148
vn -0.5632 -0.0786 0.8226
vn -0.3113 -0.0434 0.9493
vn -0.1348 -0.0188 -0.9907
vn -0.1348 -0.0188 0.9907
vt 0.500000 0.000000
vt 0.428571 0.000000
vt 0.071429 0.000000
vt 0.285714 0.000000
vt 0.214286 0.000000
vt 0.142857 0.000000
vt 0.357143 0.000000
vt 0.928571 0.000000
vt 0.857143 0.000000
vt 1.000000 0.000000
vt 0.000000 0.000000
vt 0.785714 0.000000
vt 0.714286 0.000000
vt 0.642857 0.000000
vt 0.571429 0.000000
vt 0.000000 0.090909
vt 0.066667 0.000000
vt 0.000000 0.181818
vt 0.066667 0.090909
vt 0.000000 0.272727
vt 0.066667 0.181818
vt 0.000000 0.363636
vt 0.066667 0.272727
vt 0.000000 0.454545
vt 0.066667 0.363636
vt 0.066667 0.545455
vt 0.000000 0.545455
vt 0.066667 0.636364
vt 0.000000 0.636364
vt 0.066667 0.727273
vt 0.000000 0.727273
vt 0.066667 0.818182
vt 0.000000 0.818182
vt 0.066667 0.909091
vt 0.000000 0.909091
vt 0.066667 1.000000
vt 0.000000 1.000000
vt 0.133333 0.000000
vt 0.133333 0.090909
vt 0.133333 0.181818
vt 0.133333 0.272727
vt 0.066667 0.454545
vt 0.133333 0.363636
vt 0.133333 0.545455
vt 0.133333 0.636364
vt 0.133333 0.727273
vt 0.133333 0.818182
vt 0.133333 0.909091
vt 0.133333 1.000000
vt 0.200000 0.000000
vt 0.200000 0.090909
vt 0.200000 0.181818
vt 0.200000 0.272727
vt 0.133333 0.454545
vt 0.200000 0.363636
vt 0.200000 0.545455
vt 0.200000 0.636364
vt 0.200000 0.727273
vt 0.200000 0.818182
vt 0.200000 0.909091
vt 0.200000 1.000000
vt 0.266667 0.000000
vt 0.266667 0.090909
vt 0.266667 0.181818
vt 0.266667 0.272727
vt 0.200000 0.454545
vt 0.266667 0.363636
vt 0.266667 0.545455
vt 0.266667 0.636364
vt 0.266667 0.727273
vt 0.266667 0.818182
vt 0.266667 0.909091
vt 0.266667 1.000000
vt 0.333333 0.090909
vt 0.333333 0.181818
vt 0.333333 0.272727
vt 0.333333 0.363636
vt 0.333333 0.454545
vt 0.266667 0.454545
vt 0.333333 0.545455
vt 0.333333 0.636364
vt 0.333333 0.727273
vt 0.333333 0.818182
vt 0.333333 0.909091
vt 0.400000 0.090909
vt 0.333333 0.000000
vt 0.400000 0.181818
vt 0.400000 0.272727
vt 0.400000 0.363636
vt 0.400000 0.454545
vt 0.400000 0.545455
vt 0.400000 0.636364
vt 0.400000 0.727273
vt 0.400000 0.818182
vt 0.333333 1.000000
vt 0.400000 0.909091
vt 0.466667 0.000000
vt 0.400000 0.000000
vt 0.466667 0.090909
vt 0.466667 0.181818
vt 0.466667 0.272727
vt 0.466667 0.363636
vt 0.466667 0.545455
vt 0.466667 0.636364
vt 0.466667 0.727273
vt 0.466667 0.818182
vt 0.466667 0.909091
vt 0.466667 1.000000
vt 0.400000 1.000000
vt 0.533333 0.090909
vt 0.533333 0.181818
vt 0.533333 0.272727
vt 0.533333 0.363636
vt 0.533333 0.454545
vt 0.466667 0.454545
vt 0.533333 0.545455
vt 0.533333 0.636364
vt 0.533333 0.727273
vt 0.533333 0.818182
vt 0.533333 0.909091
vt 0.600000 0.000000
vt 0.533333 0.000000
vt 0.600000 0.090909
vt 0.600000 0.181818
vt 0.600000 0.272727
vt 0.600000 0.363636
vt 0.600000 0.545455
vt 0.600000 0.636364
vt 0.600000 0.727273
vt 0.600000 0.818182
vt 0.600000 0.909091
vt 0.600000 1.000000
vt 0.533333 1.000000
vt 0.666667 0.090909
vt 0.666667 0.181818
vt 0.666667 0.272727
vt 0.666667 0.363636
vt 0.666667 0.454545
vt 0.600000 0.454545
vt 0.666667 0.545455
vt 0.666667 0.636364
vt 0.666667 0.727273
vt 0.666667 0.818182
vt 0.666667 0.909091
vt 0.733333 0.090909
vt 0.666667 0.000000
vt 0.733333 0.181818
vt 0.733333 0.272727
vt 0.733333 0.363636
vt 0.733333 0.454545
vt 0.733333 0.545455
vt 0.733333 0.636364
vt 0.733333 0.727273
vt 0.733333 0.818182
vt 0.666667 1.000000
vt 0.733333 0.909091
vt 0.800000 0.000000
vt 0.733333 0.000000
vt 0.800000 0.090909
vt 0.800000 0.181818
vt 0.800000 0.272727
vt 0.800000 0.363636
vt 0.800000 0.545455
vt 0.800000 0.636364
vt 0.800000 0.727273
vt 0.800000 0.818182
vt 0.800000 0.909091
vt 0.800000 1.000000
vt 0.733333 1.000000
vt 0.866667 0.000000
vt 0.866667 0.090909
vt 0.866667 0.181818
vt 0.866667 0.272727
vt 0.800000 0.454545
vt 0.866667 0.363636
vt 0.866667 0.545455
vt 0.866667 0.636364
vt 0.866667 0.727273
vt 0.866667 0.818182
vt 0.866667 0.909091
vt 0.866667 1.000000
vt 0.933333 0.090909
vt 0.933333 0.181818
vt 0.933333 0.272727
vt 0.933333 0.363636
vt 0.933333 0.454545
vt 0.866667 0.454545
vt 0.933333 0.545455
vt 0.933333 0.636364
vt 0.933333 0.727273
vt 0.933333 0.818182
vt 0.933333 0.909091
vt 1.000000 0.090909
vt 0.933333 0.000000
vt 1.000000 0.181818
vt 1.000000 0.272727
vt 1.000000 0.363636
vt 1.000000 0.454545
vt 1.000000 0.545455
vt 1.000000 0.636364
vt 1.000000 0.727273
vt 1.000000 0.818182
vt 0.933333 1.000000
vt 1.000000 0.909091
vt 1.000000 1.000000
s 0
usemtl マテリアル.025
f 8/1/1 7/2/1 2/3/1
f 5/4/1 4/5/1 3/6/1
f 6/7/1 5/4/1 3/6/1
f 3/6/1 2/3/1 6/7/1
f 2/3/1 7/2/1 6/7/1
f 14/8/1 13/9/1 15/10/1
f 1/11/1 12/12/1 11/13/1
f 11/13/1 10/14/1 1/11/1
f 15/10/1 13/9/1 12/12/1
f 1/11/1 10/14/1 9/15/1
f 12/12/1 1/11/1 15/10/1
f 1/11/1 9/15/1 2/3/1
f 8/1/1 2/3/1 9/15/1
f 23/1/2 17/3/2 22/2/2
f 20/4/2 18/6/2 19/5/2
f 21/7/2 18/6/2 20/4/2
f 18/6/2 21/7/2 17/3/2
f 17/3/2 21/7/2 22/2/2
f 29/8/2 30/10/2 28/9/2
f 16/11/2 26/13/2 27/12/2
f 26/13/2 16/11/2 25/14/2
f 30/10/2 27/12/2 28/9/2
f 16/11/2 24/15/2 25/14/2
f 27/12/2 30/10/2 16/11/2
f 16/11/2 17/3/2 24/15/2
f 23/1/2 24/15/2 17/3/2
s 1
f 32/16/3 43/17/4 31/11/5
f 33/18/6 44/19/7 32/16/3
f 34/20/8 45/21/9 33/18/6
f 35/22/10 46/23/11 34/20/8
f 36/24/12 47/25/13 35/22/10
f 49/26/14 36/24/12 37/27/15
f 50/28/16 37/27/15 38/29/17
f 51/30/18 38/29/17 39/31/19
f 52/32/20 39/31/19 40/33/21
f 53/34/22 40/33/21 41/35/23
f 54/36/24 41/35/23 42/37/25
f 44/19/7 55/38/26 43/17/4
f 45/21/9 56/39/27 44/19/7
f 46/23/11 57/40/28 45/21/9
f 47/25/13 58/41/29 46/23/11
f 48/42/30 59/43/31 47/25/13
f 61/44/32 48/42/30 49/26/14
f 62/45/33 49/26/14 50/28/16
f 63/46/34 50/28/16 51/30/18
f 64/47/35 51/30/18 52/32/20
f 65/48/36 52/32/20 53/34/22
f 66/49/37 53/34/22 54/36/24
f 56/39/27 67/50/38 55/38/26
f 57/40/28 68/51/39 56/39/27
f 58/41/29 69/52/40 57/40/28
f 59/43/31 70/53/41 58/41/29
f 60/54/42 71/55/43 59/43/31
f 73/56/44 60/54/42 61/44/32
f 74/57/45 61/44/32 62/45/33
f 75/58/46 62/45/33 63/46/34
f 76/59/47 63/46/34 64/47/35
f 77/60/48 64/47/35 65/48/36
f 78/61/49 65/48/36 66/49/37
f 68/51/39 79/62/50 67/50/38
f 69/52/40 80/63/51 68/51/39
f 70/53/41 81/64/52 69/52/40
f 71/55/43 82/65/53 70/53/41
f 72/66/54 83/67/55 71/55/43
f 85/68/56 72/66/54 73/56/44
f 86/69/57 73/56/44 74/57/45
f 87/70/58 74/57/45 75/58/46
f 88/71/59 75/58/46 76/59/47
f 89/72/60 76/59/47 77/60/48
f 90/73/61 77/60/48 78/61/49
f 92/74/62 79/62/50 80/63/51
f 93/75/63 80/63/51 81/64/52
f 94/76/64 81/64/52 82/65/53
f 95/77/65 82/65/53 83/67/55
f 96/78/66 83/67/55 84/79/67
f 97/80/68 84/79/67 85/68/56
f 86/69/57 97/80/68 85/68/56
f 87/70/58 98/81/69 86/69/57
f 88/71/59 99/82/70 87/70/58
f 89/72/60 100/83/71 88/71/59
f 90/73/61 101/84/72 89/72/60
f 104/85/73 91/86/74 92/74/62
f 105/87/75 92/74/62 93/75/63
f 106/88/76 93/75/63 94/76/64
f 107/89/77 94/76/64 95/77/65
f 108/90/78 95/77/65 96/78/66
f 109/91/79 96/78/66 97/80/68
f 98/81/69 109/91/79 97/80/68
f 99/82/70 110/92/80 98/81/69
f 100/83/71 111/93/81 99/82/70
f 101/84/72 112/94/82 100/83/71
f 102/95/83 113/96/84 101/84/72
f 104/85/73 115/97/85 103/98/86
f 105/87/75 116/99/87 104/85/73
f 106/88/76 117/100/88 105/87/75
f 107/89/77 118/101/89 106/88/76
f 108/90/78 119/102/90 107/89/77
f 121/103/91 108/90/78 109/91/79
f 122/104/92 109/91/79 110/92/80
f 123/105/93 110/92/80 111/93/81
f 124/106/94 111/93/81 112/94/82
f 125/107/95 112/94/82 113/96/84
f 126/108/96 113/96/84 114/109/97
f 128/110/98 115/97/85 116/99/87
f 129/111/99 116/99/87 117/100/88
f 130/112/100 117/100/88 118/101/89
f 131/113/101 118/101/89 119/102/90
f 132/114/102 119/102/90 120/115/103
f 133/116/104 120/115/103 121/103/91
f 122/104/92 133/116/104 121/103/91
f 123/105/93 134/117/105 122/104/92
f 124/106/94 135/118/106 123/105/93
f 125/107/95 136/119/107 124/106/94
f 126/108/96 137/120/108 125/107/95
f 128/110/98 139/121/109 127/122/85
f 129/111/99 140/123/110 128/110/98
f 130/112/100 141/124/111 129/111/99
f 131/113/101 142/125/112 130/112/100
f 132/114/102 143/126/113 131/113/101
f 145/127/114 132/114/102 133/116/104
f 146/128/115 133/116/104 134/117/105
f 147/129/116 134/117/105 135/118/106
f 148/130/117 135/118/106 136/119/107
f 149/131/118 136/119/107 137/120/108
f 150/132/119 137/120/108 138/133/96
f 152/134/120 139/121/109 140/123/110
f 153/135/121 140/123/110 141/124/111
f 154/136/122 141/124/111 142/125/112
f 155/137/123 142/125/112 143/126/113
f 156/138/124 143/126/113 144/139/125
f 157/140/126 144/139/125 145/127/114
f 146/128/115 157/140/126 145/127/114
f 147/129/116 158/141/127 146/128/115
f 148/130/117 159/142/128 147/129/116
f 149/131/118 160/143/129 148/130/117
f 150/132/119 161/144/130 149/131/118
f 164/145/131 151/146/132 152/134/120
f 165/147/133 152/134/120 153/135/121
f 166/148/134 153/135/121 154/136/122
f 167/149/135 154/136/122 155/137/123
f 168/150/136 155/137/123 156/138/124
f 157/140/126 168/150/136 156/138/124
f 158/141/127 169/151/137 157/140/126
f 159/142/128 170/152/138 158/141/127
f 160/143/129 171/153/139 159/142/128
f 161/144/130 172/154/140 160/143/129
f 162/155/141 173/156/142 161/144/130
f 164/145/131 175/157/143 163/158/144
f 165/147/133 176/159/145 164/145/131
f 166/148/134 177/160/146 165/147/133
f 167/149/135 178/161/147 166/148/134
f 168/150/136 179/162/148 167/149/135
f 181/163/149 168/150/136 169/151/137
f 182/164/150 169/151/137 170/152/138
f 183/165/151 170/152/138 171/153/139
f 184/166/152 171/153/139 172/154/140
f 185/167/153 172/154/140 173/156/142
f 186/168/154 173/156/142 174/169/155
f 176/159/145 187/170/156 175/157/143
f 177/160/146 188/171/157 176/159/145
f 178/161/147 189/172/158 177/160/146
f 179/162/148 190/173/159 178/161/147
f 180/174/160 191/175/161 179/162/148
f 193/176/162 180/174/160 181/163/149
f 194/177/163 181/163/149 182/164/150
f 195/178/164 182/164/150 183/165/151
f 196/179/165 183/165/151 184/166/152
f 197/180/166 184/166/152 185/167/153
f 198/181/167 185/167/153 186/168/154
f 200/182/168 187/170/156 188/171/157
f 201/183/169 188/171/157 189/172/158
f 202/184/170 189/172/158 190/173/159
f 203/185/171 190/173/159 191/175/161
f 204/186/172 191/175/161 192/187/173
f 205/188/174 192/187/173 193/176/162
f 194/177/163 205/188/174 193/176/162
f 195/178/164 206/189/175 194/177/163
f 196/179/165 207/190/176 195/178/164
f 197/180/166 208/191/177 196/179/165
f 198/181/167 209/192/178 197/180/166
f 32/193/3 199/194/179 200/182/168
f 33/195/6 200/182/168 201/183/169
f 34/196/8 201/183/169 202/184/170
f 35/197/10 202/184/170 203/185/171
f 36/198/12 203/185/171 204/186/172
f 37/199/15 204/186/172 205/188/174
f 206/189/175 37/199/15 205/188/174
f 207/190/176 38/200/17 206/189/175
f 208/191/177 39/201/19 207/190/176
f 209/192/178 40/202/21 208/191/177
f 210/203/180 41/204/23 209/192/178
f 32/16/3 44/19/7 43/17/4
f 33/18/6 45/21/9 44/19/7
f 34/20/8 46/23/11 45/21/9
f 35/22/10 47/25/13 46/23/11
f 36/24/12 48/42/30 47/25/13
f 49/26/14 48/42/30 36/24/12
f 50/28/16 49/26/14 37/27/15
f 51/30/18 50/28/16 38/29/17
f 52/32/20 51/30/18 39/31/19
f 53/34/22 52/32/20 40/33/21
f 54/36/24 53/34/22 41/35/23
f 44/19/7 56/39/27 55/38/26
f 45/21/9 57/40/28 56/39/27
f 46/23/11 58/41/29 57/40/28
f 47/25/13 59/43/31 58/41/29
f 48/42/30 60/54/42 59/43/31
f 61/44/32 60/54/42 48/42/30
f 62/45/33 61/44/32 49/26/14
f 63/46/34 62/45/33 50/28/16
f 64/47/35 63/46/34 51/30/18
f 65/48/36 64/47/35 52/32/20
f 66/49/37 65/48/36 53/34/22
f 56/39/27 68/51/39 67/50/38
f 57/40/28 69/52/40 68/51/39
f 58/41/29 70/53/41 69/52/40
f 59/43/31 71/55/43 70/53/41
f 60/54/42 72/66/54 71/55/43
f 73/56/44 72/66/54 60/54/42
f 74/57/45 73/56/44 61/44/32
f 75/58/46 74/57/45 62/45/33
f 76/59/47 75/58/46 63/46/34
f 77/60/48 76/59/47 64/47/35
f 78/61/49 77/60/48 65/48/36
f 68/51/39 80/63/51 79/62/50
f 69/52/40 81/64/52 80/63/51
f 70/53/41 82/65/53 81/64/52
f 71/55/43 83/67/55 82/65/53
f 72/66/54 84/79/67 83/67/55
f 85/68/56 84/79/67 72/66/54
f 86/69/57 85/68/56 73/56/44
f 87/70/58 86/69/57 74/57/45
f 88/71/59 87/70/58 75/58/46
f 89/72/60 88/71/59 76/59/47
f 90/73/61 89/72/60 77/60/48
f 92/74/62 91/86/74 79/62/50
f 93/75/63 92/74/62 80/63/51
f 94/76/64 93/75/63 81/64/52
f 95/77/65 94/76/64 82/65/53
f 96/78/66 95/77/65 83/67/55
f 97/80/68 96/78/66 84/79/67
f 86/69/57 98/81/69 97/80/68
f 87/70/58 99/82/70 98/81/69
f 88/71/59 100/83/71 99/82/70
f 89/72/60 101/84/72 100/83/71
f 90/73/61 102/95/83 101/84/72
f 104/85/73 103/98/86 91/86/74
f 105/87/75 104/85/73 92/74/62
f 106/88/76 105/87/75 93/75/63
f 107/89/77 106/88/76 94/76/64
f 108/90/78 107/89/77 95/77/65
f 109/91/79 108/90/78 96/78/66
f 98/81/69 110/92/80 109/91/79
f 99/82/70 111/93/81 110/92/80
f 100/83/71 112/94/82 111/93/81
f 101/84/72 113/96/84 112/94/82
f 102/95/83 114/109/97 113/96/84
f 104/85/73 116/99/87 115/97/85
f 105/87/75 117/100/88 116/99/87
f 106/88/76 118/101/89 117/100/88
f 107/89/77 119/102/90 118/101/89
f 108/90/78 120/115/103 119/102/90
f 121/103/91 120/115/103 108/90/78
f 122/104/92 121/103/91 109/91/79
f 123/105/93 122/104/92 110/92/80
f 124/106/94 123/105/93 111/93/81
f 125/107/95 124/106/94 112/94/82
f 126/108/96 125/107/95 113/96/84
f 128/110/98 127/122/85 115/97/85
f 129/111/99 128/110/98 116/99/87
f 130/112/100 129/111/99 117/100/88
f 131/113/101 130/112/100 118/101/89
f 132/114/102 131/113/101 119/102/90
f 133/116/104 132/114/102 120/115/103
f 122/104/92 134/117/105 133/116/104
f 123/105/93 135/118/106 134/117/105
f 124/106/94 136/119/107 135/118/106
f 125/107/95 137/120/108 136/119/107
f 126/108/96 138/133/96 137/120/108
f 128/110/98 140/123/110 139/121/109
f 129/111/99 141/124/111 140/123/110
f 130/112/100 142/125/112 141/124/111
f 131/113/101 143/126/113 142/125/112
f 132/114/102 144/139/125 143/126/113
f 145/127/114 144/139/125 132/114/102
f 146/128/115 145/127/114 133/116/104
f 147/129/116 146/128/115 134/117/105
f 148/130/117 147/129/116 135/118/106
f 149/131/118 148/130/117 136/119/107
f 150/132/119 149/131/118 137/120/108
f 152/134/120 151/146/132 139/121/109
f 153/135/121 152/134/120 140/123/110
f 154/136/122 153/135/121 141/124/111
f 155/137/123 154/136/122 142/125/112
f 156/138/124 155/137/123 143/126/113
f 157/140/126 156/138/124 144/139/125
f 146/128/115 158/141/127 157/140/126
f 147/129/116 159/142/128 158/141/127
f 148/130/117 160/143/129 159/142/128
f 149/131/118 161/144/130 160/143/129
f 150/132/119 162/155/141 161/144/130
f 164/145/131 163/158/144 151/146/132
f 165/147/133 164/145/131 152/134/120
f 166/148/134 165/147/133 153/135/121
f 167/149/135 166/148/134 154/136/122
f 168/150/136 167/149/135 155/137/123
f 157/140/126 169/151/137 168/150/136
f 158/141/127 170/152/138 169/151/137
f 159/142/128 171/153/139 170/152/138
f 160/143/129 172/154/140 171/153/139
f 161/144/130 173/156/142 172/154/140
f 162/155/141 174/169/155 173/156/142
f 164/145/131 176/159/145 175/157/143
f 165/147/133 177/160/146 176/159/145
f 166/148/134 178/161/147 177/160/146
f 167/149/135 179/162/148 178/161/147
f 168/150/136 180/174/160 179/162/148
f 181/163/149 180/174/160 168/150/136
f 182/164/150 181/163/149 169/151/137
f 183/165/151 182/164/150 170/152/138
f 184/166/152 183/165/151 171/153/139
f 185/167/153 184/166/152 172/154/140
f 186/168/154 185/167/153 173/156/142
f 176/159/145 188/171/157 187/170/156
f 177/160/146 189/172/158 188/171/157
f 178/161/147 190/173/159 189/172/158
f 179/162/148 191/175/161 190/173/159
f 180/174/160 192/187/173 191/175/161
f 193/176/162 192/187/173 180/174/160
f 194/177/163 193/176/162 181/163/149
f 195/178/164 194/177/163 182/164/150
f 196/179/165 195/178/164 183/165/151
f 197/180/166 196/179/165 184/166/152
f 198/181/167 197/180/166 185/167/153
f 200/182/168 199/194/179 187/170/156
f 201/183/169 200/182/168 188/171/157
f 202/184/170 201/183/169 189/172/158
f 203/185/171 202/184/170 190/173/159
f 204/186/172 203/185/171 191/175/161
f 205/188/174 204/186/172 192/187/173
f 194/177/163 206/189/175 205/188/174
f 195/178/164 207/190/176 206/189/175
f 196/179/165 208/191/177 207/190/176
f 197/180/166 209/192/178 208/191/177
f 198/181/167 210/203/180 209/192/178
f 32/193/3 31/10/5 199/194/179
f 33/195/6 32/193/3 200/182/168
f 34/196/8 33/195/6 201/183/169
f 35/197/10 34/196/8 202/184/170
f 36/198/12 35/197/10 203/185/171
f 37/199/15 36/198/12 204/186/172
f 206/189/175 38/200/17 37/199/15
f 207/190/176 39/201/19 38/200/17
f 208/191/177 40/202/21 39/201/19
f 209/192/178 41/204/23 40/202/21
f 210/203/180 42/205/25 41/204/23
