# Blender 5.1.0
# www.blender.org
mtllib cloud.mtl
o 雲
v -0.079720 1.796823 0.411333
v -0.089482 1.259184 -0.520977
v -0.039289 0.799463 -0.736322
v -0.126642 0.190626 -0.623429
v -0.142435 -0.143704 -0.744987
v -0.119538 -0.440553 -0.935559
v -0.045820 -0.888320 -0.945136
v -0.050289 -1.747244 0.050905
v 0.024416 1.524801 0.075892
v 0.083361 1.378726 -0.230589
v 0.134009 1.156522 -0.431459
v 0.251417 0.944596 -0.595743
v 0.369528 0.757067 -0.654095
v 0.408643 0.498075 -0.590923
v 0.404510 0.176061 -0.491613
v 0.413173 -0.137432 -0.501485
v 0.431143 -0.411524 -0.652378
v 0.436309 -0.643351 -0.786493
v 0.410989 -0.855284 -0.791222
v 0.361074 -1.044090 -0.712298
v 0.289950 -1.216884 -0.557563
v 0.197863 -1.384782 -0.372876
v 0.079952 -1.571865 -0.175786
v 0.131358 1.473896 0.133705
v 0.257982 1.309941 -0.141788
v 0.350886 1.059653 -0.312063
v 0.536536 0.844162 -0.482422
v 0.753900 0.698782 -0.572938
v 0.904220 0.501639 -0.587283
v 0.953648 0.196098 -0.520637
v 0.973801 -0.105079 -0.542714
v 0.965816 -0.372535 -0.619068
v 0.925302 -0.611424 -0.691318
v 0.846264 -0.833322 -0.701568
v 0.730211 -1.033664 -0.644340
v 0.578584 -1.217781 -0.512578
v 0.399660 -1.390246 -0.348291
v 0.188318 -1.573451 -0.161424
v 0.235883 1.433009 0.201754
v 0.441846 1.245016 -0.036507
v 0.585129 0.999108 -0.189443
v 0.824819 0.768045 -0.361869
v 1.119629 0.649387 -0.514347
v 1.349059 0.501911 -0.605481
v 1.450694 0.235252 -0.604610
v 1.462972 -0.061884 -0.608875
v 1.428019 -0.339384 -0.629570
v 1.355728 -0.593140 -0.649038
v 1.245186 -0.828489 -0.640096
v 1.082576 -1.042919 -0.582492
v 0.858175 -1.233765 -0.460709
v 0.589236 -1.404406 -0.308452
v 0.288787 -1.581231 -0.138630
v 0.337160 1.407021 0.275813
v 0.641689 1.203565 0.070539
v 0.850612 0.983577 -0.079630
v 1.129746 0.750191 -0.237969
v 1.461705 0.632797 -0.448170
v 1.729526 0.507646 -0.592525
v 1.861959 0.269321 -0.637399
v 1.847577 -0.030529 -0.596780
v 1.786693 -0.325552 -0.566622
v 1.710355 -0.597017 -0.556598
v 1.584628 -0.842721 -0.536409
v 1.401541 -1.067756 -0.490566
v 1.127479 -1.264310 -0.391519
v 0.763800 -1.429020 -0.253894
v 0.377837 -1.594775 -0.107846
v 0.431315 1.399806 0.352631
v 0.852689 1.196795 0.170875
v 1.138414 1.020023 0.007784
v 1.446371 0.808141 -0.145215
v 1.778454 0.660925 -0.332655
v 2.044348 0.518434 -0.487281
v 2.167171 0.271240 -0.526835
v 2.142002 -0.041759 -0.480602
v 2.170020 -0.360846 -0.471767
v 2.107546 -0.646834 -0.459709
v 1.949001 -0.896996 -0.425518
v 1.700868 -1.115868 -0.370891
v 1.371557 -1.310870 -0.298560
v 0.914369 -1.464148 -0.183912
v 0.451856 -1.613111 -0.070002
v 0.512898 1.415314 0.427814
v 1.060064 1.230683 0.263191
v 1.425806 1.101632 0.082324
v 1.752502 0.912669 -0.068297
v 2.078372 0.730997 -0.222681
v 2.297871 0.523632 -0.322191
v 2.472848 0.221699 -0.349947
v 2.671150 -0.127486 -0.370674
v 2.691798 -0.446299 -0.377446
v 2.572922 -0.727665 -0.361830
v 2.358026 -0.977803 -0.318232
v 2.022545 -1.189715 -0.248912
v 1.571852 -1.368142 -0.179262
v 1.025524 -1.501285 -0.100958
v 0.507364 -1.634667 -0.026520
v 0.576628 1.457578 0.497383
v 1.236441 1.302744 0.359701
v 1.682443 1.220478 0.160067
v 2.011410 1.041588 0.018159
v 2.317738 0.827137 -0.104648
v 2.620877 0.517523 -0.158914
v 3.012314 0.142438 -0.214006
v 3.162126 -0.205689 -0.239728
v 3.111293 -0.514712 -0.245909
v 2.952657 -0.796155 -0.232211
v 2.698771 -1.049285 -0.188962
v 2.291344 -1.255013 -0.119876
v 1.711034 -1.406148 -0.056015
v 1.090127 -1.525520 -0.015422
v 0.542049 -1.656006 0.019601
v 0.622387 1.528847 0.553209
v 1.347260 1.412046 0.480133
v 1.867746 1.335037 0.301230
v 2.202385 1.158377 0.161188
v 2.467520 0.912155 0.063789
v 2.839658 0.540859 0.023883
v 3.321071 0.119239 -0.041736
v 3.435624 -0.238120 -0.065942
v 3.361041 -0.551236 -0.071563
v 3.188345 -0.839698 -0.063931
v 2.902335 -1.094696 -0.031958
v 2.443477 -1.291737 0.018042
v 1.789086 -1.420972 0.055685
v 1.111824 -1.532415 0.063157
v 0.554910 -1.672156 0.063824
v 0.647155 1.625515 0.592034
v 1.410670 1.601937 0.572195
v 1.972367 1.494812 0.495503
v 2.321782 1.269485 0.395132
v 2.532881 0.984991 0.299545
v 2.782363 0.615556 0.260182
v 3.319173 0.158478 0.182596
v 3.500636 -0.234589 0.145309
v 3.431607 -0.563224 0.136035
v 3.256669 -0.857251 0.133510
v 2.952016 -1.109536 0.140524
v 2.471471 -1.297058 0.153715
v 1.797580 -1.413857 0.151261
v 1.092130 -1.522323 0.128057
v 0.545482 -1.677874 0.099986
v 0.647668 1.739105 0.614526
v 1.426254 1.843457 0.638576
v 2.030019 1.785980 0.656954
v 2.406075 1.483251 0.648271
v 2.563670 1.098921 0.572092
v 2.640881 0.703030 0.510797
v 2.813944 0.286186 0.483359
v 3.185009 -0.164261 0.414459
v 3.230545 -0.532697 0.382396
v 3.107876 -0.839575 0.350695
v 2.832500 -1.090751 0.316887
v 2.377601 -1.275216 0.279654
v 1.711662 -1.386784 0.234266
v 1.023431 -1.500635 0.180168
v 0.512468 -1.671343 0.124580
v 0.619882 1.854532 0.625579
v 1.387288 2.082023 0.710567
v 2.101751 2.079093 0.959914
v 2.556356 1.744102 1.067017
v 2.597147 1.240128 0.935301
v 2.523311 0.780540 0.779515
v 2.518886 0.348188 0.744730
v 2.483788 -0.043967 0.739854
v 2.521175 -0.402490 0.696036
v 2.593683 -0.738708 0.600134
v 2.503073 -1.025233 0.491579
v 2.137419 -1.225545 0.393864
v 1.501668 -1.340986 0.307761
v 0.903780 -1.476075 0.222429
v 0.455847 -1.660562 0.142122
v 0.561908 1.958551 0.630913
v 1.287419 2.258142 0.828158
v 2.100790 2.385036 1.359767
v 2.672397 2.080860 1.639998
v 2.652768 1.443351 1.437661
v 2.350585 0.859606 1.095646
v 2.224183 0.392959 0.938666
v 2.226930 -0.054900 0.942455
v 2.216814 -0.405284 0.933352
v 2.097853 -0.653454 0.810749
v 1.987150 -0.923243 0.641579
v 1.714541 -1.143999 0.491485
v 1.181231 -1.285164 0.368615
v 0.743612 -1.456042 0.255718
v 0.378320 -1.653681 0.156149
v 0.473572 2.040866 0.633762
v 1.104846 2.360380 0.954292
v 1.816935 2.573206 1.644819
v 2.316487 2.271336 2.045566
v 2.403985 1.601051 1.896932
v 2.048219 0.926044 1.403139
v 1.800203 0.430231 1.103065
v 1.751365 -0.023646 1.057338
v 1.738650 -0.385677 1.046513
v 1.636992 -0.615313 0.919995
v 1.422600 -0.838052 0.729339
v 1.172411 -1.055426 0.558975
v 0.846569 -1.244582 0.410462
v 0.559909 -1.445859 0.279978
v 0.283654 -1.656316 0.168623
v 0.358695 2.098735 0.633476
v 0.840369 2.397477 1.020157
v 1.330430 2.598193 1.740712
v 1.655600 2.287342 2.164955
v 1.770340 1.639588 2.082062
v 1.536534 0.950592 1.571758
v 1.283896 0.441640 1.200447
v 1.202737 0.003236 1.110352
v 1.173966 -0.363440 1.092750
v 1.086010 -0.599015 0.959344
v 0.910860 -0.807939 0.771088
v 0.722767 -1.018898 0.595071
v 0.534962 -1.229096 0.435198
v 0.357386 -1.445259 0.295467
v 0.174714 -1.671142 0.180806
v 0.224541 2.135452 0.626883
v 0.524561 2.371848 1.015221
v 0.786628 2.501548 1.667850
v 0.944536 2.195806 2.064408
v 1.040835 1.589037 1.975815
v 0.947060 0.931104 1.509214
v 0.759876 0.423996 1.174983
v 0.625355 0.017844 1.105289
v 0.591345 -0.353402 1.099428
v 0.540780 -0.608081 0.991024
v 0.432001 -0.810102 0.802449
v 0.318190 -1.017264 0.617870
v 0.218796 -1.230161 0.447949
v 0.135569 -1.452758 0.301445
v 0.054142 -1.696308 0.193143
v 0.080276 2.156369 0.609985
v 0.207743 2.306752 0.947478
v 0.296965 2.335980 1.438827
v 0.431445 2.063721 1.676129
v 0.621646 1.511822 1.481154
v 0.411126 0.877167 1.265469
v 0.227656 0.393581 1.073759
v 0.065061 0.019257 1.051568
v 0.016267 -0.333658 1.065507
v -0.004239 -0.649339 1.022346
v -0.060119 -0.832032 0.832817
v -0.109571 -1.029855 0.634237
v -0.125393 -1.242963 0.450400
v -0.107535 -1.472411 0.297410
v -0.072832 -1.727725 0.205941
v -0.064600 2.168059 0.579106
v -0.094126 2.247927 0.843770
v -0.090516 2.103770 1.138644
v 0.035969 1.796067 1.160524
v 0.006737 1.265045 1.087991
v -0.189142 0.769602 1.020105
v -0.350702 0.349587 0.973722
v -0.492483 0.019437 1.004921
v -0.533963 -0.314618 1.006325
v -0.547825 -0.676743 1.003666
v -0.576903 -0.892657 0.872365
v -0.578440 -1.066192 0.653520
v -0.508782 -1.281018 0.449518
v -0.372492 -1.529518 0.296775
v -0.198447 -1.759856 0.217410
v -0.203554 2.175417 0.535987
v -0.372058 2.218872 0.721359
v -0.459093 1.931582 0.839861
v -0.456990 1.387188 0.734188
v -0.559651 0.863230 0.644334
v -0.788789 0.562129 0.761899
v -0.953159 0.292118 0.889225
v -1.037532 0.016888 0.955496
v -1.051938 -0.311992 0.944230
v -1.070776 -0.677946 0.936089
v -1.084633 -1.041735 0.910567
v -1.065614 -1.276812 0.756446
v -0.908442 -1.461585 0.518929
v -0.625637 -1.657388 0.342353
v -0.317788 -1.792532 0.224885
v -0.330543 2.182503 0.482690
v -0.633566 2.224362 0.604519
v -0.826453 1.914124 0.596193
v -0.879657 1.238846 0.353198
v -1.081316 0.734765 0.329287
v -1.364952 0.482502 0.602077
v -1.513724 0.275633 0.808110
v -1.539807 0.019040 0.868081
v -1.537306 -0.311804 0.857726
v -1.613618 -0.713142 0.879919
v -1.695867 -1.217383 0.986130
v -1.563796 -1.719471 1.012054
v -1.249776 -1.887663 0.744383
v -0.856671 -1.830285 0.408404
v -0.428016 -1.825794 0.225632
v -0.441841 2.188639 0.423524
v -0.867866 2.256296 0.497077
v -1.236974 1.976334 0.502330
v -1.485723 1.371103 0.352691
v -1.716445 0.865486 0.346832
v -1.908703 0.553723 0.545349
v -2.001319 0.305502 0.707004
v -1.986258 0.029979 0.750630
v -2.003124 -0.310989 0.745424
v -2.202165 -0.770744 0.827101
v -2.416411 -1.436672 1.088765
v -2.170767 -2.019871 1.115466
v -1.639965 -2.169066 0.811379
v -1.069210 -1.976742 0.435861
v -0.525622 -1.849482 0.212866
v -0.534270 2.189374 0.361367
v -1.057976 2.285604 0.390130
v -1.605061 2.052505 0.465920
v -2.047452 1.598119 0.480935
v -2.331908 1.128087 0.489980
v -2.440361 0.715356 0.552634
v -2.423500 0.364351 0.604308
v -2.368910 0.047906 0.611280
v -2.417706 -0.310512 0.600915
v -2.736346 -0.809781 0.713833
v -3.124182 -1.597396 1.050196
v -2.764024 -2.239224 1.064209
v -2.007289 -2.312805 0.736236
v -1.260157 -2.032813 0.381225
v -0.606995 -1.854521 0.181415
v -0.604054 2.180523 0.298133
v -1.201366 2.300012 0.278805
v -1.870662 2.127565 0.377290
v -2.467007 1.782252 0.480506
v -2.843010 1.369245 0.527963
v -2.904400 0.871194 0.499393
v -2.765284 0.421074 0.463832
v -2.659759 0.058039 0.435998
v -2.716142 -0.307119 0.417618
v -3.042246 -0.792863 0.492938
v -3.517815 -1.577263 0.757095
v -3.172837 -2.256217 0.802862
v -2.258415 -2.299768 0.550482
v -1.391883 -2.021382 0.282193
v -0.665653 -1.843853 0.137326
v -0.648540 2.157257 0.234950
v -1.290574 2.287550 0.159382
v -2.030908 2.177655 0.217579
v -2.726748 1.898007 0.289816
v -3.177072 1.477260 0.317474
v -3.212639 0.939538 0.296950
v -2.983821 0.445228 0.260494
v -2.825538 0.056997 0.228535
v -2.852311 -0.300069 0.207509
v -3.065080 -0.733800 0.226576
v -3.341852 -1.342672 0.323521
v -3.133696 -1.967917 0.394252
v -2.308504 -2.109587 0.296944
v -1.444560 -1.959107 0.164828
v -0.696763 -1.823296 0.089025
v -0.667390 2.118874 0.176123
v -1.323404 2.242038 0.044920
v -2.080396 2.170962 0.041198
v -2.800364 1.922738 0.049574
v -3.260398 1.491914 0.042828
v -3.267262 0.934732 0.032164
v -3.013306 0.434964 0.024036
v -2.847738 0.048966 0.011033
v -2.831473 -0.291953 -0.005886
v -2.910573 -0.668252 -0.011837
v -2.979696 -1.130201 0.008650
v -2.776816 -1.604799 0.048017
v -2.174309 -1.858799 0.061546
v -1.419135 -1.865630 0.047074
v -0.699152 -1.794676 0.039788
v -0.660673 2.065402 0.123877
v -1.294015 2.159402 -0.060217
v -2.006405 2.089998 -0.130528
v -2.660764 1.832075 -0.182456
v -3.048000 1.396757 -0.216632
v -3.046090 0.867277 -0.215265
v -2.854827 0.401862 -0.200569
v -2.741326 0.036628 -0.198369
v -2.692072 -0.285876 -0.205208
v -2.672548 -0.614257 -0.209254
v -2.619920 -0.987037 -0.200095
v -2.409431 -1.371769 -0.166083
v -1.953579 -1.653932 -0.112258
v -1.329264 -1.761834 -0.058593
v -0.674047 -1.760514 -0.007900
v -0.628976 1.999428 0.079586
v -1.205904 2.045131 -0.150186
v -1.822605 1.944305 -0.275941
v -2.355087 1.662658 -0.364804
v -2.643650 1.241742 -0.411973
v -2.661604 0.770282 -0.410318
v -2.587285 0.362712 -0.395655
v -2.538220 0.023515 -0.390396
v -2.479419 -0.285169 -0.392354
v -2.404379 -0.587798 -0.397970
v -2.282475 -0.904122 -0.376811
v -2.060440 -1.221282 -0.318477
v -1.694914 -1.495339 -0.238824
v -1.192479 -1.662381 -0.147581
v -0.624325 -1.723768 -0.052018
v -0.574145 1.925577 0.044138
v -1.067827 1.914341 -0.221851
v -1.559842 1.772732 -0.386306
v -1.961304 1.477167 -0.492440
v -2.176424 1.087692 -0.547648
v -2.245768 0.686823 -0.561087
v -2.268810 0.331370 -0.564594
v -2.261441 0.006045 -0.591638
v -2.225133 -0.314058 -0.655733
v -2.138160 -0.620005 -0.693223
v -1.980171 -0.899529 -0.635350
v -1.745598 -1.153440 -0.495215
v -1.426750 -1.386528 -0.347984
v -1.024467 -1.576112 -0.219996
v -0.553840 -1.687518 -0.090985
v -0.498972 1.849051 0.018048
v -0.892025 1.785055 -0.275612
v -1.255117 1.616275 -0.465426
v -1.549196 1.324000 -0.581057
v -1.732627 0.976951 -0.649211
v -1.842505 0.633597 -0.686659
v -1.898790 0.304461 -0.732113
v -1.924086 -0.021055 -0.840059
v -1.907331 -0.350697 -0.958347
v -1.825742 -0.656941 -0.993928
v -1.668551 -0.923810 -0.915426
v -1.444970 -1.139908 -0.703924
v -1.159599 -1.323676 -0.457569
v -0.837297 -1.507387 -0.278826
v -0.466901 -1.654332 -0.123748
v -0.407146 1.775243 0.001558
v -0.691827 1.675276 -0.314073
v -0.941216 1.499421 -0.522023
v -1.159190 1.221447 -0.646804
v -1.314027 0.909472 -0.732144
v -1.415487 0.595436 -0.792552
v -1.479010 0.284803 -0.888705
v -1.515766 -0.036013 -1.032130
v -1.506735 -0.356020 -1.138746
v -1.435863 -0.654692 -1.155395
v -1.308992 -0.921859 -1.071144
v -1.126950 -1.134313 -0.857910
v -0.889075 -1.289383 -0.554859
v -0.639280 -1.457625 -0.327755
v -0.367635 -1.625839 -0.149652
v -0.302828 1.708150 -0.004725
v -0.481956 1.591430 -0.335846
v -0.632961 1.419391 -0.559031
v -0.776945 1.153564 -0.693869
v -0.885586 0.863225 -0.792728
v -0.972605 0.568524 -0.853395
v -1.040523 0.263732 -0.945473
v -1.076830 -0.056937 -1.096830
v -1.067517 -0.368158 -1.196386
v -1.011967 -0.657659 -1.201206
v -0.912704 -0.911599 -1.117509
v -0.780141 -1.118758 -0.917861
v -0.608264 -1.266541 -0.610556
v -0.434014 -1.423257 -0.362533
v -0.259990 -1.603138 -0.168227
v -0.193436 1.645108 0.004237
v -0.279487 1.519929 -0.331378
v -0.343507 1.344944 -0.562504
v -0.399453 1.099675 -0.715358
v -0.461000 0.829942 -0.793924
v -0.540513 0.536614 -0.789642
v -0.604025 0.223505 -0.844219
v -0.634961 -0.108498 -1.021282
v -0.611368 -0.407241 -1.144794
v -0.556791 -0.669268 -1.156134
v -0.491850 -0.905890 -1.071322
v -0.409925 -1.096966 -0.893683
v -0.314142 -1.246489 -0.620431
v -0.223470 -1.400477 -0.380938
v -0.147463 -1.586596 -0.179031
v -0.084015 1.583253 0.031693
v -0.092111 1.447899 -0.294929
v -0.052340 1.036108 -0.684762
v -0.084691 0.508192 -0.666742
v -0.074311 -0.674070 -1.001657
v -0.024271 -1.069958 -0.807848
v -0.011031 -1.227910 -0.596695
v -0.011551 -1.387889 -0.383863
v -0.033058 -1.576173 -0.181641
vn 0.1070 -0.7929 -0.5999
vn 0.1441 -0.2139 -0.9662
vn 0.0433 -0.7987 -0.6002
vn 0.2335 -0.1616 -0.9588
vn 0.0630 -0.7338 -0.6765
vn 0.3801 0.3002 -0.8749
vn 0.5568 0.7213 -0.4120
vn 0.0612 -0.8062 -0.5885
vn 0.3681 0.5223 -0.7693
vn 0.4520 0.8200 -0.3510
vn 0.3520 0.3174 -0.8806
vn 0.5204 0.6349 -0.5711
vn 0.3258 -0.2004 -0.9240
vn 0.3871 0.6892 -0.6124
vn 0.2445 -0.4283 -0.8700
vn 0.2206 0.4138 -0.8833
vn 0.4531 0.7594 -0.4669
vn 0.1758 -0.4189 -0.8909
vn 0.2437 0.7484 -0.6168
vn 0.1097 -0.6878 -0.7176
vn 0.0068 0.0777 -0.9970
vn 0.0594 -0.7532 -0.6551
vn -0.0435 -0.2196 -0.9746
vn 0.0768 -0.7457 -0.6619
vn -0.0771 0.0678 -0.9947
vn 0.5628 0.7188 -0.4082
vn 0.0659 -0.8072 -0.5866
vn 0.0193 0.4831 -0.8753
vn 0.4719 0.8358 -0.2805
vn 0.1342 0.4985 -0.8565
vn 0.5749 0.5953 -0.5613
vn 0.2018 -0.0023 -0.9794
vn -0.1392 0.0631 -0.9882
vn 0.5536 0.7207 -0.4173
vn 0.0698 -0.8090 -0.5837
vn -0.0416 0.2754 -0.9604
vn 0.4559 0.8468 -0.2740
vn 0.0824 0.2757 -0.9577
vn 0.4780 0.6476 -0.5934
vn 0.1524 -0.0086 -0.9883
vn 0.4058 0.7784 -0.4790
vn 0.1528 -0.3523 -0.9233
vn 0.1814 0.9147 -0.3611
vn 0.1057 -0.6348 -0.7654
vn -0.0361 0.4841 -0.8742
vn 0.0870 -0.7330 -0.6747
vn -0.1613 -0.0647 -0.9848
vn 0.0876 -0.7590 -0.6451
vn 0.2235 -0.4074 -0.8855
vn 0.1118 0.9322 -0.3441
vn 0.1243 -0.6335 -0.7637
vn 0.0104 0.7650 -0.6439
vn 0.1006 -0.7460 -0.6584
vn -0.0899 0.1358 -0.9866
vn 0.0996 -0.7720 -0.6277
vn 0.0302 0.0156 -0.9994
vn 0.5214 0.7180 -0.4611
vn 0.0757 -0.8133 -0.5769
vn 0.1707 0.0519 -0.9840
vn 0.3589 0.8723 -0.3322
vn 0.2523 0.0024 -0.9677
vn 0.3021 0.7163 -0.6290
vn 0.2815 -0.1681 -0.9447
vn 0.2868 0.7486 -0.5978
vn 0.0841 -0.8222 -0.5629
vn 0.2397 -0.0058 -0.9708
vn 0.2334 0.8712 -0.4320
vn 0.2241 -0.0988 -0.9695
vn 0.1001 0.7573 -0.6454
vn 0.2562 -0.2086 -0.9438
vn 0.0937 0.6687 -0.7376
vn 0.2821 -0.4065 -0.8690
vn 0.1036 0.8631 -0.4943
vn 0.1715 -0.6235 -0.7627
vn 0.1460 0.8398 -0.5228
vn 0.1117 -0.7708 -0.6272
vn 0.3228 0.3038 -0.8964
vn 0.1118 -0.7907 -0.6019
vn 0.3566 -0.1645 -0.9197
vn 0.4831 0.6997 -0.5264
vn 0.2352 -0.6613 -0.7123
vn 0.3818 0.6960 -0.6082
vn 0.1373 -0.8224 -0.5521
vn 0.5098 0.3669 -0.7781
vn 0.1243 -0.8167 -0.5635
vn 0.2287 0.1866 -0.9554
vn 0.4398 0.6567 -0.6127
vn 0.0948 -0.8385 -0.5366
vn 0.1830 0.0327 -0.9826
vn 0.1118 0.8251 -0.5539
vn 0.1913 -0.0830 -0.9780
vn -0.0495 0.7630 -0.6445
vn 0.1979 -0.2548 -0.9465
vn -0.0104 0.6122 -0.7906
vn 0.2194 -0.4630 -0.8588
vn 0.0809 0.7258 -0.6832
vn 0.0434 0.7608 -0.6475
vn 0.2897 -0.1746 -0.9410
vn -0.1510 0.7485 -0.6458
vn 0.2584 -0.3770 -0.8895
vn -0.0257 0.5919 -0.8056
vn 0.2219 -0.6021 -0.7669
vn 0.1287 0.6249 -0.7700
vn 0.2420 -0.8161 -0.5249
vn 0.3936 0.5184 -0.7592
vn 0.1665 -0.9085 -0.3832
vn 0.2793 0.4184 -0.8643
vn 0.1467 -0.8511 -0.5041
vn 0.2812 0.1905 -0.9406
vn 0.3934 0.5804 -0.7130
vn 0.1083 -0.8687 -0.4834
vn 0.2947 -0.0294 -0.9551
vn 0.4927 0.5650 -0.6618
vn 0.1786 -0.9746 -0.1348
vn 0.4259 0.5927 -0.6836
vn 0.1904 -0.9030 -0.3851
vn 0.5413 0.2283 -0.8092
vn 0.3356 0.4378 -0.8341
vn 0.1221 -0.9203 -0.3716
vn 0.5632 -0.0762 -0.8228
vn 0.0458 0.7184 -0.6941
vn 0.5088 -0.3256 -0.7969
vn -0.0740 0.8197 -0.5681
vn 0.4285 -0.5520 -0.7153
vn 0.0852 0.7130 -0.6959
vn 0.3033 -0.7830 -0.5431
vn 0.3678 0.6566 -0.6585
vn 0.2140 -0.9376 -0.2740
vn 0.8081 -0.4923 -0.3234
vn 0.0553 0.7564 -0.6518
vn 0.6298 -0.7371 -0.2448
vn 0.2253 0.8305 -0.5094
vn 0.3814 -0.9173 -0.1147
vn 0.5497 0.7430 -0.3819
vn 0.1965 -0.9789 0.0554
vn 0.7024 0.7098 -0.0541
vn 0.1428 -0.9705 0.1943
vn 0.6437 0.7547 -0.1266
vn 0.2766 -0.9577 -0.0793
vn 0.9072 0.3101 -0.2844
vn 0.2947 0.2902 -0.9105
vn 0.1248 -0.9845 -0.1232
vn 0.9211 -0.2136 -0.3254
vn -0.0098 0.4389 -0.8985
vn 0.1037 -0.8623 0.4956
vn 0.5316 0.5095 0.6767
vn 0.2205 -0.8279 0.5158
vn 0.6604 0.2373 0.7124
vn 0.2780 0.1854 -0.9425
vn 0.0793 -0.9319 0.3540
vn 0.7519 -0.1759 0.6354
vn -0.0058 0.2654 -0.9641
vn 0.7562 -0.3588 0.5472
vn -0.0259 0.4887 -0.8721
vn 0.5678 -0.6842 0.4577
vn 0.2552 0.6952 -0.6720
vn 0.3190 -0.8648 0.3877
vn 0.6958 0.6313 -0.3425
vn 0.1221 -0.8994 0.4197
vn 0.8098 0.5174 0.2766
vn 0.2482 0.6662 -0.7033
vn 0.3557 -0.4274 0.8311
vn 0.5027 0.6411 -0.5798
vn 0.1903 -0.6887 0.6997
vn 0.8806 0.4087 -0.2400
vn 0.0540 -0.7709 0.6347
vn 0.9217 0.1228 0.3679
vn 0.0766 -0.7524 0.6542
vn 0.6718 0.2326 0.7032
vn 0.1196 -0.6259 0.7707
vn 0.4419 0.2314 0.8667
vn 0.2773 0.1575 -0.9478
vn 0.0308 -0.8042 0.5935
vn 0.3995 -0.0304 0.9162
vn 0.0194 0.2917 -0.9563
vn 0.3837 -0.2454 0.8903
vn 0.5405 -0.0730 0.8382
vn 0.0945 -0.5817 0.8079
vn 0.6197 -0.0652 0.7821
vn 0.2718 0.1998 -0.9414
vn 0.0337 -0.8111 0.5840
vn 0.6148 -0.0322 0.7881
vn -0.0632 0.5292 -0.8462
vn 0.3573 -0.1841 0.9157
vn 0.2633 0.7665 -0.5858
vn 0.1826 -0.3983 0.8989
vn 0.5847 0.6421 -0.4958
vn 0.0634 -0.6135 0.7871
vn 0.9802 0.1204 -0.1572
vn 0.0167 -0.6915 0.7221
vn 0.8023 -0.3032 0.5142
vn 0.0702 -0.6688 0.7402
vn 0.0172 -0.6597 0.7513
vn 0.4704 0.8825 -0.0016
vn -0.0024 -0.6152 0.7884
vn 0.8345 -0.1899 0.5172
vn 0.0190 -0.6375 0.7702
vn 0.4914 -0.6154 0.6162
vn 0.0702 -0.6111 0.7884
vn 0.3059 -0.3770 0.8743
vn 0.1220 -0.5845 0.8022
vn 0.2354 0.0097 0.9718
vn 0.2428 0.2926 -0.9249
vn 0.0839 -0.8896 0.4490
vn 0.2289 -0.0319 0.9729
vn -0.0967 0.7001 -0.7075
vn 0.1542 -0.5283 0.8349
vn 0.1479 0.8867 -0.4380
vn 0.1664 -0.5500 0.8184
vn 0.0835 -0.2154 0.9730
vn 0.1947 0.3820 -0.9034
vn 0.1600 -0.9472 0.2778
vn 0.0794 -0.0540 0.9954
vn -0.0550 0.7592 -0.6485
vn 0.0466 -0.5053 0.8617
vn -0.0075 0.9578 -0.2875
vn 0.0200 -0.6785 0.7344
vn 0.1120 0.8558 0.5051
vn 0.0089 -0.6453 0.7639
vn 0.2662 -0.1754 0.9478
vn 0.0311 -0.6226 0.7820
vn 0.2164 -0.6274 0.7480
vn 0.0606 -0.5765 0.8148
vn 0.1312 -0.6260 0.7687
vn 0.0387 -0.6765 0.7354
vn -0.1324 -0.1489 0.9800
vn 0.0333 -0.6329 0.7735
vn -0.0680 -0.5707 0.8184
vn 0.0412 -0.5600 0.8275
vn -0.0224 -0.5444 0.8385
vn 0.1833 -0.4500 0.8740
vn -0.0128 -0.1650 0.9862
vn 0.1598 0.4239 -0.8915
vn 0.2187 -0.9585 0.1827
vn 0.0112 -0.0168 0.9998
vn -0.0580 0.8237 -0.5641
vn 0.0598 -0.4010 0.9141
vn -0.1505 0.9741 -0.1690
vn 0.0501 -0.6958 0.7165
vn -0.1872 0.7184 0.6699
vn 0.1654 0.4195 -0.8925
vn 0.2521 -0.9549 0.1569
vn -0.0572 0.0473 0.9972
vn -0.0792 0.8775 -0.4730
vn 0.0673 -0.1395 0.9879
vn -0.2882 0.9547 -0.0740
vn 0.0745 -0.7289 0.6806
vn -0.6009 0.4993 0.6242
vn 0.0477 -0.7136 0.6990
vn -0.6490 -0.4423 0.6190
vn 0.0297 -0.6542 0.7558
vn -0.3927 -0.1765 0.9026
vn 0.0309 -0.5528 0.8327
vn -0.1604 -0.3106 0.9369
vn 0.1713 -0.3116 0.9347
vn -0.0955 -0.0175 0.9953
vn -0.5111 -0.0886 0.8550
vn 0.0632 -0.6546 0.7534
vn -0.3820 0.0244 0.9238
vn 0.1154 -0.5448 0.8306
vn -0.1670 -0.0445 0.9850
vn 0.1654 -0.3126 0.9354
vn -0.0826 0.1289 0.9882
vn 0.2219 0.3940 -0.8919
vn 0.2582 -0.9532 0.1575
vn -0.1063 0.0174 0.9942
vn -0.0441 0.9186 -0.3927
vn -0.0340 -0.0060 0.9994
vn -0.5407 0.8399 0.0482
vn 0.1262 -0.5278 0.8400
vn -0.8135 0.0978 0.5732
vn 0.0860 -0.7809 0.6187
vn -0.1191 -0.0288 0.9925
vn -0.0009 0.9734 -0.2290
vn -0.1281 -0.0155 0.9916
vn -0.6151 0.7053 0.3523
vn 0.0962 -0.0733 0.9927
vn -0.5670 -0.1591 0.8082
vn 0.3768 -0.4864 0.7883
vn -0.6092 -0.0166 0.7928
vn 0.3831 -0.5677 0.7287
vn -0.4818 0.6117 0.6275
vn 0.3355 -0.3529 0.8735
vn -0.1669 0.5018 0.8487
vn 0.1253 -0.2372 0.9633
vn -0.0884 0.2587 0.9619
vn 0.2921 0.3840 -0.8759
vn 0.2701 -0.9480 0.1685
vn 0.7197 -0.2299 0.6551
vn -0.2534 0.8272 0.5015
vn 0.4100 -0.2086 0.8879
vn -0.1173 0.7419 0.6602
vn 0.1409 -0.4470 0.8834
vn -0.1654 0.2404 0.9565
vn 0.3738 0.3981 -0.8377
vn 0.2846 -0.9390 0.1932
vn -0.1754 -0.0321 0.9840
vn 0.0816 0.9873 -0.1363
vn -0.1075 0.0753 0.9914
vn -0.5354 0.3118 0.7849
vn 0.0648 0.1956 0.9786
vn -0.6072 -0.2262 0.7617
vn 0.3507 0.1400 0.9260
vn -0.5404 0.1772 0.8226
vn 0.1508 0.9879 -0.0352
vn -0.1085 0.2192 0.9696
vn -0.1789 0.2537 0.9506
vn 0.0236 0.3590 0.9330
vn -0.0490 -0.2207 0.9741
vn 0.1208 0.0961 0.9880
vn 0.0231 -0.0221 0.9995
vn 0.4432 -0.4269 0.7882
vn -0.0162 0.5441 0.8388
vn 0.5325 -0.6776 0.5073
vn -0.1322 0.5751 0.8073
vn 0.1711 -0.9094 0.3790
vn -0.2411 0.2440 0.9393
vn 0.4417 0.4327 -0.7860
vn 0.2284 -0.9719 0.0569
vn -0.2344 -0.0032 0.9721
vn 0.0548 0.1358 0.9892
vn 0.2930 -0.9551 -0.0438
vn -0.1176 0.5724 0.8115
vn 0.1408 -0.9677 -0.2091
vn -0.3339 0.1296 0.9336
vn 0.4928 0.4780 -0.7271
vn 0.1389 -0.9690 -0.2041
vn -0.3291 0.0175 0.9441
vn 0.1780 0.9829 -0.0471
vn -0.2187 0.3460 0.9124
vn -0.0199 0.3511 0.9361
vn -0.1501 0.4499 0.8804
vn 0.1694 -0.1326 0.9766
vn -0.0890 0.0081 0.9960
vn 0.1871 -0.0944 0.9778
vn 0.1601 -0.7466 0.6457
vn -0.5053 0.4531 0.7344
vn -0.0613 0.6636 0.7456
vn -0.4889 0.5298 0.6930
vn 0.0728 0.1681 0.9831
vn -0.5108 -0.2688 0.8166
vn 0.0895 0.0329 0.9954
vn -0.0802 -0.9960 0.0385
vn -0.0577 0.1646 0.9847
vn 0.1805 -0.9206 -0.3463
vn -0.3605 0.1189 0.9251
vn 0.1288 -0.9110 -0.3918
vn -0.5167 -0.0703 0.8533
vn 0.5311 0.5309 -0.6604
vn 0.0964 -0.9305 -0.3534
vn -0.5227 0.0378 0.8517
vn 0.1985 0.9714 -0.1300
vn 0.0754 -0.8664 -0.4936
vn -0.6727 -0.2626 0.6918
vn 0.1246 -0.8815 -0.4555
vn -0.7526 -0.2650 0.6028
vn 0.5523 0.5773 -0.6014
vn 0.0800 -0.8976 -0.4336
vn -0.8383 0.0308 0.5443
vn 0.2215 0.9389 -0.2635
vn -0.8002 0.5674 0.1944
vn -0.1049 0.9140 0.3919
vn -0.8643 0.4963 -0.0822
vn -0.2043 0.6882 0.6961
vn -0.8113 -0.4383 -0.3870
vn -0.3685 0.4479 0.8146
vn -0.2039 -0.8021 -0.5614
vn -0.5459 0.0192 0.8376
vn -0.7097 0.2158 -0.6706
vn -0.3178 0.9283 0.1929
vn -0.5191 -0.2647 -0.8127
vn -0.6655 0.7069 0.2396
vn -0.2340 -0.5959 -0.7682
vn -0.9794 0.0082 0.2019
vn -0.0190 -0.7811 -0.6241
vn -0.8961 -0.4244 0.1302
vn 0.0797 -0.8601 -0.5038
vn -0.9124 -0.3950 0.1077
vn 0.5583 0.6015 -0.5714
vn 0.0716 -0.8608 -0.5038
vn -0.9942 -0.0425 -0.0987
vn 0.2477 0.8738 -0.4185
vn -0.8196 0.3833 -0.4258
vn -0.0934 0.9956 -0.0116
vn 0.0454 -0.8233 -0.5658
vn -0.8644 -0.2712 -0.4233
vn 0.5594 0.6142 -0.5567
vn 0.0701 -0.8280 -0.5563
vn -0.8127 -0.1120 -0.5718
vn 0.2591 0.7932 -0.5510
vn -0.6511 0.1486 -0.7443
vn -0.0811 0.8876 -0.4534
vn -0.5130 0.0387 -0.8575
vn -0.2885 0.8202 -0.4941
vn -0.3742 -0.2344 -0.8972
vn -0.5225 0.5679 -0.6360
vn -0.2062 -0.4943 -0.8445
vn -0.7461 -0.0044 -0.6658
vn -0.0567 -0.6877 -0.7237
vn -0.7910 -0.3411 -0.5079
vn -0.1620 0.5727 -0.8036
vn -0.2488 -0.3409 -0.9065
vn -0.3012 0.3379 -0.8917
vn -0.1502 -0.4554 -0.8775
vn -0.4496 0.0140 -0.8931
vn -0.0624 -0.6165 -0.7849
vn -0.5966 -0.1372 -0.7907
vn 0.0210 -0.7797 -0.6258
vn -0.6866 -0.1105 -0.7186
vn 0.5583 0.6303 -0.5394
vn 0.0726 -0.8051 -0.5887
vn -0.6556 -0.1202 -0.7455
vn 0.2901 0.7200 -0.6304
vn -0.5628 -0.1244 -0.8172
vn 0.0009 0.7070 -0.7072
vn -0.4104 -0.2174 -0.8856
vn -0.5850 0.0540 -0.8092
vn 0.5524 0.6566 -0.5135
vn 0.0755 -0.7945 -0.6025
vn -0.7150 0.0584 -0.6967
vn 0.3145 0.6895 -0.6525
vn -0.7433 -0.1309 -0.6560
vn 0.0626 0.6060 -0.7930
vn -0.5719 -0.4634 -0.6769
vn -0.0830 0.4392 -0.8945
vn -0.2654 -0.6421 -0.7192
vn -0.1965 0.2412 -0.9504
vn -0.0768 -0.6054 -0.7922
vn -0.3240 0.0876 -0.9420
vn -0.0321 -0.6052 -0.7955
vn -0.4653 0.0389 -0.8843
vn 0.0091 -0.7403 -0.6723
vn -0.3100 -0.8092 -0.4991
vn -0.1633 0.2263 -0.9603
vn -0.0394 -0.8223 -0.5677
vn -0.2865 0.0816 -0.9546
vn 0.0191 -0.6798 -0.7332
vn -0.3932 0.1914 -0.8993
vn 0.0093 -0.7147 -0.6994
vn -0.5496 0.3011 -0.7792
vn 0.5377 0.6923 -0.4813
vn 0.0758 -0.7940 -0.6032
vn -0.6583 0.2244 -0.7185
vn 0.3244 0.7039 -0.6319
vn -0.6961 -0.1029 -0.7106
vn 0.0967 0.5927 -0.7996
vn -0.5903 -0.5274 -0.6110
vn -0.0497 0.3966 -0.9166
vn 0.5105 0.7348 -0.4466
vn 0.0729 -0.7979 -0.5983
vn -0.3910 0.2810 -0.8765
vn 0.3058 0.7591 -0.5747
vn -0.3821 -0.0392 -0.9233
vn 0.1008 0.6399 -0.7618
vn -0.3567 -0.4308 -0.8290
vn -0.0465 0.4076 -0.9120
vn -0.2584 -0.7856 -0.5622
vn -0.1462 0.2645 -0.9532
vn -0.0403 -0.9020 -0.4299
vn -0.2221 0.1757 -0.9591
vn 0.0419 -0.7802 -0.6241
vn -0.3359 0.1850 -0.9236
vn 0.0206 -0.7109 -0.7029
vn -0.3750 0.4138 -0.8295
vn -0.1004 0.3086 -0.9459
vn -0.0114 -0.9036 -0.4282
vn -0.1192 0.2246 -0.9671
vn 0.0448 -0.8300 -0.5559
vn -0.1070 0.3139 -0.9434
vn 0.0319 -0.7191 -0.6942
vn -0.1131 0.4163 -0.9022
vn 0.4732 0.7750 -0.4189
vn 0.0671 -0.8029 -0.5923
vn -0.1160 0.2995 -0.9470
vn 0.2741 0.8177 -0.5062
vn -0.1075 -0.0041 -0.9942
vn 0.0967 0.6998 -0.7078
vn -0.1002 -0.3466 -0.9327
vn -0.0343 0.4316 -0.9014
vn -0.0868 -0.7196 -0.6890
vn 0.1363 0.3877 -0.9117
vn 0.3048 0.8345 -0.4591
vn 0.0999 0.0638 -0.9929
vn 0.1766 0.7182 -0.6731
vn 0.1079 -0.3091 -0.9449
vn 0.0129 0.4468 -0.8945
vn 0.0876 -0.6579 -0.7480
vn 0.0220 0.3149 -0.9489
vn 0.0428 -0.8700 -0.4911
vn 0.1554 0.1550 -0.9756
vn 0.0419 -0.8331 -0.5515
vn 0.2400 0.2313 -0.9428
vn 0.0410 -0.7269 -0.6855
vn 0.1996 0.3997 -0.8947
vn 0.4786 0.7706 -0.4209
vn 0.0619 -0.8057 -0.5891
vn 0.0957 -0.7942 -0.6001
vn 0.2546 -0.0831 -0.9635
vn 0.0392 -0.7988 -0.6003
vn 0.4228 0.0717 -0.9034
vn 0.0514 -0.7336 -0.6776
vn 0.4731 0.3799 -0.7949
vn 0.5241 0.7397 -0.4221
vn 0.0600 -0.8062 -0.5886
vn 0.3839 0.3785 -0.8422
vn 0.3957 0.8227 -0.4083
vn 0.2925 0.3125 -0.9038
vn 0.3394 0.7023 -0.6257
vn 0.2738 -0.2111 -0.9383
vn 0.1788 0.6015 -0.7786
vn 0.2161 -0.5723 -0.7911
vn 0.1475 0.2183 -0.9647
vn 0.2159 -0.6992 -0.6815
vn 0.1654 -0.2535 -0.9531
vn 0.1108 -0.7623 -0.6377
vn 0.1393 -0.2935 -0.9458
vn 0.0463 -0.7382 -0.6730
vn 0.2417 0.0372 -0.9696
vn 0.3500 0.4693 -0.8107
vn 0.5407 0.7950 -0.2749
vn 0.3843 0.4687 -0.7954
vn 0.4734 0.6789 -0.5613
vn 0.3895 -0.0260 -0.9207
vn 0.5167 0.5609 -0.6468
vn 0.3018 -0.5518 -0.7774
vn 0.3344 0.2182 -0.9168
vn 0.5630 0.6781 -0.4724
vn 0.2051 -0.3768 -0.9033
vn 0.4672 0.5174 -0.7170
vn 0.1545 -0.6560 -0.7388
vn 0.1716 -0.2089 -0.9628
vn 0.1014 -0.7393 -0.6657
vn 0.0091 -0.2948 -0.9555
vn 0.0606 -0.7461 -0.6630
vn -0.0538 0.0299 -0.9981
vn -0.0863 0.2759 -0.9573
vn 0.5315 0.7998 -0.2790
vn 0.0390 0.2832 -0.9583
vn 0.5345 0.6305 -0.5627
vn 0.1925 -0.0232 -0.9810
vn -0.1671 0.0072 -0.9859
vn -0.1414 0.0913 -0.9857
vn 0.4957 0.8272 -0.2644
vn -0.0287 0.0846 -0.9960
vn 0.5464 0.6002 -0.5841
vn 0.1010 -0.0851 -0.9912
vn 0.4450 0.7591 -0.4752
vn 0.1464 -0.3587 -0.9219
vn 0.3873 0.8295 -0.4023
vn 0.1183 -0.6293 -0.7681
vn 0.1821 0.2088 -0.9609
vn 0.0833 -0.7333 -0.6748
vn -0.0397 -0.2191 -0.9749
vn 0.0796 -0.7575 -0.6480
vn 0.2544 -0.3875 -0.8861
vn 0.1930 0.9195 -0.3424
vn 0.1713 -0.6234 -0.7629
vn 0.1689 0.6948 -0.6991
vn 0.0860 -0.7437 -0.6629
vn 0.0339 0.0097 -0.9994
vn 0.0899 -0.7680 -0.6341
vn -0.0680 -0.1307 -0.9891
vn 0.0402 -0.1098 -0.9931
vn 0.4345 0.8508 -0.2957
vn 0.1754 -0.0855 -0.9808
vn 0.4601 0.6465 -0.6085
vn 0.2449 -0.2032 -0.9480
vn 0.2908 0.7474 -0.5973
vn 0.3563 -0.1675 -0.9192
vn 0.3489 0.8710 -0.3458
vn 0.2313 -0.0914 -0.9686
vn 0.3163 0.7211 -0.6164
vn 0.1988 -0.2553 -0.9462
vn 0.1389 0.6644 -0.7344
vn 0.1996 -0.4443 -0.8734
vn -0.0115 0.8652 -0.5013
vn 0.2023 -0.6222 -0.7562
vn 0.1147 0.8460 -0.5206
vn 0.0967 -0.7648 -0.6369
vn 0.2891 0.3299 -0.8987
vn 0.1017 -0.7840 -0.6123
vn 0.3379 -0.1422 -0.9304
vn 0.1381 -0.6429 -0.7534
vn 0.0496 0.7755 -0.6294
vn 0.1138 -0.8075 -0.5788
vn 0.5007 0.3737 -0.7808
vn 0.1336 -0.8253 -0.5486
vn 0.4737 -0.1658 -0.8650
vn 0.2019 -0.0094 -0.9794
vn 0.2331 0.8710 -0.4325
vn 0.1574 -0.1209 -0.9801
vn 0.1406 0.7845 -0.6039
vn 0.1480 -0.2919 -0.9449
vn 0.0303 0.6138 -0.7889
vn 0.1300 -0.4881 -0.8631
vn -0.0717 0.7188 -0.6915
vn 0.0980 0.8082 -0.5807
vn 0.2644 -0.1950 -0.9445
vn -0.0070 0.8073 -0.5901
vn 0.2344 -0.3875 -0.8916
vn -0.0296 0.5912 -0.8060
vn 0.1706 -0.6002 -0.7815
vn -0.0374 0.6073 -0.7936
vn 0.1257 -0.7548 -0.6438
vn 0.1699 0.5667 -0.8062
vn 0.1425 -0.8891 -0.4351
vn 0.4312 0.3272 -0.8408
vn 0.1885 -0.8983 -0.3969
vn 0.2676 0.2078 -0.9408
vn 0.2631 0.0375 -0.9640
vn 0.4539 0.5652 -0.6889
vn 0.1553 -0.9593 -0.2358
vn 0.4777 0.5937 -0.6476
vn 0.2404 -0.9589 -0.1505
vn 0.4845 0.2700 -0.8321
vn 0.5238 -0.1096 -0.8448
vn -0.0169 0.6233 -0.7818
vn 0.5087 -0.3256 -0.7970
vn -0.1239 0.7889 -0.6019
vn 0.4134 -0.5543 -0.7224
vn 0.0883 0.7136 -0.6950
vn 0.2697 -0.7736 -0.5734
vn 0.1580 0.6509 -0.7425
vn 0.1540 -0.8993 -0.4094
vn 0.8192 -0.4848 -0.3064
vn -0.2196 0.4840 -0.8471
vn 0.6091 -0.7432 -0.2768
vn 0.2413 0.6818 -0.6906
vn 0.3532 -0.9179 -0.1807
vn 0.5560 0.6043 -0.5707
vn 0.1706 -0.9826 -0.0737
vn 0.7488 0.5457 -0.3762
vn 0.1627 -0.9849 0.0589
vn 0.6385 0.7647 -0.0869
vn 0.2377 -0.9463 0.2193
vn 0.9035 0.4234 -0.0664
vn 0.9394 -0.1892 -0.2859
vn -0.0321 0.3796 -0.9246
vn 0.1242 -0.8982 0.4216
vn 0.8658 0.3350 0.3718
vn 0.1943 -0.7881 0.5841
vn 0.5431 0.3292 0.7725
vn 0.6506 0.0143 0.7592
vn -0.0195 0.1943 -0.9808
vn 0.6809 -0.4103 0.6066
vn 0.0542 0.2614 -0.9637
vn 0.5757 -0.6827 0.4500
vn 0.3124 0.4126 -0.8557
vn 0.3509 -0.8759 0.3311
vn 0.7084 0.4051 -0.5780
vn 0.1627 -0.9446 0.2851
vn 0.9557 0.2172 -0.1987
vn 0.0573 0.2970 -0.9532
vn 0.3142 -0.4565 0.8324
vn 0.5457 0.5340 -0.6458
vn 0.2251 -0.6933 0.6846
vn 0.8830 0.1843 -0.4317
vn 0.0988 -0.8196 0.5643
vn 0.9885 -0.1473 -0.0338
vn 0.0707 -0.7433 0.6652
vn 0.9108 -0.0424 0.4107
vn 0.1335 -0.6447 0.7527
vn 0.6535 -0.0679 0.7539
vn 0.4103 -0.0684 0.9094
vn 0.0174 0.0995 -0.9949
vn 0.3699 -0.1802 0.9114
vn 0.7679 -0.3812 0.5149
vn 0.0950 -0.5822 0.8075
vn 0.5508 0.0104 0.8346
vn 0.6199 -0.0383 0.7838
vn 0.1971 0.1595 -0.9673
vn 0.5106 -0.5650 0.6482
vn 0.2573 0.6333 -0.7299
vn 0.2306 -0.5831 0.7790
vn 0.5890 0.6425 -0.4902
vn 0.1136 -0.5953 0.7954
vn 0.9745 0.0401 -0.2209
vn 0.0302 -0.6990 0.7145
vn 0.8547 -0.5072 0.1106
vn 0.0347 -0.6389 0.7685
vn 0.1451 -0.5677 0.8104
vn 0.5330 0.8457 -0.0274
vn 0.0359 -0.5918 0.8053
vn 0.7382 -0.0528 0.6726
vn -0.0084 -0.6382 0.7698
vn 0.5382 -0.6637 0.5194
vn 0.0274 -0.5990 0.8003
vn 0.4900 -0.6175 0.6153
vn 0.0779 -0.5597 0.8250
vn 0.3484 -0.1310 0.9282
vn 0.2323 -0.0372 0.9719
vn 0.2851 0.3370 -0.8973
vn 0.1794 -0.5035 0.8452
vn 0.1772 0.8742 -0.4521
vn 0.0631 -0.5302 0.8455
vn 0.1815 -0.1179 0.9763
vn 0.0945 -0.0331 0.9950
vn 0.2822 0.5564 -0.7815
vn 0.0512 -0.4992 0.8650
vn 0.0577 0.9509 -0.3041
vn 0.0333 -0.6682 0.7432
vn 0.1442 0.8477 0.5106
vn 0.0257 -0.6348 0.7723
vn 0.1748 -0.0945 0.9801
vn 0.0112 -0.6294 0.7770
vn 0.1792 -0.6406 0.7466
vn 0.0359 -0.5791 0.8145
vn 0.2283 -0.5851 0.7781
vn 0.0517 -0.6666 0.7436
vn -0.1177 -0.1617 0.9798
vn 0.0413 -0.6280 0.7772
vn -0.0786 -0.5760 0.8137
vn 0.0352 -0.5628 0.8259
vn -0.0685 -0.5656 0.8218
vn 0.0398 -0.4777 0.8776
vn -0.0411 -0.1938 0.9802
vn -0.0100 -0.0472 0.9988
vn 0.2335 0.7399 -0.6308
vn 0.0015 -0.4932 0.8699
vn -0.0772 0.9834 -0.1644
vn 0.0533 -0.6927 0.7192
vn -0.2166 0.7296 0.6487
vn -0.0955 -0.0070 0.9954
vn 0.1798 0.8715 -0.4562
vn -0.0675 -0.3794 0.9228
vn -0.1966 0.9802 -0.0226
vn 0.0938 -0.7059 0.7021
vn -0.4970 0.4176 0.7607
vn 0.0752 -0.6861 0.7236
vn -0.5563 -0.2058 0.8051
vn 0.0482 -0.6367 0.7696
vn -0.6857 -0.3535 0.6363
vn 0.0266 -0.5565 0.8304
vn -0.3382 -0.4277 0.8383
vn 0.0181 -0.4113 0.9113
vn -0.1798 -0.1082 0.9777
vn -0.5862 -0.4419 0.6790
vn 0.0824 -0.6721 0.7359
vn -0.4978 -0.1264 0.8580
vn 0.0480 -0.5038 0.8625
vn -0.3310 -0.2366 0.9135
vn 0.0591 -0.2850 0.9567
vn -0.1716 0.0161 0.9850
vn -0.0832 0.0508 0.9952
vn 0.1349 0.9527 -0.2724
vn -0.1104 -0.1276 0.9857
vn -0.3106 0.8525 0.4205
vn 0.0126 -0.7218 0.6920
vn -0.5410 -0.1637 0.8249
vn 0.1365 -0.7186 0.6819
vn -0.0904 0.0154 0.9958
vn 0.1350 0.9527 -0.2724
vn -0.1190 -0.0027 0.9929
vn -0.3989 0.4503 0.7988
vn -0.1094 -0.5057 0.8558
vn -0.5687 -0.1766 0.8034
vn 0.2669 -0.7560 0.5976
vn -0.6170 -0.0731 0.7835
vn 0.3997 -0.5763 0.7128
vn -0.6799 0.1711 0.7130
vn 0.3110 -0.3483 0.8843
vn -0.4117 0.0579 0.9095
vn 0.2710 -0.2009 0.9414
vn -0.1519 0.1574 0.9758
vn 0.5762 -0.1894 0.7950
vn -0.5115 0.6211 0.5938
vn 0.6551 -0.1311 0.7441
vn -0.2931 0.5479 0.7835
vn 0.3879 -0.1724 0.9054
vn -0.1456 0.2736 0.9508
vn -0.1715 -0.0262 0.9848
vn 0.1100 0.9853 -0.1310
vn -0.1754 -0.0129 0.9844
vn -0.3572 0.4466 0.8204
vn -0.0985 -0.0659 0.9930
vn -0.5400 -0.1624 0.8258
vn 0.2497 -0.5167 0.8189
vn -0.6703 0.0041 0.7421
vn 0.1015 0.9909 -0.0881
vn -0.2331 0.0978 0.9675
vn -0.3829 0.2140 0.8987
vn -0.1087 0.2218 0.9690
vn -0.2563 -0.3093 0.9158
vn 0.1161 0.0817 0.9899
vn -0.0103 -0.0433 0.9990
vn 0.3545 -0.4305 0.8300
vn 0.1528 0.6413 0.7519
vn 0.5579 -0.6511 0.5145
vn 0.0171 0.6994 0.7145
vn 0.4269 -0.4752 0.7694
vn -0.1925 0.1432 0.9708
vn -0.2550 -0.0322 0.9664
vn 0.3485 0.3410 0.8731
vn 0.3603 -0.9326 0.0227
vn 0.0586 0.1481 0.9872
vn 0.2727 -0.9615 0.0336
vn -0.2389 -0.0198 0.9708
vn -0.3421 0.0026 0.9397
vn 0.1250 0.9767 -0.1743
vn -0.3141 0.2962 0.9020
vn -0.3659 0.4972 0.7867
vn -0.2176 0.4168 0.8826
vn -0.1346 -0.1853 0.9734
vn -0.0527 -0.0077 0.9986
vn 0.1847 -0.0956 0.9781
vn 0.2124 -0.7269 0.6531
vn -0.4596 0.4645 0.7569
vn -0.2875 0.8301 0.4778
vn -0.4757 0.5331 0.6996
vn -0.2379 0.2625 0.9352
vn -0.5869 -0.2462 0.7713
vn 0.0059 0.0157 0.9999
vn -0.0206 -0.9951 0.0970
vn 0.0445 -0.0627 0.9970
vn 0.1951 -0.9241 -0.3286
vn -0.1545 -0.1252 0.9800
vn 0.1631 -0.9318 -0.3244
vn -0.3997 -0.1850 0.8978
vn -0.5145 0.0453 0.8563
vn 0.1560 0.9399 -0.3037
vn 0.0664 -0.7918 -0.6071
vn -0.5687 -0.3192 0.7581
vn 0.1049 -0.8582 -0.5025
vn -0.6631 -0.3258 0.6739
vn -0.7783 0.0889 0.6215
vn 0.1889 0.8709 -0.4537
vn -0.7640 0.3971 0.5085
vn -0.2381 0.9682 0.0769
vn -0.8863 0.4302 0.1714
vn -0.3350 0.7493 0.5712
vn -0.8026 -0.3239 -0.5010
vn -0.3907 0.4481 0.8041
vn -0.1972 -0.7921 -0.5777
vn -0.5324 0.0029 0.8465
vn -0.8474 0.1037 -0.5207
vn -0.3660 0.9282 0.0675
vn -0.5249 -0.2907 -0.7999
vn -0.6480 0.7115 0.2718
vn -0.1922 -0.5717 -0.7977
vn -0.9549 0.0520 0.2925
vn 0.0085 -0.6868 -0.7268
vn -0.8743 -0.4473 0.1885
vn 0.0816 -0.7891 -0.6088
vn -0.9143 -0.3835 0.1306
vn -0.9927 0.0686 0.0988
vn 0.2270 0.7808 -0.5822
vn -0.9746 0.2062 -0.0873
vn -0.1638 0.9319 -0.3236
vn 0.0661 -0.7394 -0.6701
vn -0.7949 -0.3237 -0.5132
vn -0.8918 -0.0201 -0.4520
vn 0.2951 0.6865 -0.6646
vn -0.8182 -0.0416 -0.5735
vn -0.0151 0.7841 -0.6205
vn -0.6203 -0.1067 -0.7771
vn -0.2813 0.8155 -0.5057
vn -0.3908 -0.2910 -0.8732
vn -0.5879 0.5682 -0.5757
vn -0.1868 -0.4885 -0.8523
vn -0.7697 0.0217 -0.6380
vn -0.0206 -0.6338 -0.7732
vn -0.7410 -0.3674 -0.5622
vn -0.1727 0.5781 -0.7975
vn -0.3873 -0.2893 -0.8754
vn -0.3406 0.3321 -0.8796
vn -0.1816 -0.4593 -0.8695
vn -0.4362 -0.0039 -0.8998
vn -0.0327 -0.5903 -0.8065
vn -0.4855 -0.2262 -0.8445
vn 0.0559 -0.7074 -0.7046
vn -0.5964 -0.1900 -0.7798
vn -0.6873 -0.0897 -0.7208
vn 0.3298 0.6303 -0.7028
vn -0.6603 -0.0300 -0.7504
vn 0.0511 0.6418 -0.7651
vn -0.5660 -0.1000 -0.8183
vn -0.4733 -0.0821 -0.8771
vn -0.5891 -0.1071 -0.8009
vn 0.3654 0.6091 -0.7039
vn -0.7185 -0.1656 -0.6755
vn 0.1107 0.5649 -0.8177
vn -0.7209 -0.3190 -0.6152
vn -0.0879 0.4402 -0.8936
vn -0.5548 -0.5094 -0.6578
vn -0.1941 0.2420 -0.9507
vn -0.2886 -0.6014 -0.7450
vn -0.2767 0.0072 -0.9609
vn -0.0652 -0.6221 -0.7802
vn -0.3566 -0.0984 -0.9291
vn 0.0460 -0.6933 -0.7191
vn -0.4924 -0.7226 -0.4852
vn -0.1142 0.2492 -0.9617
vn -0.3300 -0.7838 -0.5261
vn -0.1811 0.1637 -0.9697
vn -0.1160 -0.7129 -0.6916
vn -0.2938 0.0285 -0.9555
vn 0.0311 -0.6975 -0.7159
vn -0.4075 0.0665 -0.9108
vn -0.5853 0.0948 -0.8052
vn 0.4007 0.6227 -0.6720
vn -0.6920 -0.1093 -0.7135
vn 0.1639 0.5604 -0.8118
vn -0.6359 -0.4839 -0.6012
vn -0.0342 0.3972 -0.9171
vn -0.3984 0.2918 -0.8696
vn 0.4317 0.6716 -0.6021
vn -0.4106 -0.0035 -0.9118
vn 0.1948 0.6212 -0.7590
vn -0.3406 -0.4444 -0.8286
vn -0.0093 0.4156 -0.9095
vn -0.2380 -0.7939 -0.5595
vn -0.0812 0.3003 -0.9504
vn -0.1938 -0.8806 -0.4323
vn -0.1525 0.2340 -0.9602
vn -0.1164 -0.7899 -0.6020
vn -0.1999 0.3268 -0.9237
vn 0.0077 -0.7166 -0.6975
vn -0.3178 0.3206 -0.8923
vn -0.0552 0.3403 -0.9387
vn -0.0346 -0.9004 -0.4336
vn -0.1116 0.2319 -0.9663
vn -0.0445 -0.8255 -0.5627
vn -0.1109 0.3100 -0.9443
vn 0.0043 -0.7237 -0.6901
vn -0.0952 0.4337 -0.8960
vn -0.1241 0.3105 -0.9424
vn 0.4461 0.7407 -0.5024
vn -0.1294 0.0246 -0.9913
vn 0.2093 0.7009 -0.6819
vn -0.1033 -0.3434 -0.9335
vn 0.0091 0.4484 -0.8938
vn -0.0604 -0.7324 -0.6782
vn 0.1949 0.3041 -0.9325
vn 0.4801 0.7745 -0.4120
vn 0.1156 0.0387 -0.9925
vn 0.2715 0.7296 -0.6276
vn 0.0875 -0.2808 -0.9558
vn 0.1197 0.5053 -0.8546
vn 0.0908 -0.6603 -0.7455
vn -0.0143 0.2826 -0.9591
vn 0.0824 -0.8794 -0.4690
vn -0.0039 -0.0135 -0.9999
vn 0.0382 -0.8324 -0.5528
vn 0.1546 0.1391 -0.9781
vn 0.0183 -0.7255 -0.6880
vn 0.2412 0.4391 -0.8655
vn 0.1741 -0.8369 -0.5190
vn 0.1135 -0.2476 -0.9622
vn 0.0944 -0.8207 -0.5635
vn 0.2474 -0.1629 -0.9551
vn 0.0338 -0.7285 -0.6842
vn 0.4179 0.2929 -0.8600
vn 0.4490 0.5070 -0.7358
vn 0.5260 0.7810 -0.3367
vn 0.3955 0.1218 -0.9103
vn 0.3873 0.7099 -0.5882
vn 0.2930 -0.2503 -0.9228
vn 0.2917 0.4571 -0.8402
vn 0.2389 -0.6043 -0.7601
vn 0.1303 0.2497 -0.9595
vt 0.097647 0.650648
vt 0.128555 0.683863
vt 0.110195 0.685032
vt 0.742912 0.843234
vt 0.766163 0.864878
vt 0.748437 0.873404
vt 0.133891 0.717263
vt 0.122104 0.719991
vt 0.722430 0.883249
vt 0.722430 0.846465
vt 0.138506 0.753638
vt 0.132138 0.755238
vt 0.142838 0.465271
vt 0.179278 0.468373
vt 0.140682 0.497385
vt 0.831187 0.871778
vt 0.831187 0.810755
vt 0.838809 0.869525
vt 0.144282 0.793588
vt 0.177712 0.501996
vt 0.138363 0.537557
vt 0.154989 0.310883
vt 0.157995 0.357825
vt 0.145675 0.361952
vt 0.175626 0.531240
vt 0.140594 0.557882
vt 0.140373 0.401789
vt 0.156396 0.396171
vt 0.766163 0.882478
vt 0.788585 0.861385
vt 0.789980 0.877806
vt 0.139135 0.434970
vt 0.159587 0.429582
vt 0.122727 0.634825
vt 0.123911 0.654554
vt 0.140012 0.453172
vt 0.165830 0.447321
vt 0.172904 0.386126
vt 0.179784 0.421115
vt 0.147602 0.655863
vt 0.190352 0.442148
vt 0.146553 0.684229
vt 0.765662 0.890514
vt 0.762960 0.897454
vt 0.146043 0.716840
vt 0.743054 0.906998
vt 0.145107 0.753502
vt 0.316171 0.841107
vt 0.330700 0.809632
vt 0.332759 0.841787
vt 0.846453 0.865065
vt 0.208570 0.500138
vt 0.170978 0.303793
vt 0.171000 0.350315
vt 0.205821 0.520831
vt 0.855900 0.865822
vt 0.873444 0.824921
vt 0.873444 0.862819
vt 0.125321 0.625447
vt 0.151274 0.637178
vt 0.351720 0.840824
vt 0.165123 0.248863
vt 0.179209 0.297240
vt 0.151762 0.754896
vt 0.209404 0.477276
vt 0.234068 0.503952
vt 0.184995 0.340442
vt 0.231222 0.517822
vt 0.190228 0.374095
vt 0.157094 0.627041
vt 0.176135 0.637320
vt 0.200203 0.410550
vt 0.169950 0.657581
vt 0.213081 0.439502
vt 0.164412 0.686344
vt 0.199803 0.454566
vt 0.224325 0.460820
vt 0.158415 0.719033
vt 0.351994 0.780119
vt 0.352388 0.809175
vt 0.192242 0.664564
vt 0.221244 0.396956
vt 0.234471 0.434087
vt 0.182688 0.691571
vt 0.246118 0.461998
vt 0.170818 0.723903
vt 0.231987 0.473972
vt 0.253937 0.480372
vt 0.158261 0.757810
vt 0.194020 0.590275
vt 0.214343 0.595599
vt 0.193060 0.602815
vt 0.187331 0.289141
vt 0.211557 0.613941
vt 0.188704 0.613237
vt 0.199775 0.329369
vt 0.206860 0.628895
vt 0.182547 0.623471
vt 0.208606 0.361992
vt 0.200263 0.644969
vt 0.164359 0.762149
vt 0.236839 0.605607
vt 0.237394 0.620539
vt 0.195000 0.279729
vt 0.214734 0.317698
vt 0.233487 0.636144
vt 0.227196 0.350734
vt 0.225961 0.654875
vt 0.241466 0.384208
vt 0.215038 0.676589
vt 0.255597 0.419604
vt 0.200967 0.701101
vt 0.266951 0.449715
vt 0.182817 0.731719
vt 0.274451 0.467690
vt 0.236854 0.585047
vt 0.218441 0.715390
vt 0.275308 0.403786
vt 0.286169 0.428957
vt 0.193486 0.742074
vt 0.808045 0.842593
vt 0.831187 0.810755
vt 0.830386 0.843726
vt 0.169796 0.767724
vt 0.821286 0.874218
vt 0.831187 0.881537
vt 0.201749 0.269377
vt 0.280789 0.489573
vt 0.310405 0.469079
vt 0.313645 0.485022
vt 0.228956 0.305204
vt 0.263652 0.643605
vt 0.245052 0.339138
vt 0.253694 0.664644
vt 0.260286 0.371377
vt 0.239039 0.689640
vt 0.207131 0.258399
vt 0.241285 0.290096
vt 0.270320 0.626659
vt 0.291215 0.656297
vt 0.261006 0.325108
vt 0.279153 0.678174
vt 0.276557 0.355701
vt 0.260693 0.704245
vt 0.291662 0.385136
vt 0.232992 0.730504
vt 0.309329 0.409563
vt 0.201896 0.753082
vt 0.297355 0.448302
vt 0.332417 0.437900
vt 0.174285 0.774033
vt 0.342576 0.458902
vt 0.341735 0.473703
vt 0.304563 0.359325
vt 0.326992 0.385237
vt 0.207694 0.763228
vt 0.355167 0.417946
vt 0.177526 0.780281
vt 0.745554 0.438279
vt 0.747521 0.394141
vt 0.765268 0.428418
vt 0.210880 0.247806
vt 0.784897 0.455620
vt 0.764565 0.465374
vt 0.250372 0.269415
vt 0.805835 0.478692
vt 0.785630 0.487427
vt 0.274877 0.301967
vt 0.299098 0.696788
vt 0.290788 0.332249
vt 0.276811 0.720966
vt 0.243717 0.744245
vt 0.830065 0.463747
vt 0.255357 0.248476
vt 0.285475 0.268748
vt 0.850337 0.482593
vt 0.829075 0.495776
vt 0.303761 0.295974
vt 0.286348 0.738370
vt 0.721832 0.276358
vt 0.745253 0.282353
vt 0.721924 0.308528
vt 0.249889 0.756233
vt 0.760221 0.320138
vt 0.735410 0.347563
vt 0.210557 0.771621
vt 0.772381 0.371317
vt 0.179152 0.785437
vt 0.789913 0.410410
vt 0.212752 0.238187
vt 0.809989 0.439331
vt 0.250391 0.767499
vt 0.210110 0.778767
vt 0.807338 0.329894
vt 0.178893 0.788987
vt 0.822212 0.378338
vt 0.212646 0.229817
vt 0.840552 0.413675
vt 0.256505 0.228254
vt 0.857225 0.442178
vt 0.291499 0.233521
vt 0.872101 0.464702
vt 0.314598 0.251988
vt 0.316171 0.743470
vt 0.288960 0.755626
vt 0.741897 0.247455
vt 0.770942 0.249117
vt 0.787032 0.289646
vt 0.254769 0.206938
vt 0.302559 0.178897
vt 0.887718 0.407456
vt 0.893390 0.441093
vt 0.333799 0.183636
vt 0.309378 0.769652
vt 0.283233 0.772912
vt 0.758379 0.207629
vt 0.805927 0.205688
vt 0.243826 0.779067
vt 0.816362 0.258664
vt 0.206385 0.785478
vt 0.838950 0.299395
vt 0.176980 0.791880
vt 0.863069 0.333771
vt 0.210587 0.222692
vt 0.879468 0.369189
vt 0.863429 0.276230
vt 0.881447 0.628451
vt 0.889683 0.599999
vt 0.883212 0.631404
vt 0.891576 0.315044
vt 0.206736 0.216628
vt 0.173730 0.794890
vt 0.912284 0.346349
vt 0.251418 0.181752
vt 0.914229 0.377609
vt 0.312345 0.109759
vt 0.911749 0.414850
vt 0.791251 0.149943
vt 0.792847 0.064805
vt 0.838597 0.072012
vt 0.291380 0.794556
vt 0.266964 0.790113
vt 0.853710 0.145009
vt 0.230690 0.790657
vt 0.852046 0.222981
vt 0.199954 0.791999
vt 0.875873 0.675494
vt 0.902666 0.687212
vt 0.883655 0.705059
vt 0.345945 0.022733
vt 0.355167 0.090288
vt 0.887929 0.527885
vt 0.913275 0.518363
vt 0.905385 0.547786
vt 0.902873 0.089447
vt 0.891472 0.565786
vt 0.900908 0.578741
vt 0.889081 0.188048
vt 0.893664 0.607640
vt 0.886396 0.255176
vt 0.884520 0.635721
vt 0.909542 0.298356
vt 0.201254 0.211657
vt 0.169434 0.798454
vt 0.930793 0.330805
vt 0.244191 0.158132
vt 0.930900 0.360930
vt 0.303575 0.059465
vt 0.897522 0.617012
vt 0.885001 0.641339
vt 0.416139 0.262746
vt 0.432336 0.217034
vt 0.442895 0.261661
vt 0.194357 0.208030
vt 0.164308 0.802802
vt 0.418546 0.300902
vt 0.446544 0.300181
vt 0.231000 0.145123
vt 0.431488 0.322641
vt 0.459130 0.322386
vt 0.278861 0.041017
vt 0.906281 0.717736
vt 0.887164 0.733062
vt 0.312173 0.000000
vt 0.925618 0.540571
vt 0.917207 0.566839
vt 0.880542 0.017318
vt 0.930899 0.064713
vt 0.908183 0.592427
vt 0.914444 0.166997
vt 0.903972 0.241387
vt 0.869850 0.749098
vt 0.890548 0.759954
vt 0.872042 0.771763
vt 0.355167 0.041688
vt 0.400654 0.112343
vt 0.355415 0.108435
vt 0.925298 0.585857
vt 0.914497 0.607599
vt 0.397343 0.170774
vt 0.432592 0.172168
vt 0.901439 0.628096
vt 0.462071 0.218955
vt 0.884753 0.648023
vt 0.474329 0.260662
vt 0.186335 0.206090
vt 0.158525 0.807856
vt 0.477651 0.299924
vt 0.213236 0.144319
vt 0.486949 0.324649
vt 0.246711 0.050911
vt 0.909820 0.748518
vt 0.394303 0.000000
vt 0.399236 0.050041
vt 0.177546 0.206214
vt 0.152402 0.813374
vt 0.507466 0.259997
vt 0.510478 0.297759
vt 0.193807 0.153964
vt 0.514877 0.330316
vt 0.213407 0.085908
vt 0.914587 0.779976
vt 0.894543 0.788021
vt 0.427875 0.009299
vt 0.448018 0.056289
vt 0.873819 0.796074
vt 0.799836 0.657087
vt 0.748811 0.617271
vt 0.811469 0.593798
vt 0.855899 0.782805
vt 0.855899 0.802479
vt 0.875099 0.600769
vt 0.879556 0.575682
vt 0.920751 0.625120
vt 0.905095 0.641205
vt 0.474684 0.173262
vt 0.496315 0.220612
vt 0.884036 0.655304
vt 0.781010 0.553363
vt 0.837711 0.551280
vt 0.856327 0.824921
vt 0.504748 0.128799
vt 0.520508 0.180078
vt 0.905547 0.657058
vt 0.533033 0.223786
vt 0.883277 0.662605
vt 0.540082 0.259611
vt 0.168368 0.208681
vt 0.146268 0.818725
vt 0.543305 0.295097
vt 0.174094 0.168382
vt 0.545340 0.333439
vt 0.731917 0.511702
vt 0.747809 0.547832
vt 0.722430 0.581099
vt 0.911640 0.811320
vt 0.901329 0.818256
vt 0.876855 0.823195
vt 0.572180 0.259441
vt 0.574596 0.294075
vt 0.159186 0.213081
vt 0.154955 0.184184
vt 0.577203 0.332711
vt 0.520071 0.019489
vt 0.541006 0.053352
vt 0.504664 0.041097
vt 0.554570 0.353538
vt 0.580457 0.370738
vt 0.497636 0.074037
vt 0.548227 0.108783
vt 0.730648 0.721295
vt 0.741747 0.676616
vt 0.758989 0.706261
vt 0.825894 0.506278
vt 0.881447 0.502878
vt 0.766793 0.748197
vt 0.743402 0.758142
vt 0.560206 0.162508
vt 0.567297 0.197208
vt 0.777791 0.783590
vt 0.761524 0.789695
vt 0.570270 0.228749
vt 0.785042 0.809006
vt 0.780809 0.810755
vt 0.140228 0.823459
vt 0.821837 0.724562
vt 0.605550 0.169954
vt 0.607185 0.202873
vt 0.799454 0.776300
vt 0.604934 0.229394
vt 0.788999 0.808366
vt 0.603969 0.257908
vt 0.150375 0.218992
vt 0.134268 0.827166
vt 0.605429 0.292751
vt 0.136661 0.197753
vt 0.609643 0.335854
vt 0.562017 0.017464
vt 0.573866 0.050389
vt 0.610039 0.391675
vt 0.316171 0.746144
vt 0.354128 0.698856
vt 0.354128 0.776899
vt 0.765902 0.662605
vt 0.817785 0.676600
vt 0.591786 0.116807
vt 0.142278 0.225886
vt 0.119995 0.209031
vt 0.636573 0.290784
vt 0.644446 0.341496
vt 0.580290 0.012040
vt 0.600848 0.042247
vt 0.644228 0.417943
vt 0.624157 0.103469
vt 0.603108 0.445300
vt 0.631374 0.480053
vt 0.638537 0.157198
vt 0.855396 0.718269
vt 0.639368 0.194725
vt 0.816642 0.773946
vt 0.636569 0.224612
vt 0.791327 0.809532
vt 0.634308 0.254736
vt 0.128217 0.828437
vt 0.342406 0.687933
vt 0.351180 0.627186
vt 0.354346 0.672622
vt 0.103215 0.942274
vt 0.098401 0.872739
vt 0.112047 0.873684
vt 0.664661 0.216650
vt 0.122002 0.826123
vt 0.662340 0.250279
vt 0.135194 0.233601
vt 0.666660 0.288103
vt 0.105854 0.220738
vt 0.679463 0.343810
vt 0.596156 0.006853
vt 0.622439 0.033811
vt 0.685045 0.434958
vt 0.646991 0.082800
vt 0.666859 0.502878
vt 0.316171 0.649423
vt 0.354346 0.576569
vt 0.093814 0.985452
vt 0.078583 0.945973
vt 0.692521 0.284147
vt 0.707681 0.337622
vt 0.609776 0.003099
vt 0.641268 0.024255
vt 0.721832 0.426978
vt 0.669111 0.063752
vt 0.702897 0.499533
vt 0.663372 0.133139
vt 0.688220 0.108976
vt 0.058263 1.000000
vt 0.054254 0.925974
vt 0.694630 0.161223
vt 0.667209 0.178355
vt 0.085565 0.861834
vt 0.690421 0.208011
vt 0.116312 0.821018
vt 0.687343 0.245773
vt 0.766163 0.810755
vt 0.808045 0.810755
vt 0.767027 0.819144
vt 0.129422 0.242103
vt 0.094320 0.234135
vt 0.037373 0.885321
vt 0.076067 0.844737
vt 0.440449 0.704103
vt 0.493768 0.691777
vt 0.487838 0.717167
vt 0.111880 0.814390
vt 0.535235 0.702314
vt 0.525921 0.727915
vt 0.769421 0.827929
vt 0.561480 0.742386
vt 0.570561 0.715640
vt 0.125180 0.251483
vt 0.085789 0.250354
vt 0.608548 0.740478
vt 0.599841 0.778776
vt 0.060793 0.222972
vt 0.046599 0.241208
vt 0.658293 0.784518
vt 0.654604 0.856073
vt 0.658258 0.015699
vt 0.692918 0.047684
vt 0.717680 0.818692
vt 0.722430 0.887258
vt 0.717120 0.093388
vt 0.000000 0.907510
vt 0.721832 0.149983
vt 0.660095 0.727287
vt 0.011553 0.238412
vt 0.038552 0.265313
vt -0.000000 0.269618
vt 0.706577 0.750639
vt 0.388186 0.656678
vt 0.365057 0.595290
vt 0.400820 0.620101
vt 0.000000 0.839186
vt 0.031634 0.840776
vt 0.440833 0.678184
vt 0.455196 0.643383
vt 0.070836 0.824690
vt 0.507434 0.660683
vt 0.108953 0.806728
vt 0.547736 0.673579
vt 0.773428 0.836474
vt 0.581860 0.686122
vt 0.122623 0.261185
vt 0.080821 0.267907
vt 0.617499 0.703097
vt 0.069793 0.804519
vt 0.107604 0.798490
vt 0.525215 0.629471
vt 0.561959 0.644261
vt 0.779050 0.844446
vt 0.594195 0.656874
vt 0.079906 0.286435
vt 0.626439 0.670557
vt 0.038135 0.293282
vt 0.662697 0.687506
vt 0.001537 0.306872
vt 0.700889 0.706051
vt 0.427264 0.586135
vt 0.007828 0.793738
vt 0.033945 0.804666
vt 0.478415 0.609693
vt 0.014492 0.342379
vt 0.669051 0.655043
vt 0.699521 0.673723
vt 0.388557 0.565892
vt 0.458567 0.560697
vt 0.017974 0.760398
vt 0.040870 0.776068
vt 0.503821 0.582018
vt 0.072213 0.785818
vt 0.543436 0.600934
vt 0.107786 0.790130
vt 0.576614 0.615923
vt 0.786012 0.851627
vt 0.607373 0.628447
vt 0.121812 0.270903
vt 0.082983 0.304850
vt 0.637971 0.639972
vt 0.045162 0.321582
vt 0.560149 0.574848
vt 0.593204 0.585461
vt 0.793822 0.857851
vt 0.109374 0.782065
vt 0.628197 0.590414
vt 0.122738 0.280322
vt 0.089544 0.321945
vt 0.661041 0.597602
vt 0.057879 0.346944
vt 0.687024 0.615487
vt 0.034173 0.371870
vt 0.707025 0.642252
vt 0.419190 0.544281
vt 0.487335 0.542371
vt 0.024481 0.728246
vt 0.049108 0.751792
vt 0.525897 0.559278
vt 0.077218 0.769272
vt 0.709107 0.574160
vt 0.721355 0.609064
vt 0.045923 0.418609
vt 0.023173 0.395753
vt 0.028082 0.694633
vt 0.057057 0.729542
vt 0.543484 0.538792
vt 0.083968 0.754917
vt 0.577058 0.548009
vt 0.112192 0.774632
vt 0.614160 0.548165
vt 0.125290 0.289090
vt 0.129290 0.296870
vt 0.652806 0.546495
vt 0.098760 0.336832
vt 0.685499 0.554033
vt 0.073793 0.367669
vt 0.055830 0.394654
vt 0.134497 0.303347
vt 0.116051 0.768067
vt 0.631793 0.516922
vt 0.668756 0.516516
vt 0.109672 0.348917
vt 0.699524 0.526435
vt 0.090618 0.383536
vt 0.722430 0.547793
vt 0.076567 0.411757
vt 0.014442 0.634322
vt 0.035828 0.668181
vt 0.067504 0.436680
vt 0.065786 0.710113
vt 0.509709 0.527085
vt 0.558850 0.519956
vt 0.091796 0.742497
vt 0.593340 0.521604
vt 0.090160 0.450779
vt 0.050744 0.653000
vt 0.077484 0.696427
vt 0.085538 0.472086
vt 0.062214 0.458730
vt 0.100782 0.732475
vt 0.081120 0.498337
vt 0.057963 0.485849
vt 0.120764 0.762557
vt 0.076814 0.533732
vt 0.053871 0.520158
vt 0.140667 0.308216
vt 0.053461 0.549764
vt 0.076570 0.561962
vt 0.121445 0.357586
vt 0.679104 0.502878
vt 0.708122 0.514214
vt 0.107451 0.394952
vt 0.023678 0.599792
vt 0.032769 0.620201
vt 0.097181 0.424615
vt 0.104360 0.529504
vt 0.104110 0.560563
vt 0.133503 0.362016
vt 0.081626 0.576569
vt 0.108719 0.574778
vt 0.124193 0.401346
vt 0.050475 0.597452
vt 0.057889 0.617888
vt 0.118196 0.433271
vt 0.071938 0.648067
vt 0.114293 0.456089
vt 0.092604 0.688590
vt 0.112038 0.468480
vt 0.110969 0.725007
vt 0.109055 0.490007
vt 0.126171 0.758244
vt 0.147553 0.310846
vt 0.760771 0.812775
vt 0.744753 0.810755
vt 0.318984 0.841787
vt 0.342105 0.875981
vt 0.316171 0.875981
vt 0.085264 0.608557
vt 0.089161 0.624998
vt 0.765345 0.838055
vt 0.176844 0.452353
vt 0.162848 0.308454
vt 0.766163 0.857851
vt 0.316171 0.807741
vt 0.860787 0.827262
vt 0.234676 0.488491
vt 0.341082 0.776899
vt 0.214060 0.576569
vt 0.810863 0.815190
vt 0.276662 0.475698
vt 0.300109 0.638835
vt 0.729003 0.404379
vt 0.313546 0.675682
vt 0.311934 0.719006
vt 0.885667 0.594344
vt 0.763175 0.126080
vt 0.889675 0.662605
vt 0.896498 0.497981
vt 0.409636 0.215564
vt 0.902313 0.000000
vt 0.467036 0.022488
vt 0.733803 0.662605
vt 0.449839 0.110383
vt 0.925618 0.645918
vt 0.736929 0.502878
vt 0.541690 0.020257
vt 0.722430 0.684651
vt 0.327588 0.687933
vt 0.855899 0.662605
vt 0.322981 0.595592
vt 0.020924 0.974513
vt 0.355167 0.627801
vt 0.449552 0.529499
vt 0.004611 0.661634
vt 0.526526 0.512772
vt 0.003912 0.613778
vt 0.330707 0.843173
s 0
usemtl マテリアル.032
f 479/1/1 21/2/1 480/3/1
f 477/4/2 13/5/2 14/6/2
f 480/3/3 22/7/3 481/8/3
f 477/4/4 15/9/4 4/10/4
f 481/8/5 23/11/5 482/12/5
f 4/13/6 16/14/6 5/15/6
f 474/16/7 1/17/7 9/18/7
f 8/19/8 482/12/8 23/11/8
f 5/15/9 17/20/9 6/21/9
f 474/22/10 10/23/10 475/24/10
f 6/21/11 18/25/11 478/26/11
f 2/27/12 10/23/12 11/28/12
f 478/29/13 19/30/13 7/31/13
f 476/32/14 11/28/14 12/33/14
f 479/1/15 19/34/15 20/35/15
f 3/36/16 12/33/16 13/37/16
f 12/33/17 26/38/17 27/39/17
f 19/34/18 35/40/18 20/35/18
f 13/37/19 27/39/19 28/41/19
f 20/35/20 36/42/20 21/2/20
f 14/6/21 28/43/21 29/44/21
f 21/2/22 37/45/22 22/7/22
f 15/9/23 29/44/23 30/46/23
f 22/7/24 38/47/24 23/11/24
f 16/48/25 30/49/25 31/50/25
f 9/18/26 1/17/26 24/51/26
f 8/19/27 23/11/27 38/47/27
f 16/14/28 32/52/28 17/20/28
f 10/23/29 24/53/29 25/54/29
f 17/20/30 33/55/30 18/25/30
f 11/56/31 25/57/31 26/58/31
f 18/59/32 34/60/32 19/34/32
f 30/49/33 46/61/33 31/50/33
f 24/53/34 1/62/34 39/63/34
f 8/19/35 38/47/35 53/64/35
f 31/65/36 47/66/36 32/52/36
f 25/54/37 39/63/37 40/67/37
f 32/52/38 48/68/38 33/55/38
f 26/38/39 40/67/39 41/69/39
f 33/70/40 49/71/40 34/60/40
f 27/39/41 41/69/41 42/72/41
f 34/60/42 50/73/42 35/40/42
f 28/41/43 42/72/43 43/74/43
f 35/40/44 51/75/44 36/42/44
f 29/76/45 43/74/45 44/77/45
f 36/42/46 52/78/46 37/45/46
f 30/49/47 44/79/47 45/80/47
f 37/45/48 53/64/48 38/47/48
f 49/71/49 65/81/49 50/73/49
f 43/74/50 57/82/50 58/83/50
f 50/73/51 66/84/51 51/75/51
f 44/77/52 58/83/52 59/85/52
f 51/75/53 67/86/53 52/78/53
f 45/87/54 59/85/54 60/88/54
f 52/78/55 68/89/55 53/64/55
f 45/90/56 61/91/56 46/92/56
f 39/63/57 1/62/57 54/93/57
f 8/19/58 53/64/58 68/89/58
f 46/92/59 62/94/59 47/95/59
f 40/67/60 54/93/60 55/96/60
f 47/95/61 63/97/61 48/98/61
f 41/69/62 55/96/62 56/99/62
f 48/98/63 64/100/63 49/71/63
f 42/72/64 56/99/64 57/82/64
f 8/19/65 68/89/65 83/101/65
f 62/94/66 76/102/66 77/103/66
f 55/96/67 69/104/67 70/105/67
f 62/94/68 78/106/68 63/97/68
f 56/99/69 70/105/69 71/107/69
f 63/97/70 79/108/70 64/100/70
f 57/82/71 71/107/71 72/109/71
f 64/100/72 80/110/72 65/81/72
f 58/83/73 72/109/73 73/111/73
f 65/81/74 81/112/74 66/84/74
f 59/85/75 73/111/75 74/113/75
f 66/84/76 82/114/76 67/86/76
f 60/88/77 74/113/77 75/115/77
f 67/86/78 83/101/78 68/89/78
f 61/91/79 75/116/79 76/102/79
f 54/93/80 1/62/80 69/104/80
f 80/110/81 96/117/81 81/112/81
f 74/113/82 88/118/82 89/119/82
f 81/112/83 97/120/83 82/114/83
f 75/121/84 89/122/84 90/123/84
f 82/114/85 98/124/85 83/101/85
f 76/125/86 90/123/86 91/126/86
f 69/104/87 1/62/87 84/127/87
f 8/19/88 83/101/88 98/124/88
f 77/128/89 91/129/89 92/130/89
f 70/105/90 84/127/90 85/131/90
f 77/103/91 93/132/91 78/106/91
f 71/107/92 85/131/92 86/133/92
f 78/106/93 94/134/93 79/108/93
f 72/109/94 86/133/94 87/135/94
f 79/108/95 95/136/95 80/110/95
f 73/111/96 87/135/96 88/118/96
f 85/131/97 99/137/97 100/138/97
f 92/139/98 108/140/98 93/132/98
f 86/133/99 100/138/99 101/141/99
f 93/132/100 109/142/100 94/134/100
f 87/135/101 101/141/101 102/143/101
f 94/134/102 110/144/102 95/136/102
f 88/118/103 102/143/103 103/145/103
f 95/136/104 111/146/104 96/117/104
f 89/119/105 103/145/105 104/147/105
f 96/117/106 112/148/106 97/120/106
f 90/149/107 104/147/107 105/150/107
f 97/120/108 113/151/108 98/124/108
f 91/129/109 105/150/109 106/152/109
f 84/127/110 1/62/110 99/137/110
f 8/19/111 98/124/111 113/151/111
f 92/130/112 106/152/112 107/153/112
f 104/147/113 118/154/113 119/155/113
f 111/146/114 127/156/114 112/148/114
f 105/150/115 119/155/115 120/157/115
f 112/148/116 128/158/116 113/151/116
f 106/159/117 120/160/117 121/161/117
f 99/137/118 1/62/118 114/162/118
f 8/19/119 113/151/119 128/158/119
f 106/159/120 122/163/120 107/164/120
f 100/138/121 114/162/121 115/165/121
f 107/164/122 123/166/122 108/167/122
f 101/141/123 115/165/123 116/168/123
f 108/140/124 124/169/124 109/142/124
f 102/143/125 116/168/125 117/170/125
f 109/142/126 125/171/126 110/144/126
f 103/145/127 117/170/127 118/154/127
f 110/144/128 126/172/128 111/146/128
f 122/163/129 138/173/129 123/166/129
f 116/168/130 130/174/130 131/175/130
f 123/166/131 139/176/131 124/177/131
f 116/168/132 132/178/132 117/170/132
f 124/169/133 140/179/133 125/171/133
f 117/180/134 133/181/134 118/182/134
f 125/171/135 141/183/135 126/172/135
f 118/182/136 134/184/136 119/185/136
f 127/156/137 141/183/137 142/186/137
f 119/185/138 135/187/138 120/160/138
f 128/158/139 142/186/139 143/188/139
f 120/160/140 136/189/140 121/161/140
f 114/162/141 1/62/141 129/190/141
f 8/19/142 128/158/142 143/188/142
f 121/161/143 137/191/143 122/163/143
f 115/165/144 129/190/144 130/174/144
f 142/186/145 156/192/145 157/193/145
f 134/184/146 150/194/146 135/187/146
f 143/188/147 157/193/147 158/195/147
f 135/187/148 151/196/148 136/189/148
f 129/190/149 1/62/149 144/197/149
f 8/19/150 143/188/150 158/195/150
f 136/189/151 152/198/151 137/191/151
f 130/174/152 144/197/152 145/199/152
f 138/173/153 152/198/153 153/200/153
f 130/174/154 146/201/154 131/175/154
f 139/176/155 153/200/155 154/202/155
f 131/175/156 147/203/156 132/178/156
f 140/179/157 154/204/157 155/205/157
f 132/206/158 148/207/158 133/181/158
f 141/183/159 155/205/159 156/192/159
f 133/181/160 149/208/160 134/184/160
f 146/201/161 160/209/161 161/210/161
f 154/202/162 168/211/162 169/212/162
f 146/201/163 162/213/163 147/203/163
f 155/205/164 169/214/164 170/215/164
f 147/216/165 163/217/165 148/207/165
f 156/192/166 170/215/166 171/218/166
f 148/207/167 164/219/167 149/208/167
f 157/193/168 171/218/168 172/220/168
f 149/208/169 165/221/169 150/194/169
f 158/195/170 172/220/170 173/222/170
f 150/194/171 166/223/171 151/196/171
f 144/197/172 1/62/172 159/224/172
f 8/19/173 158/195/173 173/222/173
f 151/196/174 167/225/174 152/198/174
f 145/199/175 159/224/175 160/209/175
f 152/198/176 168/211/176 153/200/176
f 164/219/177 180/226/177 165/221/177
f 173/227/178 187/228/178 188/229/178
f 165/221/179 181/230/179 166/223/179
f 159/224/180 1/62/180 174/231/180
f 8/19/181 173/222/181 188/232/181
f 166/223/182 182/233/182 167/225/182
f 159/224/183 175/234/183 160/209/183
f 167/225/184 183/235/184 168/211/184
f 161/210/185 175/234/185 176/236/185
f 168/211/186 184/237/186 169/212/186
f 162/238/187 176/239/187 177/240/187
f 170/215/188 184/241/188 185/242/188
f 162/238/189 178/243/189 163/217/189
f 171/218/190 185/242/190 186/244/190
f 163/217/191 179/245/191 164/219/191
f 172/220/192 186/244/192 187/246/192
f 184/247/193 198/248/193 199/249/193
f 176/236/194 192/250/194 177/251/194
f 185/252/195 199/253/195 200/254/195
f 177/240/196 193/255/196 178/243/196
f 186/256/197 200/254/197 201/257/197
f 178/243/198 194/258/198 179/245/198
f 187/228/199 201/257/199 202/259/199
f 179/245/200 195/260/200 180/226/200
f 188/229/201 202/259/201 203/261/201
f 180/226/202 196/262/202 181/230/202
f 174/231/203 1/62/203 189/263/203
f 8/19/204 188/232/204 203/264/204
f 181/230/205 197/265/205 182/233/205
f 174/231/206 190/266/206 175/234/206
f 183/235/207 197/265/207 198/267/207
f 175/234/208 191/268/208 176/236/208
f 203/261/209 217/269/209 218/270/209
f 196/271/210 210/272/210 211/273/210
f 189/263/211 1/62/211 204/274/211
f 8/19/212 203/264/212 218/275/212
f 197/276/213 211/273/213 212/277/213
f 189/263/214 205/278/214 190/266/214
f 198/279/215 212/277/215 213/280/215
f 190/266/216 206/281/216 191/268/216
f 199/249/217 213/282/217 214/283/217
f 191/268/218 207/284/218 192/250/218
f 200/254/219 214/285/219 215/286/219
f 192/287/220 208/288/220 193/255/220
f 201/257/221 215/286/221 216/289/221
f 194/258/222 208/288/222 209/290/222
f 202/259/223 216/289/223 217/269/223
f 195/260/224 209/290/224 210/291/224
f 215/292/225 229/293/225 230/294/225
f 207/295/226 223/296/226 208/297/226
f 216/289/227 230/298/227 231/299/227
f 209/300/228 223/296/228 224/301/228
f 217/269/229 231/299/229 232/302/229
f 210/272/230 224/301/230 225/303/230
f 218/270/231 232/302/231 233/304/231
f 211/273/232 225/303/232 226/305/232
f 204/274/233 1/62/233 219/306/233
f 8/19/234 218/275/234 233/307/234
f 212/277/235 226/305/235 227/308/235
f 204/274/236 220/309/236 205/278/236
f 213/280/237 227/308/237 228/310/237
f 205/278/238 221/311/238 206/281/238
f 214/283/239 228/312/239 229/293/239
f 206/313/240 222/314/240 207/295/240
f 219/306/241 1/62/241 234/315/241
f 8/19/242 233/307/242 248/316/242
f 227/308/243 241/317/243 242/318/243
f 219/306/244 235/319/244 220/309/244
f 228/310/245 242/318/245 243/320/245
f 220/309/246 236/321/246 221/311/246
f 229/293/247 243/322/247 244/323/247
f 221/324/248 237/325/248 222/314/248
f 230/294/249 244/323/249 245/326/249
f 223/327/250 237/328/250 238/329/250
f 231/330/251 245/326/251 246/331/251
f 224/332/252 238/329/252 239/333/252
f 232/302/253 246/334/253 247/335/253
f 225/303/254 239/336/254 240/337/254
f 233/304/255 247/335/255 248/338/255
f 226/305/256 240/337/256 241/317/256
f 238/329/257 252/339/257 253/340/257
f 245/326/258 261/341/258 246/331/258
f 239/336/259 253/342/259 254/343/259
f 246/334/260 262/344/260 247/335/260
f 240/337/261 254/343/261 255/345/261
f 247/335/262 263/346/262 248/338/262
f 241/317/263 255/345/263 256/347/263
f 234/315/264 1/62/264 249/348/264
f 8/19/265 248/316/265 263/349/265
f 242/318/266 256/347/266 257/350/266
f 234/315/267 250/351/267 235/319/267
f 243/320/268 257/350/268 258/352/268
f 235/353/269 251/354/269 236/355/269
f 244/323/270 258/356/270 259/357/270
f 236/355/271 252/339/271 237/328/271
f 245/326/272 259/357/272 260/358/272
f 257/350/273 271/359/273 272/360/273
f 250/351/274 264/361/274 265/362/274
f 258/352/275 272/360/275 273/363/275
f 250/364/276 266/365/276 251/366/276
f 259/367/277 273/363/277 274/368/277
f 252/369/278 266/365/278 267/370/278
f 260/371/279 274/372/279 275/373/279
f 253/340/280 267/374/280 268/375/280
f 260/371/281 276/376/281 261/377/281
f 254/343/282 268/378/282 269/379/282
f 261/377/283 277/380/283 262/381/283
f 255/345/284 269/379/284 270/382/284
f 262/381/285 278/383/285 263/384/285
f 256/347/286 270/382/286 271/359/286
f 249/348/287 1/62/287 264/361/287
f 8/19/288 263/349/288 278/385/288
f 275/373/289 291/386/289 276/376/289
f 269/379/290 283/387/290 284/388/290
f 276/376/291 292/389/291 277/380/291
f 270/382/292 284/388/292 285/390/292
f 277/380/293 293/391/293 278/383/293
f 271/359/294 285/390/294 286/392/294
f 264/361/295 1/62/295 279/393/295
f 8/19/296 278/385/296 293/394/296
f 272/360/297 286/392/297 287/395/297
f 265/362/298 279/393/298 280/396/298
f 273/363/299 287/395/299 288/397/299
f 266/365/300 280/398/300 281/399/300
f 274/368/301 288/397/301 289/400/301
f 267/401/302 281/402/302 282/403/302
f 275/373/303 289/404/303 290/405/303
f 268/378/304 282/406/304 283/387/304
f 280/396/305 294/407/305 295/408/305
f 288/397/306 302/409/306 303/410/306
f 281/399/307 295/411/307 296/412/307
f 289/400/308 303/410/308 304/413/308
f 282/406/309 296/412/309 297/414/309
f 290/415/310 304/413/310 305/416/310
f 283/387/311 297/414/311 298/417/311
f 290/405/312 306/418/312 291/386/312
f 284/388/313 298/417/313 299/419/313
f 291/386/314 307/420/314 292/389/314
f 285/390/315 299/419/315 300/421/315
f 292/389/316 308/422/316 293/391/316
f 285/390/317 301/423/317 286/392/317
f 279/393/318 1/62/318 294/407/318
f 8/19/319 293/394/319 308/424/319
f 287/395/320 301/423/320 302/409/320
f 299/425/321 313/426/321 314/427/321
f 306/428/322 322/429/322 307/430/322
f 299/419/323 315/431/323 300/421/323
f 307/430/324 323/432/324 308/424/324
f 300/421/325 316/433/325 301/423/325
f 294/407/326 1/62/326 309/434/326
f 8/19/327 308/424/327 323/432/327
f 302/409/328 316/433/328 317/435/328
f 295/408/329 309/434/329 310/436/329
f 303/410/330 317/435/330 318/437/330
f 296/412/331 310/438/331 311/439/331
f 304/413/332 318/437/332 319/440/332
f 297/414/333 311/439/333 312/441/333
f 304/413/334 320/442/334 305/416/334
f 298/443/335 312/444/335 313/426/335
f 305/445/336 321/446/336 306/428/336
f 318/437/337 332/447/337 333/448/337
f 311/439/338 325/449/338 326/450/338
f 319/440/339 333/448/339 334/451/339
f 312/441/340 326/450/340 327/452/340
f 319/440/341 335/453/341 320/442/341
f 313/454/342 327/452/342 328/455/342
f 320/456/343 336/457/343 321/446/343
f 313/454/344 329/458/344 314/459/344
f 321/446/345 337/460/345 322/429/345
f 314/459/346 330/461/346 315/431/346
f 322/429/347 338/462/347 323/432/347
f 315/431/348 331/463/348 316/433/348
f 309/464/349 1/465/349 324/466/349
f 8/19/350 323/432/350 338/462/350
f 317/435/351 331/463/351 332/447/351
f 310/436/352 324/467/352 325/468/352
f 337/460/353 351/469/353 352/470/353
f 329/471/354 345/472/354 330/473/354
f 337/460/355 353/474/355 338/462/355
f 330/473/356 346/475/356 331/476/356
f 324/466/357 1/465/357 339/477/357
f 8/19/358 338/462/358 353/474/358
f 332/478/359 346/475/359 347/479/359
f 325/468/360 339/480/360 340/481/360
f 332/478/361 348/482/361 333/483/361
f 326/484/362 340/481/362 341/485/362
f 333/483/363 349/486/363 334/487/363
f 327/452/364 341/488/364 342/489/364
f 334/487/365 350/490/365 335/491/365
f 328/455/366 342/489/366 343/492/366
f 336/457/367 350/493/367 351/469/367
f 328/455/368 344/494/368 329/458/368
f 348/482/369 364/495/369 349/486/369
f 342/496/370 356/497/370 357/498/370
f 349/486/371 365/499/371 350/490/371
f 343/500/372 357/501/372 358/502/372
f 351/469/373 365/503/373 366/504/373
f 344/505/374 358/502/374 359/506/374
f 352/470/375 366/504/375 367/507/375
f 344/505/376 360/508/376 345/472/376
f 353/474/377 367/507/377 368/509/377
f 346/475/378 360/508/378 361/510/378
f 339/477/379 1/465/379 354/511/379
f 8/19/380 353/474/380 368/509/380
f 347/479/381 361/510/381 362/512/381
f 340/481/382 354/513/382 355/514/382
f 347/479/383 363/515/383 348/482/383
f 341/485/384 355/514/384 356/497/384
f 368/509/385 382/516/385 383/517/385
f 361/510/386 375/518/386 376/519/386
f 354/511/387 1/465/387 369/520/387
f 8/19/388 368/509/388 383/517/388
f 362/512/389 376/519/389 377/521/389
f 354/513/390 370/522/390 355/514/390
f 362/512/391 378/523/391 363/515/391
f 355/514/392 371/524/392 356/497/392
f 363/515/393 379/525/393 364/495/393
f 356/497/394 372/526/394 357/498/394
f 364/495/395 380/527/395 365/499/395
f 357/501/396 373/528/396 358/502/396
f 366/504/397 380/529/397 381/530/397
f 359/506/398 373/528/398 374/531/398
f 367/507/399 381/530/399 382/516/399
f 360/508/400 374/531/400 375/518/400
f 371/524/401 387/532/401 372/526/401
f 380/527/402 394/533/402 395/534/402
f 372/535/403 388/536/403 373/528/403
f 381/530/404 395/537/404 396/538/404
f 374/531/405 388/536/405 389/539/405
f 382/516/406 396/538/406 397/540/406
f 375/518/407 389/539/407 390/541/407
f 383/517/408 397/540/408 398/542/408
f 376/519/409 390/541/409 391/543/409
f 369/520/410 1/465/410 384/544/410
f 8/19/411 383/517/411 398/542/411
f 377/521/412 391/543/412 392/545/412
f 369/546/413 385/547/413 370/522/413
f 378/523/414 392/545/414 393/548/414
f 370/522/415 386/549/415 371/524/415
f 379/525/416 393/548/416 394/533/416
f 391/543/417 405/550/417 406/551/417
f 384/544/418 1/465/418 399/552/418
f 8/19/419 398/542/419 413/553/419
f 392/545/420 406/551/420 407/554/420
f 384/555/421 400/556/421 385/547/421
f 393/548/422 407/554/422 408/557/422
f 385/547/423 401/558/423 386/549/423
f 394/533/424 408/557/424 409/559/424
f 386/549/425 402/560/425 387/532/425
f 395/534/426 409/559/426 410/561/426
f 387/562/427 403/563/427 388/536/427
f 396/538/428 410/564/428 411/565/428
f 389/539/429 403/563/429 404/566/429
f 397/540/430 411/565/430 412/567/430
f 390/541/431 404/566/431 405/550/431
f 398/542/432 412/567/432 413/553/432
f 410/561/433 424/568/433 425/569/433
f 402/560/434 418/570/434 403/571/434
f 411/565/435 425/572/435 426/573/435
f 403/563/436 419/574/436 404/566/436
f 412/567/437 426/573/437 427/575/437
f 405/550/438 419/574/438 420/576/438
f 413/553/439 427/575/439 428/577/439
f 406/551/440 420/576/440 421/578/440
f 399/579/441 1/62/441 414/580/441
f 8/19/442 413/553/442 428/577/442
f 407/554/443 421/578/443 422/581/443
f 399/579/444 415/582/444 400/556/444
f 408/557/445 422/581/445 423/583/445
f 400/556/446 416/584/446 401/558/446
f 409/559/447 423/583/447 424/568/447
f 401/558/448 417/585/448 402/560/448
f 414/580/449 1/62/449 429/586/449
f 8/19/450 428/577/450 443/587/450
f 422/581/451 436/588/451 437/589/451
f 414/580/452 430/590/452 415/582/452
f 423/583/453 437/589/453 438/591/453
f 415/582/454 431/592/454 416/584/454
f 424/568/455 438/591/455 439/593/455
f 416/584/456 432/594/456 417/585/456
f 425/572/457 439/595/457 440/596/457
f 417/585/458 433/597/458 418/570/458
f 426/573/459 440/596/459 441/598/459
f 418/599/460 434/600/460 419/574/460
f 427/575/461 441/598/461 442/601/461
f 419/574/462 435/602/462 420/576/462
f 428/577/463 442/601/463 443/587/463
f 421/578/464 435/602/464 436/588/464
f 432/594/465 448/603/465 433/597/465
f 441/598/466 455/604/466 456/605/466
f 433/597/467 449/606/467 434/607/467
f 442/601/468 456/605/468 457/608/468
f 434/607/469 450/609/469 435/610/469
f 443/587/470 457/608/470 458/611/470
f 435/610/471 451/612/471 436/613/471
f 429/586/472 1/62/472 444/614/472
f 8/19/473 443/587/473 458/611/473
f 437/615/474 451/612/474 452/616/474
f 429/586/475 445/617/475 430/590/475
f 438/591/476 452/618/476 453/619/476
f 430/590/477 446/620/477 431/592/477
f 439/595/478 453/621/478 454/622/478
f 431/592/479 447/623/479 432/594/479
f 440/596/480 454/622/480 455/604/480
f 452/616/481 466/624/481 467/625/481
f 444/614/482 460/626/482 445/617/482
f 453/627/483 467/625/483 468/628/483
f 445/617/484 461/629/484 446/620/484
f 454/622/485 468/630/485 469/631/485
f 446/620/486 462/632/486 447/623/486
f 455/604/487 469/631/487 470/633/487
f 447/623/488 463/634/488 448/603/488
f 456/605/489 470/633/489 471/635/489
f 448/603/490 464/636/490 449/606/490
f 457/608/491 471/635/491 472/637/491
f 449/606/492 465/638/492 450/609/492
f 458/611/493 472/637/493 473/639/493
f 450/609/494 466/624/494 451/612/494
f 444/614/495 1/62/495 459/640/495
f 8/19/496 458/611/496 473/639/496
f 471/635/497 479/1/497 480/3/497
f 463/641/498 477/4/498 464/642/498
f 472/637/499 480/3/499 481/8/499
f 464/643/500 4/644/500 465/645/500
f 473/639/501 481/8/501 482/12/501
f 465/638/502 5/15/502 466/624/502
f 459/640/503 1/62/503 474/22/503
f 8/19/504 473/639/504 482/12/504
f 466/624/505 6/21/505 467/625/505
f 459/640/506 475/24/506 460/626/506
f 468/628/507 6/21/507 478/26/507
f 460/626/508 2/27/508 461/629/508
f 469/631/509 478/646/509 7/647/509
f 462/632/510 2/27/510 476/32/510
f 470/633/511 7/647/511 479/1/511
f 463/634/512 476/32/512 3/36/512
f 479/1/513 20/35/513 21/2/513
f 477/4/514 3/648/514 13/5/514
f 480/3/515 21/2/515 22/7/515
f 477/4/516 14/6/516 15/9/516
f 481/8/517 22/7/517 23/11/517
f 4/13/518 15/649/518 16/14/518
f 5/15/519 16/14/519 17/20/519
f 474/22/520 9/650/520 10/23/520
f 6/21/521 17/20/521 18/25/521
f 2/27/522 475/24/522 10/23/522
f 478/29/523 18/651/523 19/30/523
f 476/32/524 2/27/524 11/28/524
f 479/1/525 7/647/525 19/34/525
f 3/36/526 476/32/526 12/33/526
f 12/33/527 11/28/527 26/38/527
f 19/34/528 34/60/528 35/40/528
f 13/37/529 12/33/529 27/39/529
f 20/35/530 35/40/530 36/42/530
f 14/6/531 13/5/531 28/43/531
f 21/2/532 36/42/532 37/45/532
f 15/9/533 14/6/533 29/44/533
f 22/7/534 37/45/534 38/47/534
f 16/48/535 15/652/535 30/49/535
f 16/14/536 31/65/536 32/52/536
f 10/23/537 9/650/537 24/53/537
f 17/20/538 32/52/538 33/55/538
f 11/56/539 10/653/539 25/57/539
f 18/59/540 33/70/540 34/60/540
f 30/49/541 45/80/541 46/61/541
f 31/65/542 46/654/542 47/66/542
f 25/54/543 24/53/543 39/63/543
f 32/52/544 47/66/544 48/68/544
f 26/38/545 25/54/545 40/67/545
f 33/70/546 48/98/546 49/71/546
f 27/39/547 26/38/547 41/69/547
f 34/60/548 49/71/548 50/73/548
f 28/41/549 27/39/549 42/72/549
f 35/40/550 50/73/550 51/75/550
f 29/76/551 28/41/551 43/74/551
f 36/42/552 51/75/552 52/78/552
f 30/49/553 29/655/553 44/79/553
f 37/45/554 52/78/554 53/64/554
f 49/71/555 64/100/555 65/81/555
f 43/74/556 42/72/556 57/82/556
f 50/73/557 65/81/557 66/84/557
f 44/77/558 43/74/558 58/83/558
f 51/75/559 66/84/559 67/86/559
f 45/87/560 44/77/560 59/85/560
f 52/78/561 67/86/561 68/89/561
f 45/90/562 60/656/562 61/91/562
f 46/92/563 61/91/563 62/94/563
f 40/67/564 39/63/564 54/93/564
f 47/95/565 62/94/565 63/97/565
f 41/69/566 40/67/566 55/96/566
f 48/98/567 63/97/567 64/100/567
f 42/72/568 41/69/568 56/99/568
f 62/94/569 61/91/569 76/102/569
f 55/96/570 54/93/570 69/104/570
f 62/94/571 77/103/571 78/106/571
f 56/99/572 55/96/572 70/105/572
f 63/97/573 78/106/573 79/108/573
f 57/82/574 56/99/574 71/107/574
f 64/100/575 79/108/575 80/110/575
f 58/83/576 57/82/576 72/109/576
f 65/81/577 80/110/577 81/112/577
f 59/85/578 58/83/578 73/111/578
f 66/84/579 81/112/579 82/114/579
f 60/88/580 59/85/580 74/113/580
f 67/86/581 82/114/581 83/101/581
f 61/91/582 60/656/582 75/116/582
f 80/110/583 95/136/583 96/117/583
f 74/113/584 73/111/584 88/118/584
f 81/112/585 96/117/585 97/120/585
f 75/121/586 74/657/586 89/122/586
f 82/114/587 97/120/587 98/124/587
f 76/125/588 75/121/588 90/123/588
f 77/128/589 76/658/589 91/129/589
f 70/105/590 69/104/590 84/127/590
f 77/103/591 92/139/591 93/132/591
f 71/107/592 70/105/592 85/131/592
f 78/106/593 93/132/593 94/134/593
f 72/109/594 71/107/594 86/133/594
f 79/108/595 94/134/595 95/136/595
f 73/111/596 72/109/596 87/135/596
f 85/131/597 84/127/597 99/137/597
f 92/139/598 107/659/598 108/140/598
f 86/133/599 85/131/599 100/138/599
f 93/132/600 108/140/600 109/142/600
f 87/135/601 86/133/601 101/141/601
f 94/134/602 109/142/602 110/144/602
f 88/118/603 87/135/603 102/143/603
f 95/136/604 110/144/604 111/146/604
f 89/119/605 88/118/605 103/145/605
f 96/117/606 111/146/606 112/148/606
f 90/149/607 89/119/607 104/147/607
f 97/120/608 112/148/608 113/151/608
f 91/129/609 90/149/609 105/150/609
f 92/130/610 91/129/610 106/152/610
f 104/147/611 103/145/611 118/154/611
f 111/146/612 126/172/612 127/156/612
f 105/150/613 104/147/613 119/155/613
f 112/148/614 127/156/614 128/158/614
f 106/159/615 105/660/615 120/160/615
f 106/159/616 121/161/616 122/163/616
f 100/138/617 99/137/617 114/162/617
f 107/164/618 122/163/618 123/166/618
f 101/141/619 100/138/619 115/165/619
f 108/140/620 123/661/620 124/169/620
f 102/143/621 101/141/621 116/168/621
f 109/142/622 124/169/622 125/171/622
f 103/145/623 102/143/623 117/170/623
f 110/144/624 125/171/624 126/172/624
f 122/163/625 137/191/625 138/173/625
f 116/168/626 115/165/626 130/174/626
f 123/166/627 138/173/627 139/176/627
f 116/168/628 131/175/628 132/178/628
f 124/169/629 139/662/629 140/179/629
f 117/180/630 132/206/630 133/181/630
f 125/171/631 140/179/631 141/183/631
f 118/182/632 133/181/632 134/184/632
f 127/156/633 126/172/633 141/183/633
f 119/185/634 134/184/634 135/187/634
f 128/158/635 127/156/635 142/186/635
f 120/160/636 135/187/636 136/189/636
f 121/161/637 136/189/637 137/191/637
f 115/165/638 114/162/638 129/190/638
f 142/186/639 141/183/639 156/192/639
f 134/184/640 149/208/640 150/194/640
f 143/188/641 142/186/641 157/193/641
f 135/187/642 150/194/642 151/196/642
f 136/189/643 151/196/643 152/198/643
f 130/174/644 129/190/644 144/197/644
f 138/173/645 137/191/645 152/198/645
f 130/174/646 145/199/646 146/201/646
f 139/176/647 138/173/647 153/200/647
f 131/175/648 146/201/648 147/203/648
f 140/179/649 139/662/649 154/204/649
f 132/206/650 147/216/650 148/207/650
f 141/183/651 140/179/651 155/205/651
f 133/181/652 148/207/652 149/208/652
f 146/201/653 145/199/653 160/209/653
f 154/202/654 153/200/654 168/211/654
f 146/201/655 161/210/655 162/213/655
f 155/205/656 154/204/656 169/214/656
f 147/216/657 162/238/657 163/217/657
f 156/192/658 155/205/658 170/215/658
f 148/207/659 163/217/659 164/219/659
f 157/193/660 156/192/660 171/218/660
f 149/208/661 164/219/661 165/221/661
f 158/195/662 157/193/662 172/220/662
f 150/194/663 165/221/663 166/223/663
f 151/196/664 166/223/664 167/225/664
f 145/199/665 144/197/665 159/224/665
f 152/198/666 167/225/666 168/211/666
f 164/219/667 179/245/667 180/226/667
f 173/227/668 172/663/668 187/228/668
f 165/221/669 180/226/669 181/230/669
f 166/223/670 181/230/670 182/233/670
f 159/224/671 174/231/671 175/234/671
f 167/225/672 182/233/672 183/235/672
f 161/210/673 160/209/673 175/234/673
f 168/211/674 183/235/674 184/237/674
f 162/238/675 161/664/675 176/239/675
f 170/215/676 169/214/676 184/241/676
f 162/238/677 177/240/677 178/243/677
f 171/218/678 170/215/678 185/242/678
f 163/217/679 178/243/679 179/245/679
f 172/220/680 171/218/680 186/244/680
f 184/247/681 183/665/681 198/248/681
f 176/236/682 191/268/682 192/250/682
f 185/252/683 184/666/683 199/253/683
f 177/240/684 192/287/684 193/255/684
f 186/256/685 185/252/685 200/254/685
f 178/243/686 193/255/686 194/258/686
f 187/228/687 186/256/687 201/257/687
f 179/245/688 194/258/688 195/260/688
f 188/229/689 187/228/689 202/259/689
f 180/226/690 195/260/690 196/262/690
f 181/230/691 196/262/691 197/265/691
f 174/231/692 189/263/692 190/266/692
f 183/235/693 182/233/693 197/265/693
f 175/234/694 190/266/694 191/268/694
f 203/261/695 202/259/695 217/269/695
f 196/271/696 195/667/696 210/272/696
f 197/276/697 196/271/697 211/273/697
f 189/263/698 204/274/698 205/278/698
f 198/279/699 197/276/699 212/277/699
f 190/266/700 205/278/700 206/281/700
f 199/249/701 198/248/701 213/282/701
f 191/268/702 206/281/702 207/284/702
f 200/254/703 199/253/703 214/285/703
f 192/287/704 207/668/704 208/288/704
f 201/257/705 200/254/705 215/286/705
f 194/258/706 193/255/706 208/288/706
f 202/259/707 201/257/707 216/289/707
f 195/260/708 194/258/708 209/290/708
f 215/292/709 214/283/709 229/293/709
f 207/295/710 222/314/710 223/296/710
f 216/289/711 215/286/711 230/298/711
f 209/300/712 208/297/712 223/296/712
f 217/269/713 216/289/713 231/299/713
f 210/272/714 209/300/714 224/301/714
f 218/270/715 217/269/715 232/302/715
f 211/273/716 210/272/716 225/303/716
f 212/277/717 211/273/717 226/305/717
f 204/274/718 219/306/718 220/309/718
f 213/280/719 212/277/719 227/308/719
f 205/278/720 220/309/720 221/311/720
f 214/283/721 213/282/721 228/312/721
f 206/313/722 221/324/722 222/314/722
f 227/308/723 226/305/723 241/317/723
f 219/306/724 234/315/724 235/319/724
f 228/310/725 227/308/725 242/318/725
f 220/309/726 235/319/726 236/321/726
f 229/293/727 228/312/727 243/322/727
f 221/324/728 236/669/728 237/325/728
f 230/294/729 229/293/729 244/323/729
f 223/327/730 222/670/730 237/328/730
f 231/330/731 230/294/731 245/326/731
f 224/332/732 223/327/732 238/329/732
f 232/302/733 231/299/733 246/334/733
f 225/303/734 224/301/734 239/336/734
f 233/304/735 232/302/735 247/335/735
f 226/305/736 225/303/736 240/337/736
f 238/329/737 237/328/737 252/339/737
f 245/326/738 260/358/738 261/341/738
f 239/336/739 238/671/739 253/342/739
f 246/334/740 261/672/740 262/344/740
f 240/337/741 239/336/741 254/343/741
f 247/335/742 262/344/742 263/346/742
f 241/317/743 240/337/743 255/345/743
f 242/318/744 241/317/744 256/347/744
f 234/315/745 249/348/745 250/351/745
f 243/320/746 242/318/746 257/350/746
f 235/353/747 250/673/747 251/354/747
f 244/323/748 243/322/748 258/356/748
f 236/355/749 251/354/749 252/339/749
f 245/326/750 244/323/750 259/357/750
f 257/350/751 256/347/751 271/359/751
f 250/351/752 249/348/752 264/361/752
f 258/352/753 257/350/753 272/360/753
f 250/364/754 265/674/754 266/365/754
f 259/367/755 258/352/755 273/363/755
f 252/369/756 251/366/756 266/365/756
f 260/371/757 259/675/757 274/372/757
f 253/340/758 252/339/758 267/374/758
f 260/371/759 275/373/759 276/376/759
f 254/343/760 253/342/760 268/378/760
f 261/377/761 276/376/761 277/380/761
f 255/345/762 254/343/762 269/379/762
f 262/381/763 277/380/763 278/383/763
f 256/347/764 255/345/764 270/382/764
f 275/373/765 290/405/765 291/386/765
f 269/379/766 268/378/766 283/387/766
f 276/376/767 291/386/767 292/389/767
f 270/382/768 269/379/768 284/388/768
f 277/380/769 292/389/769 293/391/769
f 271/359/770 270/382/770 285/390/770
f 272/360/771 271/359/771 286/392/771
f 265/362/772 264/361/772 279/393/772
f 273/363/773 272/360/773 287/395/773
f 266/365/774 265/674/774 280/398/774
f 274/368/775 273/363/775 288/397/775
f 267/401/776 266/676/776 281/402/776
f 275/373/777 274/372/777 289/404/777
f 268/378/778 267/370/778 282/406/778
f 280/396/779 279/393/779 294/407/779
f 288/397/780 287/395/780 302/409/780
f 281/399/781 280/398/781 295/411/781
f 289/400/782 288/397/782 303/410/782
f 282/406/783 281/399/783 296/412/783
f 290/415/784 289/400/784 304/413/784
f 283/387/785 282/406/785 297/414/785
f 290/405/786 305/677/786 306/418/786
f 284/388/787 283/387/787 298/417/787
f 291/386/788 306/418/788 307/420/788
f 285/390/789 284/388/789 299/419/789
f 292/389/790 307/420/790 308/422/790
f 285/390/791 300/421/791 301/423/791
f 287/395/792 286/392/792 301/423/792
f 299/425/793 298/443/793 313/426/793
f 306/428/794 321/446/794 322/429/794
f 299/419/795 314/459/795 315/431/795
f 307/430/796 322/429/796 323/432/796
f 300/421/797 315/431/797 316/433/797
f 302/409/798 301/423/798 316/433/798
f 295/408/799 294/407/799 309/434/799
f 303/410/800 302/409/800 317/435/800
f 296/412/801 295/411/801 310/438/801
f 304/413/802 303/410/802 318/437/802
f 297/414/803 296/412/803 311/439/803
f 304/413/804 319/440/804 320/442/804
f 298/443/805 297/678/805 312/444/805
f 305/445/806 320/456/806 321/446/806
f 318/437/807 317/435/807 332/447/807
f 311/439/808 310/438/808 325/449/808
f 319/440/809 318/437/809 333/448/809
f 312/441/810 311/439/810 326/450/810
f 319/440/811 334/451/811 335/453/811
f 313/454/812 312/441/812 327/452/812
f 320/456/813 335/679/813 336/457/813
f 313/454/814 328/455/814 329/458/814
f 321/446/815 336/457/815 337/460/815
f 314/459/816 329/458/816 330/461/816
f 322/429/817 337/460/817 338/462/817
f 315/431/818 330/461/818 331/463/818
f 317/435/819 316/433/819 331/463/819
f 310/436/820 309/434/820 324/467/820
f 337/460/821 336/457/821 351/469/821
f 329/471/822 344/505/822 345/472/822
f 337/460/823 352/470/823 353/474/823
f 330/473/824 345/472/824 346/475/824
f 332/478/825 331/476/825 346/475/825
f 325/468/826 324/467/826 339/480/826
f 332/478/827 347/479/827 348/482/827
f 326/484/828 325/468/828 340/481/828
f 333/483/829 348/482/829 349/486/829
f 327/452/830 326/450/830 341/488/830
f 334/487/831 349/486/831 350/490/831
f 328/455/832 327/452/832 342/489/832
f 336/457/833 335/679/833 350/493/833
f 328/455/834 343/492/834 344/494/834
f 348/482/835 363/515/835 364/495/835
f 342/496/836 341/485/836 356/497/836
f 349/486/837 364/495/837 365/499/837
f 343/500/838 342/680/838 357/501/838
f 351/469/839 350/493/839 365/503/839
f 344/505/840 343/500/840 358/502/840
f 352/470/841 351/469/841 366/504/841
f 344/505/842 359/506/842 360/508/842
f 353/474/843 352/470/843 367/507/843
f 346/475/844 345/472/844 360/508/844
f 347/479/845 346/475/845 361/510/845
f 340/481/846 339/480/846 354/513/846
f 347/479/847 362/512/847 363/515/847
f 341/485/848 340/481/848 355/514/848
f 368/509/849 367/507/849 382/516/849
f 361/510/850 360/508/850 375/518/850
f 362/512/851 361/510/851 376/519/851
f 354/513/852 369/546/852 370/522/852
f 362/512/853 377/521/853 378/523/853
f 355/514/854 370/522/854 371/524/854
f 363/515/855 378/523/855 379/525/855
f 356/497/856 371/524/856 372/526/856
f 364/495/857 379/525/857 380/527/857
f 357/501/858 372/535/858 373/528/858
f 366/504/859 365/503/859 380/529/859
f 359/506/860 358/502/860 373/528/860
f 367/507/861 366/504/861 381/530/861
f 360/508/862 359/506/862 374/531/862
f 371/524/863 386/549/863 387/532/863
f 380/527/864 379/525/864 394/533/864
f 372/535/865 387/562/865 388/536/865
f 381/530/866 380/529/866 395/537/866
f 374/531/867 373/528/867 388/536/867
f 382/516/868 381/530/868 396/538/868
f 375/518/869 374/531/869 389/539/869
f 383/517/870 382/516/870 397/540/870
f 376/519/871 375/518/871 390/541/871
f 377/521/872 376/519/872 391/543/872
f 369/546/873 384/555/873 385/547/873
f 378/523/874 377/521/874 392/545/874
f 370/522/875 385/547/875 386/549/875
f 379/525/876 378/523/876 393/548/876
f 391/543/877 390/541/877 405/550/877
f 392/545/878 391/543/878 406/551/878
f 384/555/879 399/579/879 400/556/879
f 393/548/880 392/545/880 407/554/880
f 385/547/881 400/556/881 401/558/881
f 394/533/882 393/548/882 408/557/882
f 386/549/883 401/558/883 402/560/883
f 395/534/884 394/533/884 409/559/884
f 387/562/885 402/681/885 403/563/885
f 396/538/886 395/537/886 410/564/886
f 389/539/887 388/536/887 403/563/887
f 397/540/888 396/538/888 411/565/888
f 390/541/889 389/539/889 404/566/889
f 398/542/890 397/540/890 412/567/890
f 410/561/891 409/559/891 424/568/891
f 402/560/892 417/585/892 418/570/892
f 411/565/893 410/564/893 425/572/893
f 403/563/894 418/599/894 419/574/894
f 412/567/895 411/565/895 426/573/895
f 405/550/896 404/566/896 419/574/896
f 413/553/897 412/567/897 427/575/897
f 406/551/898 405/550/898 420/576/898
f 407/554/899 406/551/899 421/578/899
f 399/579/900 414/580/900 415/582/900
f 408/557/901 407/554/901 422/581/901
f 400/556/902 415/582/902 416/584/902
f 409/559/903 408/557/903 423/583/903
f 401/558/904 416/584/904 417/585/904
f 422/581/905 421/578/905 436/588/905
f 414/580/906 429/586/906 430/590/906
f 423/583/907 422/581/907 437/589/907
f 415/582/908 430/590/908 431/592/908
f 424/568/909 423/583/909 438/591/909
f 416/584/910 431/592/910 432/594/910
f 425/572/911 424/682/911 439/595/911
f 417/585/912 432/594/912 433/597/912
f 426/573/913 425/572/913 440/596/913
f 418/599/914 433/683/914 434/600/914
f 427/575/915 426/573/915 441/598/915
f 419/574/916 434/600/916 435/602/916
f 428/577/917 427/575/917 442/601/917
f 421/578/918 420/576/918 435/602/918
f 432/594/919 447/623/919 448/603/919
f 441/598/920 440/596/920 455/604/920
f 433/597/921 448/603/921 449/606/921
f 442/601/922 441/598/922 456/605/922
f 434/607/923 449/606/923 450/609/923
f 443/587/924 442/601/924 457/608/924
f 435/610/925 450/609/925 451/612/925
f 437/615/926 436/613/926 451/612/926
f 429/586/927 444/614/927 445/617/927
f 438/591/928 437/589/928 452/618/928
f 430/590/929 445/617/929 446/620/929
f 439/595/930 438/684/930 453/621/930
f 431/592/931 446/620/931 447/623/931
f 440/596/932 439/595/932 454/622/932
f 452/616/933 451/612/933 466/624/933
f 444/614/934 459/640/934 460/626/934
f 453/627/935 452/616/935 467/625/935
f 445/617/936 460/626/936 461/629/936
f 454/622/937 453/621/937 468/630/937
f 446/620/938 461/629/938 462/632/938
f 455/604/939 454/622/939 469/631/939
f 447/623/940 462/632/940 463/634/940
f 456/605/941 455/604/941 470/633/941
f 448/603/942 463/634/942 464/636/942
f 457/608/943 456/605/943 471/635/943
f 449/606/944 464/636/944 465/638/944
f 458/611/945 457/608/945 472/637/945
f 450/609/946 465/638/946 466/624/946
f 471/635/947 470/633/947 479/1/947
f 463/641/948 3/648/948 477/4/948
f 472/637/949 471/635/949 480/3/949
f 464/643/950 477/685/950 4/644/950
f 473/639/951 472/637/951 481/8/951
f 465/638/952 4/13/952 5/15/952
f 466/624/953 5/15/953 6/21/953
f 459/640/954 474/22/954 475/24/954
f 468/628/955 467/625/955 6/21/955
f 460/626/956 475/24/956 2/27/956
f 469/631/957 468/630/957 478/646/957
f 462/632/958 461/629/958 2/27/958
f 470/633/959 469/631/959 7/647/959
f 463/634/960 462/632/960 476/32/960
