# Blender 5.1.0
# www.blender.org
mtllib 8.mtl
o 8
v -0.134211 0.103289 0.230000
v 0.004605 0.225658 0.230000
v 0.136184 0.121711 0.230000
v 0.063158 0.018421 0.230000
v 0.157237 -0.107237 0.230000
v -0.001316 -0.249342 0.230000
v -0.155263 -0.129605 0.230000
v -0.053947 -0.011842 0.230000
v 0.115132 -0.131579 0.230000
v -0.026316 -0.023684 0.230000
v -0.105921 -0.127632 0.230000
v 0.002632 -0.223684 0.230000
v 0.091447 0.115789 0.230000
v 0.000000 0.201974 0.230000
v -0.089474 0.127632 0.230000
v 0.031579 0.030263 0.230000
v -0.134211 0.103289 -0.230000
v 0.004605 0.225658 -0.230000
v 0.136184 0.121711 -0.230000
v 0.063158 0.018421 -0.230000
v 0.157237 -0.107237 -0.230000
v -0.001316 -0.249342 -0.230000
v -0.155263 -0.129605 -0.230000
v -0.053947 -0.011842 -0.230000
v 0.115132 -0.131579 -0.230000
v -0.026316 -0.023684 -0.230000
v -0.105921 -0.127632 -0.230000
v 0.002632 -0.223684 -0.230000
v 0.091447 0.115789 -0.230000
v 0.000000 0.201974 -0.230000
v -0.089474 0.127632 -0.230000
v 0.031579 0.030263 -0.230000
v -0.134211 0.103289 -0.230000
v -0.146546 0.104774 -0.228532
v -0.157674 0.106113 -0.224270
v -0.166506 0.107175 -0.217634
v -0.172176 0.107857 -0.209270
v -0.174129 0.108092 -0.200000
v -0.174129 0.108092 0.200000
v -0.172176 0.107857 0.209270
v -0.166506 0.107175 0.217634
v -0.157674 0.106113 0.224270
v -0.146546 0.104774 0.228532
v -0.134211 0.103289 0.230000
v 0.004605 0.225658 -0.230000
v 0.004280 0.237729 -0.228532
v 0.003986 0.248619 -0.224270
v 0.003753 0.257261 -0.217634
v 0.003604 0.262810 -0.209270
v 0.003552 0.264722 -0.200000
v 0.003552 0.264722 0.200000
v 0.003604 0.262810 0.209271
v 0.003753 0.257261 0.217634
v 0.003986 0.248619 0.224271
v 0.004280 0.237729 0.228532
v 0.004605 0.225658 0.230000
v 0.136184 0.121711 -0.230000
v 0.148828 0.123536 -0.228532
v 0.160235 0.125183 -0.224270
v 0.169287 0.126490 -0.217634
v 0.175099 0.127329 -0.209270
v 0.177101 0.127618 -0.200000
v 0.177101 0.127618 0.200000
v 0.175099 0.127329 0.209270
v 0.169287 0.126490 0.217634
v 0.160235 0.125183 0.224270
v 0.148828 0.123536 0.228532
v 0.136184 0.121711 0.230000
v 0.063158 0.018421 -0.230000
v 0.074622 0.018577 -0.228532
v 0.084964 0.018718 -0.224270
v 0.093171 0.018830 -0.217634
v 0.098440 0.018902 -0.209270
v 0.100256 0.018927 -0.200000
v 0.100256 0.018927 0.200000
v 0.098440 0.018902 0.209270
v 0.093171 0.018830 0.217634
v 0.084964 0.018718 0.224270
v 0.074622 0.018577 0.228532
v 0.063158 0.018421 0.230000
v 0.157237 -0.107237 -0.230000
v 0.169745 -0.108475 -0.228532
v 0.181029 -0.109593 -0.224270
v 0.189983 -0.110479 -0.217634
v 0.195733 -0.111049 -0.209270
v 0.197714 -0.111245 -0.200000
v 0.197714 -0.111245 0.200000
v 0.195733 -0.111049 0.209270
v 0.189983 -0.110479 0.217634
v 0.181029 -0.109593 0.224270
v 0.169745 -0.108475 0.228532
v 0.157237 -0.107237 0.230000
v -0.001316 -0.249342 -0.230000
v -0.000895 -0.261414 -0.228532
v -0.000515 -0.272304 -0.224271
v -0.000214 -0.280947 -0.217634
v -0.000020 -0.286495 -0.209271
v 0.000046 -0.288407 -0.200000
v 0.000046 -0.288407 0.200000
v -0.000020 -0.286495 0.209270
v -0.000214 -0.280947 0.217634
v -0.000515 -0.272304 0.224270
v -0.000895 -0.261414 0.228532
v -0.001316 -0.249342 0.230000
v -0.155263 -0.129605 -0.230000
v -0.168643 -0.130943 -0.228532
v -0.180714 -0.132150 -0.224270
v -0.190293 -0.133107 -0.217634
v -0.196443 -0.133722 -0.209270
v -0.198562 -0.133934 -0.200000
v -0.198562 -0.133934 0.200000
v -0.196443 -0.133722 0.209270
v -0.190293 -0.133107 0.217634
v -0.180714 -0.132150 0.224270
v -0.168643 -0.130943 0.228532
v -0.155263 -0.129605 0.230000
v -0.053947 -0.011842 -0.230000
v -0.065664 -0.011246 -0.228532
v -0.076233 -0.010708 -0.224270
v -0.084621 -0.010282 -0.217634
v -0.090007 -0.010008 -0.209270
v -0.091863 -0.009913 -0.200000
v -0.091863 -0.009913 0.200000
v -0.090007 -0.010008 0.209270
v -0.084621 -0.010282 0.217634
v -0.076233 -0.010708 0.224270
v -0.065664 -0.011246 0.228532
v -0.053947 -0.011842 0.230000
v 0.115132 -0.131579 -0.230000
v 0.100183 -0.131836 -0.228532
v 0.086698 -0.132068 -0.224270
v 0.075996 -0.132252 -0.217634
v 0.069125 -0.132371 -0.209270
v 0.066758 -0.132411 -0.200000
v 0.066758 -0.132411 0.200000
v 0.069125 -0.132371 0.209270
v 0.075996 -0.132252 0.217634
v 0.086698 -0.132068 0.224270
v 0.100183 -0.131836 0.228532
v 0.115132 -0.131579 0.230000
v -0.026316 -0.023684 -0.230000
v -0.024581 -0.036667 -0.228532
v -0.023017 -0.048379 -0.224270
v -0.021775 -0.057673 -0.217634
v -0.020978 -0.063641 -0.209270
v -0.020703 -0.065697 -0.200000
v -0.020703 -0.065697 0.200000
v -0.020978 -0.063641 0.209270
v -0.021775 -0.057673 0.217634
v -0.023017 -0.048379 0.224270
v -0.024581 -0.036667 0.228532
v -0.026316 -0.023684 0.230000
v -0.105921 -0.127632 -0.230000
v -0.093310 -0.126412 -0.228532
v -0.081934 -0.125311 -0.224270
v -0.072905 -0.124438 -0.217634
v -0.067109 -0.123877 -0.209270
v -0.065111 -0.123684 -0.200000
v -0.065111 -0.123684 0.200000
v -0.067109 -0.123877 0.209270
v -0.072905 -0.124438 0.217634
v -0.081934 -0.125311 0.224270
v -0.093310 -0.126412 0.228532
v -0.105921 -0.127632 0.230000
v 0.002632 -0.223684 -0.230000
v 0.002865 -0.211512 -0.228532
v 0.003075 -0.200531 -0.224271
v 0.003242 -0.191817 -0.217634
v 0.003350 -0.186222 -0.209271
v 0.003387 -0.184294 -0.200000
v 0.003387 -0.184294 0.200000
v 0.003350 -0.186222 0.209270
v 0.003242 -0.191817 0.217634
v 0.003075 -0.200531 0.224270
v 0.002865 -0.211512 0.228532
v 0.002632 -0.223684 0.230000
v 0.091447 0.115789 -0.230000
v 0.079257 0.114540 -0.228532
v 0.068259 0.113413 -0.224270
v 0.059531 0.112518 -0.217634
v 0.053928 0.111944 -0.209270
v 0.051997 0.111746 -0.200000
v 0.051997 0.111746 0.200000
v 0.053928 0.111944 0.209270
v 0.059531 0.112518 0.217634
v 0.068259 0.113413 0.224270
v 0.079257 0.114540 0.228532
v 0.091447 0.115789 0.230000
v 0.000000 0.201974 -0.230000
v -0.000387 0.189599 -0.228532
v -0.000736 0.178436 -0.224270
v -0.001013 0.169577 -0.217634
v -0.001190 0.163889 -0.209270
v -0.001252 0.161930 -0.200000
v -0.001252 0.161930 0.200000
v -0.001190 0.163889 0.209270
v -0.001013 0.169577 0.217634
v -0.000736 0.178436 0.224271
v -0.000387 0.189599 0.228532
v 0.000000 0.201974 0.230000
v -0.089474 0.127632 -0.230000
v -0.074827 0.127748 -0.228532
v -0.061615 0.127853 -0.224270
v -0.051129 0.127936 -0.217634
v -0.044397 0.127990 -0.209270
v -0.042077 0.128008 -0.200000
v -0.042077 0.128008 0.200000
v -0.044397 0.127990 0.209270
v -0.051129 0.127936 0.217634
v -0.061615 0.127853 0.224270
v -0.074827 0.127748 0.228532
v -0.089474 0.127632 0.230000
v 0.031579 0.030263 -0.230000
v 0.029667 0.043698 -0.228532
v 0.027943 0.055818 -0.224270
v 0.026574 0.065436 -0.217634
v 0.025695 0.071612 -0.209270
v 0.025393 0.073739 -0.200000
v 0.025393 0.073739 0.200000
v 0.025695 0.071612 0.209270
v 0.026574 0.065436 0.217634
v 0.027943 0.055818 0.224270
v 0.029667 0.043698 0.228532
v 0.031579 0.030263 0.230000
vn -0.0000 -0.0000 1.0000
vn -0.0000 -0.0000 -1.0000
vn -0.0079 0.2947 -0.9556
vn -0.1165 0.0140 -0.9931
vn -0.2877 0.0346 -0.9571
vn -0.0144 0.5346 -0.8450
vn -0.5227 0.0629 -0.8502
vn -0.0205 0.7600 -0.6497
vn -0.7477 0.0900 -0.6579
vn -0.0251 0.9329 -0.3593
vn -0.9239 0.1112 -0.3661
vn -0.0268 0.9949 -0.0976
vn -0.9879 0.1189 -0.1001
vn -0.0268 0.9949 0.0976
vn -0.9879 0.1189 0.1001
vn -0.9239 0.1112 0.3661
vn -0.7477 0.0900 0.6579
vn -0.0251 0.9329 0.3593
vn -0.5227 0.0629 0.8502
vn -0.0205 0.7599 0.6497
vn -0.2877 0.0346 0.9571
vn -0.0144 0.5346 0.8450
vn -0.1165 0.0140 0.9931
vn -0.0079 0.2947 0.9556
vn 0.1130 0.0163 -0.9935
vn -0.0033 0.1207 -0.9927
vn 0.2818 0.0407 -0.9586
vn 0.5129 0.0741 -0.8552
vn 0.7382 0.1066 -0.6661
vn 0.9184 0.1326 -0.3729
vn 0.9845 0.1422 0.1025
vn 0.9184 0.1326 0.3729
vn 0.7382 0.1066 0.6661
vn 0.5129 0.0741 0.8552
vn 0.2818 0.0407 0.9586
vn 0.1130 0.0163 0.9935
vn -0.0033 0.1207 0.9927
vn 0.2060 0.0028 -0.9785
vn 0.4657 0.0063 -0.8849
vn 0.7168 0.0098 -0.6972
vn 0.9186 0.0125 -0.3950
vn 0.9949 0.0136 -0.1002
vn 0.9845 0.1421 -0.1025
vn 0.9949 0.0136 0.1002
vn 0.9186 0.0125 0.3950
vn 0.7168 0.0098 0.6972
vn 0.4657 0.0063 0.8849
vn 0.2060 0.0028 0.9785
vn 0.1155 -0.0114 -0.9932
vn 0.1270 0.0017 -0.9919
vn 0.2863 -0.0283 -0.9577
vn 0.5205 -0.0515 -0.8523
vn 0.7465 -0.0739 -0.6613
vn 0.9249 -0.0916 -0.3689
vn 0.9900 -0.0980 0.1011
vn 0.9249 -0.0916 0.3689
vn 0.7465 -0.0739 0.6613
vn 0.5205 -0.0515 0.8523
vn 0.2863 -0.0283 0.9577
vn 0.1155 -0.0114 0.9932
vn 0.1270 0.0017 0.9919
vn 0.0103 -0.2946 -0.9556
vn 0.0186 -0.5344 -0.8450
vn 0.0265 -0.7597 -0.6497
vn 0.0325 -0.9326 -0.3594
vn 0.0347 -0.9946 -0.0976
vn 0.9900 -0.0980 -0.1011
vn 0.0347 -0.9946 0.0976
vn 0.0325 -0.9326 0.3594
vn 0.0265 -0.7597 0.6497
vn 0.0186 -0.5344 0.8450
vn 0.0103 -0.2946 0.9556
vn -0.1080 -0.0108 -0.9941
vn 0.0042 -0.1206 -0.9927
vn -0.2740 -0.0274 -0.9613
vn -0.5004 -0.0500 -0.8643
vn -0.7286 -0.0728 -0.6810
vn -0.9181 -0.0918 -0.3856
vn -0.9893 -0.0989 -0.1073
vn -0.9181 -0.0918 0.3856
vn -0.7286 -0.0728 0.6810
vn -0.5004 -0.0500 0.8643
vn -0.2740 -0.0274 0.9613
vn -0.1080 -0.0108 0.9941
vn 0.0042 -0.1206 0.9927
vn -0.1989 0.0101 -0.9800
vn -0.4547 0.0231 -0.8903
vn -0.7063 0.0359 -0.7070
vn -0.9136 0.0465 -0.4040
vn -0.9934 0.0505 -0.1028
vn -0.9934 0.0505 0.1028
vn -0.9893 -0.0989 0.1073
vn -0.9136 0.0465 0.4040
vn -0.7063 0.0359 0.7070
vn -0.4547 0.0231 0.8903
vn -0.1989 0.0101 0.9800
vn -0.1240 0.0063 -0.9923
vn -0.1240 0.0063 0.9923
vn -0.1424 -0.0025 -0.9898
vn 0.0148 -0.1104 -0.9938
vn -0.0977 -0.0017 -0.9952
vn -0.3566 -0.0061 -0.9342
vn 0.0226 -0.1689 -0.9854
vn -0.6026 -0.0104 -0.7980
vn 0.0540 -0.4044 -0.9130
vn -0.8638 -0.0149 -0.5037
vn 0.0874 -0.6545 -0.7510
vn -0.9909 -0.0170 -0.1332
vn 0.1184 -0.8860 -0.4483
vn 0.1315 -0.9845 0.1157
vn -0.9909 -0.0171 0.1332
vn 0.1184 -0.8860 0.4483
vn -0.8638 -0.0149 0.5037
vn 0.0874 -0.6545 0.7510
vn -0.6026 -0.0104 0.7980
vn 0.0540 -0.4044 0.9130
vn -0.3566 -0.0061 0.9342
vn 0.0226 -0.1689 0.9854
vn -0.1424 -0.0025 0.9898
vn 0.0148 -0.1104 0.9938
vn -0.0977 -0.0017 0.9952
vn 0.1146 0.0111 -0.9934
vn 0.1777 0.0172 -0.9839
vn 0.4198 0.0406 -0.9067
vn 0.6715 0.0650 -0.7382
vn 0.1315 -0.9845 -0.1157
vn 0.8964 0.0867 -0.4348
vn 0.9891 0.0957 -0.1116
vn 0.8964 0.0867 0.4348
vn 0.6715 0.0650 0.7382
vn 0.4198 0.0406 0.9067
vn 0.1777 0.0172 0.9839
vn 0.1146 0.0111 0.9934
vn 0.0023 0.1197 -0.9928
vn 0.0036 0.1888 -0.9820
vn 0.0084 0.4388 -0.8985
vn 0.0133 0.6915 -0.7223
vn 0.0174 0.9079 -0.4187
vn 0.0191 0.9941 0.1069
vn 0.9891 0.0957 0.1116
vn 0.0174 0.9079 0.4187
vn 0.0133 0.6915 0.7223
vn 0.0084 0.4388 0.8985
vn 0.0036 0.1888 0.9820
vn 0.0023 0.1197 0.9928
vn 0.0191 0.9941 -0.1069
vn -0.0058 -0.1843 -0.9829
vn -0.1183 -0.0121 -0.9929
vn -0.1861 -0.0191 -0.9823
vn -0.0135 -0.4314 -0.9021
vn -0.4338 -0.0445 -0.8999
vn -0.0214 -0.6842 -0.7290
vn -0.6852 -0.0702 -0.7249
vn -0.0283 -0.9045 -0.4254
vn -0.9022 -0.0925 -0.4213
vn -0.0311 -0.9936 -0.1089
vn -0.9890 -0.1014 -0.1077
vn -0.0310 -0.9936 0.1089
vn -0.9890 -0.1014 0.1077
vn -0.9022 -0.0925 0.4213
vn -0.6852 -0.0702 0.7249
vn -0.0283 -0.9045 0.4254
vn -0.4338 -0.0445 0.8999
vn -0.0214 -0.6842 0.7290
vn -0.1861 -0.0191 0.9823
vn -0.0135 -0.4314 0.9021
vn -0.1183 -0.0121 0.9929
vn -0.0058 -0.1843 0.9829
vn 0.1464 0.0012 -0.9892
vn -0.0037 -0.1177 -0.9930
vn 0.3642 0.0029 -0.9313
vn 0.6117 0.0049 -0.7911
vn 0.8689 0.0069 -0.4949
vn 0.9914 0.0079 -0.1303
vn 0.9914 0.0079 0.1303
vn 0.8689 0.0069 0.4949
vn 0.6117 0.0049 0.7911
vn 0.3642 0.0029 0.9313
vn -0.0037 -0.1177 0.9930
vn 0.1464 0.0012 0.9892
vn -0.0152 0.1065 -0.9942
vn 0.0997 0.0008 -0.9950
vn -0.0229 0.1607 -0.9867
vn -0.0555 0.3897 -0.9193
vn -0.0909 0.6386 -0.7642
vn -0.1249 0.8776 -0.4629
vn -0.1399 0.9829 0.1201
vn -0.1249 0.8776 0.4629
vn -0.0909 0.6386 0.7642
vn -0.0555 0.3897 0.9193
vn -0.0229 0.1607 0.9867
vn -0.0152 0.1065 0.9942
vn 0.0997 0.0008 0.9950
vn -0.1399 0.9829 -0.1201
vt 0.666667 0.000000
vt 0.400000 0.000000
vt 0.333333 0.000000
vt 0.600000 0.000000
vt 0.466667 0.000000
vt 0.933333 0.000000
vt 0.000000 0.000000
vt 0.533333 0.000000
vt 0.266667 0.000000
vt 0.200000 0.000000
vt 0.133333 0.000000
vt 0.800000 0.000000
vt 1.000000 0.000000
vt 0.066667 0.000000
vt 0.733333 0.000000
vt 0.866667 0.000000
vt 0.125000 0.090909
vt 0.000000 0.090909
vt 0.125000 0.181818
vt 0.000000 0.181818
vt 0.125000 0.272727
vt 0.000000 0.272727
vt 0.125000 0.363636
vt 0.000000 0.363636
vt 0.125000 0.454545
vt 0.000000 0.454545
vt 0.125000 0.545455
vt 0.000000 0.545455
vt 0.000000 0.636364
vt 0.000000 0.727273
vt 0.125000 0.636364
vt 0.000000 0.818182
vt 0.125000 0.727273
vt 0.000000 0.909091
vt 0.125000 0.818182
vt 0.000000 1.000000
vt 0.125000 0.909091
vt 0.250000 0.000000
vt 0.125000 0.000000
vt 0.250000 0.090909
vt 0.250000 0.181818
vt 0.250000 0.272727
vt 0.250000 0.363636
vt 0.250000 0.545455
vt 0.250000 0.636364
vt 0.250000 0.727273
vt 0.250000 0.818182
vt 0.250000 0.909091
vt 0.250000 1.000000
vt 0.125000 1.000000
vt 0.375000 0.090909
vt 0.375000 0.181818
vt 0.375000 0.272727
vt 0.375000 0.363636
vt 0.375000 0.454545
vt 0.250000 0.454545
vt 0.375000 0.545455
vt 0.375000 0.636364
vt 0.375000 0.727273
vt 0.375000 0.818182
vt 0.375000 0.909091
vt 0.500000 0.000000
vt 0.375000 0.000000
vt 0.500000 0.090909
vt 0.500000 0.181818
vt 0.500000 0.272727
vt 0.500000 0.363636
vt 0.500000 0.545455
vt 0.500000 0.636364
vt 0.500000 0.727273
vt 0.500000 0.818182
vt 0.500000 0.909091
vt 0.500000 1.000000
vt 0.375000 1.000000
vt 0.625000 0.090909
vt 0.625000 0.181818
vt 0.625000 0.272727
vt 0.625000 0.363636
vt 0.625000 0.454545
vt 0.500000 0.454545
vt 0.625000 0.545455
vt 0.625000 0.636364
vt 0.625000 0.727273
vt 0.625000 0.818182
vt 0.625000 0.909091
vt 0.750000 0.000000
vt 0.625000 0.000000
vt 0.750000 0.090909
vt 0.750000 0.181818
vt 0.750000 0.272727
vt 0.750000 0.363636
vt 0.750000 0.454545
vt 0.750000 0.636364
vt 0.750000 0.727273
vt 0.750000 0.818182
vt 0.750000 0.909091
vt 0.750000 1.000000
vt 0.625000 1.000000
vt 0.875000 0.090909
vt 0.875000 0.181818
vt 0.875000 0.272727
vt 0.875000 0.363636
vt 0.875000 0.454545
vt 0.875000 0.545455
vt 0.750000 0.545455
vt 0.875000 0.636364
vt 0.875000 0.727273
vt 0.875000 0.818182
vt 0.875000 0.909091
vt 0.875000 0.000000
vt 1.000000 0.090909
vt 1.000000 0.181818
vt 1.000000 0.272727
vt 1.000000 0.363636
vt 1.000000 0.545455
vt 1.000000 0.636364
vt 1.000000 0.727273
vt 1.000000 0.818182
vt 1.000000 0.909091
vt 1.000000 1.000000
vt 0.875000 1.000000
vt 1.000000 0.454545
s 0
usemtl マテリアル.026
f 11/1/1 7/2/1 6/3/1
f 10/4/1 8/5/1 11/1/1
f 7/2/1 11/1/1 8/5/1
f 15/6/1 1/7/1 8/5/1
f 9/8/1 5/9/1 4/10/1
f 3/11/1 13/12/1 4/10/1
f 16/13/1 4/10/1 13/12/1
f 13/12/1 3/11/1 2/14/1
f 5/9/1 9/8/1 6/3/1
f 9/8/1 12/15/1 6/3/1
f 11/1/1 6/3/1 12/15/1
f 9/8/1 4/10/1 10/4/1
f 4/10/1 16/13/1 10/4/1
f 8/5/1 10/4/1 16/13/1
f 15/6/1 8/5/1 16/13/1
f 13/12/1 2/14/1 14/16/1
f 15/6/1 14/16/1 2/14/1
f 1/7/1 15/6/1 2/14/1
f 27/1/2 22/3/2 23/2/2
f 26/4/2 27/1/2 24/5/2
f 23/2/2 24/5/2 27/1/2
f 31/6/2 24/5/2 17/7/2
f 25/8/2 20/10/2 21/9/2
f 19/11/2 20/10/2 29/12/2
f 32/13/2 29/12/2 20/10/2
f 29/12/2 18/14/2 19/11/2
f 21/9/2 22/3/2 25/8/2
f 25/8/2 22/3/2 28/15/2
f 27/1/2 28/15/2 22/3/2
f 25/8/2 26/4/2 20/10/2
f 20/10/2 26/4/2 32/13/2
f 24/5/2 32/13/2 26/4/2
f 31/6/2 32/13/2 24/5/2
f 29/12/2 30/16/2 18/14/2
f 31/6/2 18/14/2 30/16/2
f 17/7/2 18/14/2 31/6/2
s 1
f 46/17/3 33/7/4 34/18/5
f 47/19/6 34/18/5 35/20/7
f 48/21/8 35/20/7 36/22/9
f 49/23/10 36/22/9 37/24/11
f 50/25/12 37/24/11 38/26/13
f 51/27/14 38/26/13 39/28/15
f 40/29/16 51/27/14 39/28/15
f 41/30/17 52/31/18 40/29/16
f 42/32/19 53/33/20 41/30/17
f 43/34/21 54/35/22 42/32/19
f 44/36/23 55/37/24 43/34/21
f 46/17/3 57/38/25 45/39/26
f 47/19/6 58/40/27 46/17/3
f 48/21/8 59/41/28 47/19/6
f 49/23/10 60/42/29 48/21/8
f 50/25/12 61/43/30 49/23/10
f 63/44/31 50/25/12 51/27/14
f 64/45/32 51/27/14 52/31/18
f 65/46/33 52/31/18 53/33/20
f 66/47/34 53/33/20 54/35/22
f 67/48/35 54/35/22 55/37/24
f 68/49/36 55/37/24 56/50/37
f 70/51/38 57/38/25 58/40/27
f 71/52/39 58/40/27 59/41/28
f 72/53/40 59/41/28 60/42/29
f 73/54/41 60/42/29 61/43/30
f 74/55/42 61/43/30 62/56/43
f 63/44/31 74/55/42 62/56/43
f 64/45/32 75/57/44 63/44/31
f 65/46/33 76/58/45 64/45/32
f 66/47/34 77/59/46 65/46/33
f 67/48/35 78/60/47 66/47/34
f 68/49/36 79/61/48 67/48/35
f 70/51/38 81/62/49 69/63/50
f 71/52/39 82/64/51 70/51/38
f 72/53/40 83/65/52 71/52/39
f 73/54/41 84/66/53 72/53/40
f 74/55/42 85/67/54 73/54/41
f 87/68/55 74/55/42 75/57/44
f 88/69/56 75/57/44 76/58/45
f 89/70/57 76/58/45 77/59/46
f 90/71/58 77/59/46 78/60/47
f 91/72/59 78/60/47 79/61/48
f 92/73/60 79/61/48 80/74/61
f 94/75/62 81/62/49 82/64/51
f 95/76/63 82/64/51 83/65/52
f 96/77/64 83/65/52 84/66/53
f 97/78/65 84/66/53 85/67/54
f 98/79/66 85/67/54 86/80/67
f 99/81/68 86/80/67 87/68/55
f 88/69/56 99/81/68 87/68/55
f 89/70/57 100/82/69 88/69/56
f 90/71/58 101/83/70 89/70/57
f 91/72/59 102/84/71 90/71/58
f 92/73/60 103/85/72 91/72/59
f 94/75/62 105/86/73 93/87/74
f 95/76/63 106/88/75 94/75/62
f 96/77/64 107/89/76 95/76/63
f 97/78/65 108/90/77 96/77/64
f 98/79/66 109/91/78 97/78/65
f 99/81/68 110/92/79 98/79/66
f 112/93/80 99/81/68 100/82/69
f 113/94/81 100/82/69 101/83/70
f 114/95/82 101/83/70 102/84/71
f 115/96/83 102/84/71 103/85/72
f 116/97/84 103/85/72 104/98/85
f 118/99/86 105/86/73 106/88/75
f 119/100/87 106/88/75 107/89/76
f 120/101/88 107/89/76 108/90/77
f 121/102/89 108/90/77 109/91/78
f 122/103/90 109/91/78 110/92/79
f 123/104/91 110/92/79 111/105/92
f 112/93/80 123/104/91 111/105/92
f 113/94/81 124/106/93 112/93/80
f 114/95/82 125/107/94 113/94/81
f 115/96/83 126/108/95 114/95/82
f 116/97/84 127/109/96 115/96/83
f 118/99/86 33/13/4 117/110/97
f 119/100/87 34/111/5 118/99/86
f 120/101/88 35/112/7 119/100/87
f 121/102/89 36/113/9 120/101/88
f 122/103/90 37/114/11 121/102/89
f 39/115/15 122/103/90 123/104/91
f 40/116/16 123/104/91 124/106/93
f 41/117/17 124/106/93 125/107/94
f 42/118/19 125/107/94 126/108/95
f 43/119/21 126/108/95 127/109/96
f 44/120/23 127/109/96 128/121/98
f 130/18/99 141/38/100 129/7/101
f 131/20/102 142/40/103 130/18/99
f 132/22/104 143/41/105 131/20/102
f 133/24/106 144/42/107 132/22/104
f 134/26/108 145/43/109 133/24/106
f 147/44/110 134/26/108 135/28/111
f 148/45/112 135/28/111 136/29/113
f 149/46/114 136/29/113 137/30/115
f 150/47/116 137/30/115 138/32/117
f 151/48/118 138/32/117 139/34/119
f 152/49/120 139/34/119 140/36/121
f 142/40/103 153/62/122 141/38/100
f 143/41/105 154/64/123 142/40/103
f 144/42/107 155/65/124 143/41/105
f 145/43/109 156/66/125 144/42/107
f 146/56/126 157/67/127 145/43/109
f 147/44/110 158/80/128 146/56/126
f 160/69/129 147/44/110 148/45/112
f 161/70/130 148/45/112 149/46/114
f 162/71/131 149/46/114 150/47/116
f 163/72/132 150/47/116 151/48/118
f 164/73/133 151/48/118 152/49/120
f 154/64/123 165/86/134 153/62/122
f 155/65/124 166/88/135 154/64/123
f 156/66/125 167/89/136 155/65/124
f 157/67/127 168/90/137 156/66/125
f 158/80/128 169/91/138 157/67/127
f 171/105/139 158/80/128 159/68/140
f 172/93/141 159/68/140 160/69/129
f 173/94/142 160/69/129 161/70/130
f 174/95/143 161/70/130 162/71/131
f 175/96/144 162/71/131 163/72/132
f 176/97/145 163/72/132 164/73/133
f 130/111/99 165/86/134 166/88/135
f 131/112/102 166/88/135 167/89/136
f 132/113/104 167/89/136 168/90/137
f 133/114/106 168/90/137 169/91/138
f 134/122/108 169/91/138 170/92/146
f 171/105/139 134/122/108 170/92/146
f 172/93/141 135/115/111 171/105/139
f 173/94/142 136/116/113 172/93/141
f 174/95/143 137/117/115 173/94/142
f 175/96/144 138/118/117 174/95/143
f 176/97/145 139/119/119 175/96/144
f 190/40/147 177/7/148 178/18/149
f 191/41/150 178/18/149 179/20/151
f 192/42/152 179/20/151 180/22/153
f 193/43/154 180/22/153 181/24/155
f 194/56/156 181/24/155 182/26/157
f 195/44/158 182/26/157 183/28/159
f 184/29/160 195/44/158 183/28/159
f 185/30/161 196/45/162 184/29/160
f 186/32/163 197/46/164 185/30/161
f 187/34/165 198/47/166 186/32/163
f 188/36/167 199/48/168 187/34/165
f 202/64/169 189/38/170 190/40/147
f 203/65/171 190/40/147 191/41/150
f 204/66/172 191/41/150 192/42/152
f 205/67/173 192/42/152 193/43/154
f 206/80/174 193/43/154 194/56/156
f 195/44/158 206/80/174 194/56/156
f 196/45/162 207/68/175 195/44/158
f 197/46/164 208/69/176 196/45/162
f 198/47/166 209/70/177 197/46/164
f 199/48/168 210/71/178 198/47/166
f 200/49/179 211/72/180 199/48/168
f 202/64/169 213/86/181 201/62/182
f 203/65/171 214/88/183 202/64/169
f 204/66/172 215/89/184 203/65/171
f 205/67/173 216/90/185 204/66/172
f 206/80/174 217/91/186 205/67/173
f 219/105/187 206/80/174 207/68/175
f 220/93/188 207/68/175 208/69/176
f 221/94/189 208/69/176 209/70/177
f 222/95/190 209/70/177 210/71/178
f 223/96/191 210/71/178 211/72/180
f 224/97/192 211/72/180 212/73/193
f 214/88/183 177/13/148 213/86/181
f 215/89/184 178/111/149 214/88/183
f 216/90/185 179/112/151 215/89/184
f 217/91/186 180/113/153 216/90/185
f 218/92/194 181/114/155 217/91/186
f 219/105/187 182/122/157 218/92/194
f 184/116/160 219/105/187 220/93/188
f 185/117/161 220/93/188 221/94/189
f 186/118/163 221/94/189 222/95/190
f 187/119/165 222/95/190 223/96/191
f 188/120/167 223/96/191 224/97/192
f 46/17/3 45/39/26 33/7/4
f 47/19/6 46/17/3 34/18/5
f 48/21/8 47/19/6 35/20/7
f 49/23/10 48/21/8 36/22/9
f 50/25/12 49/23/10 37/24/11
f 51/27/14 50/25/12 38/26/13
f 40/29/16 52/31/18 51/27/14
f 41/30/17 53/33/20 52/31/18
f 42/32/19 54/35/22 53/33/20
f 43/34/21 55/37/24 54/35/22
f 44/36/23 56/50/37 55/37/24
f 46/17/3 58/40/27 57/38/25
f 47/19/6 59/41/28 58/40/27
f 48/21/8 60/42/29 59/41/28
f 49/23/10 61/43/30 60/42/29
f 50/25/12 62/56/43 61/43/30
f 63/44/31 62/56/43 50/25/12
f 64/45/32 63/44/31 51/27/14
f 65/46/33 64/45/32 52/31/18
f 66/47/34 65/46/33 53/33/20
f 67/48/35 66/47/34 54/35/22
f 68/49/36 67/48/35 55/37/24
f 70/51/38 69/63/50 57/38/25
f 71/52/39 70/51/38 58/40/27
f 72/53/40 71/52/39 59/41/28
f 73/54/41 72/53/40 60/42/29
f 74/55/42 73/54/41 61/43/30
f 63/44/31 75/57/44 74/55/42
f 64/45/32 76/58/45 75/57/44
f 65/46/33 77/59/46 76/58/45
f 66/47/34 78/60/47 77/59/46
f 67/48/35 79/61/48 78/60/47
f 68/49/36 80/74/61 79/61/48
f 70/51/38 82/64/51 81/62/49
f 71/52/39 83/65/52 82/64/51
f 72/53/40 84/66/53 83/65/52
f 73/54/41 85/67/54 84/66/53
f 74/55/42 86/80/67 85/67/54
f 87/68/55 86/80/67 74/55/42
f 88/69/56 87/68/55 75/57/44
f 89/70/57 88/69/56 76/58/45
f 90/71/58 89/70/57 77/59/46
f 91/72/59 90/71/58 78/60/47
f 92/73/60 91/72/59 79/61/48
f 94/75/62 93/87/74 81/62/49
f 95/76/63 94/75/62 82/64/51
f 96/77/64 95/76/63 83/65/52
f 97/78/65 96/77/64 84/66/53
f 98/79/66 97/78/65 85/67/54
f 99/81/68 98/79/66 86/80/67
f 88/69/56 100/82/69 99/81/68
f 89/70/57 101/83/70 100/82/69
f 90/71/58 102/84/71 101/83/70
f 91/72/59 103/85/72 102/84/71
f 92/73/60 104/98/85 103/85/72
f 94/75/62 106/88/75 105/86/73
f 95/76/63 107/89/76 106/88/75
f 96/77/64 108/90/77 107/89/76
f 97/78/65 109/91/78 108/90/77
f 98/79/66 110/92/79 109/91/78
f 99/81/68 111/105/92 110/92/79
f 112/93/80 111/105/92 99/81/68
f 113/94/81 112/93/80 100/82/69
f 114/95/82 113/94/81 101/83/70
f 115/96/83 114/95/82 102/84/71
f 116/97/84 115/96/83 103/85/72
f 118/99/86 117/110/97 105/86/73
f 119/100/87 118/99/86 106/88/75
f 120/101/88 119/100/87 107/89/76
f 121/102/89 120/101/88 108/90/77
f 122/103/90 121/102/89 109/91/78
f 123/104/91 122/103/90 110/92/79
f 112/93/80 124/106/93 123/104/91
f 113/94/81 125/107/94 124/106/93
f 114/95/82 126/108/95 125/107/94
f 115/96/83 127/109/96 126/108/95
f 116/97/84 128/121/98 127/109/96
f 118/99/86 34/111/5 33/13/4
f 119/100/87 35/112/7 34/111/5
f 120/101/88 36/113/9 35/112/7
f 121/102/89 37/114/11 36/113/9
f 122/103/90 38/122/13 37/114/11
f 39/115/15 38/122/13 122/103/90
f 40/116/16 39/115/15 123/104/91
f 41/117/17 40/116/16 124/106/93
f 42/118/19 41/117/17 125/107/94
f 43/119/21 42/118/19 126/108/95
f 44/120/23 43/119/21 127/109/96
f 130/18/99 142/40/103 141/38/100
f 131/20/102 143/41/105 142/40/103
f 132/22/104 144/42/107 143/41/105
f 133/24/106 145/43/109 144/42/107
f 134/26/108 146/56/126 145/43/109
f 147/44/110 146/56/126 134/26/108
f 148/45/112 147/44/110 135/28/111
f 149/46/114 148/45/112 136/29/113
f 150/47/116 149/46/114 137/30/115
f 151/48/118 150/47/116 138/32/117
f 152/49/120 151/48/118 139/34/119
f 142/40/103 154/64/123 153/62/122
f 143/41/105 155/65/124 154/64/123
f 144/42/107 156/66/125 155/65/124
f 145/43/109 157/67/127 156/66/125
f 146/56/126 158/80/128 157/67/127
f 147/44/110 159/68/140 158/80/128
f 160/69/129 159/68/140 147/44/110
f 161/70/130 160/69/129 148/45/112
f 162/71/131 161/70/130 149/46/114
f 163/72/132 162/71/131 150/47/116
f 164/73/133 163/72/132 151/48/118
f 154/64/123 166/88/135 165/86/134
f 155/65/124 167/89/136 166/88/135
f 156/66/125 168/90/137 167/89/136
f 157/67/127 169/91/138 168/90/137
f 158/80/128 170/92/146 169/91/138
f 171/105/139 170/92/146 158/80/128
f 172/93/141 171/105/139 159/68/140
f 173/94/142 172/93/141 160/69/129
f 174/95/143 173/94/142 161/70/130
f 175/96/144 174/95/143 162/71/131
f 176/97/145 175/96/144 163/72/132
f 130/111/99 129/13/101 165/86/134
f 131/112/102 130/111/99 166/88/135
f 132/113/104 131/112/102 167/89/136
f 133/114/106 132/113/104 168/90/137
f 134/122/108 133/114/106 169/91/138
f 171/105/139 135/115/111 134/122/108
f 172/93/141 136/116/113 135/115/111
f 173/94/142 137/117/115 136/116/113
f 174/95/143 138/118/117 137/117/115
f 175/96/144 139/119/119 138/118/117
f 176/97/145 140/120/121 139/119/119
f 190/40/147 189/38/170 177/7/148
f 191/41/150 190/40/147 178/18/149
f 192/42/152 191/41/150 179/20/151
f 193/43/154 192/42/152 180/22/153
f 194/56/156 193/43/154 181/24/155
f 195/44/158 194/56/156 182/26/157
f 184/29/160 196/45/162 195/44/158
f 185/30/161 197/46/164 196/45/162
f 186/32/163 198/47/166 197/46/164
f 187/34/165 199/48/168 198/47/166
f 188/36/167 200/49/179 199/48/168
f 202/64/169 201/62/182 189/38/170
f 203/65/171 202/64/169 190/40/147
f 204/66/172 203/65/171 191/41/150
f 205/67/173 204/66/172 192/42/152
f 206/80/174 205/67/173 193/43/154
f 195/44/158 207/68/175 206/80/174
f 196/45/162 208/69/176 207/68/175
f 197/46/164 209/70/177 208/69/176
f 198/47/166 210/71/178 209/70/177
f 199/48/168 211/72/180 210/71/178
f 200/49/179 212/73/193 211/72/180
f 202/64/169 214/88/183 213/86/181
f 203/65/171 215/89/184 214/88/183
f 204/66/172 216/90/185 215/89/184
f 205/67/173 217/91/186 216/90/185
f 206/80/174 218/92/194 217/91/186
f 219/105/187 218/92/194 206/80/174
f 220/93/188 219/105/187 207/68/175
f 221/94/189 220/93/188 208/69/176
f 222/95/190 221/94/189 209/70/177
f 223/96/191 222/95/190 210/71/178
f 224/97/192 223/96/191 211/72/180
f 214/88/183 178/111/149 177/13/148
f 215/89/184 179/112/151 178/111/149
f 216/90/185 180/113/153 179/112/151
f 217/91/186 181/114/155 180/113/153
f 218/92/194 182/122/157 181/114/155
f 219/105/187 183/115/159 182/122/157
f 184/116/160 183/115/159 219/105/187
f 185/117/161 184/116/160 220/93/188
f 186/118/163 185/117/161 221/94/189
f 187/119/165 186/118/163 222/95/190
f 188/120/167 187/119/165 223/96/191
