# Blender 5.1.0
# www.blender.org
mtllib Door_openPlassObject.mtl
o Door_openPlassObject
v -0.140000 0.702943 0.030000
v -0.140000 1.814779 0.030000
v -0.140000 0.702943 -0.030000
v -0.140000 1.814779 -0.030000
v 0.140000 0.702943 0.030000
v 0.140000 1.814779 0.030000
v 0.140000 0.702943 -0.030000
v 0.140000 1.814779 -0.030000
v -0.140000 0.103454 -0.847457
v -0.140000 0.702988 0.029036
v -0.140000 0.146374 -0.876815
v -0.140000 0.745908 -0.000322
v 0.140000 0.103454 -0.847457
v 0.140000 0.702988 0.029036
v 0.140000 0.146374 -0.876815
v 0.140000 0.745908 -0.000322
v -0.121064 1.363526 -0.315645
v 0.166555 1.363526 -0.230349
v -0.121501 1.347919 -0.314172
v 0.166118 1.347919 -0.228876
v -0.122795 1.332912 -0.309807
v 0.164824 1.332912 -0.224511
v -0.124897 1.319081 -0.302719
v 0.162722 1.319081 -0.217423
v -0.127726 1.306958 -0.293181
v 0.159893 1.306958 -0.207885
v -0.131173 1.297009 -0.281558
v 0.156446 1.297009 -0.196262
v -0.135105 1.289616 -0.268298
v 0.152514 1.289616 -0.183002
v -0.139372 1.285064 -0.253910
v 0.148247 1.285064 -0.168614
v -0.143809 1.283526 -0.238947
v 0.143809 1.283526 -0.153651
v -0.148247 1.285064 -0.223984
v 0.139372 1.285064 -0.138688
v -0.152514 1.289616 -0.209596
v 0.135105 1.289616 -0.124300
v -0.156446 1.297009 -0.196336
v 0.131173 1.297009 -0.111040
v -0.159893 1.306958 -0.184713
v 0.127726 1.306958 -0.099417
v -0.162722 1.319081 -0.175175
v 0.124897 1.319081 -0.089879
v -0.164824 1.332912 -0.168087
v 0.122795 1.332912 -0.082791
v -0.166118 1.347919 -0.163722
v 0.121501 1.347919 -0.078426
v -0.166555 1.363526 -0.162249
v 0.121064 1.363526 -0.076953
v -0.166118 1.379134 -0.163722
v 0.121501 1.379134 -0.078426
v -0.164824 1.394141 -0.168087
v 0.122795 1.394141 -0.082791
v -0.162722 1.407972 -0.175175
v 0.124897 1.407972 -0.089879
v -0.159893 1.420095 -0.184713
v 0.127726 1.420095 -0.099417
v -0.156446 1.430044 -0.196336
v 0.131173 1.430044 -0.111040
v -0.152514 1.437437 -0.209596
v 0.135105 1.437437 -0.124300
v -0.148247 1.441989 -0.223984
v 0.139372 1.441989 -0.138688
v -0.143809 1.443526 -0.238947
v 0.143809 1.443526 -0.153651
v -0.139372 1.441989 -0.253910
v 0.148247 1.441989 -0.168614
v -0.135105 1.437437 -0.268298
v 0.152514 1.437437 -0.183002
v -0.131173 1.430044 -0.281558
v 0.156446 1.430044 -0.196262
v -0.127726 1.420095 -0.293181
v 0.159893 1.420095 -0.207885
v -0.124897 1.407972 -0.302719
v 0.162722 1.407972 -0.217423
v -0.122795 1.394141 -0.309807
v 0.164824 1.394141 -0.224511
v -0.121501 1.379134 -0.314172
v 0.166118 1.379134 -0.228876
vn -1.0000 -0.0000 -0.0000
vn -0.0000 -0.0000 -1.0000
vn 1.0000 -0.0000 -0.0000
vn -0.0000 -0.0000 1.0000
vn -0.0000 -1.0000 -0.0000
vn -0.0000 1.0000 -0.0000
vn -0.0000 0.8254 -0.5646
vn -0.0000 -0.8254 0.5646
vn -0.0000 -0.5646 -0.8254
vn -0.0000 0.5646 0.8254
vn 0.2830 -0.0980 -0.9541
vn 0.2721 -0.2903 -0.9174
vn 0.2507 -0.4714 -0.8455
vn 0.2198 -0.6344 -0.7411
vn 0.1804 -0.7730 -0.6082
vn 0.1340 -0.8819 -0.4519
vn 0.0825 -0.9569 -0.2783
vn 0.0279 -0.9952 -0.0940
vn -0.0279 -0.9952 0.0940
vn -0.0825 -0.9569 0.2783
vn -0.1340 -0.8819 0.4519
vn -0.1804 -0.7730 0.6082
vn -0.2198 -0.6344 0.7411
vn -0.2508 -0.4714 0.8455
vn -0.2721 -0.2903 0.9174
vn -0.2830 -0.0980 0.9541
vn -0.2829 0.0980 0.9541
vn -0.2721 0.2903 0.9174
vn -0.2507 0.4714 0.8455
vn -0.2198 0.6344 0.7411
vn -0.1804 0.7730 0.6082
vn -0.1340 0.8819 0.4519
vn -0.0825 0.9569 0.2783
vn -0.0279 0.9952 0.0940
vn 0.0279 0.9952 -0.0940
vn 0.0825 0.9569 -0.2783
vn 0.1340 0.8819 -0.4519
vn 0.1804 0.7730 -0.6082
vn 0.2198 0.6344 -0.7411
vn 0.2507 0.4714 -0.8455
vn 0.9587 -0.0000 0.2843
vn 0.2721 0.2903 -0.9174
vn 0.2829 0.0980 -0.9541
vn -0.9587 -0.0000 -0.2843
vn 0.2829 -0.0980 -0.9541
vn -0.0279 -0.9952 0.0939
vn -0.2507 -0.4714 0.8455
vn -0.2829 -0.0980 0.9541
vn -0.2830 0.0980 0.9541
vn 0.9587 -0.0000 0.2844
vn 0.2830 0.0980 -0.9541
vt 0.770232 1.000000
vt 0.728396 0.851553
vt 0.823537 0.904858
vt 0.675091 0.946695
vt 0.633254 0.798248
vt 0.579949 0.893389
vt 0.538113 0.744943
vt 0.484808 0.840084
vt 0.442971 0.691637
vt 0.591418 0.649801
vt 0.686560 0.703106
vt 0.526644 0.988531
vt 1.000000 0.587864
vt 0.657855 0.684289
vt 0.780715 0.465004
vt 0.561430 0.342145
vt 0.219285 0.438570
vt 0.342145 0.219285
vt 0.122860 0.096426
vt 0.465004 -0.000000
vt 0.684289 0.122860
vt 0.315711 0.780715
vt 0.438570 0.561430
vt 0.686183 0.000633
vt 0.871588 0.012220
vt 0.686183 0.012220
vt 0.871588 0.023808
vt 0.686183 0.023808
vt 0.871588 0.035396
vt 0.686183 0.035396
vt 0.871588 0.046984
vt 0.686183 0.046984
vt 0.871588 0.058572
vt 0.686183 0.058572
vt 0.686183 0.070160
vt 0.871588 0.070160
vt 0.686183 0.081747
vt 0.871588 0.093335
vt 0.686183 0.093335
vt 0.871588 0.104923
vt 0.686183 0.104923
vt 0.871588 0.116511
vt 0.686183 0.116511
vt 0.871588 0.128099
vt 0.686183 0.128099
vt 0.871588 0.139687
vt 0.686183 0.139687
vt 0.686183 0.151274
vt 0.871588 0.151274
vt 0.686183 0.162862
vt 0.871588 0.162862
vt 0.686183 0.174450
vt 0.871588 0.174450
vt 0.686183 0.186038
vt 0.871588 0.186038
vt 0.686183 0.197626
vt 0.871588 0.209213
vt 0.686183 0.209213
vt 0.871588 0.220801
vt 0.686183 0.220801
vt 0.686183 0.232389
vt 0.871588 0.232389
vt 0.686183 0.243977
vt 0.871588 0.243977
vt 0.686183 0.255565
vt 0.871588 0.255565
vt 0.686183 0.267153
vt 0.871588 0.278740
vt 0.686183 0.278740
vt 0.871588 0.290328
vt 0.686183 0.290328
vt 0.686183 0.301916
vt 0.871588 0.301916
vt 0.686183 0.313504
vt 0.871588 0.325092
vt 0.686183 0.325092
vt 0.686183 0.336680
vt 0.871588 0.336680
vt 0.686183 0.348267
vt 0.008253 0.012843
vt 0.054849 0.008253
vt 0.059439 0.054850
vt 0.871588 0.348267
vt 0.686183 0.359855
vt 0.871588 0.359855
vt 0.686183 0.371443
vt 0.090702 0.051038
vt 0.049409 0.073109
vt 0.071480 0.114402
vt 0.389666 0.786779
vt 0.431503 0.935226
vt 0.877140 0.807149
vt -0.000000 0.315711
vt 0.096426 0.657855
vt 0.871588 0.000633
vt 0.871588 0.081747
vt 0.871588 0.197626
vt 0.871588 0.267153
vt 0.871588 0.313504
vt 0.054850 0.059439
vt 0.049454 0.063045
vt 0.043457 0.065529
vt 0.037092 0.066795
vt 0.030601 0.066795
vt 0.024236 0.065529
vt 0.018240 0.063045
vt 0.012843 0.059439
vt 0.008254 0.054850
vt 0.004648 0.049454
vt 0.002164 0.043458
vt 0.000898 0.037092
vt 0.000898 0.030602
vt 0.002164 0.024236
vt 0.004647 0.018240
vt 0.012842 0.008254
vt 0.018239 0.004648
vt 0.024235 0.002164
vt 0.030601 0.000898
vt 0.037091 0.000898
vt 0.043457 0.002164
vt 0.049453 0.004648
vt 0.059439 0.012843
vt 0.063045 0.018239
vt 0.065528 0.024235
vt 0.066795 0.030601
vt 0.066795 0.037091
vt 0.065529 0.043457
vt 0.063045 0.049453
vt 0.871588 0.371443
vt 0.077846 0.115669
vt 0.084336 0.115669
vt 0.090702 0.114402
vt 0.096698 0.111919
vt 0.102094 0.108313
vt 0.106684 0.103724
vt 0.110290 0.098327
vt 0.112773 0.092331
vt 0.114039 0.085965
vt 0.114039 0.079475
vt 0.112773 0.073110
vt 0.110290 0.067113
vt 0.106684 0.061717
vt 0.102095 0.057127
vt 0.096698 0.053522
vt 0.084336 0.049772
vt 0.077846 0.049772
vt 0.071480 0.051038
vt 0.065484 0.053522
vt 0.060088 0.057127
vt 0.055498 0.061717
vt 0.051893 0.067113
vt 0.048143 0.079475
vt 0.048143 0.085965
vt 0.049409 0.092331
vt 0.051892 0.098327
vt 0.055498 0.103723
vt 0.060088 0.108313
vt 0.065484 0.111919
s 0
usemtl マテリアル.003
f 2/1/1 3/2/1 1/3/1
f 4/4/2 7/5/2 3/2/2
f 8/6/3 5/7/3 7/5/3
f 6/8/4 1/9/4 5/7/4
f 7/5/5 1/10/5 3/11/5
f 4/12/6 6/8/6 8/6/6
f 9/13/1 12/14/1 11/15/1
f 12/14/7 15/16/7 11/15/7
f 15/16/3 14/17/3 13/18/3
f 14/17/8 9/19/8 13/18/8
f 15/16/9 9/20/9 11/21/9
f 12/22/10 14/17/10 16/23/10
f 17/24/11 20/25/11 19/26/11
f 19/26/12 22/27/12 21/28/12
f 21/28/13 24/29/13 23/30/13
f 23/30/14 26/31/14 25/32/14
f 25/32/15 28/33/15 27/34/15
f 28/33/16 29/35/16 27/34/16
f 30/36/17 31/37/17 29/35/17
f 31/37/18 34/38/18 33/39/18
f 33/39/19 36/40/19 35/41/19
f 35/41/20 38/42/20 37/43/20
f 37/43/21 40/44/21 39/45/21
f 39/45/22 42/46/22 41/47/22
f 42/46/23 43/48/23 41/47/23
f 44/49/24 45/50/24 43/48/24
f 46/51/25 47/52/25 45/50/25
f 48/53/26 49/54/26 47/52/26
f 50/55/27 51/56/27 49/54/27
f 51/56/28 54/57/28 53/58/28
f 53/58/29 56/59/29 55/60/29
f 56/59/30 57/61/30 55/60/30
f 58/62/31 59/63/31 57/61/31
f 60/64/32 61/65/32 59/63/32
f 62/66/33 63/67/33 61/65/33
f 63/67/34 66/68/34 65/69/34
f 65/69/35 68/70/35 67/71/35
f 68/70/36 69/72/36 67/71/36
f 70/73/37 71/74/37 69/72/37
f 71/74/38 74/75/38 73/76/38
f 74/75/39 75/77/39 73/76/39
f 76/78/40 77/79/40 75/77/40
f 54/80/41 38/81/41 22/82/41
f 78/83/42 79/84/42 77/79/42
f 80/85/43 17/86/43 79/84/43
f 47/87/44 63/88/44 79/89/44
f 2/1/1 4/4/1 3/2/1
f 4/4/2 8/6/2 7/5/2
f 8/6/3 6/8/3 5/7/3
f 6/8/4 2/90/4 1/9/4
f 7/5/5 5/7/5 1/10/5
f 4/12/6 2/91/6 6/8/6
f 9/13/1 10/92/1 12/14/1
f 12/14/7 16/23/7 15/16/7
f 15/16/3 16/23/3 14/17/3
f 14/17/8 10/93/8 9/19/8
f 15/16/9 13/18/9 9/20/9
f 12/22/10 10/94/10 14/17/10
f 17/24/45 18/95/45 20/25/45
f 19/26/12 20/25/12 22/27/12
f 21/28/13 22/27/13 24/29/13
f 23/30/14 24/29/14 26/31/14
f 25/32/15 26/31/15 28/33/15
f 28/33/16 30/36/16 29/35/16
f 30/36/17 32/96/17 31/37/17
f 31/37/18 32/96/18 34/38/18
f 33/39/46 34/38/46 36/40/46
f 35/41/20 36/40/20 38/42/20
f 37/43/21 38/42/21 40/44/21
f 39/45/22 40/44/22 42/46/22
f 42/46/23 44/49/23 43/48/23
f 44/49/47 46/51/47 45/50/47
f 46/51/25 48/53/25 47/52/25
f 48/53/48 50/55/48 49/54/48
f 50/55/49 52/97/49 51/56/49
f 51/56/28 52/97/28 54/57/28
f 53/58/29 54/57/29 56/59/29
f 56/59/30 58/62/30 57/61/30
f 58/62/31 60/64/31 59/63/31
f 60/64/32 62/66/32 61/65/32
f 62/66/33 64/98/33 63/67/33
f 63/67/34 64/98/34 66/68/34
f 65/69/35 66/68/35 68/70/35
f 68/70/36 70/73/36 69/72/36
f 70/73/37 72/99/37 71/74/37
f 71/74/38 72/99/38 74/75/38
f 74/75/39 76/78/39 75/77/39
f 76/78/40 78/83/40 77/79/40
f 22/82/41 20/100/41 18/101/41
f 18/101/41 80/102/41 78/103/41
f 78/103/41 76/104/41 74/105/41
f 74/105/41 72/106/41 70/107/41
f 70/107/41 68/108/41 66/109/41
f 66/109/50 64/110/50 62/111/50
f 62/111/41 60/112/41 58/113/41
f 58/113/41 56/114/41 54/80/41
f 54/80/41 52/115/41 50/116/41
f 50/116/41 48/117/41 46/118/41
f 46/118/41 44/119/41 42/120/41
f 42/120/41 40/121/41 38/81/41
f 38/81/41 36/122/41 34/123/41
f 34/123/50 32/124/50 30/125/50
f 30/125/41 28/126/41 26/127/41
f 26/127/41 24/128/41 22/82/41
f 22/82/41 18/101/41 78/103/41
f 78/103/41 74/105/41 70/107/41
f 70/107/41 66/109/41 62/111/41
f 62/111/41 58/113/41 54/80/41
f 54/80/41 50/116/41 46/118/41
f 46/118/41 42/120/41 38/81/41
f 38/81/41 34/123/41 30/125/41
f 30/125/41 26/127/41 22/82/41
f 22/82/41 78/103/41 70/107/41
f 70/107/41 62/111/41 54/80/41
f 54/80/41 46/118/41 38/81/41
f 38/81/41 30/125/41 22/82/41
f 22/82/41 70/107/41 54/80/41
f 78/83/42 80/85/42 79/84/42
f 80/85/51 18/129/51 17/86/51
f 79/89/44 17/130/44 19/131/44
f 19/131/44 21/132/44 23/133/44
f 23/133/44 25/134/44 27/135/44
f 27/135/44 29/136/44 31/137/44
f 31/137/44 33/138/44 35/139/44
f 35/139/44 37/140/44 39/141/44
f 39/141/44 41/142/44 43/143/44
f 43/143/44 45/144/44 47/87/44
f 47/87/44 49/145/44 51/146/44
f 51/146/44 53/147/44 55/148/44
f 55/148/44 57/149/44 59/150/44
f 59/150/44 61/151/44 63/88/44
f 63/88/44 65/152/44 67/153/44
f 67/153/44 69/154/44 71/155/44
f 71/155/44 73/156/44 75/157/44
f 75/157/44 77/158/44 79/89/44
f 79/89/44 19/131/44 23/133/44
f 23/133/44 27/135/44 31/137/44
f 31/137/44 35/139/44 39/141/44
f 39/141/44 43/143/44 47/87/44
f 47/87/44 51/146/44 55/148/44
f 55/148/44 59/150/44 63/88/44
f 63/88/44 67/153/44 71/155/44
f 71/155/44 75/157/44 79/89/44
f 79/89/44 23/133/44 31/137/44
f 31/137/44 39/141/44 47/87/44
f 47/87/44 55/148/44 63/88/44
f 63/88/44 71/155/44 79/89/44
f 79/89/44 31/137/44 47/87/44
