# Blender 5.1.0
# www.blender.org
mtllib 6.mtl
o 6
v 0.142763 0.146053 0.220000
v 0.099342 0.102632 0.220000
v 0.060526 0.138158 0.220000
v 0.074342 0.178947 0.220000
v 0.033553 0.201974 0.220000
v -0.085526 -0.019079 0.220000
v 0.029605 0.040132 0.220000
v 0.159211 -0.092105 0.220000
v 0.005921 -0.249342 0.220000
v -0.155921 -0.029605 0.220000
v 0.032237 0.225658 0.220000
v 0.093421 -0.108553 0.220000
v 0.011842 0.007237 0.220000
v -0.080921 -0.107237 0.220000
v 0.007237 -0.226316 0.220000
v 0.142763 0.146053 -0.220000
v 0.099342 0.102632 -0.220000
v 0.060526 0.138158 -0.220000
v 0.074342 0.178947 -0.220000
v 0.033553 0.201974 -0.220000
v -0.085526 -0.019079 -0.220000
v 0.029605 0.040132 -0.220000
v 0.159211 -0.092105 -0.220000
v 0.005921 -0.249342 -0.220000
v -0.155921 -0.029605 -0.220000
v 0.032237 0.225658 -0.220000
v 0.093421 -0.108553 -0.220000
v 0.011842 0.007237 -0.220000
v -0.080921 -0.107237 -0.220000
v 0.007237 -0.226316 -0.220000
v 0.142763 0.146053 -0.220000
v 0.152272 0.146821 -0.219021
v 0.160849 0.147514 -0.216180
v 0.167657 0.148064 -0.211756
v 0.172027 0.148417 -0.206180
v 0.173533 0.148538 -0.200000
v 0.173533 0.148538 0.200000
v 0.172027 0.148417 0.206180
v 0.167657 0.148064 0.211756
v 0.160849 0.147514 0.216180
v 0.152272 0.146821 0.219021
v 0.142763 0.146053 0.220000
v 0.099342 0.102632 -0.220000
v 0.099531 0.094080 -0.219021
v 0.099702 0.086366 -0.216180
v 0.099837 0.080244 -0.211756
v 0.099924 0.076314 -0.206180
v 0.099954 0.074959 -0.200000
v 0.099954 0.074959 0.200000
v 0.099924 0.076314 0.206180
v 0.099837 0.080244 0.211756
v 0.099702 0.086366 0.216180
v 0.099531 0.094080 0.219021
v 0.099342 0.102632 0.220000
v 0.060526 0.138158 -0.220000
v 0.053379 0.136321 -0.219021
v 0.046931 0.134665 -0.216180
v 0.041814 0.133350 -0.211756
v 0.038529 0.132506 -0.206180
v 0.037397 0.132215 -0.200000
v 0.037397 0.132215 0.200000
v 0.038529 0.132505 0.206180
v 0.041814 0.133350 0.211756
v 0.046931 0.134665 0.216180
v 0.053379 0.136321 0.219021
v 0.060526 0.138158 0.220000
v 0.074342 0.178947 -0.220000
v 0.066846 0.176082 -0.219021
v 0.060084 0.173497 -0.216180
v 0.054718 0.171445 -0.211756
v 0.051272 0.170128 -0.206180
v 0.050085 0.169674 -0.200000
v 0.050085 0.169674 0.200000
v 0.051272 0.170128 0.206180
v 0.054718 0.171445 0.211756
v 0.060084 0.173497 0.216180
v 0.066846 0.176082 0.219021
v 0.074342 0.178947 0.220000
v 0.033553 0.201974 -0.220000
v 0.036004 0.193493 -0.219021
v 0.038215 0.185842 -0.216180
v 0.039970 0.179770 -0.211756
v 0.041097 0.175872 -0.206180
v 0.041486 0.174529 -0.200000
v 0.041486 0.174529 0.200000
v 0.041097 0.175872 0.206180
v 0.039970 0.179770 0.211756
v 0.038215 0.185842 0.216180
v 0.036004 0.193493 0.219021
v 0.033553 0.201974 0.220000
v -0.085526 -0.019079 -0.220000
v -0.070638 -0.004472 -0.219021
v -0.057207 0.008705 -0.216180
v -0.046548 0.019162 -0.211756
v -0.039704 0.025876 -0.206180
v -0.037346 0.028189 -0.200000
v -0.037346 0.028189 0.200000
v -0.039704 0.025876 0.206180
v -0.046548 0.019162 0.211756
v -0.057207 0.008705 0.216180
v -0.070638 -0.004472 0.219021
v -0.085526 -0.019079 0.220000
v 0.029605 0.040132 -0.220000
v 0.030830 0.047711 -0.219021
v 0.031935 0.054549 -0.216180
v 0.032812 0.059976 -0.211756
v 0.033375 0.063460 -0.206180
v 0.033569 0.064660 -0.200000
v 0.033569 0.064660 0.200000
v 0.033375 0.063460 0.206180
v 0.032812 0.059975 0.211756
v 0.031935 0.054549 0.216180
v 0.030830 0.047711 0.219021
v 0.029605 0.040132 0.220000
v 0.159211 -0.092105 -0.220000
v 0.167853 -0.092094 -0.219021
v 0.175650 -0.092083 -0.216180
v 0.181837 -0.092075 -0.211756
v 0.185809 -0.092070 -0.206180
v 0.187178 -0.092068 -0.200000
v 0.187178 -0.092068 0.200000
v 0.185809 -0.092070 0.206180
v 0.181837 -0.092075 0.211756
v 0.175650 -0.092083 0.216180
v 0.167853 -0.092094 0.219021
v 0.159211 -0.092105 0.220000
v 0.005921 -0.249342 -0.220000
v 0.005263 -0.258871 -0.219021
v 0.004670 -0.267466 -0.216180
v 0.004199 -0.274288 -0.211756
v 0.003896 -0.278667 -0.206180
v 0.003792 -0.280177 -0.200000
v 0.003792 -0.280177 0.200000
v 0.003896 -0.278667 0.206180
v 0.004199 -0.274288 0.211756
v 0.004670 -0.267466 0.216180
v 0.005263 -0.258871 0.219021
v 0.005921 -0.249342 0.220000
v -0.155921 -0.029605 -0.220000
v -0.163598 -0.029604 -0.219021
v -0.170523 -0.029603 -0.216180
v -0.176019 -0.029601 -0.211756
v -0.179548 -0.029601 -0.206180
v -0.180764 -0.029601 -0.200000
v -0.180764 -0.029601 0.200000
v -0.179548 -0.029601 0.206180
v -0.176019 -0.029601 0.211756
v -0.170523 -0.029603 0.216180
v -0.163598 -0.029604 0.219021
v -0.155921 -0.029605 0.220000
v 0.032237 0.225658 -0.220000
v 0.030889 0.234245 -0.219021
v 0.029673 0.241992 -0.216180
v 0.028708 0.248140 -0.211756
v 0.028088 0.252087 -0.206180
v 0.027875 0.253447 -0.200000
v 0.027875 0.253447 0.200000
v 0.028088 0.252087 0.206180
v 0.028708 0.248140 0.211756
v 0.029673 0.241992 0.216180
v 0.030889 0.234245 0.219021
v 0.032237 0.225658 0.220000
v 0.093421 -0.108553 -0.220000
v 0.085813 -0.108484 -0.219021
v 0.078949 -0.108422 -0.216180
v 0.073502 -0.108373 -0.211756
v 0.070005 -0.108342 -0.206180
v 0.068799 -0.108331 -0.200000
v 0.068799 -0.108331 0.200000
v 0.070005 -0.108342 0.206180
v 0.073502 -0.108373 0.211756
v 0.078949 -0.108422 0.216180
v 0.085813 -0.108484 0.219021
v 0.093421 -0.108553 0.220000
v 0.011842 0.007237 -0.220000
v 0.011498 -0.003005 -0.219021
v 0.011187 -0.012244 -0.216180
v 0.010940 -0.019576 -0.211756
v 0.010782 -0.024284 -0.206180
v 0.010727 -0.025906 -0.200000
v 0.010727 -0.025906 0.200000
v 0.010782 -0.024284 0.206180
v 0.010940 -0.019576 0.211756
v 0.011187 -0.012244 0.216180
v 0.011498 -0.003005 0.219021
v 0.011842 0.007237 0.220000
v -0.080921 -0.107237 -0.220000
v -0.073105 -0.107408 -0.219021
v -0.066054 -0.107562 -0.216180
v -0.060458 -0.107684 -0.211756
v -0.056865 -0.107763 -0.206180
v -0.055627 -0.107790 -0.200000
v -0.055627 -0.107790 0.200000
v -0.056865 -0.107763 0.206180
v -0.060458 -0.107684 0.211756
v -0.066054 -0.107562 0.216180
v -0.073105 -0.107408 0.219021
v -0.080921 -0.107237 0.220000
v 0.007237 -0.226316 -0.220000
v 0.007208 -0.215890 -0.219021
v 0.007182 -0.206485 -0.216180
v 0.007162 -0.199021 -0.211756
v 0.007149 -0.194229 -0.206180
v 0.007144 -0.192578 -0.200000
v 0.007144 -0.192578 0.200000
v 0.007149 -0.194229 0.206180
v 0.007162 -0.199021 0.211756
v 0.007182 -0.206485 0.216180
v 0.007208 -0.215890 0.219021
v 0.007237 -0.226316 0.220000
vn -0.0000 -0.0000 1.0000
vn -0.0000 -0.0000 -1.0000
vn 0.0063 -0.2839 -0.9588
vn 0.1017 0.0082 -0.9948
vn 0.2630 0.0212 -0.9646
vn 0.0114 -0.5168 -0.8560
vn 0.4825 0.0390 -0.8750
vn 0.0165 -0.7446 -0.6673
vn 0.7127 0.0576 -0.6991
vn 0.0205 -0.9272 -0.3739
vn 0.9130 0.0738 -0.4013
vn 0.0220 -0.9944 -0.1029
vn 0.9903 0.0800 -0.1132
vn 0.9903 0.0800 0.1132
vn 0.9130 0.0738 0.4013
vn 0.0220 -0.9944 0.1029
vn 0.7127 0.0576 0.6991
vn 0.0205 -0.9272 0.3739
vn 0.4825 0.0390 0.8750
vn 0.0165 -0.7446 0.6673
vn 0.2630 0.0212 0.9646
vn 0.0114 -0.5168 0.8560
vn 0.1017 0.0082 0.9948
vn 0.0063 -0.2839 0.9588
vn -0.2995 -0.0770 -0.9510
vn 0.0025 -0.1137 -0.9935
vn -0.5417 -0.1392 -0.8290
vn -0.7563 -0.1944 -0.6247
vn -0.9111 -0.2341 -0.3392
vn -0.9646 -0.2478 -0.0904
vn -0.9646 -0.2478 0.0904
vn -0.9111 -0.2341 0.3392
vn -0.7563 -0.1944 0.6247
vn -0.5417 -0.1392 0.8290
vn 0.0025 -0.1137 0.9935
vn -0.2995 -0.0770 0.9510
vn -0.1793 -0.0685 -0.9814
vn -0.1274 -0.0327 -0.9913
vn -0.4146 -0.1585 -0.8961
vn -0.6505 -0.2487 -0.7176
vn -0.8502 -0.3250 -0.4142
vn -0.9288 -0.3551 -0.1056
vn -0.9288 -0.3551 0.1056
vn -0.8502 -0.3250 0.4142
vn -0.6505 -0.2487 0.7176
vn -0.4146 -0.1585 0.8961
vn -0.1274 -0.0327 0.9913
vn -0.1793 -0.0685 0.9814
vn 0.0466 -0.1612 -0.9858
vn -0.1131 -0.0432 -0.9926
vn 0.1120 -0.3876 -0.9150
vn 0.1820 -0.6298 -0.7551
vn 0.2476 -0.8565 -0.4528
vn 0.2758 -0.9541 -0.1170
vn 0.2758 -0.9541 0.1170
vn 0.2476 -0.8565 0.4528
vn 0.1820 -0.6298 0.7551
vn 0.1120 -0.3876 0.9150
vn -0.1131 -0.0432 0.9926
vn 0.0466 -0.1612 0.9858
vn 0.0406 0.0398 -0.9984
vn 0.0306 -0.1059 -0.9939
vn 0.1170 0.1148 -0.9865
vn 0.2247 0.2204 -0.9492
vn 0.4281 0.4200 -0.8003
vn 0.6837 0.6707 -0.2875
vn 0.6837 0.6708 0.2875
vn 0.4281 0.4200 0.8003
vn 0.2247 0.2204 0.9492
vn 0.1170 0.1148 0.9865
vn 0.0306 -0.1059 0.9939
vn 0.0406 0.0398 0.9984
vn 0.0202 0.1248 -0.9920
vn 0.0335 0.0328 -0.9989
vn 0.0483 0.2990 -0.9530
vn 0.0875 0.5413 -0.8363
vn 0.1231 0.7618 -0.6360
vn 0.1496 0.9254 -0.3482
vn 0.1588 0.9829 0.0936
vn 0.1496 0.9254 0.3482
vn 0.1231 0.7618 0.6360
vn 0.0875 0.5413 0.8363
vn 0.0483 0.2990 0.9530
vn 0.0202 0.1248 0.9920
vn 0.0335 0.0328 0.9989
vn 0.1125 0.0001 -0.9936
vn 0.2821 0.0004 -0.9594
vn 0.5139 0.0007 -0.8579
vn 0.7421 0.0010 -0.6703
vn 0.1588 0.9829 -0.0936
vn 0.9264 0.0012 -0.3765
vn 0.9946 0.0013 0.1039
vn 0.9264 0.0012 0.3765
vn 0.7421 0.0010 0.6703
vn 0.5139 0.0007 0.8579
vn 0.2821 0.0004 0.9594
vn 0.1125 0.0001 0.9936
vn -0.0070 -0.1017 -0.9948
vn -0.0182 -0.2630 -0.9646
vn -0.0333 -0.4826 -0.8752
vn -0.0492 -0.7130 -0.6994
vn 0.9946 0.0013 -0.1039
vn -0.0631 -0.9136 -0.4016
vn -0.0684 -0.9912 0.1134
vn -0.0631 -0.9136 0.4016
vn -0.0492 -0.7130 0.6994
vn -0.0333 -0.4826 0.8752
vn -0.0182 -0.2630 0.9646
vn -0.0070 -0.1017 0.9948
vn -0.3029 0.0001 -0.9530
vn -0.5484 0.0001 -0.8362
vn -0.7718 0.0001 -0.6359
vn -0.9374 0.0002 -0.3482
vn -0.9956 0.0002 -0.0936
vn -0.0684 -0.9912 -0.1134
vn -0.9956 0.0002 0.0936
vn -0.9374 0.0002 0.3482
vn -0.7718 0.0001 0.6359
vn -0.5484 0.0001 0.8362
vn -0.3029 0.0001 0.9530
vn -0.0174 0.1105 -0.9937
vn -0.1265 -0.0000 -0.9920
vn -0.0436 0.2776 -0.9597
vn -0.0794 0.5060 -0.8589
vn -0.1148 0.7316 -0.6720
vn -0.1436 0.9146 -0.3779
vn -0.1542 0.9825 -0.1044
vn -0.1436 0.9146 0.3779
vn -0.1148 0.7316 0.6720
vn -0.0794 0.5060 0.8589
vn -0.0436 0.2776 0.9597
vn -0.0174 0.1106 0.9937
vn -0.1265 -0.0000 0.9920
vn -0.1542 0.9825 0.1044
vn -0.0046 -0.1372 -0.9905
vn -0.1276 0.0011 -0.9918
vn -0.2074 0.0019 -0.9783
vn -0.0117 -0.3464 -0.9380
vn -0.4678 0.0042 -0.8838
vn -0.0199 -0.5902 -0.8070
vn -0.7187 0.0065 -0.6953
vn -0.0288 -0.8564 -0.5155
vn -0.9194 0.0083 -0.3933
vn -0.0333 -0.9900 -0.1372
vn -0.9950 0.0090 -0.0997
vn -0.0333 -0.9900 0.1372
vn -0.9950 0.0090 0.0997
vn -0.9194 0.0083 0.3933
vn -0.7187 0.0065 0.6953
vn -0.0288 -0.8564 0.5155
vn -0.4678 0.0042 0.8838
vn -0.0199 -0.5902 0.8070
vn -0.2074 0.0019 0.9783
vn -0.0117 -0.3464 0.9380
vn -0.1276 0.0011 0.9918
vn -0.0046 -0.1372 0.9905
vn 0.1242 -0.0027 -0.9923
vn -0.0032 -0.0950 -0.9955
vn 0.1993 -0.0044 -0.9799
vn 0.4554 -0.0100 -0.8902
vn 0.7072 -0.0155 -0.7068
vn 0.9146 -0.0200 -0.4039
vn 0.9945 -0.0217 0.1027
vn 0.9146 -0.0200 0.4039
vn 0.7072 -0.0155 0.7068
vn 0.4554 -0.0100 0.8902
vn 0.1993 -0.0044 0.9799
vn 0.1242 -0.0027 0.9923
vn -0.0032 -0.0950 0.9955
vn -0.0004 0.1342 -0.9910
vn -0.0009 0.3405 -0.9402
vn -0.0016 0.5830 -0.8125
vn -0.0023 0.8524 -0.5229
vn -0.0027 0.9902 -0.1397
vn 0.9945 -0.0218 -0.1027
vn -0.0027 0.9902 0.1397
vn -0.0023 0.8524 0.5229
vn -0.0016 0.5830 0.8125
vn -0.0009 0.3405 0.9402
vn -0.0004 0.1342 0.9910
vn -0.0003 0.0935 -0.9956
vn -0.0003 0.0935 0.9956
vt 0.357143 0.000000
vt 0.642857 0.000000
vt 0.928571 0.000000
vt 0.571429 0.000000
vt 1.000000 0.000000
vt 0.857143 0.000000
vt 0.428571 0.000000
vt 0.714286 0.000000
vt 0.285714 0.000000
vt 0.214286 0.000000
vt 0.071429 0.000000
vt 0.000000 0.000000
vt 0.142857 0.000000
vt 0.500000 0.000000
vt 0.785714 0.000000
vt 0.090909 0.090909
vt 0.000000 0.090909
vt 0.090909 0.181818
vt 0.000000 0.181818
vt 0.090909 0.272727
vt 0.000000 0.272727
vt 0.090909 0.363636
vt 0.000000 0.363636
vt 0.090909 0.454545
vt 0.000000 0.454545
vt 0.000000 0.545455
vt 0.000000 0.636364
vt 0.090909 0.545455
vt 0.000000 0.727273
vt 0.090909 0.636364
vt 0.000000 0.818182
vt 0.090909 0.727273
vt 0.000000 0.909091
vt 0.090909 0.818182
vt 0.000000 1.000000
vt 0.090909 0.909091
vt 0.181818 0.090909
vt 0.090909 0.000000
vt 0.181818 0.181818
vt 0.181818 0.272727
vt 0.181818 0.363636
vt 0.181818 0.454545
vt 0.181818 0.545455
vt 0.181818 0.636364
vt 0.181818 0.727273
vt 0.181818 0.818182
vt 0.090909 1.000000
vt 0.181818 0.909091
vt 0.272727 0.090909
vt 0.181818 0.000000
vt 0.272727 0.181818
vt 0.272727 0.272727
vt 0.272727 0.363636
vt 0.272727 0.454545
vt 0.272727 0.545455
vt 0.272727 0.636364
vt 0.272727 0.727273
vt 0.272727 0.818182
vt 0.181818 1.000000
vt 0.272727 0.909091
vt 0.363636 0.090909
vt 0.272727 0.000000
vt 0.363636 0.181818
vt 0.363636 0.272727
vt 0.363636 0.363636
vt 0.363636 0.454545
vt 0.363636 0.545455
vt 0.363636 0.636364
vt 0.363636 0.727273
vt 0.363636 0.818182
vt 0.272727 1.000000
vt 0.363636 0.909091
vt 0.454545 0.090909
vt 0.363636 0.000000
vt 0.454545 0.181818
vt 0.454545 0.272727
vt 0.454545 0.363636
vt 0.454545 0.454545
vt 0.454545 0.545455
vt 0.454545 0.636364
vt 0.454545 0.727273
vt 0.454545 0.818182
vt 0.363636 1.000000
vt 0.454545 0.909091
vt 0.545455 0.000000
vt 0.454545 0.000000
vt 0.545455 0.090909
vt 0.545455 0.181818
vt 0.545455 0.272727
vt 0.545455 0.363636
vt 0.545455 0.545455
vt 0.545455 0.636364
vt 0.545455 0.727273
vt 0.545455 0.818182
vt 0.545455 0.909091
vt 0.545455 1.000000
vt 0.454545 1.000000
vt 0.636364 0.000000
vt 0.636364 0.090909
vt 0.636364 0.181818
vt 0.636364 0.272727
vt 0.545455 0.454545
vt 0.636364 0.363636
vt 0.636364 0.545455
vt 0.636364 0.636364
vt 0.636364 0.727273
vt 0.636364 0.818182
vt 0.636364 0.909091
vt 0.636364 1.000000
vt 0.727273 0.000000
vt 0.727273 0.090909
vt 0.727273 0.181818
vt 0.727273 0.272727
vt 0.636364 0.454545
vt 0.727273 0.363636
vt 0.727273 0.545455
vt 0.727273 0.636364
vt 0.727273 0.727273
vt 0.727273 0.818182
vt 0.727273 0.909091
vt 0.727273 1.000000
vt 0.818182 0.090909
vt 0.818182 0.181818
vt 0.818182 0.272727
vt 0.818182 0.363636
vt 0.818182 0.454545
vt 0.727273 0.454545
vt 0.818182 0.545455
vt 0.818182 0.636364
vt 0.818182 0.727273
vt 0.818182 0.818182
vt 0.818182 0.909091
vt 0.909091 0.000000
vt 0.818182 0.000000
vt 0.909091 0.090909
vt 0.909091 0.181818
vt 0.909091 0.272727
vt 0.909091 0.363636
vt 0.909091 0.454545
vt 0.909091 0.636364
vt 0.909091 0.727273
vt 0.909091 0.818182
vt 0.909091 0.909091
vt 0.909091 1.000000
vt 0.818182 1.000000
vt 1.000000 0.090909
vt 1.000000 0.181818
vt 1.000000 0.272727
vt 1.000000 0.363636
vt 0.909091 0.545455
vt 1.000000 0.454545
vt 1.000000 0.636364
vt 1.000000 0.727273
vt 1.000000 0.818182
vt 1.000000 0.909091
vt 1.000000 1.000000
vt 0.250000 0.090909
vt 0.250000 0.181818
vt 0.250000 0.272727
vt 0.250000 0.363636
vt 0.250000 0.454545
vt 0.250000 0.545455
vt 0.250000 0.636364
vt 0.250000 0.727273
vt 0.250000 0.818182
vt 0.250000 0.909091
vt 0.250000 0.000000
vt 0.500000 0.090909
vt 0.500000 0.181818
vt 0.500000 0.272727
vt 0.500000 0.363636
vt 0.500000 0.545455
vt 0.500000 0.636364
vt 0.500000 0.727273
vt 0.500000 0.818182
vt 0.500000 0.909091
vt 0.500000 1.000000
vt 0.250000 1.000000
vt 0.750000 0.090909
vt 0.750000 0.181818
vt 0.750000 0.272727
vt 0.750000 0.363636
vt 0.750000 0.454545
vt 0.500000 0.454545
vt 0.750000 0.545455
vt 0.750000 0.636364
vt 0.750000 0.727273
vt 0.750000 0.818182
vt 0.750000 0.909091
vt 0.750000 0.000000
vt 1.000000 0.545455
vt 0.750000 1.000000
s 0
usemtl マテリアル.024
f 6/1/1 10/2/1 14/3/1
f 14/3/1 10/2/1 9/4/1
f 9/4/1 15/5/1 14/3/1
f 6/1/1 14/3/1 13/6/1
f 13/6/1 7/7/1 6/1/1
f 11/8/1 5/9/1 4/10/1
f 2/11/1 1/12/1 3/13/1
f 4/10/1 3/13/1 1/12/1
f 11/8/1 4/10/1 1/12/1
f 8/14/1 12/15/1 9/4/1
f 15/5/1 9/4/1 12/15/1
f 7/7/1 13/6/1 12/15/1
f 12/15/1 8/14/1 7/7/1
f 10/2/1 6/1/1 5/9/1
f 5/9/1 11/8/1 10/2/1
f 21/1/2 29/3/2 25/2/2
f 29/3/2 24/4/2 25/2/2
f 24/4/2 29/3/2 30/5/2
f 21/1/2 28/6/2 29/3/2
f 28/6/2 21/1/2 22/7/2
f 26/8/2 19/10/2 20/9/2
f 17/11/2 18/13/2 16/12/2
f 19/10/2 16/12/2 18/13/2
f 26/8/2 16/12/2 19/10/2
f 23/14/2 24/4/2 27/15/2
f 30/5/2 27/15/2 24/4/2
f 22/7/2 27/15/2 28/6/2
f 27/15/2 22/7/2 23/14/2
f 25/2/2 20/9/2 21/1/2
f 20/9/2 25/2/2 26/8/2
s 1
f 44/16/3 31/12/4 32/17/5
f 45/18/6 32/17/5 33/19/7
f 46/20/8 33/19/7 34/21/9
f 47/22/10 34/21/9 35/23/11
f 48/24/12 35/23/11 36/25/13
f 37/26/14 48/24/12 36/25/13
f 38/27/15 49/28/16 37/26/14
f 39/29/17 50/30/18 38/27/15
f 40/31/19 51/32/20 39/29/17
f 41/33/21 52/34/22 40/31/19
f 42/35/23 53/36/24 41/33/21
f 56/37/25 43/38/26 44/16/3
f 57/39/27 44/16/3 45/18/6
f 58/40/28 45/18/6 46/20/8
f 59/41/29 46/20/8 47/22/10
f 60/42/30 47/22/10 48/24/12
f 61/43/31 48/24/12 49/28/16
f 50/30/18 61/43/31 49/28/16
f 51/32/20 62/44/32 50/30/18
f 52/34/22 63/45/33 51/32/20
f 53/36/24 64/46/34 52/34/22
f 54/47/35 65/48/36 53/36/24
f 68/49/37 55/50/38 56/37/25
f 69/51/39 56/37/25 57/39/27
f 70/52/40 57/39/27 58/40/28
f 71/53/41 58/40/28 59/41/29
f 72/54/42 59/41/29 60/42/30
f 73/55/43 60/42/30 61/43/31
f 62/44/32 73/55/43 61/43/31
f 63/45/33 74/56/44 62/44/32
f 64/46/34 75/57/45 63/45/33
f 65/48/36 76/58/46 64/46/34
f 66/59/47 77/60/48 65/48/36
f 80/61/49 67/62/50 68/49/37
f 81/63/51 68/49/37 69/51/39
f 82/64/52 69/51/39 70/52/40
f 83/65/53 70/52/40 71/53/41
f 84/66/54 71/53/41 72/54/42
f 73/55/43 84/66/54 72/54/42
f 74/56/44 85/67/55 73/55/43
f 75/57/45 86/68/56 74/56/44
f 76/58/46 87/69/57 75/57/45
f 77/60/48 88/70/58 76/58/46
f 78/71/59 89/72/60 77/60/48
f 92/73/61 79/74/62 80/61/49
f 93/75/63 80/61/49 81/63/51
f 94/76/64 81/63/51 82/64/52
f 95/77/65 82/64/52 83/65/53
f 96/78/66 83/65/53 84/66/54
f 97/79/67 84/66/54 85/67/55
f 86/68/56 97/79/67 85/67/55
f 87/69/57 98/80/68 86/68/56
f 88/70/58 99/81/69 87/69/57
f 89/72/60 100/82/70 88/70/58
f 90/83/71 101/84/72 89/72/60
f 92/73/61 103/85/73 91/86/74
f 93/75/63 104/87/75 92/73/61
f 94/76/64 105/88/76 93/75/63
f 95/77/65 106/89/77 94/76/64
f 96/78/66 107/90/78 95/77/65
f 109/91/79 96/78/66 97/79/67
f 110/92/80 97/79/67 98/80/68
f 111/93/81 98/80/68 99/81/69
f 112/94/82 99/81/69 100/82/70
f 113/95/83 100/82/70 101/84/72
f 114/96/84 101/84/72 102/97/85
f 104/87/75 115/98/86 103/85/73
f 105/88/76 116/99/87 104/87/75
f 106/89/77 117/100/88 105/88/76
f 107/90/78 118/101/89 106/89/77
f 108/102/90 119/103/91 107/90/78
f 121/104/92 108/102/90 109/91/79
f 122/105/93 109/91/79 110/92/80
f 123/106/94 110/92/80 111/93/81
f 124/107/95 111/93/81 112/94/82
f 125/108/96 112/94/82 113/95/83
f 126/109/97 113/95/83 114/96/84
f 116/99/87 127/110/98 115/98/86
f 117/100/88 128/111/99 116/99/87
f 118/101/89 129/112/100 117/100/88
f 119/103/91 130/113/101 118/101/89
f 120/114/102 131/115/103 119/103/91
f 133/116/104 120/114/102 121/104/92
f 134/117/105 121/104/92 122/105/93
f 135/118/106 122/105/93 123/106/94
f 136/119/107 123/106/94 124/107/95
f 137/120/108 124/107/95 125/108/96
f 138/121/109 125/108/96 126/109/97
f 140/122/110 127/110/98 128/111/99
f 141/123/111 128/111/99 129/112/100
f 142/124/112 129/112/100 130/113/101
f 143/125/113 130/113/101 131/115/103
f 144/126/114 131/115/103 132/127/115
f 133/116/104 144/126/114 132/127/115
f 134/117/105 145/128/116 133/116/104
f 135/118/106 146/129/117 134/117/105
f 136/119/107 147/130/118 135/118/106
f 137/120/108 148/131/119 136/119/107
f 138/121/109 149/132/120 137/120/108
f 140/122/110 151/133/121 139/134/122
f 141/123/111 152/135/123 140/122/110
f 142/124/112 153/136/124 141/123/111
f 143/125/113 154/137/125 142/124/112
f 144/126/114 155/138/126 143/125/113
f 145/128/116 156/139/127 144/126/114
f 158/140/128 145/128/116 146/129/117
f 159/141/129 146/129/117 147/130/118
f 160/142/130 147/130/118 148/131/119
f 161/143/131 148/131/119 149/132/120
f 162/144/132 149/132/120 150/145/133
f 152/135/123 31/5/4 151/133/121
f 153/136/124 32/146/5 152/135/123
f 154/137/125 33/147/7 153/136/124
f 155/138/126 34/148/9 154/137/125
f 156/139/127 35/149/11 155/138/126
f 157/150/134 36/151/13 156/139/127
f 38/152/15 157/150/134 158/140/128
f 39/153/17 158/140/128 159/141/129
f 40/154/19 159/141/129 160/142/130
f 41/155/21 160/142/130 161/143/131
f 42/156/23 161/143/131 162/144/132
f 176/157/135 163/12/136 164/17/137
f 177/158/138 164/17/137 165/19/139
f 178/159/140 165/19/139 166/21/141
f 179/160/142 166/21/141 167/23/143
f 180/161/144 167/23/143 168/25/145
f 181/162/146 168/25/145 169/26/147
f 170/27/148 181/162/146 169/26/147
f 171/29/149 182/163/150 170/27/148
f 172/31/151 183/164/152 171/29/149
f 173/33/153 184/165/154 172/31/151
f 174/35/155 185/166/156 173/33/153
f 176/157/135 187/14/157 175/167/158
f 177/158/138 188/168/159 176/157/135
f 178/159/140 189/169/160 177/158/138
f 179/160/142 190/170/161 178/159/140
f 180/161/144 191/171/162 179/160/142
f 193/172/163 180/161/144 181/162/146
f 194/173/164 181/162/146 182/163/150
f 195/174/165 182/163/150 183/164/152
f 196/175/166 183/164/152 184/165/154
f 197/176/167 184/165/154 185/166/156
f 198/177/168 185/166/156 186/178/169
f 200/179/170 187/14/157 188/168/159
f 201/180/171 188/168/159 189/169/160
f 202/181/172 189/169/160 190/170/161
f 203/182/173 190/170/161 191/171/162
f 204/183/174 191/171/162 192/184/175
f 205/185/176 192/184/175 193/172/163
f 194/173/164 205/185/176 193/172/163
f 195/174/165 206/186/177 194/173/164
f 196/175/166 207/187/178 195/174/165
f 197/176/167 208/188/179 196/175/166
f 198/177/168 209/189/180 197/176/167
f 200/179/170 163/5/136 199/190/181
f 201/180/171 164/146/137 200/179/170
f 202/181/172 165/147/139 201/180/171
f 203/182/173 166/148/141 202/181/172
f 204/183/174 167/149/143 203/182/173
f 169/191/147 204/183/174 205/185/176
f 170/152/148 205/185/176 206/186/177
f 171/153/149 206/186/177 207/187/178
f 172/154/151 207/187/178 208/188/179
f 173/155/153 208/188/179 209/189/180
f 174/156/155 209/189/180 210/192/182
f 44/16/3 43/38/26 31/12/4
f 45/18/6 44/16/3 32/17/5
f 46/20/8 45/18/6 33/19/7
f 47/22/10 46/20/8 34/21/9
f 48/24/12 47/22/10 35/23/11
f 37/26/14 49/28/16 48/24/12
f 38/27/15 50/30/18 49/28/16
f 39/29/17 51/32/20 50/30/18
f 40/31/19 52/34/22 51/32/20
f 41/33/21 53/36/24 52/34/22
f 42/35/23 54/47/35 53/36/24
f 56/37/25 55/50/38 43/38/26
f 57/39/27 56/37/25 44/16/3
f 58/40/28 57/39/27 45/18/6
f 59/41/29 58/40/28 46/20/8
f 60/42/30 59/41/29 47/22/10
f 61/43/31 60/42/30 48/24/12
f 50/30/18 62/44/32 61/43/31
f 51/32/20 63/45/33 62/44/32
f 52/34/22 64/46/34 63/45/33
f 53/36/24 65/48/36 64/46/34
f 54/47/35 66/59/47 65/48/36
f 68/49/37 67/62/50 55/50/38
f 69/51/39 68/49/37 56/37/25
f 70/52/40 69/51/39 57/39/27
f 71/53/41 70/52/40 58/40/28
f 72/54/42 71/53/41 59/41/29
f 73/55/43 72/54/42 60/42/30
f 62/44/32 74/56/44 73/55/43
f 63/45/33 75/57/45 74/56/44
f 64/46/34 76/58/46 75/57/45
f 65/48/36 77/60/48 76/58/46
f 66/59/47 78/71/59 77/60/48
f 80/61/49 79/74/62 67/62/50
f 81/63/51 80/61/49 68/49/37
f 82/64/52 81/63/51 69/51/39
f 83/65/53 82/64/52 70/52/40
f 84/66/54 83/65/53 71/53/41
f 73/55/43 85/67/55 84/66/54
f 74/56/44 86/68/56 85/67/55
f 75/57/45 87/69/57 86/68/56
f 76/58/46 88/70/58 87/69/57
f 77/60/48 89/72/60 88/70/58
f 78/71/59 90/83/71 89/72/60
f 92/73/61 91/86/74 79/74/62
f 93/75/63 92/73/61 80/61/49
f 94/76/64 93/75/63 81/63/51
f 95/77/65 94/76/64 82/64/52
f 96/78/66 95/77/65 83/65/53
f 97/79/67 96/78/66 84/66/54
f 86/68/56 98/80/68 97/79/67
f 87/69/57 99/81/69 98/80/68
f 88/70/58 100/82/70 99/81/69
f 89/72/60 101/84/72 100/82/70
f 90/83/71 102/97/85 101/84/72
f 92/73/61 104/87/75 103/85/73
f 93/75/63 105/88/76 104/87/75
f 94/76/64 106/89/77 105/88/76
f 95/77/65 107/90/78 106/89/77
f 96/78/66 108/102/90 107/90/78
f 109/91/79 108/102/90 96/78/66
f 110/92/80 109/91/79 97/79/67
f 111/93/81 110/92/80 98/80/68
f 112/94/82 111/93/81 99/81/69
f 113/95/83 112/94/82 100/82/70
f 114/96/84 113/95/83 101/84/72
f 104/87/75 116/99/87 115/98/86
f 105/88/76 117/100/88 116/99/87
f 106/89/77 118/101/89 117/100/88
f 107/90/78 119/103/91 118/101/89
f 108/102/90 120/114/102 119/103/91
f 121/104/92 120/114/102 108/102/90
f 122/105/93 121/104/92 109/91/79
f 123/106/94 122/105/93 110/92/80
f 124/107/95 123/106/94 111/93/81
f 125/108/96 124/107/95 112/94/82
f 126/109/97 125/108/96 113/95/83
f 116/99/87 128/111/99 127/110/98
f 117/100/88 129/112/100 128/111/99
f 118/101/89 130/113/101 129/112/100
f 119/103/91 131/115/103 130/113/101
f 120/114/102 132/127/115 131/115/103
f 133/116/104 132/127/115 120/114/102
f 134/117/105 133/116/104 121/104/92
f 135/118/106 134/117/105 122/105/93
f 136/119/107 135/118/106 123/106/94
f 137/120/108 136/119/107 124/107/95
f 138/121/109 137/120/108 125/108/96
f 140/122/110 139/134/122 127/110/98
f 141/123/111 140/122/110 128/111/99
f 142/124/112 141/123/111 129/112/100
f 143/125/113 142/124/112 130/113/101
f 144/126/114 143/125/113 131/115/103
f 133/116/104 145/128/116 144/126/114
f 134/117/105 146/129/117 145/128/116
f 135/118/106 147/130/118 146/129/117
f 136/119/107 148/131/119 147/130/118
f 137/120/108 149/132/120 148/131/119
f 138/121/109 150/145/133 149/132/120
f 140/122/110 152/135/123 151/133/121
f 141/123/111 153/136/124 152/135/123
f 142/124/112 154/137/125 153/136/124
f 143/125/113 155/138/126 154/137/125
f 144/126/114 156/139/127 155/138/126
f 145/128/116 157/150/134 156/139/127
f 158/140/128 157/150/134 145/128/116
f 159/141/129 158/140/128 146/129/117
f 160/142/130 159/141/129 147/130/118
f 161/143/131 160/142/130 148/131/119
f 162/144/132 161/143/131 149/132/120
f 152/135/123 32/146/5 31/5/4
f 153/136/124 33/147/7 32/146/5
f 154/137/125 34/148/9 33/147/7
f 155/138/126 35/149/11 34/148/9
f 156/139/127 36/151/13 35/149/11
f 157/150/134 37/191/14 36/151/13
f 38/152/15 37/191/14 157/150/134
f 39/153/17 38/152/15 158/140/128
f 40/154/19 39/153/17 159/141/129
f 41/155/21 40/154/19 160/142/130
f 42/156/23 41/155/21 161/143/131
f 176/157/135 175/167/158 163/12/136
f 177/158/138 176/157/135 164/17/137
f 178/159/140 177/158/138 165/19/139
f 179/160/142 178/159/140 166/21/141
f 180/161/144 179/160/142 167/23/143
f 181/162/146 180/161/144 168/25/145
f 170/27/148 182/163/150 181/162/146
f 171/29/149 183/164/152 182/163/150
f 172/31/151 184/165/154 183/164/152
f 173/33/153 185/166/156 184/165/154
f 174/35/155 186/178/169 185/166/156
f 176/157/135 188/168/159 187/14/157
f 177/158/138 189/169/160 188/168/159
f 178/159/140 190/170/161 189/169/160
f 179/160/142 191/171/162 190/170/161
f 180/161/144 192/184/175 191/171/162
f 193/172/163 192/184/175 180/161/144
f 194/173/164 193/172/163 181/162/146
f 195/174/165 194/173/164 182/163/150
f 196/175/166 195/174/165 183/164/152
f 197/176/167 196/175/166 184/165/154
f 198/177/168 197/176/167 185/166/156
f 200/179/170 199/190/181 187/14/157
f 201/180/171 200/179/170 188/168/159
f 202/181/172 201/180/171 189/169/160
f 203/182/173 202/181/172 190/170/161
f 204/183/174 203/182/173 191/171/162
f 205/185/176 204/183/174 192/184/175
f 194/173/164 206/186/177 205/185/176
f 195/174/165 207/187/178 206/186/177
f 196/175/166 208/188/179 207/187/178
f 197/176/167 209/189/180 208/188/179
f 198/177/168 210/192/182 209/189/180
f 200/179/170 164/146/137 163/5/136
f 201/180/171 165/147/139 164/146/137
f 202/181/172 166/148/141 165/147/139
f 203/182/173 167/149/143 166/148/141
f 204/183/174 168/151/145 167/149/143
f 169/191/147 168/151/145 204/183/174
f 170/152/148 169/191/147 205/185/176
f 171/153/149 170/152/148 206/186/177
f 172/154/151 171/153/149 207/187/178
f 173/155/153 172/154/151 208/188/179
f 174/156/155 173/155/153 209/189/180
