# Blender 5.1.0
# www.blender.org
mtllib Door_open.mtl
o Door_open
v 0.101774 0.125139 -0.844920
v 0.101774 0.125139 0.844920
v -0.101774 0.125139 -0.844920
v -0.101774 0.125139 0.844920
v 0.101774 1.105158 -0.844920
v 0.101774 1.814979 -0.135099
v 0.101774 1.324505 -0.810179
v 0.101774 1.522380 -0.709356
v 0.101774 1.679415 -0.552321
v 0.101774 1.780238 -0.354445
v 0.101774 1.814979 0.135099
v 0.101774 1.105158 0.844920
v 0.101774 1.780238 0.354445
v 0.101774 1.679415 0.552321
v 0.101774 1.522380 0.709356
v 0.101774 1.324505 0.810179
v -0.101774 1.814979 -0.135099
v -0.101774 1.105158 -0.844920
v -0.101774 1.780238 -0.354445
v -0.101774 1.679415 -0.552321
v -0.101774 1.522380 -0.709356
v -0.101774 1.324505 -0.810179
v -0.101774 1.105158 0.844920
v -0.101774 1.814979 0.135099
v -0.101774 1.324505 0.810179
v -0.101774 1.522380 0.709356
v -0.101774 1.679415 0.552321
v -0.101774 1.780238 0.354445
v 0.146036 0.000265 -0.969795
v -0.146036 0.000265 -0.969795
v 0.146036 0.000265 0.969795
v 0.146036 1.125125 -0.969795
v 0.146036 1.376890 -0.929919
v -0.146036 1.125125 -0.969795
v 0.146036 1.105158 -0.844920
v 0.146036 1.324505 -0.810179
v 0.146036 0.125139 -0.844920
v -0.146036 1.105158 -0.844920
v -0.146036 0.125139 -0.844920
v -0.146036 1.324505 -0.810179
v -0.146036 1.522380 -0.709356
v -0.146036 1.679415 -0.552321
v 0.146036 1.522380 -0.709356
v 0.146036 1.679415 -0.552321
v 0.146036 1.780238 -0.354446
v 0.146036 1.814979 -0.135099
v -0.146036 1.780238 -0.354446
v -0.146036 1.814979 -0.135099
v -0.146036 1.939854 -0.155065
v -0.146036 1.814979 0.135099
v -0.146036 1.780238 0.354446
v 0.146036 1.814979 0.135099
v 0.146036 1.939854 0.155065
v 0.146036 1.780238 0.354446
v 0.146036 1.679415 0.552321
v 0.146036 1.522380 0.709356
v -0.146036 1.679415 0.552321
v -0.146036 1.522380 0.709356
v -0.146036 1.324505 0.810179
v -0.146036 1.105158 0.844920
v 0.146036 1.324505 0.810179
v 0.146036 1.105158 0.844920
v 0.146036 0.125139 0.844920
v -0.146036 0.125139 0.844920
v -0.146036 1.125125 0.969795
v -0.146036 1.376890 0.929919
v 0.146036 1.125125 0.969795
v -0.146036 0.000265 0.969795
v 0.146036 1.376890 0.929919
v 0.146036 1.604010 0.814195
v 0.146036 1.784254 0.633951
v -0.146036 1.604010 0.814195
v -0.146036 1.784254 0.633951
v -0.146036 1.899978 0.406831
v -0.146036 1.939854 0.155065
v 0.146036 1.899978 0.406831
v 0.146036 1.939854 -0.155065
v 0.146036 1.899978 -0.406831
v -0.146036 1.899978 -0.406831
v 0.146036 1.784254 -0.633951
v -0.146036 1.784254 -0.633951
v 0.146036 1.604010 -0.814195
v -0.146036 1.604010 -0.814195
v -0.146036 1.376890 -0.929919
vn -0.0000 -1.0000 -0.0000
vn -0.0000 0.9969 0.0785
vn -0.0000 0.9511 0.3090
vn -0.0000 0.8090 0.5878
vn -0.0000 0.5878 0.8090
vn -0.0000 0.3090 0.9511
vn -0.0000 0.0785 0.9969
vn -0.0000 0.9969 -0.0785
vn -0.0000 0.9511 -0.3090
vn -0.0000 0.8090 -0.5878
vn -0.0000 0.5878 -0.8090
vn -0.0000 0.3090 -0.9511
vn -0.0000 0.0785 -0.9969
vn -0.0000 -0.0000 -1.0000
vn 1.0000 -0.0000 -0.0000
vn -0.0000 -0.0000 1.0000
vn -1.0000 -0.0000 -0.0000
vn -0.0000 -0.3090 0.9511
vn -0.0000 -0.0785 0.9969
vn -0.0000 -0.5878 0.8090
vn -0.0000 -0.8090 0.5878
vn -0.0000 -0.9511 0.3090
vn -0.0000 -0.9969 0.0785
vn -0.0000 -0.9969 -0.0785
vn -0.0000 -0.9511 -0.3090
vn -0.0000 -0.8090 -0.5878
vn -0.0000 -0.5878 -0.8090
vn -0.0000 -0.3090 -0.9511
vn -0.0000 -0.0785 -0.9969
vn -0.0000 1.0000 -0.0000
vt 0.753043 0.744363
vt 0.794789 0.397792
vt 0.794789 0.744363
vt 0.914592 0.821533
vt 0.956338 0.777525
vt 0.956338 0.821533
vt 0.914592 0.777525
vt 0.956338 0.739298
vt 0.914592 0.739298
vt 0.956338 0.710595
vt 0.896436 0.721823
vt 0.854690 0.756575
vt 0.854690 0.721823
vt 0.896436 0.756575
vt 0.854690 0.798723
vt 0.956338 0.876651
vt 0.914592 0.922132
vt 0.914592 0.876651
vt 0.956338 0.922132
vt 0.914592 0.964636
vt 0.956338 0.964636
vt 0.914592 1.000000
vt 0.956338 0.983120
vt 0.998083 0.948369
vt 0.998083 0.983120
vt 0.956338 0.948369
vt 0.998083 0.906220
vt 0.956338 0.710595
vt 0.998083 0.710595
vt 0.466482 0.716560
vt 0.406472 0.543370
vt 0.507064 0.404918
vt 0.896436 0.994348
vt 0.854690 0.994348
vt 0.087704 0.457802
vt 0.260894 0.397792
vt 0.399347 0.498384
vt 0.974493 0.622330
vt 0.914592 0.397792
vt 0.974493 0.397792
vt 0.000000 0.795585
vt 0.059901 0.397792
vt 0.059901 0.795585
vt 0.068879 0.031912
vt 0.171189 0.025611
vt 0.126203 0.032736
vt 0.068879 0.365880
vt 0.008178 0.282334
vt 0.053414 0.312172
vt 0.914592 0.670708
vt 0.974493 0.670708
vt 0.854690 0.480778
vt 0.914592 0.526198
vt 0.854690 0.526198
vt 0.914592 0.721823
vt 0.680126 0.389614
vt 0.624396 0.372182
vt 0.669382 0.365057
vt 0.914592 0.436532
vt 0.914592 0.480778
vt 0.854690 0.397792
vt 0.854690 0.436532
vt 0.794789 0.969057
vt 0.854690 0.928475
vt 0.854690 0.969057
vt 0.794789 0.928475
vt 0.854690 0.883489
vt 0.726706 0.031912
vt 0.787406 0.115459
vt 0.742171 0.085620
vt 0.794789 0.883489
vt 0.854690 0.828074
vt 0.794789 0.828074
vt 0.854690 0.783087
vt 0.854690 0.742505
vt 0.794789 0.783087
vt 0.794789 0.742505
vt 0.855486 0.324031
vt 0.915387 0.285291
vt 0.915387 0.324031
vt 0.855486 0.241045
vt 0.855486 0.285291
vt 0.915387 0.195625
vt 0.915387 0.241045
vt 0.855486 0.195625
vt 0.915387 0.000000
vt 0.854690 0.742505
vt 0.854690 0.397792
vt 0.975288 0.039888
vt 0.915387 0.088266
vt 0.915387 0.039888
vt 0.975288 0.312803
vt 0.915387 0.312803
vt 0.975288 0.000000
vt 0.915387 0.000000
vt 0.795584 0.032945
vt 0.855486 0.000000
vt 0.855486 0.032945
vt 0.795584 0.076821
vt 0.855486 0.076821
vt 0.795584 0.127334
vt 0.855486 0.127334
vt 0.795584 0.190597
vt 0.855486 0.190597
vt 0.795584 0.242801
vt 0.855486 0.242801
vt 0.795584 0.291586
vt 0.855486 0.291586
vt 0.795584 0.332177
vt 0.914592 0.710595
vt 0.974493 0.710595
vt 0.753043 0.397792
vt 0.914592 0.710595
vt 0.896436 0.798723
vt 0.956338 1.000000
vt 0.956338 0.906220
vt 0.552050 0.744363
vt 0.507064 0.737238
vt 0.434275 0.684354
vt 0.413597 0.643771
vt 0.406472 0.598786
vt 0.413597 0.498384
vt 0.434275 0.457802
vt 0.466482 0.425595
vt 0.552050 0.397792
vt 0.406472 0.744363
vt 0.059901 0.744363
vt 0.059901 0.543370
vt 0.067026 0.498384
vt 0.119911 0.425595
vt 0.160493 0.404918
vt 0.205479 0.397792
vt 0.305880 0.404918
vt 0.346463 0.425595
vt 0.378669 0.457802
vt 0.406472 0.543370
vt 0.914592 0.622330
vt 0.000000 0.397792
vt 0.025611 0.171189
vt 0.000000 0.167094
vt 0.008178 0.115459
vt 0.031912 0.068879
vt 0.115459 0.008178
vt 0.167094 0.000000
vt 0.397792 0.397792
vt 0.167094 0.397792
vt 0.171189 0.372182
vt 0.372182 0.372182
vt 0.397792 0.000000
vt 0.032736 0.126203
vt 0.053414 0.085620
vt 0.372182 0.025611
vt 0.085620 0.053414
vt 0.126203 0.365057
vt 0.115459 0.389614
vt 0.031912 0.328914
vt 0.000000 0.230699
vt 0.025611 0.226604
vt 0.032736 0.271590
vt 0.085620 0.344379
vt 0.762849 0.271590
vt 0.769974 0.226604
vt 0.795584 0.230699
vt 0.787406 0.282334
vt 0.763672 0.328914
vt 0.726706 0.365880
vt 0.628491 0.397792
vt 0.628491 0.000000
vt 0.624396 0.025611
vt 0.423403 0.025611
vt 0.742171 0.312172
vt 0.423403 0.372182
vt 0.709964 0.344379
vt 0.914592 0.397792
vt 0.669382 0.032736
vt 0.680126 0.008178
vt 0.763672 0.068879
vt 0.795584 0.167094
vt 0.769974 0.171189
vt 0.762849 0.126203
vt 0.709964 0.053414
vt 0.855486 0.000000
vt 0.794789 0.742505
vt 0.975288 0.088266
vt 0.795584 0.000000
vt 0.855486 0.332177
s 1
usemtl マテリアル.001
f 1/1/1 4/2/1 3/3/1
f 24/4/2 13/5/3 11/6/2
f 28/7/3 14/8/4 13/5/3
f 27/9/4 15/10/5 14/8/4
f 26/11/5 16/12/6 15/13/5
f 25/14/6 12/15/7 16/12/6
f 6/16/8 19/17/9 17/18/8
f 10/19/9 20/20/10 19/17/9
f 9/21/10 21/22/11 20/20/10
f 8/23/11 22/24/12 21/25/11
f 7/26/12 18/27/13 22/24/12
f 18/27/13 1/28/14 3/29/14
f 8/30/15 11/31/15 16/32/15
f 17/18/8 11/6/2 6/16/8
f 12/15/7 4/33/16 2/34/16
f 26/35/17 17/36/17 22/37/17
f 34/38/13 29/39/14 30/40/14
f 29/41/1 68/42/1 30/43/1
f 70/44/15 62/45/15 61/46/15
f 82/47/15 78/48/15 44/49/15
f 33/50/12 34/38/13 84/51/12
f 36/52/18 38/53/19 35/54/19
f 37/13/16 38/53/19 39/55/16
f 84/56/17 38/57/17 40/58/17
f 36/52/18 41/59/20 40/60/18
f 44/61/21 41/59/20 43/62/20
f 44/63/21 47/64/22 42/65/21
f 45/66/22 48/67/23 47/64/22
f 72/68/17 74/69/17 57/70/17
f 46/71/23 50/72/24 48/67/23
f 52/73/24 51/74/25 50/72/24
f 57/75/26 54/76/25 55/77/26
f 55/78/26 58/79/27 57/80/26
f 61/81/28 58/79/27 56/82/27
f 61/81/28 60/83/29 59/84/28
f 62/85/29 64/86/14 60/83/29
f 37/87/30 64/2/30 63/88/30
f 66/89/6 67/90/7 69/91/6
f 67/90/7 68/92/16 31/93/16
f 72/94/5 69/91/6 70/95/5
f 73/96/4 70/97/5 71/98/4
f 74/99/3 71/98/4 76/100/3
f 75/101/2 76/100/3 53/102/2
f 49/103/8 53/102/2 77/104/8
f 77/104/8 79/105/9 49/103/8
f 78/106/9 81/107/10 79/105/9
f 80/108/10 83/109/11 81/107/10
f 82/110/11 84/51/12 83/111/11
f 1/1/1 2/112/1 4/2/1
f 24/4/2 28/7/3 13/5/3
f 28/7/3 27/9/4 14/8/4
f 27/9/4 26/113/5 15/10/5
f 26/11/5 25/14/6 16/12/6
f 25/14/6 23/114/7 12/15/7
f 6/16/8 10/19/9 19/17/9
f 10/19/9 9/21/10 20/20/10
f 9/21/10 8/115/11 21/22/11
f 8/23/11 7/26/12 22/24/12
f 7/26/12 5/116/13 18/27/13
f 18/27/13 5/116/13 1/28/14
f 2/112/15 1/1/15 5/117/15
f 5/117/15 7/118/15 8/30/15
f 8/30/15 9/119/15 10/120/15
f 10/120/15 6/121/15 11/31/15
f 11/31/15 13/122/15 14/123/15
f 14/123/15 15/124/15 16/32/15
f 16/32/15 12/125/15 2/112/15
f 2/112/15 5/117/15 8/30/15
f 8/30/15 10/120/15 11/31/15
f 11/31/15 14/123/15 16/32/15
f 16/32/15 2/112/15 8/30/15
f 17/18/8 24/4/2 11/6/2
f 12/15/7 23/114/7 4/33/16
f 3/126/17 4/127/17 23/128/17
f 23/128/17 25/129/17 26/35/17
f 26/35/17 27/130/17 28/131/17
f 28/131/17 24/132/17 17/36/17
f 17/36/17 19/133/17 20/134/17
f 20/134/17 21/135/17 22/37/17
f 22/37/17 18/136/17 3/126/17
f 3/126/17 23/128/17 26/35/17
f 26/35/17 28/131/17 17/36/17
f 17/36/17 20/134/17 22/37/17
f 22/37/17 3/126/17 26/35/17
f 34/38/13 32/137/13 29/39/14
f 29/41/1 31/138/1 68/42/1
f 52/139/15 53/140/15 76/141/15
f 76/141/15 71/142/15 70/44/15
f 70/44/15 69/143/15 67/144/15
f 29/145/15 32/146/15 35/147/15
f 29/145/15 35/147/15 37/148/15
f 70/44/15 67/144/15 31/149/15
f 54/150/15 52/139/15 76/141/15
f 55/151/15 54/150/15 76/141/15
f 31/149/15 29/145/15 37/148/15
f 31/149/15 37/148/15 63/152/15
f 55/151/15 76/141/15 70/44/15
f 56/153/15 55/151/15 70/44/15
f 31/149/15 63/152/15 62/45/15
f 61/46/15 56/153/15 70/44/15
f 70/44/15 31/149/15 62/45/15
f 36/154/15 35/147/15 32/146/15
f 32/146/15 33/155/15 82/47/15
f 82/47/15 80/156/15 78/48/15
f 78/48/15 77/157/15 53/140/15
f 53/140/15 52/139/15 46/158/15
f 53/140/15 46/158/15 45/159/15
f 36/154/15 32/146/15 82/47/15
f 43/160/15 36/154/15 82/47/15
f 78/48/15 53/140/15 45/159/15
f 44/49/15 43/160/15 82/47/15
f 78/48/15 45/159/15 44/49/15
f 33/50/12 32/137/13 34/38/13
f 36/52/18 40/60/18 38/53/19
f 37/13/16 35/54/19 38/53/19
f 47/161/17 48/162/17 49/163/17
f 49/163/17 79/164/17 81/165/17
f 81/165/17 83/166/17 84/56/17
f 84/56/17 34/167/17 30/145/17
f 68/149/17 65/168/17 60/169/17
f 68/149/17 60/169/17 64/170/17
f 47/161/17 49/163/17 81/165/17
f 42/171/17 47/161/17 81/165/17
f 30/145/17 68/149/17 64/170/17
f 30/145/17 64/170/17 39/172/17
f 42/171/17 81/165/17 84/56/17
f 41/173/17 42/171/17 84/56/17
f 84/56/17 30/145/17 39/172/17
f 84/56/17 39/172/17 38/57/17
f 40/58/17 41/173/17 84/56/17
f 36/52/18 43/62/20 41/59/20
f 44/61/21 42/174/21 41/59/20
f 44/63/21 45/66/22 47/64/22
f 45/66/22 46/71/23 48/67/23
f 59/175/17 60/169/17 65/168/17
f 65/168/17 66/176/17 72/68/17
f 72/68/17 73/177/17 74/69/17
f 74/69/17 75/178/17 49/163/17
f 49/163/17 48/162/17 50/179/17
f 49/163/17 50/179/17 51/180/17
f 59/175/17 65/168/17 72/68/17
f 58/181/17 59/175/17 72/68/17
f 74/69/17 49/163/17 51/180/17
f 57/70/17 58/181/17 72/68/17
f 74/69/17 51/180/17 57/70/17
f 46/71/23 52/73/24 50/72/24
f 52/73/24 54/76/25 51/74/25
f 57/75/26 51/74/25 54/76/25
f 55/78/26 56/82/27 58/79/27
f 61/81/28 59/84/28 58/79/27
f 61/81/28 62/85/29 60/83/29
f 62/85/29 63/182/14 64/86/14
f 37/87/30 39/183/30 64/2/30
f 66/89/6 65/184/7 67/90/7
f 67/90/7 65/184/7 68/92/16
f 72/94/5 66/89/6 69/91/6
f 73/96/4 72/185/5 70/97/5
f 74/99/3 73/96/4 71/98/4
f 75/101/2 74/99/3 76/100/3
f 49/103/8 75/101/2 53/102/2
f 77/104/8 78/106/9 79/105/9
f 78/106/9 80/108/10 81/107/10
f 80/108/10 82/186/11 83/109/11
f 82/110/11 33/50/12 84/51/12
