# Blender 5.1.0
# www.blender.org
mtllib button.mtl
o Cube.001
v 0.853751 0.346196 -0.514961
v 0.514961 0.346196 -0.853751
v 0.837169 0.346196 -0.619653
v 0.789048 0.346196 -0.714097
v 0.714097 0.346196 -0.789048
v 0.619653 0.346196 -0.837169
v 0.514961 0.149561 -0.853751
v 0.853751 0.149561 -0.514961
v 0.619653 0.149561 -0.837169
v 0.714097 0.149561 -0.789048
v 0.789048 0.149561 -0.714097
v 0.837169 0.149561 -0.619653
v 0.514961 0.346196 0.853751
v 0.853751 0.346196 0.514961
v 0.619653 0.346196 0.837169
v 0.714097 0.346196 0.789048
v 0.789048 0.346196 0.714097
v 0.837169 0.346196 0.619653
v 0.853751 0.149561 0.514961
v 0.514961 0.149561 0.853751
v 0.837169 0.149561 0.619653
v 0.789048 0.149561 0.714097
v 0.714097 0.149561 0.789048
v 0.619653 0.149561 0.837169
v -0.514961 0.346196 -0.853751
v -0.853751 0.346196 -0.514961
v -0.619653 0.346196 -0.837169
v -0.714097 0.346196 -0.789048
v -0.789048 0.346196 -0.714097
v -0.837169 0.346196 -0.619653
v -0.853751 0.149561 -0.514961
v -0.514961 0.149561 -0.853751
v -0.837169 0.149561 -0.619653
v -0.789048 0.149561 -0.714097
v -0.714097 0.149561 -0.789048
v -0.619653 0.149561 -0.837169
v -0.853751 0.346196 0.514961
v -0.514961 0.346196 0.853751
v -0.837169 0.346196 0.619653
v -0.789048 0.346196 0.714097
v -0.714097 0.346196 0.789048
v -0.619653 0.346196 0.837169
v -0.514961 0.149561 0.853751
v -0.853751 0.149561 0.514961
v -0.619653 0.149561 0.837169
v -0.714097 0.149561 0.789048
v -0.789048 0.149561 0.714097
v -0.837169 0.149561 0.619653
vn 0.9969 -0.0000 -0.0785
vn 0.9511 -0.0000 -0.3090
vn 0.8090 -0.0000 -0.5878
vn 0.5878 -0.0000 -0.8090
vn 0.3090 -0.0000 -0.9511
vn 0.0785 -0.0000 -0.9969
vn -0.0785 -0.0000 0.9969
vn -0.3090 -0.0000 0.9511
vn -0.5878 -0.0000 0.8090
vn -0.8090 -0.0000 0.5878
vn -0.9511 -0.0000 0.3090
vn -0.9969 -0.0000 0.0785
vn 0.0785 -0.0000 0.9969
vn 0.3090 -0.0000 0.9511
vn 0.5878 -0.0000 0.8090
vn 0.8090 -0.0000 0.5878
vn 0.9511 -0.0000 0.3090
vn 0.9969 -0.0000 0.0785
vn -0.0785 -0.0000 -0.9969
vn -0.3090 -0.0000 -0.9511
vn -0.5878 -0.0000 -0.8090
vn -0.8090 -0.0000 -0.5878
vn -0.9511 -0.0000 -0.3090
vn -0.9969 -0.0000 -0.0785
vn -0.0000 1.0000 -0.0000
vn -0.0000 -1.0000 -0.0000
vt 0.625000 0.549603
vt 0.375000 0.549603
vt 0.374191 0.534275
vt 0.625809 0.534275
vt 0.371842 0.520447
vt 0.628158 0.520447
vt 0.368184 0.489526
vt 0.631816 0.489526
vt 0.363575 0.477959
vt 0.636425 0.477959
vt 0.358466 0.466931
vt 0.641534 0.466931
vt 0.375000 0.950397
vt 0.625000 0.950397
vt 0.625000 0.965725
vt 0.375000 0.965725
vt 0.625000 1.000000
vt 0.375000 1.000000
vt 0.375000 0.000000
vt 0.625000 0.000000
vt 0.625000 0.020447
vt 0.375000 0.020447
vt 0.625000 0.034275
vt 0.375000 0.034275
vt 0.625000 0.049603
vt 0.375000 0.049603
vt 0.641534 0.783069
vt 0.358466 0.783069
vt 0.363575 0.772041
vt 0.636425 0.772041
vt 0.368184 0.760474
vt 0.631816 0.760474
vt 0.371842 0.729553
vt 0.628158 0.729553
vt 0.374191 0.715725
vt 0.625809 0.715725
vt 0.375000 0.700397
vt 0.625000 0.700397
vt 0.625000 0.299603
vt 0.375000 0.299603
vt 0.375000 0.284275
vt 0.625000 0.284275
vt 0.375000 0.270447
vt 0.625000 0.270447
vt 0.375000 0.229553
vt 0.625000 0.229553
vt 0.375000 0.215725
vt 0.625000 0.215725
vt 0.375000 0.200397
vt 0.625000 0.200397
vt 0.825397 0.500000
vt 0.840725 0.502428
vt 0.854553 0.509473
vt 0.865527 0.520447
vt 0.872572 0.534275
vt 0.875000 0.549603
vt 0.875000 0.700397
vt 0.872572 0.715725
vt 0.865527 0.729553
vt 0.854553 0.740527
vt 0.840725 0.747572
vt 0.825397 0.750000
vt 0.125000 0.549603
vt 0.127428 0.534275
vt 0.134473 0.520447
vt 0.145447 0.509473
vt 0.159275 0.502428
vt 0.174603 0.500000
vt 0.174603 0.750000
vt 0.159275 0.747572
vt 0.145447 0.740527
vt 0.134473 0.729553
vt 0.127428 0.715725
vt 0.125000 0.700397
s 1
usemtl Material.001
f 1/1/1 8/2/1 12/3/2
f 1/1/1 12/3/2 3/4/2
f 3/4/2 12/3/2 11/5/3
f 3/4/2 11/5/3 4/6/3
f 4/6/3 11/5/3 10/7/4
f 4/6/3 10/7/4 5/8/4
f 5/8/4 10/7/4 9/9/5
f 5/8/4 9/9/5 6/10/5
f 6/10/5 9/9/5 7/11/6
f 6/10/5 7/11/6 2/12/6
f 43/13/7 38/14/7 42/15/8
f 43/13/7 42/15/8 45/16/8
f 45/16/8 42/15/8 41/17/9
f 45/16/8 41/17/9 46/18/9
f 46/19/9 41/20/9 40/21/10
f 46/19/9 40/21/10 47/22/10
f 47/22/10 40/21/10 39/23/11
f 47/22/10 39/23/11 48/24/11
f 48/24/11 39/23/11 37/25/12
f 48/24/11 37/25/12 44/26/12
f 13/27/13 20/28/13 24/29/14
f 13/27/13 24/29/14 15/30/14
f 15/30/14 24/29/14 23/31/15
f 15/30/14 23/31/15 16/32/15
f 16/32/15 23/31/15 22/33/16
f 16/32/15 22/33/16 17/34/16
f 17/34/16 22/33/16 21/35/17
f 17/34/16 21/35/17 18/36/17
f 18/36/17 21/35/17 19/37/18
f 18/36/17 19/37/18 14/38/18
f 25/39/19 32/40/19 36/41/20
f 25/39/19 36/41/20 27/42/20
f 27/42/20 36/41/20 35/43/21
f 27/42/20 35/43/21 28/44/21
f 28/44/21 35/43/21 34/45/22
f 28/44/21 34/45/22 29/46/22
f 29/46/22 34/45/22 33/47/23
f 29/46/22 33/47/23 30/48/23
f 30/48/23 33/47/23 31/49/24
f 30/48/23 31/49/24 26/50/24
f 32/40/19 25/39/19 2/12/6
f 32/40/19 2/12/6 7/11/6
f 8/2/1 1/1/1 14/38/18
f 8/2/1 14/38/18 19/37/18
f 31/63/26 33/64/26 34/65/26
f 31/63/26 34/65/26 35/66/26
f 31/63/26 35/66/26 36/67/26
f 31/63/26 36/67/26 32/68/26
f 31/63/26 32/68/26 7/11/26
f 31/63/26 7/11/26 9/9/26
f 31/63/26 9/9/26 10/7/26
f 31/63/26 10/7/26 11/5/26
f 31/63/26 11/5/26 12/3/26
f 31/63/26 12/3/26 8/2/26
f 31/63/26 8/2/26 19/37/26
f 31/63/26 19/37/26 21/35/26
f 31/63/26 21/35/26 22/33/26
f 31/63/26 22/33/26 23/31/26
f 31/63/26 23/31/26 24/29/26
f 31/63/26 24/29/26 20/28/26
f 31/63/26 20/28/26 43/69/26
f 31/63/26 43/69/26 45/70/26
f 31/63/26 45/70/26 46/71/26
f 31/63/26 46/71/26 47/72/26
f 31/63/26 47/72/26 48/73/26
f 31/63/26 48/73/26 44/74/26
f 20/28/13 13/27/13 38/14/7
f 20/28/13 38/14/7 43/13/7
f 44/26/12 37/25/12 26/50/24
f 44/26/12 26/50/24 31/49/24
usemtl マテリアル
f 1/1/25 3/4/25 4/6/25
f 1/1/25 4/6/25 5/8/25
f 1/1/25 5/8/25 6/10/25
f 1/1/25 6/10/25 2/12/25
f 1/1/25 2/12/25 25/51/25
f 1/1/25 25/51/25 27/52/25
f 1/1/25 27/52/25 28/53/25
f 1/1/25 28/53/25 29/54/25
f 1/1/25 29/54/25 30/55/25
f 1/1/25 30/55/25 26/56/25
f 1/1/25 26/56/25 37/57/25
f 1/1/25 37/57/25 39/58/25
f 1/1/25 39/58/25 40/59/25
f 1/1/25 40/59/25 41/60/25
f 1/1/25 41/60/25 42/61/25
f 1/1/25 42/61/25 38/62/25
f 1/1/25 38/62/25 13/27/25
f 1/1/25 13/27/25 15/30/25
f 1/1/25 15/30/25 16/32/25
f 1/1/25 16/32/25 17/34/25
f 1/1/25 17/34/25 18/36/25
f 1/1/25 18/36/25 14/38/25
