# Blender 5.1.0
# www.blender.org
mtllib clone_rightArm.mtl
o rightArm
v -0.158335 -0.164160 -0.103034
v -0.137599 0.170691 -0.000000
v -0.158335 -0.164160 0.103034
v -0.243810 -0.147546 -0.103034
v -0.243810 -0.147546 0.103034
v -0.158335 -0.164160 -0.000000
v -0.243810 -0.147546 -0.000000
v -0.158335 -0.164160 -0.051517
v -0.243810 -0.147546 -0.051517
v -0.158335 -0.164160 0.051517
v -0.243810 -0.147546 0.051517
v -0.201072 -0.155853 -0.103034
v -0.201072 -0.155853 0.103034
v -0.201072 -0.155853 -0.000000
v -0.201072 -0.155853 -0.051517
v -0.201072 -0.155853 0.051517
vn -0.1908 -0.9816 -0.0000
vn 0.0300 0.1544 0.9875
vn 0.0302 0.1544 0.9875
vn -0.9816 0.1908 -0.0000
vn -0.9816 0.1910 -0.0066
vn 0.9816 -0.1908 -0.0000
vn 0.9816 -0.1906 0.0066
vn 0.0300 0.1544 -0.9875
vn 0.0298 0.1545 -0.9875
vn 0.9816 -0.1906 -0.0066
vn -0.9816 0.1910 0.0066
vn 0.0302 0.1544 -0.9875
vn 0.0298 0.1545 0.9875
vt 0.074259 0.572237
vt 0.148519 0.660107
vt 0.074259 0.660107
vt 0.925741 0.000000
vt 1.000000 0.593991
vt 0.925741 0.593991
vt 0.527222 -0.000000
vt 0.702963 0.572237
vt 0.615092 0.572237
vt 0.175741 0.000000
vt 0.351481 0.572237
vt 0.263611 0.572237
vt 0.777222 -0.000000
vt 0.851481 0.593991
vt 0.777222 0.593991
vt 0.175741 0.572237
vt 0.087870 0.572237
vt 0.527222 0.572237
vt 0.439352 0.572237
vt 0.074259 0.835848
vt 0.148519 0.747978
vt 0.148519 0.835848
vt 0.148519 0.923718
vt 0.074259 0.923718
vt 0.000000 0.572237
vt 0.351481 0.572237
vt 0.074259 0.747978
vt -0.000000 0.660107
vt 0.000000 0.747978
vt 0.000000 0.835848
vt 0.000000 0.923718
vt 0.702963 0.593991
vt 0.851481 0.593991
vt 0.000000 0.572237
vt 0.148519 0.572237
s 1
usemtl マテリアル.006
f 13/1/1 11/2/1 16/3/1
f 2/4/2 5/5/3 13/6/2
f 2/7/4 4/8/5 9/9/4
f 2/10/6 3/11/7 10/12/6
f 2/13/8 1/14/9 12/15/8
f 2/10/6 6/16/6 8/17/6
f 2/7/4 7/18/4 11/19/4
f 15/20/1 7/21/1 9/22/1
f 15/20/1 4/23/1 12/24/1
f 2/10/6 8/17/6 1/25/10
f 2/7/4 9/9/4 7/18/4
f 2/7/4 11/19/4 5/26/11
f 2/10/6 10/12/6 6/16/6
f 16/3/1 7/21/1 14/27/1
f 10/28/1 14/27/1 6/29/1
f 8/30/1 12/24/1 1/31/1
f 6/29/1 15/20/1 8/30/1
f 2/13/8 12/15/8 4/32/12
f 2/4/2 13/6/2 3/33/13
f 3/34/1 16/3/1 10/28/1
f 13/1/1 5/35/1 11/2/1
f 15/20/1 14/27/1 7/21/1
f 15/20/1 9/22/1 4/23/1
f 16/3/1 11/2/1 7/21/1
f 10/28/1 16/3/1 14/27/1
f 8/30/1 15/20/1 12/24/1
f 6/29/1 14/27/1 15/20/1
f 3/34/1 13/1/1 16/3/1
