# Blender 5.1.0
# www.blender.org
mtllib player_leftArm_next.mtl
o leftArm_next
v 0.131322 -0.030478 0.258712
v 0.137441 0.170880 -0.028671
v 0.144205 -0.156924 0.096510
v 0.217480 -0.018182 0.255970
v 0.230363 -0.144628 0.093768
v 0.137764 -0.093701 0.177611
v 0.223922 -0.081405 0.174869
v 0.134543 -0.062089 0.218162
v 0.220701 -0.049794 0.215420
v 0.140984 -0.125312 0.137061
v 0.227142 -0.113017 0.134319
v 0.174401 -0.024330 0.257341
v 0.187284 -0.150776 0.095139
v 0.180843 -0.087553 0.176240
v 0.177622 -0.055942 0.216791
v 0.184063 -0.119165 0.135690
vn 0.1305 -0.7769 0.6160
vn 0.0412 -0.4837 -0.8742
vn 0.0410 -0.4838 -0.8742
vn 0.9895 0.1412 -0.0315
vn 0.9890 0.1454 -0.0264
vn -0.9895 -0.1412 0.0315
vn -0.9891 -0.1451 0.0262
vn -0.0823 0.7282 0.6804
vn -0.0821 0.7282 0.6804
vn -0.9899 -0.1370 0.0366
vn 0.9898 0.1373 -0.0368
vn -0.0825 0.7282 0.6804
vn 0.0414 -0.4837 -0.8742
vt 0.076724 0.981629
vt -0.000000 0.890843
vt 0.076724 0.890843
vt 0.846552 -0.000000
vt 0.846552 0.618482
vt 0.770421 0.608965
vt 0.347145 0.000000
vt 0.347145 0.618483
vt 0.260358 0.591830
vt 0.694289 -0.000000
vt 0.694289 0.618482
vt 0.607503 0.591829
vt 0.923276 -0.000000
vt 1.000000 0.613705
vt 0.923276 0.613705
vt 0.520717 0.565176
vt 0.433931 0.538523
vt 0.173572 0.565176
vt 0.086786 0.538523
vt 0.076724 0.800056
vt -0.000000 0.709269
vt 0.076724 0.709269
vt -0.000000 0.618483
vt 0.076724 0.618483
vt 0.347145 0.511870
vt -0.000000 0.511870
vt -0.000000 0.800056
vt 0.153448 0.890843
vt 0.153448 0.800056
vt 0.153448 0.618483
vt 0.153448 0.709269
vt 0.846552 0.613705
vt 0.694289 0.599447
vt 0.153448 0.981629
vt -0.000000 0.981629
s 1
usemtl Material.004
f 13/1/1 11/2/1 16/3/1
f 2/4/2 5/5/3 13/6/2
f 2/7/4 4/8/5 9/9/4
f 2/10/6 3/11/7 10/12/6
f 2/13/8 1/14/9 12/15/8
f 2/10/6 6/16/6 8/17/6
f 2/7/4 7/18/4 11/19/4
f 14/20/1 9/21/1 15/22/1
f 15/22/1 4/23/1 12/24/1
f 2/10/6 8/17/6 1/25/10
f 2/7/4 9/9/4 7/18/4
f 2/7/4 11/19/4 5/26/11
f 2/10/6 10/12/6 6/16/6
f 16/3/1 7/27/1 14/20/1
f 10/28/1 14/20/1 6/29/1
f 1/30/1 15/22/1 12/24/1
f 8/31/1 14/20/1 15/22/1
f 2/13/8 12/15/8 4/32/12
f 2/4/2 13/6/2 3/33/13
f 3/34/1 16/3/1 10/28/1
f 13/1/1 5/35/1 11/2/1
f 14/20/1 7/27/1 9/21/1
f 15/22/1 9/21/1 4/23/1
f 16/3/1 11/2/1 7/27/1
f 10/28/1 16/3/1 14/20/1
f 1/30/1 8/31/1 15/22/1
f 8/31/1 6/29/1 14/20/1
f 3/34/1 13/1/1 16/3/1
