# Blender 5.1.0
# www.blender.org
mtllib 2.mtl
o テキスト
v -0.106579 0.132237 0.220000
v -0.053947 0.072368 0.220000
v -0.093421 0.034868 0.220000
v -0.141447 0.102632 0.220000
v 0.001974 0.225658 0.220000
v 0.143421 0.102632 0.220000
v 0.053289 -0.047368 0.220000
v -0.090132 -0.186842 0.220000
v 0.079605 -0.186184 0.220000
v 0.126316 -0.103947 0.220000
v 0.148026 -0.103947 0.220000
v 0.138158 -0.240132 0.220000
v -0.159868 -0.240132 0.220000
v -0.159868 -0.221711 0.220000
v -0.062500 -0.113158 0.220000
v 0.077632 0.112500 0.220000
v -0.007237 0.199342 0.220000
v -0.106579 0.132237 -0.220000
v -0.053947 0.072368 -0.220000
v -0.093421 0.034868 -0.220000
v -0.141447 0.102632 -0.220000
v 0.001974 0.225658 -0.220000
v 0.143421 0.102632 -0.220000
v 0.053289 -0.047368 -0.220000
v -0.090132 -0.186842 -0.220000
v 0.079605 -0.186184 -0.220000
v 0.126316 -0.103947 -0.220000
v 0.148026 -0.103947 -0.220000
v 0.138158 -0.240132 -0.220000
v -0.159868 -0.240132 -0.220000
v -0.159868 -0.221711 -0.220000
v -0.062500 -0.113158 -0.220000
v 0.077632 0.112500 -0.220000
v -0.007237 0.199342 -0.220000
v -0.106579 0.132237 -0.220000
v -0.097302 0.131045 -0.219021
v -0.088933 0.129970 -0.216180
v -0.082292 0.129117 -0.211756
v -0.078028 0.128569 -0.206180
v -0.076559 0.128380 -0.200000
v -0.076559 0.128380 0.200000
v -0.078028 0.128569 0.206180
v -0.082292 0.129117 0.211756
v -0.088933 0.129970 0.216180
v -0.097302 0.131045 0.219021
v -0.106579 0.132237 0.220000
v -0.053947 0.072368 -0.220000
v -0.045380 0.071983 -0.219021
v -0.037651 0.071636 -0.216180
v -0.031517 0.071360 -0.211756
v -0.027579 0.071183 -0.206180
v -0.026222 0.071122 -0.200000
v -0.026222 0.071122 0.200000
v -0.027579 0.071183 0.206180
v -0.031517 0.071360 0.211756
v -0.037651 0.071636 0.216180
v -0.045380 0.071983 0.219021
v -0.053947 0.072368 0.220000
v -0.093421 0.034868 -0.220000
v -0.094337 0.025473 -0.219021
v -0.095164 0.016998 -0.216180
v -0.095820 0.010271 -0.211756
v -0.096242 0.005953 -0.206180
v -0.096387 0.004465 -0.200000
v -0.096387 0.004465 0.200000
v -0.096242 0.005953 0.206180
v -0.095820 0.010271 0.211756
v -0.095164 0.016998 0.216180
v -0.094337 0.025473 0.219021
v -0.093421 0.034868 0.220000
v -0.141447 0.102632 -0.220000
v -0.149747 0.103654 -0.219021
v -0.157235 0.104577 -0.216180
v -0.163177 0.105309 -0.211756
v -0.166992 0.105780 -0.206180
v -0.168307 0.105942 -0.200000
v -0.168307 0.105942 0.200000
v -0.166992 0.105780 0.206180
v -0.163177 0.105309 0.211756
v -0.157235 0.104577 0.216180
v -0.149747 0.103654 0.219021
v -0.141447 0.102632 0.220000
v 0.001974 0.225658 -0.220000
v 0.002002 0.233825 -0.219021
v 0.002027 0.241192 -0.216180
v 0.002047 0.247038 -0.211756
v 0.002060 0.250792 -0.206180
v 0.002064 0.252086 -0.200000
v 0.002064 0.252086 0.200000
v 0.002060 0.250792 0.206180
v 0.002047 0.247038 0.211756
v 0.002027 0.241192 0.216180
v 0.002002 0.233824 0.219021
v 0.001974 0.225658 0.220000
v 0.143421 0.102632 -0.220000
v 0.151389 0.103892 -0.219021
v 0.158577 0.105030 -0.216180
v 0.164281 0.105932 -0.211756
v 0.167944 0.106512 -0.206180
v 0.169206 0.106712 -0.200000
v 0.169206 0.106712 0.200000
v 0.167944 0.106512 0.206180
v 0.164281 0.105932 0.211756
v 0.158577 0.105030 0.216180
v 0.151389 0.103892 0.219021
v 0.143421 0.102632 0.220000
v 0.053289 -0.047368 -0.220000
v 0.058174 -0.051240 -0.219021
v 0.062580 -0.054732 -0.216180
v 0.066076 -0.057503 -0.211756
v 0.068321 -0.059283 -0.206180
v 0.069095 -0.059896 -0.200000
v 0.069095 -0.059896 0.200000
v 0.068321 -0.059283 0.206180
v 0.066076 -0.057503 0.211756
v 0.062580 -0.054732 0.216180
v 0.058174 -0.051240 0.219021
v 0.053289 -0.047368 0.220000
v -0.090132 -0.186842 -0.220000
v -0.074851 -0.180603 -0.219021
v -0.061065 -0.174974 -0.216180
v -0.050125 -0.170507 -0.211756
v -0.043101 -0.167639 -0.206180
v -0.040681 -0.166650 -0.200000
v -0.040681 -0.166650 0.200000
v -0.043101 -0.167639 0.206180
v -0.050125 -0.170507 0.211756
v -0.061065 -0.174974 0.216180
v -0.074851 -0.180603 0.219021
v -0.090132 -0.186842 0.220000
v 0.079605 -0.186184 -0.220000
v 0.076000 -0.180018 -0.219021
v 0.072748 -0.174455 -0.216180
v 0.070167 -0.170040 -0.211756
v 0.068510 -0.167206 -0.206180
v 0.067939 -0.166229 -0.200000
v 0.067939 -0.166229 0.200000
v 0.068510 -0.167206 0.206180
v 0.070167 -0.170040 0.211756
v 0.072748 -0.174455 0.216180
v 0.076000 -0.180018 0.219021
v 0.079605 -0.186184 0.220000
v 0.126316 -0.103947 -0.220000
v 0.122718 -0.097767 -0.219021
v 0.119473 -0.092192 -0.216180
v 0.116898 -0.087767 -0.211756
v 0.115244 -0.084926 -0.206180
v 0.114675 -0.083947 -0.200000
v 0.114675 -0.083947 0.200000
v 0.115244 -0.084926 0.206180
v 0.116898 -0.087767 0.211756
v 0.119473 -0.092192 0.216180
v 0.122718 -0.097767 0.219021
v 0.126316 -0.103947 0.220000
v 0.148026 -0.103947 -0.220000
v 0.154671 -0.097767 -0.219021
v 0.160665 -0.092192 -0.216180
v 0.165422 -0.087767 -0.211756
v 0.168476 -0.084926 -0.206180
v 0.169528 -0.083947 -0.200000
v 0.169528 -0.083947 0.200000
v 0.168476 -0.084926 0.206180
v 0.165422 -0.087767 0.211756
v 0.160665 -0.092192 0.216180
v 0.154671 -0.097767 0.219021
v 0.148026 -0.103947 0.220000
v 0.138158 -0.240132 -0.220000
v 0.143907 -0.246312 -0.219021
v 0.149093 -0.251887 -0.216180
v 0.153208 -0.256312 -0.211756
v 0.155851 -0.259153 -0.206180
v 0.156761 -0.260132 -0.200000
v 0.156761 -0.260132 0.200000
v 0.155851 -0.259153 0.206180
v 0.153208 -0.256312 0.211756
v 0.149093 -0.251887 0.216180
v 0.143907 -0.246312 0.219021
v 0.138158 -0.240132 0.220000
v -0.159868 -0.240132 -0.220000
v -0.166049 -0.246312 -0.219021
v -0.171624 -0.251887 -0.216180
v -0.176049 -0.256312 -0.211756
v -0.178890 -0.259153 -0.206180
v -0.179868 -0.260132 -0.200000
v -0.179868 -0.260132 0.200000
v -0.178890 -0.259153 0.206180
v -0.176049 -0.256312 0.211756
v -0.171624 -0.251887 0.216180
v -0.166049 -0.246312 0.219021
v -0.159868 -0.240132 0.220000
v -0.159868 -0.221711 -0.220000
v -0.166049 -0.219345 -0.219021
v -0.171624 -0.217211 -0.216180
v -0.176049 -0.215517 -0.211756
v -0.178890 -0.214430 -0.206180
v -0.179868 -0.214055 -0.200000
v -0.179868 -0.214055 0.200000
v -0.178890 -0.214430 0.206180
v -0.176049 -0.215517 0.211756
v -0.171624 -0.217211 0.216180
v -0.166049 -0.219345 0.219021
v -0.159868 -0.221711 0.220000
v -0.062500 -0.113158 -0.220000
v -0.067464 -0.109436 -0.219021
v -0.071941 -0.106078 -0.216180
v -0.075495 -0.103413 -0.211756
v -0.077777 -0.101702 -0.206180
v -0.078563 -0.101113 -0.200000
v -0.078563 -0.101113 0.200000
v -0.077777 -0.101702 0.206180
v -0.075495 -0.103413 0.211756
v -0.071941 -0.106078 0.216180
v -0.067464 -0.109436 0.219021
v -0.062500 -0.113158 0.220000
v 0.077632 0.112500 -0.220000
v 0.069826 0.111645 -0.219021
v 0.062784 0.110874 -0.216180
v 0.057195 0.110262 -0.211756
v 0.053607 0.109869 -0.206180
v 0.052371 0.109733 -0.200000
v 0.052371 0.109733 0.200000
v 0.053607 0.109869 0.206180
v 0.057195 0.110262 0.211756
v 0.062784 0.110874 0.216180
v 0.069826 0.111645 0.219021
v 0.077632 0.112500 0.220000
v -0.007237 0.199342 -0.220000
v -0.008052 0.191333 -0.219021
v -0.008787 0.184109 -0.216180
v -0.009370 0.178375 -0.211756
v -0.009745 0.174694 -0.206180
v -0.009874 0.173425 -0.200000
v -0.009874 0.173425 0.200000
v -0.009745 0.174694 0.206180
v -0.009370 0.178375 0.211756
v -0.008787 0.184109 0.216180
v -0.008052 0.191333 0.219021
v -0.007237 0.199342 0.220000
vn -0.0000 -0.0000 1.0000
vn -0.0000 -0.0001 1.0000
vn -0.0000 -0.0000 -1.0000
vn 0.1538 -0.0198 -0.9879
vn 0.1133 -0.0051 -0.9935
vn 0.1032 -0.0133 -0.9946
vn 0.3775 -0.0485 -0.9247
vn 0.2832 -0.0127 -0.9590
vn 0.6254 -0.0803 -0.7762
vn 0.5156 -0.0232 -0.8565
vn 0.8719 -0.1120 -0.4768
vn 0.7433 -0.0334 -0.6681
vn 0.9841 -0.1264 -0.1245
vn 0.9263 -0.0417 -0.3746
vn 0.9937 -0.0447 0.1032
vn 0.9841 -0.1264 0.1245
vn 0.9263 -0.0417 0.3746
vn 0.8719 -0.1120 0.4768
vn 0.7433 -0.0334 0.6681
vn 0.6254 -0.0803 0.7762
vn 0.5156 -0.0232 0.8565
vn 0.3775 -0.0485 0.9247
vn 0.2832 -0.0127 0.9590
vn 0.1538 -0.0198 0.9879
vn 0.1133 -0.0051 0.9935
vn 0.1032 -0.0133 0.9946
vn -0.0100 -0.1027 -0.9947
vn -0.0258 -0.2645 -0.9640
vn -0.0473 -0.4850 -0.8732
vn -0.0697 -0.7146 -0.6960
vn 0.9937 -0.0447 -0.1032
vn -0.0890 -0.9128 -0.3986
vn -0.0965 -0.9890 0.1122
vn -0.0890 -0.9128 0.3986
vn -0.0697 -0.7146 0.6960
vn -0.0473 -0.4850 0.8732
vn -0.0258 -0.2645 0.9640
vn -0.0100 -0.1027 0.9947
vn -0.2859 0.0352 -0.9576
vn -0.5197 0.0640 -0.8519
vn -0.7450 0.0918 -0.6607
vn -0.9227 0.1137 -0.3684
vn -0.9874 0.1217 -0.1009
vn -0.0965 -0.9890 -0.1122
vn -0.9874 0.1217 0.1009
vn -0.9227 0.1137 0.3684
vn -0.7450 0.0918 0.6607
vn -0.5197 0.0640 0.8519
vn -0.2859 0.0352 0.9576
vn 0.0010 0.2923 -0.9563
vn -0.1154 0.0142 -0.9932
vn 0.0018 0.5306 -0.8476
vn 0.0026 0.7566 -0.6538
vn 0.0032 0.9319 -0.3627
vn 0.0034 0.9951 -0.0988
vn 0.0034 0.9951 0.0988
vn 0.0032 0.9319 0.3627
vn 0.0026 0.7566 0.6538
vn 0.0018 0.5306 0.8476
vn -0.1154 0.0142 0.9932
vn 0.0010 0.2923 0.9563
vn 0.2908 0.0460 -0.9557
vn 0.0004 0.1190 -0.9929
vn 0.5276 0.0835 -0.8454
vn 0.7504 0.1187 -0.6503
vn 0.9216 0.1458 -0.3598
vn 0.9830 0.1555 -0.0978
vn 0.9830 0.1555 0.0978
vn 0.9216 0.1458 0.3598
vn 0.7504 0.1187 0.6503
vn 0.5276 0.0835 0.8454
vn 0.0004 0.1190 0.9929
vn 0.2908 0.0460 0.9557
vn 0.2494 -0.1977 -0.9480
vn 0.1190 0.0188 -0.9927
vn 0.4648 -0.3684 -0.8052
vn 0.6357 -0.5039 -0.5848
vn 0.7457 -0.5911 -0.3075
vn 0.7813 -0.6192 -0.0786
vn 0.7813 -0.6192 0.0786
vn 0.7457 -0.5911 0.3075
vn 0.6357 -0.5039 0.5848
vn 0.4648 -0.3684 0.8052
vn 0.1190 0.0188 0.9927
vn 0.2494 -0.1977 0.9480
vn 0.0696 0.0284 -0.9972
vn 0.1216 -0.0964 -0.9879
vn 0.1946 0.0794 -0.9777
vn 0.3649 0.1490 -0.9190
vn 0.6457 0.2637 -0.7166
vn 0.9018 0.3682 -0.2264
vn 0.9017 0.3682 0.2264
vn 0.6457 0.2637 0.7166
vn 0.3649 0.1490 0.9190
vn 0.1946 0.0794 0.9777
vn 0.1216 -0.0964 0.9879
vn 0.0696 0.0284 0.9972
vn -0.0685 0.1172 -0.9907
vn 0.0548 0.0224 -0.9982
vn -0.1152 0.1971 -0.9736
vn -0.2513 0.4299 -0.8672
vn -0.3759 0.6429 -0.6674
vn -0.4691 0.8024 -0.3689
vn -0.5025 0.8595 0.0931
vn -0.4691 0.8024 0.3689
vn -0.3759 0.6429 0.6674
vn -0.2513 0.4299 0.8672
vn -0.1152 0.1971 0.9736
vn -0.0685 0.1172 0.9907
vn 0.0548 0.0224 0.9982
vn -0.0682 0.1172 -0.9908
vn -0.1579 0.2712 -0.9495
vn -0.2855 0.4906 -0.8233
vn -0.3963 0.6809 -0.6159
vn -0.5025 0.8595 -0.0931
vn -0.4745 0.8151 -0.3323
vn -0.5011 0.8609 0.0880
vn -0.4745 0.8151 0.3323
vn -0.3963 0.6809 0.6159
vn -0.2855 0.4906 0.8233
vn -0.1579 0.2712 0.9495
vn -0.0682 0.1172 0.9908
vn 0.0785 0.0730 -0.9942
vn 0.2000 0.1860 -0.9620
vn 0.3655 0.3400 -0.8665
vn 0.5338 0.4965 -0.6846
vn -0.5011 0.8609 -0.0880
vn 0.6747 0.6275 -0.3886
vn 0.7279 0.6771 0.1084
vn 0.6747 0.6275 0.3886
vn 0.5338 0.4965 0.6846
vn 0.3655 0.3400 0.8665
vn 0.2000 0.1860 0.9620
vn 0.0785 0.0730 0.9942
vn 0.1950 -0.2097 -0.9581
vn 0.3548 -0.3814 -0.8536
vn 0.5096 -0.5479 -0.6634
vn 0.6326 -0.6801 -0.3707
vn 0.6775 -0.7284 -0.1017
vn 0.7279 0.6771 -0.1084
vn 0.6775 -0.7284 0.1017
vn 0.6326 -0.6801 0.3707
vn 0.5096 -0.5479 0.6634
vn 0.3548 -0.3814 0.8536
vn 0.1950 -0.2097 0.9581
vn -0.0787 -0.0787 -0.9938
vn 0.0785 -0.0843 -0.9933
vn -0.1980 -0.1980 -0.9600
vn -0.3610 -0.3610 -0.8599
vn -0.5226 -0.5226 -0.6736
vn -0.6543 -0.6543 -0.3793
vn -0.7032 -0.7032 0.1049
vn -0.6543 -0.6543 0.3793
vn -0.5226 -0.5226 0.6736
vn -0.3610 -0.3610 0.8599
vn -0.1980 -0.1980 0.9600
vn -0.0787 -0.0787 0.9938
vn 0.0785 -0.0844 0.9933
vn -0.3008 0.1151 -0.9467
vn -0.5472 0.2095 -0.8104
vn -0.7502 0.2872 -0.5956
vn -0.8859 0.3391 -0.3165
vn -0.9307 0.3563 -0.0823
vn -0.7032 -0.7032 -0.1049
vn -0.9307 0.3563 0.0823
vn -0.8859 0.3391 0.3165
vn -0.7502 0.2872 0.5956
vn -0.5472 0.2095 0.8104
vn -0.3008 0.1151 0.9467
vn -0.2401 0.1800 -0.9539
vn -0.1367 0.0523 -0.9892
vn -0.4645 0.3483 -0.8142
vn -0.6440 0.4829 -0.5934
vn -0.7599 0.5699 -0.3126
vn -0.7975 0.5981 -0.0791
vn -0.7975 0.5981 0.0791
vn -0.7599 0.5699 0.3126
vn -0.6440 0.4829 0.5934
vn -0.4645 0.3483 0.8142
vn -0.1367 0.0523 0.9892
vn -0.2401 0.1800 0.9539
vn -0.1969 -0.0216 -0.9802
vn -0.1247 0.0935 -0.9878
vn -0.4508 -0.0494 -0.8913
vn -0.7014 -0.0768 -0.7087
vn -0.9086 -0.0995 -0.4056
vn -0.9887 -0.1083 -0.1032
vn -0.9887 -0.1083 0.1032
vn -0.9086 -0.0995 0.4056
vn -0.7014 -0.0768 0.7087
vn -0.4508 -0.0494 0.8913
vn -0.1247 0.0935 0.9878
vn -0.1969 -0.0216 0.9802
vn -0.0193 -0.1901 -0.9816
vn -0.1230 -0.0135 -0.9923
vn -0.0448 -0.4402 -0.8968
vn -0.0704 -0.6915 -0.7189
vn -0.0921 -0.9049 -0.4154
vn -0.1007 -0.9893 -0.1060
vn -0.1007 -0.9893 0.1060
vn -0.0921 -0.9049 0.4154
vn -0.0704 -0.6915 0.7189
vn -0.0448 -0.4402 0.8968
vn -0.1230 -0.0135 0.9923
vn -0.0193 -0.1901 0.9816
vn -0.0122 -0.1201 -0.9927
vn -0.0122 -0.1201 0.9927
vt 0.812500 0.000000
vt 0.750000 0.000000
vt 0.437500 0.000000
vt 0.875000 0.000000
vt 0.125000 0.000000
vt 0.062500 0.000000
vt 0.187500 0.000000
vt 0.000000 0.000000
vt 0.250000 0.000000
vt 1.000000 0.000000
vt 0.937500 0.000000
vt 0.687500 0.000000
vt 0.625000 0.000000
vt 0.500000 0.000000
vt 0.562500 0.000000
vt 0.375000 0.000000
vt 0.312500 0.000000
vt 0.000000 0.090909
vt 0.058824 0.000000
vt 0.000000 0.181818
vt 0.058824 0.090909
vt 0.000000 0.272727
vt 0.058824 0.181818
vt 0.000000 0.363636
vt 0.058824 0.272727
vt 0.000000 0.454545
vt 0.058824 0.363636
vt 0.058824 0.545455
vt 0.000000 0.545455
vt 0.058824 0.636364
vt 0.000000 0.636364
vt 0.058824 0.727273
vt 0.000000 0.727273
vt 0.058824 0.818182
vt 0.000000 0.818182
vt 0.058824 0.909091
vt 0.000000 0.909091
vt 0.058824 1.000000
vt 0.000000 1.000000
vt 0.117647 0.000000
vt 0.117647 0.090909
vt 0.117647 0.181818
vt 0.117647 0.272727
vt 0.058824 0.454545
vt 0.117647 0.363636
vt 0.117647 0.545455
vt 0.117647 0.636364
vt 0.117647 0.727273
vt 0.117647 0.818182
vt 0.117647 0.909091
vt 0.117647 1.000000
vt 0.176471 0.090909
vt 0.176471 0.181818
vt 0.176471 0.272727
vt 0.176471 0.363636
vt 0.176471 0.454545
vt 0.117647 0.454545
vt 0.176471 0.545455
vt 0.176471 0.636364
vt 0.176471 0.727273
vt 0.176471 0.818182
vt 0.176471 0.909091
vt 0.235294 0.090909
vt 0.176471 0.000000
vt 0.235294 0.181818
vt 0.235294 0.272727
vt 0.235294 0.363636
vt 0.235294 0.454545
vt 0.235294 0.545455
vt 0.235294 0.636364
vt 0.235294 0.727273
vt 0.235294 0.818182
vt 0.176471 1.000000
vt 0.235294 0.909091
vt 0.294118 0.090909
vt 0.235294 0.000000
vt 0.294118 0.181818
vt 0.294118 0.272727
vt 0.294118 0.363636
vt 0.294118 0.454545
vt 0.294118 0.545455
vt 0.294118 0.636364
vt 0.294118 0.727273
vt 0.294118 0.818182
vt 0.235294 1.000000
vt 0.294118 0.909091
vt 0.352941 0.090909
vt 0.294118 0.000000
vt 0.352941 0.181818
vt 0.352941 0.272727
vt 0.352941 0.363636
vt 0.352941 0.454545
vt 0.352941 0.545455
vt 0.352941 0.636364
vt 0.352941 0.727273
vt 0.352941 0.818182
vt 0.294118 1.000000
vt 0.352941 0.909091
vt 0.411765 0.090909
vt 0.352941 0.000000
vt 0.411765 0.181818
vt 0.411765 0.272727
vt 0.411765 0.363636
vt 0.411765 0.454545
vt 0.411765 0.545455
vt 0.411765 0.636364
vt 0.411765 0.727273
vt 0.411765 0.818182
vt 0.352941 1.000000
vt 0.411765 0.909091
vt 0.470588 0.000000
vt 0.411765 0.000000
vt 0.470588 0.090909
vt 0.470588 0.181818
vt 0.470588 0.272727
vt 0.470588 0.363636
vt 0.470588 0.545455
vt 0.470588 0.636364
vt 0.470588 0.727273
vt 0.470588 0.818182
vt 0.470588 0.909091
vt 0.470588 1.000000
vt 0.411765 1.000000
vt 0.529412 0.000000
vt 0.529412 0.090909
vt 0.529412 0.181818
vt 0.529412 0.272727
vt 0.470588 0.454545
vt 0.529412 0.363636
vt 0.529412 0.545455
vt 0.529412 0.636364
vt 0.529412 0.727273
vt 0.529412 0.818182
vt 0.529412 0.909091
vt 0.529412 1.000000
vt 0.588235 0.000000
vt 0.588235 0.090909
vt 0.588235 0.181818
vt 0.588235 0.272727
vt 0.529412 0.454545
vt 0.588235 0.363636
vt 0.588235 0.545455
vt 0.588235 0.636364
vt 0.588235 0.727273
vt 0.588235 0.818182
vt 0.588235 0.909091
vt 0.588235 1.000000
vt 0.647059 0.090909
vt 0.647059 0.181818
vt 0.647059 0.272727
vt 0.647059 0.363636
vt 0.647059 0.454545
vt 0.588235 0.454545
vt 0.647059 0.545455
vt 0.647059 0.636364
vt 0.647059 0.727273
vt 0.647059 0.818182
vt 0.647059 0.909091
vt 0.705882 0.000000
vt 0.647059 0.000000
vt 0.705882 0.090909
vt 0.705882 0.181818
vt 0.705882 0.272727
vt 0.705882 0.363636
vt 0.705882 0.545455
vt 0.705882 0.636364
vt 0.705882 0.727273
vt 0.705882 0.818182
vt 0.705882 0.909091
vt 0.705882 1.000000
vt 0.647059 1.000000
vt 0.764706 0.090909
vt 0.764706 0.181818
vt 0.764706 0.272727
vt 0.764706 0.363636
vt 0.764706 0.454545
vt 0.705882 0.454545
vt 0.764706 0.545455
vt 0.764706 0.636364
vt 0.764706 0.727273
vt 0.764706 0.818182
vt 0.764706 0.909091
vt 0.823529 0.090909
vt 0.764706 0.000000
vt 0.823529 0.181818
vt 0.823529 0.272727
vt 0.823529 0.363636
vt 0.823529 0.454545
vt 0.823529 0.545455
vt 0.823529 0.636364
vt 0.823529 0.727273
vt 0.823529 0.818182
vt 0.764706 1.000000
vt 0.823529 0.909091
vt 0.882353 0.090909
vt 0.823529 0.000000
vt 0.882353 0.181818
vt 0.882353 0.272727
vt 0.882353 0.363636
vt 0.882353 0.454545
vt 0.882353 0.545455
vt 0.882353 0.636364
vt 0.882353 0.727273
vt 0.882353 0.818182
vt 0.823529 1.000000
vt 0.882353 0.909091
vt 0.941176 0.090909
vt 0.882353 0.000000
vt 0.941176 0.181818
vt 0.941176 0.272727
vt 0.941176 0.363636
vt 0.941176 0.454545
vt 0.941176 0.545455
vt 0.941176 0.636364
vt 0.941176 0.727273
vt 0.941176 0.818182
vt 0.882353 1.000000
vt 0.941176 0.909091
vt 1.000000 0.090909
vt 0.941176 0.000000
vt 1.000000 0.181818
vt 1.000000 0.272727
vt 1.000000 0.363636
vt 1.000000 0.454545
vt 1.000000 0.545455
vt 1.000000 0.636364
vt 1.000000 0.727273
vt 1.000000 0.818182
vt 0.941176 1.000000
vt 1.000000 0.909091
vt 1.000000 1.000000
s 0
usemtl マテリアル.020
f 14/1/1 13/2/1 8/3/1
f 8/3/1 15/4/1 14/1/1
f 3/5/1 2/6/1 4/7/1
f 1/8/1 4/7/1 2/6/1
f 5/9/1 17/10/1 16/11/1
f 12/12/1 11/13/1 9/14/1
f 10/15/1 9/14/1 11/13/1
f 16/11/1 7/16/1 6/17/1
f 5/9/1 16/11/1 6/17/1
f 8/3/1 13/2/1 12/12/1
f 12/12/1 9/14/1 8/3/1
f 15/4/1 8/3/1 7/16/1
f 7/16/1 16/11/1 15/4/1
f 17/10/1 5/9/1 1/8/1
f 4/7/2 1/8/2 5/9/2
f 31/1/3 25/3/3 30/2/3
f 25/3/3 31/1/3 32/4/3
f 20/5/3 21/7/3 19/6/3
f 18/8/3 19/6/3 21/7/3
f 22/9/3 33/11/3 34/10/3
f 29/12/3 26/14/3 28/13/3
f 27/15/3 28/13/3 26/14/3
f 33/11/3 23/17/3 24/16/3
f 22/9/3 23/17/3 33/11/3
f 25/3/3 29/12/3 30/2/3
f 29/12/3 25/3/3 26/14/3
f 32/4/3 24/16/3 25/3/3
f 24/16/3 32/4/3 33/11/3
f 34/10/3 18/8/3 22/9/3
f 21/7/3 22/9/3 18/8/3
s 1
f 36/18/4 47/19/5 35/8/6
f 37/20/7 48/21/8 36/18/4
f 38/22/9 49/23/10 37/20/7
f 39/24/11 50/25/12 38/22/9
f 40/26/13 51/27/14 39/24/11
f 53/28/15 40/26/13 41/29/16
f 54/30/17 41/29/16 42/31/18
f 55/32/19 42/31/18 43/33/20
f 56/34/21 43/33/20 44/35/22
f 57/36/23 44/35/22 45/37/24
f 58/38/25 45/37/24 46/39/26
f 48/21/8 59/40/27 47/19/5
f 49/23/10 60/41/28 48/21/8
f 50/25/12 61/42/29 49/23/10
f 51/27/14 62/43/30 50/25/12
f 52/44/31 63/45/32 51/27/14
f 65/46/33 52/44/31 53/28/15
f 66/47/34 53/28/15 54/30/17
f 67/48/35 54/30/17 55/32/19
f 68/49/36 55/32/19 56/34/21
f 69/50/37 56/34/21 57/36/23
f 70/51/38 57/36/23 58/38/25
f 72/52/39 59/40/27 60/41/28
f 73/53/40 60/41/28 61/42/29
f 74/54/41 61/42/29 62/43/30
f 75/55/42 62/43/30 63/45/32
f 76/56/43 63/45/32 64/57/44
f 77/58/45 64/57/44 65/46/33
f 66/47/34 77/58/45 65/46/33
f 67/48/35 78/59/46 66/47/34
f 68/49/36 79/60/47 67/48/35
f 69/50/37 80/61/48 68/49/36
f 70/51/38 81/62/49 69/50/37
f 84/63/50 71/64/51 72/52/39
f 85/65/52 72/52/39 73/53/40
f 86/66/53 73/53/40 74/54/41
f 87/67/54 74/54/41 75/55/42
f 88/68/55 75/55/42 76/56/43
f 89/69/56 76/56/43 77/58/45
f 78/59/46 89/69/56 77/58/45
f 79/60/47 90/70/57 78/59/46
f 80/61/48 91/71/58 79/60/47
f 81/62/49 92/72/59 80/61/48
f 82/73/60 93/74/61 81/62/49
f 96/75/62 83/76/63 84/63/50
f 97/77/64 84/63/50 85/65/52
f 98/78/65 85/65/52 86/66/53
f 99/79/66 86/66/53 87/67/54
f 100/80/67 87/67/54 88/68/55
f 101/81/68 88/68/55 89/69/56
f 90/70/57 101/81/68 89/69/56
f 91/71/58 102/82/69 90/70/57
f 92/72/59 103/83/70 91/71/58
f 93/74/61 104/84/71 92/72/59
f 94/85/72 105/86/73 93/74/61
f 108/87/74 95/88/75 96/75/62
f 109/89/76 96/75/62 97/77/64
f 110/90/77 97/77/64 98/78/65
f 111/91/78 98/78/65 99/79/66
f 112/92/79 99/79/66 100/80/67
f 113/93/80 100/80/67 101/81/68
f 102/82/69 113/93/80 101/81/68
f 103/83/70 114/94/81 102/82/69
f 104/84/71 115/95/82 103/83/70
f 105/86/73 116/96/83 104/84/71
f 106/97/84 117/98/85 105/86/73
f 120/99/86 107/100/87 108/87/74
f 121/101/88 108/87/74 109/89/76
f 122/102/89 109/89/76 110/90/77
f 123/103/90 110/90/77 111/91/78
f 124/104/91 111/91/78 112/92/79
f 125/105/92 112/92/79 113/93/80
f 114/94/81 125/105/92 113/93/80
f 115/95/82 126/106/93 114/94/81
f 116/96/83 127/107/94 115/95/82
f 117/98/85 128/108/95 116/96/83
f 118/109/96 129/110/97 117/98/85
f 120/99/86 131/111/98 119/112/99
f 121/101/88 132/113/100 120/99/86
f 122/102/89 133/114/101 121/101/88
f 123/103/90 134/115/102 122/102/89
f 124/104/91 135/116/103 123/103/90
f 137/117/104 124/104/91 125/105/92
f 138/118/105 125/105/92 126/106/93
f 139/119/106 126/106/93 127/107/94
f 140/120/107 127/107/94 128/108/95
f 141/121/108 128/108/95 129/110/97
f 142/122/109 129/110/97 130/123/110
f 132/113/100 143/124/111 131/111/98
f 133/114/101 144/125/112 132/113/100
f 134/115/102 145/126/113 133/114/101
f 135/116/103 146/127/114 134/115/102
f 136/128/115 147/129/116 135/116/103
f 149/130/117 136/128/115 137/117/104
f 150/131/118 137/117/104 138/118/105
f 151/132/119 138/118/105 139/119/106
f 152/133/120 139/119/106 140/120/107
f 153/134/121 140/120/107 141/121/108
f 154/135/122 141/121/108 142/122/109
f 144/125/112 155/136/123 143/124/111
f 145/126/113 156/137/124 144/125/112
f 146/127/114 157/138/125 145/126/113
f 147/129/116 158/139/126 146/127/114
f 148/140/127 159/141/128 147/129/116
f 161/142/129 148/140/127 149/130/117
f 162/143/130 149/130/117 150/131/118
f 163/144/131 150/131/118 151/132/119
f 164/145/132 151/132/119 152/133/120
f 165/146/133 152/133/120 153/134/121
f 166/147/134 153/134/121 154/135/122
f 168/148/135 155/136/123 156/137/124
f 169/149/136 156/137/124 157/138/125
f 170/150/137 157/138/125 158/139/126
f 171/151/138 158/139/126 159/141/128
f 172/152/139 159/141/128 160/153/140
f 173/154/141 160/153/140 161/142/129
f 162/143/130 173/154/141 161/142/129
f 163/144/131 174/155/142 162/143/130
f 164/145/132 175/156/143 163/144/131
f 165/146/133 176/157/144 164/145/132
f 166/147/134 177/158/145 165/146/133
f 168/148/135 179/159/146 167/160/147
f 169/149/136 180/161/148 168/148/135
f 170/150/137 181/162/149 169/149/136
f 171/151/138 182/163/150 170/150/137
f 172/152/139 183/164/151 171/151/138
f 185/165/152 172/152/139 173/154/141
f 186/166/153 173/154/141 174/155/142
f 187/167/154 174/155/142 175/156/143
f 188/168/155 175/156/143 176/157/144
f 189/169/156 176/157/144 177/158/145
f 190/170/157 177/158/145 178/171/158
f 192/172/159 179/159/146 180/161/148
f 193/173/160 180/161/148 181/162/149
f 194/174/161 181/162/149 182/163/150
f 195/175/162 182/163/150 183/164/151
f 196/176/163 183/164/151 184/177/164
f 197/178/165 184/177/164 185/165/152
f 186/166/153 197/178/165 185/165/152
f 187/167/154 198/179/166 186/166/153
f 188/168/155 199/180/167 187/167/154
f 189/169/156 200/181/168 188/168/155
f 190/170/157 201/182/169 189/169/156
f 204/183/170 191/184/171 192/172/159
f 205/185/172 192/172/159 193/173/160
f 206/186/173 193/173/160 194/174/161
f 207/187/174 194/174/161 195/175/162
f 208/188/175 195/175/162 196/176/163
f 209/189/176 196/176/163 197/178/165
f 198/179/166 209/189/176 197/178/165
f 199/180/167 210/190/177 198/179/166
f 200/181/168 211/191/178 199/180/167
f 201/182/169 212/192/179 200/181/168
f 202/193/180 213/194/181 201/182/169
f 216/195/182 203/196/183 204/183/170
f 217/197/184 204/183/170 205/185/172
f 218/198/185 205/185/172 206/186/173
f 219/199/186 206/186/173 207/187/174
f 220/200/187 207/187/174 208/188/175
f 221/201/188 208/188/175 209/189/176
f 210/190/177 221/201/188 209/189/176
f 211/191/178 222/202/189 210/190/177
f 212/192/179 223/203/190 211/191/178
f 213/194/181 224/204/191 212/192/179
f 214/205/192 225/206/193 213/194/181
f 228/207/194 215/208/195 216/195/182
f 229/209/196 216/195/182 217/197/184
f 230/210/197 217/197/184 218/198/185
f 231/211/198 218/198/185 219/199/186
f 232/212/199 219/199/186 220/200/187
f 221/201/188 232/212/199 220/200/187
f 222/202/189 233/213/200 221/201/188
f 223/203/190 234/214/201 222/202/189
f 224/204/191 235/215/202 223/203/190
f 225/206/193 236/216/203 224/204/191
f 226/217/204 237/218/205 225/206/193
f 36/219/4 227/220/206 228/207/194
f 37/221/7 228/207/194 229/209/196
f 38/222/9 229/209/196 230/210/197
f 39/223/11 230/210/197 231/211/198
f 40/224/13 231/211/198 232/212/199
f 41/225/16 232/212/199 233/213/200
f 234/214/201 41/225/16 233/213/200
f 235/215/202 42/226/18 234/214/201
f 236/216/203 43/227/20 235/215/202
f 237/218/205 44/228/22 236/216/203
f 238/229/207 45/230/24 237/218/205
f 36/18/4 48/21/8 47/19/5
f 37/20/7 49/23/10 48/21/8
f 38/22/9 50/25/12 49/23/10
f 39/24/11 51/27/14 50/25/12
f 40/26/13 52/44/31 51/27/14
f 53/28/15 52/44/31 40/26/13
f 54/30/17 53/28/15 41/29/16
f 55/32/19 54/30/17 42/31/18
f 56/34/21 55/32/19 43/33/20
f 57/36/23 56/34/21 44/35/22
f 58/38/25 57/36/23 45/37/24
f 48/21/8 60/41/28 59/40/27
f 49/23/10 61/42/29 60/41/28
f 50/25/12 62/43/30 61/42/29
f 51/27/14 63/45/32 62/43/30
f 52/44/31 64/57/44 63/45/32
f 65/46/33 64/57/44 52/44/31
f 66/47/34 65/46/33 53/28/15
f 67/48/35 66/47/34 54/30/17
f 68/49/36 67/48/35 55/32/19
f 69/50/37 68/49/36 56/34/21
f 70/51/38 69/50/37 57/36/23
f 72/52/39 71/64/51 59/40/27
f 73/53/40 72/52/39 60/41/28
f 74/54/41 73/53/40 61/42/29
f 75/55/42 74/54/41 62/43/30
f 76/56/43 75/55/42 63/45/32
f 77/58/45 76/56/43 64/57/44
f 66/47/34 78/59/46 77/58/45
f 67/48/35 79/60/47 78/59/46
f 68/49/36 80/61/48 79/60/47
f 69/50/37 81/62/49 80/61/48
f 70/51/38 82/73/60 81/62/49
f 84/63/50 83/76/63 71/64/51
f 85/65/52 84/63/50 72/52/39
f 86/66/53 85/65/52 73/53/40
f 87/67/54 86/66/53 74/54/41
f 88/68/55 87/67/54 75/55/42
f 89/69/56 88/68/55 76/56/43
f 78/59/46 90/70/57 89/69/56
f 79/60/47 91/71/58 90/70/57
f 80/61/48 92/72/59 91/71/58
f 81/62/49 93/74/61 92/72/59
f 82/73/60 94/85/72 93/74/61
f 96/75/62 95/88/75 83/76/63
f 97/77/64 96/75/62 84/63/50
f 98/78/65 97/77/64 85/65/52
f 99/79/66 98/78/65 86/66/53
f 100/80/67 99/79/66 87/67/54
f 101/81/68 100/80/67 88/68/55
f 90/70/57 102/82/69 101/81/68
f 91/71/58 103/83/70 102/82/69
f 92/72/59 104/84/71 103/83/70
f 93/74/61 105/86/73 104/84/71
f 94/85/72 106/97/84 105/86/73
f 108/87/74 107/100/87 95/88/75
f 109/89/76 108/87/74 96/75/62
f 110/90/77 109/89/76 97/77/64
f 111/91/78 110/90/77 98/78/65
f 112/92/79 111/91/78 99/79/66
f 113/93/80 112/92/79 100/80/67
f 102/82/69 114/94/81 113/93/80
f 103/83/70 115/95/82 114/94/81
f 104/84/71 116/96/83 115/95/82
f 105/86/73 117/98/85 116/96/83
f 106/97/84 118/109/96 117/98/85
f 120/99/86 119/112/99 107/100/87
f 121/101/88 120/99/86 108/87/74
f 122/102/89 121/101/88 109/89/76
f 123/103/90 122/102/89 110/90/77
f 124/104/91 123/103/90 111/91/78
f 125/105/92 124/104/91 112/92/79
f 114/94/81 126/106/93 125/105/92
f 115/95/82 127/107/94 126/106/93
f 116/96/83 128/108/95 127/107/94
f 117/98/85 129/110/97 128/108/95
f 118/109/96 130/123/110 129/110/97
f 120/99/86 132/113/100 131/111/98
f 121/101/88 133/114/101 132/113/100
f 122/102/89 134/115/102 133/114/101
f 123/103/90 135/116/103 134/115/102
f 124/104/91 136/128/115 135/116/103
f 137/117/104 136/128/115 124/104/91
f 138/118/105 137/117/104 125/105/92
f 139/119/106 138/118/105 126/106/93
f 140/120/107 139/119/106 127/107/94
f 141/121/108 140/120/107 128/108/95
f 142/122/109 141/121/108 129/110/97
f 132/113/100 144/125/112 143/124/111
f 133/114/101 145/126/113 144/125/112
f 134/115/102 146/127/114 145/126/113
f 135/116/103 147/129/116 146/127/114
f 136/128/115 148/140/127 147/129/116
f 149/130/117 148/140/127 136/128/115
f 150/131/118 149/130/117 137/117/104
f 151/132/119 150/131/118 138/118/105
f 152/133/120 151/132/119 139/119/106
f 153/134/121 152/133/120 140/120/107
f 154/135/122 153/134/121 141/121/108
f 144/125/112 156/137/124 155/136/123
f 145/126/113 157/138/125 156/137/124
f 146/127/114 158/139/126 157/138/125
f 147/129/116 159/141/128 158/139/126
f 148/140/127 160/153/140 159/141/128
f 161/142/129 160/153/140 148/140/127
f 162/143/130 161/142/129 149/130/117
f 163/144/131 162/143/130 150/131/118
f 164/145/132 163/144/131 151/132/119
f 165/146/133 164/145/132 152/133/120
f 166/147/134 165/146/133 153/134/121
f 168/148/135 167/160/147 155/136/123
f 169/149/136 168/148/135 156/137/124
f 170/150/137 169/149/136 157/138/125
f 171/151/138 170/150/137 158/139/126
f 172/152/139 171/151/138 159/141/128
f 173/154/141 172/152/139 160/153/140
f 162/143/130 174/155/142 173/154/141
f 163/144/131 175/156/143 174/155/142
f 164/145/132 176/157/144 175/156/143
f 165/146/133 177/158/145 176/157/144
f 166/147/134 178/171/158 177/158/145
f 168/148/135 180/161/148 179/159/146
f 169/149/136 181/162/149 180/161/148
f 170/150/137 182/163/150 181/162/149
f 171/151/138 183/164/151 182/163/150
f 172/152/139 184/177/164 183/164/151
f 185/165/152 184/177/164 172/152/139
f 186/166/153 185/165/152 173/154/141
f 187/167/154 186/166/153 174/155/142
f 188/168/155 187/167/154 175/156/143
f 189/169/156 188/168/155 176/157/144
f 190/170/157 189/169/156 177/158/145
f 192/172/159 191/184/171 179/159/146
f 193/173/160 192/172/159 180/161/148
f 194/174/161 193/173/160 181/162/149
f 195/175/162 194/174/161 182/163/150
f 196/176/163 195/175/162 183/164/151
f 197/178/165 196/176/163 184/177/164
f 186/166/153 198/179/166 197/178/165
f 187/167/154 199/180/167 198/179/166
f 188/168/155 200/181/168 199/180/167
f 189/169/156 201/182/169 200/181/168
f 190/170/157 202/193/180 201/182/169
f 204/183/170 203/196/183 191/184/171
f 205/185/172 204/183/170 192/172/159
f 206/186/173 205/185/172 193/173/160
f 207/187/174 206/186/173 194/174/161
f 208/188/175 207/187/174 195/175/162
f 209/189/176 208/188/175 196/176/163
f 198/179/166 210/190/177 209/189/176
f 199/180/167 211/191/178 210/190/177
f 200/181/168 212/192/179 211/191/178
f 201/182/169 213/194/181 212/192/179
f 202/193/180 214/205/192 213/194/181
f 216/195/182 215/208/195 203/196/183
f 217/197/184 216/195/182 204/183/170
f 218/198/185 217/197/184 205/185/172
f 219/199/186 218/198/185 206/186/173
f 220/200/187 219/199/186 207/187/174
f 221/201/188 220/200/187 208/188/175
f 210/190/177 222/202/189 221/201/188
f 211/191/178 223/203/190 222/202/189
f 212/192/179 224/204/191 223/203/190
f 213/194/181 225/206/193 224/204/191
f 214/205/192 226/217/204 225/206/193
f 228/207/194 227/220/206 215/208/195
f 229/209/196 228/207/194 216/195/182
f 230/210/197 229/209/196 217/197/184
f 231/211/198 230/210/197 218/198/185
f 232/212/199 231/211/198 219/199/186
f 221/201/188 233/213/200 232/212/199
f 222/202/189 234/214/201 233/213/200
f 223/203/190 235/215/202 234/214/201
f 224/204/191 236/216/203 235/215/202
f 225/206/193 237/218/205 236/216/203
f 226/217/204 238/229/207 237/218/205
f 36/219/4 35/10/6 227/220/206
f 37/221/7 36/219/4 228/207/194
f 38/222/9 37/221/7 229/209/196
f 39/223/11 38/222/9 230/210/197
f 40/224/13 39/223/11 231/211/198
f 41/225/16 40/224/13 232/212/199
f 234/214/201 42/226/18 41/225/16
f 235/215/202 43/227/20 42/226/18
f 236/216/203 44/228/22 43/227/20
f 237/218/205 45/230/24 44/228/22
f 238/229/207 46/231/26 45/230/24
