# Blender 5.1.0
# www.blender.org
mtllib player_head.mtl
o head
v 0.000000 -0.200005 -0.000000
v -0.131949 0.169613 0.103034
v -0.131949 0.169613 -0.103034
v 0.131949 0.169613 0.103034
v 0.131949 0.169613 -0.103034
v 0.000000 0.169613 -0.103034
v 0.000000 0.169613 0.103034
v -0.065974 0.169613 -0.103034
v -0.065974 0.169613 0.103034
v 0.065974 0.169613 -0.103034
v 0.065974 0.169613 0.103034
v 0.131949 0.169613 -0.000000
v -0.131949 0.169613 -0.000000
v 0.000000 0.169613 -0.000000
v -0.065974 0.169613 -0.000000
v 0.065974 0.169613 -0.000000
v -0.098962 0.187631 0.103034
v 0.098962 0.187631 0.103034
v -0.098962 0.187631 -0.103034
v -0.098962 0.385554 0.103034
v 0.098962 0.385554 0.103034
v -0.098962 0.385553 -0.103034
v 0.098962 0.385553 -0.103034
v 0.098962 0.187631 -0.103034
vn -0.0000 -0.1291 -0.9916
vn -0.0004 -0.1291 -0.9916
vn 1.0000 -0.0000 -0.0000
vn 0.9999 -0.0003 0.0133
vn -0.0000 1.0000 -0.0000
vn -1.0000 -0.0000 -0.0000
vn -0.9999 -0.0003 -0.0133
vn -0.0000 -0.1291 0.9916
vn 0.0004 -0.1291 0.9916
vn 0.0004 -0.1291 -0.9916
vn -0.0004 -0.1291 0.9916
vn -0.9999 -0.0003 0.0134
vn 0.9999 -0.0003 -0.0134
vn -0.0000 -0.0000 1.0000
vn -0.0000 -1.0000 -0.0000
vn -0.0000 -0.0000 -1.0000
vt 0.375000 0.937500
vt 0.375000 1.000000
vt 0.625000 0.937500
vt 0.375000 0.125000
vt 0.375000 0.250000
vt 0.625000 0.125000
vt 0.312500 0.750000
vt 0.375000 0.625000
vt 0.312500 0.625000
vt 0.375000 0.750000
vt 0.625000 0.625000
vt 0.375000 0.437500
vt 0.375000 0.500000
vt 0.625000 0.437500
vt 0.375000 0.312500
vt 0.375000 0.375000
vt 0.625000 0.312500
vt 0.187500 0.750000
vt 0.250000 0.625000
vt 0.187500 0.625000
vt 0.375000 0.812500
vt 0.375000 0.875000
vt 0.625000 0.812500
vt 0.625000 0.750000
vt 0.625000 0.375000
vt 0.250000 0.750000
vt 0.125000 0.750000
vt 0.125000 0.625000
vt 0.625000 0.250000
vt 0.625000 0.875000
vt 0.187500 0.500000
vt 0.125000 0.500000
vt 0.312500 0.500000
vt 0.250000 0.500000
vt 0.625000 0.500000
vt 0.375000 0.000000
vt 0.625000 0.000000
vt 0.875000 0.500000
vt 0.875000 0.750000
vt 0.625000 1.000000
s 1
usemtl Material.002
f 10/1/1 5/2/2 1/3/1
f 12/4/3 4/5/4 1/6/3
f 8/7/5 13/8/5 15/9/5
f 13/8/6 3/10/7 1/11/6
f 9/12/8 2/13/9 1/14/8
f 11/15/8 7/16/8 1/17/8
f 10/18/5 14/19/5 16/20/5
f 8/21/1 6/22/1 1/23/1
f 3/10/10 8/21/1 1/24/1
f 7/16/8 9/12/8 1/25/8
f 6/26/5 15/9/5 14/19/5
f 5/27/5 16/20/5 12/28/5
f 4/5/11 11/15/8 1/29/8
f 6/22/1 10/1/1 1/30/1
f 12/28/5 11/31/5 4/32/5
f 14/19/5 9/33/5 7/34/5
f 16/20/5 7/34/5 11/31/5
f 2/13/12 13/8/6 1/35/6
f 15/9/5 2/13/5 9/33/5
f 5/36/13 12/4/3 1/37/3
f 8/7/5 3/10/5 13/8/5
f 10/18/5 6/26/5 14/19/5
f 6/26/5 8/7/5 15/9/5
f 5/27/5 10/18/5 16/20/5
f 12/28/5 16/20/5 11/31/5
f 14/19/5 15/9/5 9/33/5
f 16/20/5 14/19/5 7/34/5
f 15/9/5 13/8/5 2/13/5
usemtl Material.001
f 20/13/14 18/29/14 21/5/14
f 19/24/15 18/38/15 17/35/15
f 22/10/6 17/35/6 20/13/6
f 23/27/5 20/13/5 21/32/5
f 23/2/16 19/24/16 22/10/16
f 23/36/3 18/29/3 24/37/3
f 20/13/14 17/35/14 18/29/14
f 19/24/15 24/39/15 18/38/15
f 22/10/6 19/24/6 17/35/6
f 23/27/5 22/10/5 20/13/5
f 23/2/16 24/40/16 19/24/16
f 23/36/3 21/5/3 18/29/3
