# Blender 5.1.0
# www.blender.org
mtllib clone_head.mtl
o head
v 0.000000 -0.200005 -0.000000
v -0.131949 0.169613 0.103034
v -0.131949 0.169613 -0.103034
v 0.131949 0.169613 0.103034
v 0.131949 0.169613 -0.103034
v 0.000000 0.169613 -0.103034
v 0.000000 0.169613 0.103034
v -0.065974 0.169613 -0.103034
v -0.065974 0.169613 0.103034
v 0.065974 0.169613 -0.103034
v 0.065974 0.169613 0.103034
v 0.131949 0.169613 -0.000000
v -0.131949 0.169613 -0.000000
v 0.000000 0.169613 -0.000000
v -0.065974 0.169613 -0.000000
v 0.065974 0.169613 -0.000000
v -0.098962 0.187631 0.103034
v 0.098962 0.187631 0.103034
v -0.098962 0.187631 -0.103034
v -0.098962 0.385554 0.103034
v 0.098962 0.385554 0.103034
v -0.098962 0.385553 -0.103034
v 0.098962 0.385553 -0.103034
v 0.098962 0.187631 -0.103034
vn -0.0000 -0.1291 -0.9916
vn -0.0004 -0.1291 -0.9916
vn 1.0000 -0.0000 -0.0000
vn 0.9999 -0.0003 0.0133
vn -0.0000 1.0000 -0.0000
vn -1.0000 -0.0000 -0.0000
vn -0.9999 -0.0003 -0.0133
vn -0.0000 -0.1291 0.9916
vn 0.0004 -0.1291 0.9916
vn 0.0004 -0.1291 -0.9916
vn -0.0004 -0.1291 0.9916
vn -0.9999 -0.0003 0.0134
vn 0.9999 -0.0003 -0.0134
vn -0.0000 -0.0000 1.0000
vn -0.0000 -1.0000 -0.0000
vn -0.0000 -0.0000 -1.0000
vt 0.498130 0.000000
vt 0.569291 0.000000
vt 0.426969 0.413273
vt 0.680426 0.000000
vt 0.791560 0.000000
vt 0.680426 0.420582
vt 0.444538 0.626758
vt 0.333403 0.697919
vt 0.333403 0.626758
vt 0.111134 0.413273
vt 0.222269 0.413273
vt 0.111134 0.833855
vt 0.213484 0.000000
vt 0.284646 0.000000
vt 0.142323 0.413273
vt 0.071161 0.000000
vt 0.142323 0.000000
vt 0.444538 0.484435
vt 0.333403 0.555596
vt 0.333403 0.484435
vt 0.355807 0.000000
vt 0.426969 0.000000
vt 0.284646 0.000000
vt 0.444538 0.555596
vt 0.444538 0.413273
vt 0.333403 0.413273
vt 0.000000 0.000000
vt 0.222269 0.484435
vt 0.222269 0.413273
vt 0.222269 0.626758
vt 0.222269 0.555596
vt 0.000000 0.413273
vt 0.222269 0.697919
vt 0.569291 0.000000
vt 0.782776 0.642851
vt 0.991215 0.856335
vt 0.782776 0.856335
vt 0.782776 0.642851
vt 0.569291 0.420582
vt 0.782776 0.420582
vt 0.430175 0.920188
vt 0.222269 0.697919
vt 0.430175 0.697919
vt 0.782776 0.865120
vt 0.569291 0.642851
vt 0.791560 0.000000
vt 1.000000 0.213484
vt 0.791560 0.213484
vt 0.990682 0.420582
vt 0.782776 0.642851
vt 0.444538 0.697919
vt 0.991215 0.642851
vt 0.222269 0.920188
vt 0.569291 0.865120
vt 1.000000 0.000000
vt 0.990682 0.642851
s 1
usemtl マテリアル.005
f 10/1/1 5/2/2 1/3/1
f 12/4/3 4/5/4 1/6/3
f 8/7/5 13/8/5 15/9/5
f 13/10/6 3/11/7 1/12/6
f 9/13/8 2/14/9 1/15/8
f 11/16/8 7/17/8 1/15/8
f 10/18/5 14/19/5 16/20/5
f 8/21/1 6/22/1 1/3/1
f 3/23/10 8/21/1 1/3/1
f 7/17/8 9/13/8 1/15/8
f 6/24/5 15/9/5 14/19/5
f 5/25/5 16/20/5 12/26/5
f 4/27/11 11/16/8 1/15/8
f 6/22/1 10/1/1 1/3/1
f 12/26/5 11/28/5 4/29/5
f 14/19/5 9/30/5 7/31/5
f 16/20/5 7/31/5 11/28/5
f 2/32/12 13/10/6 1/12/6
f 15/9/5 2/33/5 9/30/5
f 5/34/13 12/4/3 1/6/3
f 20/35/14 18/36/14 21/37/14
f 19/38/15 18/39/15 17/40/15
f 22/41/6 17/42/6 20/43/6
f 23/44/5 20/45/5 21/38/5
f 23/46/16 19/47/16 22/48/16
f 23/49/3 18/50/3 24/40/3
f 8/7/5 3/51/5 13/8/5
f 10/18/5 6/24/5 14/19/5
f 6/24/5 8/7/5 15/9/5
f 5/25/5 10/18/5 16/20/5
f 12/26/5 16/20/5 11/28/5
f 14/19/5 15/9/5 9/30/5
f 16/20/5 14/19/5 7/31/5
f 15/9/5 13/8/5 2/33/5
f 20/35/14 17/52/14 18/36/14
f 19/38/15 24/45/15 18/39/15
f 22/41/6 19/53/6 17/42/6
f 23/44/5 22/54/5 20/45/5
f 23/46/16 24/55/16 19/47/16
f 23/49/3 21/56/3 18/50/3
