# Blender 5.1.0
# www.blender.org
mtllib cloneObject.mtl
o cloneObject_handing
v -0.046284 0.168118 -0.384613
v 0.035002 0.051524 -0.431779
v -0.040894 -0.315573 -0.326817
v 0.000089 -0.412602 -0.201556
v 0.083366 -0.189485 -0.400276
v 0.213362 -0.025561 -0.378029
v 0.201553 0.206217 -0.300261
v 0.079591 0.368994 -0.135017
v 0.280256 -0.195877 -0.289228
v 0.047703 -0.455603 0.000035
v 0.315899 0.209218 -0.173493
v 0.380579 0.015297 -0.208817
v 0.361756 -0.233656 -0.130701
v 0.186863 -0.393792 -0.156251
v 0.264947 0.301556 0.003625
v 0.410336 0.082955 0.069591
v 0.320283 -0.304651 0.058395
v 0.395323 -0.170112 0.086317
v 0.131364 0.370761 -0.003044
v 0.271579 0.212609 0.212356
v 0.273632 -0.236725 0.259745
v 0.267100 0.010107 0.327103
v 0.148035 -0.417819 0.104169
v 0.075001 0.324953 0.218667
v 0.111273 0.171362 0.351853
v 0.056539 -0.361664 0.252926
v -0.008185 -0.032534 0.419572
v 0.052749 -0.210622 0.381288
v -0.113190 0.130201 0.368578
v -0.124073 0.301826 0.219400
v -0.275124 0.121438 0.281018
v -0.277982 -0.076134 0.318173
v -0.230938 -0.225432 0.295621
v -0.249408 -0.346254 0.146953
v -0.087049 -0.401253 0.191775
v -0.077496 0.385798 0.047110
v -0.393137 -0.128181 0.124148
v -0.279773 0.280975 0.087492
v -0.379010 0.165815 0.024855
v -0.426574 0.020424 0.015514
v -0.102516 -0.447172 -0.035032
v -0.380663 -0.231654 -0.080099
v -0.252744 0.279590 -0.156478
v -0.369256 0.050242 -0.207600
v -0.232155 0.051515 -0.361018
v -0.267327 -0.280230 -0.239675
v -0.216009 -0.376767 -0.148930
v -0.161349 0.247909 -0.287292
v -0.228309 -0.144863 -0.365299
v -0.033784 0.340303 -0.224457
vn -0.0066 -0.9783 -0.2071
vn 0.2802 -0.6742 -0.6833
vn 0.1456 0.6681 -0.7297
vn 0.2294 -0.7317 -0.6419
vn 0.4565 0.7788 -0.4302
vn 0.6511 0.2710 -0.7089
vn 0.0627 0.9973 -0.0379
vn 0.8463 -0.2167 -0.4867
vn 0.4590 0.8675 -0.1917
vn 0.8726 -0.4884 0.0080
vn 0.8378 0.5443 -0.0428
vn 0.5500 -0.8351 0.0050
vn 0.7787 0.5857 0.2249
vn 0.8030 0.2803 0.5259
vn 0.4295 0.8566 0.2862
vn 0.7837 -0.5105 0.3538
vn 0.4098 -0.7411 0.5318
vn 0.4494 -0.2241 0.8648
vn 0.2956 0.1406 0.9449
vn 0.0833 -0.9143 0.3964
vn -0.1036 0.9048 0.4130
vn -0.1431 -0.6430 0.7524
vn -0.0617 0.6455 0.7612
vn -0.1023 -0.9736 0.2041
vn -0.3596 0.0597 0.9312
vn -0.4002 -0.6862 0.6074
vn -0.4106 0.5832 0.7009
vn -0.3854 0.8662 0.3180
vn -0.7905 0.4632 0.4008
vn -0.3650 -0.9074 0.2086
vn -0.8779 0.2614 0.4013
vn -0.7721 -0.3257 0.5456
vn -0.8258 -0.5219 0.2140
vn -0.9805 -0.1929 0.0379
vn -0.6605 -0.7508 0.0029
vn -0.4683 0.8817 -0.0569
vn 0.9938 -0.0649 -0.0904
vn -0.8390 -0.1957 -0.5077
vn -0.7456 -0.0001 -0.6663
vn -0.8246 -0.2384 -0.5131
vn -0.3708 -0.5720 -0.7316
vn -0.3407 -0.7337 -0.5878
vn -0.2635 -0.8025 -0.5354
vn -0.3805 0.4421 -0.8123
vn -0.2326 -0.9138 -0.3330
vn -0.2505 0.2079 -0.9455
vn -0.1320 -0.1545 -0.9791
vn 0.2583 -0.0741 -0.9632
vn 0.2124 0.4901 -0.8454
vn 0.2572 0.7766 -0.5751
vn 0.3652 -0.6317 -0.6838
vn 0.3947 0.3103 -0.8648
vn 0.4685 -0.2568 -0.8454
vn 0.1549 -0.9581 -0.2410
vn 0.7185 -0.0782 -0.6911
vn 0.6320 -0.6150 -0.4715
vn 0.6925 0.3463 -0.6329
vn 0.5061 0.8159 -0.2798
vn 0.8341 -0.1246 0.5374
vn 0.6799 -0.7230 -0.1223
vn 0.9225 0.3407 -0.1814
vn 0.3784 -0.9252 -0.0289
vn -0.3082 -0.2363 0.9215
vn 0.4761 0.8144 0.3319
vn 0.5764 -0.7245 0.3780
vn 0.5380 0.4065 0.7384
vn 0.1250 0.9649 0.2311
vn 0.3267 -0.6073 0.7242
vn 0.3942 0.6535 0.6462
vn 0.3295 -0.0893 0.9399
vn 0.0454 -0.9523 0.3018
vn 0.0145 0.3075 0.9514
vn -0.1987 -0.6138 0.7640
vn -0.0729 0.6516 0.7550
vn -0.8818 0.1325 0.4526
vn -0.4758 0.1692 0.8631
vn -0.5444 0.6408 0.5413
vn -0.6638 0.4605 -0.5893
vn -0.7615 -0.4535 0.4631
vn -0.5449 -0.8381 0.0249
vn -0.9282 0.3163 -0.1962
vn -0.9631 -0.0776 -0.2578
vn -0.7315 0.6765 -0.0849
vn -0.6982 -0.6510 -0.2977
vn -0.8309 0.4835 -0.2752
vn -0.3204 0.9245 -0.2065
vn -0.3660 0.8131 -0.4526
vn -0.1049 0.9779 -0.1807
vn -0.2560 0.0161 -0.9665
vn -0.1565 -0.3775 -0.9127
vn -0.1377 0.6799 -0.7202
vn 0.9865 -0.1122 -0.1197
vn 0.8761 -0.0201 0.4816
vn -0.2630 -0.2879 0.9208
vn -0.8673 0.1041 0.4868
vn -0.6672 0.4681 -0.5795
vt 0.749362 0.148843
vt 0.446456 0.050464
vt 0.932449 0.105386
vt 0.769983 0.276805
vt 0.715018 0.386855
vt 0.604127 0.191329
vt 0.782679 0.826120
vt 0.660390 0.683697
vt 0.767226 0.649661
vt 0.678015 0.885145
vt 0.578152 0.681983
vt 0.577791 0.531525
vt 0.667976 0.507320
vt 0.578125 1.000000
vt 0.488828 0.897881
vt 0.552177 0.347503
vt 0.625690 0.376563
vt 0.493672 0.783531
vt 0.461250 0.403315
vt 0.468206 0.280681
vt 0.469506 0.584794
vt 0.392293 0.151610
vt 0.390917 0.693905
vt 0.358073 0.530835
vt 0.305601 0.803570
vt 0.372760 0.344825
vt 0.282561 0.217129
vt 0.271146 0.362510
vt 0.297076 0.655822
vt 0.247549 0.499308
vt 0.181374 0.171922
vt 0.168070 0.919429
vt 0.170729 0.790522
vt 0.203205 0.624610
vt 0.030924 0.078180
vt 0.139323 0.469165
vt 0.147617 0.348229
vt 0.084990 0.239985
vt 0.130782 0.615619
vt 0.056371 0.761307
vt 0.020554 0.652780
vt 0.017209 0.542569
vt 0.051025 0.426540
vt 0.002126 0.349331
vt 0.000000 0.187500
vt 0.996001 0.786996
vt 0.892772 0.971116
vt 0.919835 0.760489
vt 0.921917 0.562254
vt 0.838501 0.429295
vt 0.972394 0.358781
vt 0.842437 0.561834
vt 0.890698 0.312847
vt 0.908946 0.201520
vt 0.834606 0.722901
vt 0.737081 0.552662
vt 0.991215 0.514973
vt 0.984415 0.655822
s 0
usemtl マテリアル
f 4/1/1 10/2/1 41/3/1
f 3/4/2 5/5/2 14/6/2
f 50/7/3 7/8/3 1/9/3
f 3/4/4 14/6/4 4/1/4
f 8/10/5 11/11/5 7/8/5
f 7/8/6 12/12/6 6/13/6
f 8/10/7 36/14/7 19/15/7
f 12/12/8 13/16/8 9/17/8
f 8/10/9 19/15/9 15/18/9
f 13/16/10 18/19/10 17/20/10
f 11/11/11 15/18/11 16/21/11
f 14/6/12 17/20/12 23/22/12
f 16/21/13 15/18/13 20/23/13
f 16/21/14 20/23/14 22/24/14
f 15/18/15 19/15/15 24/25/15
f 17/20/16 18/19/16 21/26/16
f 21/26/17 26/27/17 23/22/17
f 22/24/18 28/28/18 21/26/18
f 22/24/19 25/29/19 27/30/19
f 23/22/20 26/27/20 35/31/20
f 24/25/21 36/32/21 30/33/21
f 28/28/22 35/31/22 26/27/22
f 25/29/23 24/25/23 29/34/23
f 10/2/24 35/31/24 41/35/24
f 27/30/25 29/34/25 32/36/25
f 33/37/26 34/38/26 35/31/26
f 29/34/27 30/33/27 31/39/27
f 36/32/28 38/40/28 30/33/28
f 38/40/29 39/41/29 31/39/29
f 35/31/30 34/38/30 41/35/30
f 31/39/31 39/41/31 40/42/31
f 32/36/32 37/43/32 33/37/32
f 34/38/33 37/43/33 42/44/33
f 40/42/34 42/44/34 37/43/34
f 34/38/35 42/44/35 47/45/35
f 38/46/36 36/47/36 43/48/36
f 18/19/37 12/12/37 16/21/37
f 44/49/38 49/50/38 42/51/38
f 44/49/39 45/52/39 49/50/39
f 49/50/40 46/53/40 42/51/40
f 46/53/41 49/50/41 3/4/41
f 46/53/42 3/4/42 47/54/42
f 47/54/43 3/4/43 4/1/43
f 48/55/44 1/9/44 45/52/44
f 47/54/45 4/1/45 41/3/45
f 45/52/46 1/9/46 2/56/46
f 2/56/47 5/5/47 49/50/47
f 2/56/48 6/13/48 5/5/48
f 1/9/49 7/8/49 2/56/49
f 50/7/50 8/10/50 7/8/50
f 5/5/51 9/17/51 14/6/51
f 2/56/52 7/8/52 6/13/52
f 5/5/53 6/13/53 9/17/53
f 10/2/54 4/1/54 14/6/54
f 6/13/55 12/12/55 9/17/55
f 9/17/56 13/16/56 14/6/56
f 12/12/57 7/8/57 11/11/57
f 8/10/58 15/18/58 11/11/58
f 18/19/59 22/24/59 21/26/59
f 14/6/60 13/16/60 17/20/60
f 12/12/61 11/11/61 16/21/61
f 14/6/62 23/22/62 10/2/62
f 33/37/63 27/30/63 32/36/63
f 15/18/64 24/25/64 20/23/64
f 17/20/65 21/26/65 23/22/65
f 22/24/66 20/23/66 25/29/66
f 24/25/67 19/15/67 36/32/67
f 21/26/68 28/28/68 26/27/68
f 25/29/69 20/23/69 24/25/69
f 22/24/70 27/30/70 28/28/70
f 10/2/71 23/22/71 35/31/71
f 27/30/72 25/29/72 29/34/72
f 28/28/73 33/37/73 35/31/73
f 29/34/74 24/25/74 30/33/74
f 37/43/75 31/39/75 40/42/75
f 32/36/76 29/34/76 31/39/76
f 31/39/77 30/33/77 38/40/77
f 44/49/78 48/55/78 45/52/78
f 34/38/79 33/37/79 37/43/79
f 34/38/80 47/45/80 41/35/80
f 40/57/81 39/58/81 44/49/81
f 40/57/82 44/49/82 42/51/82
f 39/58/83 38/46/83 43/48/83
f 47/54/84 42/51/84 46/53/84
f 39/58/85 43/48/85 44/49/85
f 43/48/86 36/47/86 50/7/86
f 43/48/87 50/7/87 48/55/87
f 50/7/88 36/47/88 8/10/88
f 45/52/89 2/56/89 49/50/89
f 49/50/90 5/5/90 3/4/90
f 1/9/91 48/55/91 50/7/91
f 18/19/92 13/16/92 12/12/92
f 18/19/93 16/21/93 22/24/93
f 33/37/94 28/28/94 27/30/94
f 37/43/95 32/36/95 31/39/95
f 44/49/96 43/48/96 48/55/96
