# Blender 5.1.0
# www.blender.org
mtllib x.mtl
o x
v 0.250000 -0.300000 0.230000
v 0.136000 -0.300000 0.230000
v -0.005000 -0.139000 0.230000
v -0.138000 -0.300000 0.230000
v -0.250000 -0.300000 0.230000
v -0.061000 -0.072000 0.230000
v -0.250000 0.149000 0.230000
v -0.138000 0.149000 0.230000
v -0.005000 -0.005000 0.230000
v 0.123000 0.149000 0.230000
v 0.237000 0.149000 0.230000
v 0.052000 -0.072000 0.230000
v 0.250000 -0.300000 -0.230000
v 0.136000 -0.300000 -0.230000
v -0.005000 -0.139000 -0.230000
v -0.138000 -0.300000 -0.230000
v -0.250000 -0.300000 -0.230000
v -0.061000 -0.072000 -0.230000
v -0.250000 0.149000 -0.230000
v -0.138000 0.149000 -0.230000
v -0.005000 -0.005000 -0.230000
v 0.123000 0.149000 -0.230000
v 0.237000 0.149000 -0.230000
v 0.052000 -0.072000 -0.230000
v 0.250000 -0.300000 -0.230000
v 0.315786 -0.330000 -0.200000
v 0.315786 -0.330000 0.200000
v 0.250000 -0.300000 0.230000
v 0.136000 -0.300000 -0.230000
v 0.122395 -0.330000 -0.200000
v 0.122395 -0.330000 0.200000
v 0.136000 -0.300000 0.230000
v -0.005000 -0.139000 -0.230000
v -0.004333 -0.185297 -0.200000
v -0.004333 -0.185297 0.200000
v -0.005000 -0.139000 0.230000
v -0.138000 -0.300000 -0.230000
v -0.123870 -0.330000 -0.200000
v -0.123870 -0.330000 0.200000
v -0.138000 -0.300000 0.230000
v -0.250000 -0.300000 -0.230000
v -0.313836 -0.330000 -0.200000
v -0.313836 -0.330000 0.200000
v -0.250000 -0.300000 0.230000
v -0.061000 -0.072000 -0.230000
v -0.100217 -0.072301 -0.200000
v -0.100217 -0.072301 0.200000
v -0.061000 -0.072000 0.230000
v -0.250000 0.149000 -0.230000
v -0.315131 0.179000 -0.200000
v -0.315131 0.179000 0.200000
v -0.250000 0.149000 0.230000
v -0.138000 0.149000 -0.230000
v -0.124270 0.179000 -0.200000
v -0.124270 0.179000 0.200000
v -0.138000 0.149000 0.230000
v -0.005000 -0.005000 -0.230000
v -0.005438 0.041406 -0.200000
v -0.005438 0.041406 0.200000
v -0.005000 -0.005000 0.230000
v 0.123000 0.149000 -0.230000
v 0.108925 0.179000 -0.200000
v 0.108925 0.179000 0.200000
v 0.123000 0.149000 0.230000
v 0.237000 0.149000 -0.230000
v 0.301237 0.179000 -0.200000
v 0.301237 0.179000 0.200000
v 0.237000 0.149000 0.230000
v 0.052000 -0.072000 -0.230000
v 0.091423 -0.071643 -0.200000
v 0.091423 -0.071643 0.200000
v 0.052000 -0.072000 0.230000
vn -0.0000 -0.0000 1.0000
vn -0.0000 -0.0000 -1.0000
vn -0.3838 -0.8463 -0.3694
vn 0.3487 -0.1590 -0.9236
vn 0.8157 -0.3720 -0.4430
vn -0.3838 -0.8463 0.3694
vn 0.8157 -0.3720 0.4429
vn 0.3487 -0.1590 0.9236
vn 0.0114 -0.7888 -0.6146
vn -0.2781 -0.6132 -0.7393
vn 0.0114 -0.7888 0.6146
vn -0.2781 -0.6132 0.7393
vn 0.2859 -0.6069 -0.7416
vn 0.0078 -0.5437 -0.8392
vn 0.3959 -0.8406 0.3697
vn 0.2859 -0.6069 0.7416
vn 0.0078 -0.5437 0.8392
vn 0.3959 -0.8406 -0.3697
vn -0.3542 -0.1665 -0.9202
vn -0.8124 -0.3817 0.4409
vn -0.3542 -0.1665 0.9202
vn -0.8436 -0.0065 -0.5369
vn -0.8124 -0.3817 -0.4408
vn -0.8436 -0.0065 0.5369
vn -0.3505 0.1615 -0.9225
vn -0.6076 -0.0047 -0.7943
vn -0.8146 0.3752 0.4422
vn -0.3505 0.1615 0.9225
vn -0.6076 -0.0047 0.7943
vn 0.3867 0.8450 -0.3695
vn -0.8146 0.3752 -0.4423
vn 0.3867 0.8450 0.3695
vn -0.0074 0.7880 -0.6156
vn 0.2800 0.6117 -0.7399
vn -0.0075 0.7880 0.6156
vn 0.2800 0.6117 0.7399
vn -0.2850 0.6076 -0.7413
vn -0.0051 0.5429 -0.8398
vn -0.3946 0.8412 0.3697
vn -0.2850 0.6076 0.7413
vn -0.0051 0.5429 0.8398
vn -0.3947 0.8412 -0.3697
vn 0.3531 0.1649 -0.9209
vn 0.8131 0.3797 0.4413
vn 0.3531 0.1649 0.9209
vn 0.8420 0.0076 -0.5395
vn 0.8131 0.3797 -0.4413
vn 0.8420 0.0076 0.5395
vn 0.6055 0.0055 -0.7958
vn 0.6055 0.0055 0.7958
vt 0.181818 0.000000
vt 0.454545 0.000000
vt 0.272727 0.000000
vt 0.363636 0.000000
vt 0.636364 0.000000
vt 0.545455 0.000000
vt 0.727273 0.000000
vt 1.000000 0.000000
vt 0.818182 0.000000
vt 0.090909 0.000000
vt 0.000000 0.000000
vt 0.909091 0.000000
vt 0.083333 0.333333
vt 0.000000 0.333333
vt 0.083333 0.666667
vt 0.000000 0.666667
vt 0.000000 1.000000
vt 0.166667 0.333333
vt 0.083333 0.000000
vt 0.166667 0.666667
vt 0.083333 1.000000
vt 0.250000 0.000000
vt 0.166667 0.000000
vt 0.250000 0.666667
vt 0.250000 1.000000
vt 0.166667 1.000000
vt 0.250000 0.333333
vt 0.333333 0.000000
vt 0.333333 0.666667
vt 0.333333 1.000000
vt 0.416667 0.333333
vt 0.333333 0.333333
vt 0.416667 0.666667
vt 0.500000 0.000000
vt 0.416667 0.000000
vt 0.500000 0.666667
vt 0.500000 1.000000
vt 0.416667 1.000000
vt 0.583333 0.333333
vt 0.500000 0.333333
vt 0.583333 0.666667
vt 0.666667 0.333333
vt 0.583333 0.000000
vt 0.666667 0.666667
vt 0.583333 1.000000
vt 0.750000 0.000000
vt 0.666667 0.000000
vt 0.750000 0.666667
vt 0.750000 1.000000
vt 0.666667 1.000000
vt 0.750000 0.333333
vt 0.833333 0.000000
vt 0.833333 0.666667
vt 0.833333 1.000000
vt 0.916667 0.333333
vt 0.833333 0.333333
vt 0.916667 0.666667
vt 0.916667 0.000000
vt 1.000000 0.666667
vt 1.000000 1.000000
vt 0.916667 1.000000
vt 1.000000 0.333333
s 0
usemtl マテリアル
f 3/1/1 6/2/1 4/3/1
f 5/4/1 4/3/1 6/2/1
f 6/2/1 8/5/1 7/6/1
f 9/7/1 12/8/1 10/9/1
f 2/10/1 1/11/1 12/8/1
f 10/9/1 12/8/1 11/12/1
f 2/10/1 12/8/1 3/1/1
f 6/2/1 3/1/1 12/8/1
f 12/8/1 9/7/1 6/2/1
f 8/5/1 6/2/1 9/7/1
f 15/1/2 16/3/2 18/2/2
f 17/4/2 18/2/2 16/3/2
f 18/2/2 19/6/2 20/5/2
f 21/7/2 22/9/2 24/8/2
f 14/10/2 24/8/2 13/11/2
f 22/9/2 23/12/2 24/8/2
f 14/10/2 15/1/2 24/8/2
f 18/2/2 24/8/2 15/1/2
f 24/8/2 18/2/2 21/7/2
f 20/5/2 21/7/2 18/2/2
s 1
f 30/13/3 25/11/4 26/14/5
f 31/15/6 26/14/5 27/16/7
f 28/17/8 31/15/6 27/16/7
f 34/18/9 29/19/10 30/13/3
f 35/20/11 30/13/3 31/15/6
f 32/21/12 35/20/11 31/15/6
f 34/18/9 37/22/13 33/23/14
f 39/24/15 34/18/9 35/20/11
f 40/25/16 35/20/11 36/26/17
f 38/27/18 41/28/19 37/22/13
f 43/29/20 38/27/18 39/24/15
f 44/30/21 39/24/15 40/25/16
f 46/31/22 41/28/19 42/32/23
f 47/33/24 42/32/23 43/29/20
f 44/30/21 47/33/24 43/29/20
f 46/31/22 49/34/25 45/35/26
f 51/36/27 46/31/22 47/33/24
f 52/37/28 47/33/24 48/38/29
f 54/39/30 49/34/25 50/40/31
f 55/41/32 50/40/31 51/36/27
f 52/37/28 55/41/32 51/36/27
f 58/42/33 53/43/34 54/39/30
f 59/44/35 54/39/30 55/41/32
f 56/45/36 59/44/35 55/41/32
f 58/42/33 61/46/37 57/47/38
f 63/48/39 58/42/33 59/44/35
f 64/49/40 59/44/35 60/50/41
f 62/51/42 65/52/43 61/46/37
f 67/53/44 62/51/42 63/48/39
f 68/54/45 63/48/39 64/49/40
f 70/55/46 65/52/43 66/56/47
f 71/57/48 66/56/47 67/53/44
f 68/54/45 71/57/48 67/53/44
f 70/55/46 25/8/4 69/58/49
f 27/59/7 70/55/46 71/57/48
f 28/60/8 71/57/48 72/61/50
f 30/13/3 29/19/10 25/11/4
f 31/15/6 30/13/3 26/14/5
f 28/17/8 32/21/12 31/15/6
f 34/18/9 33/23/14 29/19/10
f 35/20/11 34/18/9 30/13/3
f 32/21/12 36/26/17 35/20/11
f 34/18/9 38/27/18 37/22/13
f 39/24/15 38/27/18 34/18/9
f 40/25/16 39/24/15 35/20/11
f 38/27/18 42/32/23 41/28/19
f 43/29/20 42/32/23 38/27/18
f 44/30/21 43/29/20 39/24/15
f 46/31/22 45/35/26 41/28/19
f 47/33/24 46/31/22 42/32/23
f 44/30/21 48/38/29 47/33/24
f 46/31/22 50/40/31 49/34/25
f 51/36/27 50/40/31 46/31/22
f 52/37/28 51/36/27 47/33/24
f 54/39/30 53/43/34 49/34/25
f 55/41/32 54/39/30 50/40/31
f 52/37/28 56/45/36 55/41/32
f 58/42/33 57/47/38 53/43/34
f 59/44/35 58/42/33 54/39/30
f 56/45/36 60/50/41 59/44/35
f 58/42/33 62/51/42 61/46/37
f 63/48/39 62/51/42 58/42/33
f 64/49/40 63/48/39 59/44/35
f 62/51/42 66/56/47 65/52/43
f 67/53/44 66/56/47 62/51/42
f 68/54/45 67/53/44 63/48/39
f 70/55/46 69/58/49 65/52/43
f 71/57/48 70/55/46 66/56/47
f 68/54/45 72/61/50 71/57/48
f 70/55/46 26/62/5 25/8/4
f 27/59/7 26/62/5 70/55/46
f 28/60/8 27/59/7 71/57/48
