# Blender 5.1.0
# www.blender.org
mtllib 1.mtl
o 1
v -0.020395 -0.194079 0.200000
v -0.020395 0.138158 0.200000
v -0.038816 0.153947 0.200000
v -0.117105 0.153947 0.200000
v -0.117105 0.176316 0.200000
v 0.007895 0.223026 0.200000
v 0.039474 0.223026 0.200000
v 0.039474 -0.194737 0.200000
v 0.059211 -0.215132 0.200000
v 0.132895 -0.215132 0.200000
v 0.132895 -0.240132 0.200000
v -0.104605 -0.240132 0.200000
v -0.104605 -0.215132 0.200000
v -0.040789 -0.215132 0.200000
v -0.020395 -0.194079 -0.200000
v -0.020395 0.138158 -0.200000
v -0.038816 0.153947 -0.200000
v -0.117105 0.153947 -0.200000
v -0.117105 0.176316 -0.200000
v 0.007895 0.223026 -0.200000
v 0.039474 0.223026 -0.200000
v 0.039474 -0.194737 -0.200000
v 0.059211 -0.215132 -0.200000
v 0.132895 -0.215132 -0.200000
v 0.132895 -0.240132 -0.200000
v -0.104605 -0.240132 -0.200000
v -0.104605 -0.215132 -0.200000
v -0.040789 -0.215132 -0.200000
v -0.020395 -0.194079 -0.200000
v -0.020395 -0.194079 0.200000
v -0.020395 0.138158 -0.200000
v -0.020395 0.138158 0.200000
v -0.038816 0.153947 -0.200000
v -0.038816 0.153947 0.200000
v -0.117105 0.153947 -0.200000
v -0.117105 0.153947 0.200000
v -0.117105 0.176316 -0.200000
v -0.117105 0.176316 0.200000
v 0.007895 0.223026 -0.200000
v 0.007895 0.223026 0.200000
v 0.039474 0.223026 -0.200000
v 0.039474 0.223026 0.200000
v 0.039474 -0.194737 -0.200000
v 0.039474 -0.194737 0.200000
v 0.059211 -0.215132 -0.200000
v 0.059211 -0.215132 0.200000
v 0.132895 -0.215132 -0.200000
v 0.132895 -0.215132 0.200000
v 0.132895 -0.240132 -0.200000
v 0.132895 -0.240132 0.200000
v -0.104605 -0.240132 -0.200000
v -0.104605 -0.240132 0.200000
v -0.104605 -0.215132 -0.200000
v -0.104605 -0.215132 0.200000
v -0.040789 -0.215132 -0.200000
v -0.040789 -0.215132 0.200000
vn -0.0000 -0.0000 1.0000
vn -0.0000 -0.0000 -1.0000
vn -0.9085 -0.4178 -0.0000
vn -0.9269 0.3753 -0.0000
vn -0.3469 -0.9379 -0.0000
vn -0.9085 -0.4179 -0.0000
vn -0.7071 -0.7071 -0.0000
vn -0.3470 -0.9379 -0.0000
vn -0.8216 0.5701 -0.0000
vn -0.1779 0.9841 -0.0000
vn 0.7071 0.7071 -0.0000
vn 0.9270 0.3751 -0.0000
vn 0.3902 0.9207 -0.0000
vn 0.7071 -0.7071 -0.0000
vn -0.7071 0.7071 -0.0000
vn -0.3900 0.9208 -0.0000
vt 0.829399 0.475743
vt 0.766603 0.474846
vt 0.768175 0.450951
vt 0.828417 0.901901
vt 0.814288 0.886776
vt 0.880228 0.845057
vt 1.000000 0.450951
vt 0.999456 0.475547
vt 0.927285 0.475214
vt 0.897129 0.819735
vt 0.907133 0.494012
vt 0.969902 0.889157
vt 0.942532 0.893746
vt 0.849289 0.498085
vt 0.829399 0.426158
vt 0.766603 0.427055
vt 0.828418 0.000000
vt 0.880228 0.056844
vt 0.814288 0.015125
vt 1.000000 0.450951
vt 0.927285 0.426688
vt 0.999456 0.426354
vt 0.897129 0.082166
vt 0.969902 0.012744
vt 0.907133 0.407889
vt 0.942532 0.008156
vt 0.849289 0.403816
vt 0.071159 0.184732
vt 0.331780 0.637631
vt -0.000000 0.677466
vt 0.111346 0.137607
vt 0.375412 0.343545
vt 0.262741 0.013572
vt 0.360406 0.302939
vt 0.342194 0.000000
vt 0.392122 0.235048
vt 0.713590 0.148900
vt 0.405542 0.227662
vt 0.766603 0.210401
vt 0.422130 0.304872
vt 0.419196 0.652933
vt 0.440200 0.320988
vt 0.755777 0.769329
vt 0.766603 0.727894
vt 0.718532 0.874257
vt 0.419676 0.675744
vt 0.668926 0.922978
vt 0.435737 0.728366
vt 0.194466 0.992166
vt 0.434701 0.749454
vt 0.124395 0.929881
vt 0.307539 0.719033
vt 0.011293 0.731706
vt 0.302758 0.701419
vt 0.329637 0.661389
s 0
usemtl マテリアル.019
f 14/1/1 13/2/1 12/3/1
f 5/4/1 4/5/1 3/6/1
f 11/7/1 10/8/1 9/9/1
f 2/10/1 8/11/1 7/12/1
f 6/13/1 2/10/1 7/12/1
f 11/7/1 9/9/1 12/3/1
f 14/1/1 12/3/1 9/9/1
f 9/9/1 8/11/1 14/1/1
f 1/14/1 14/1/1 8/11/1
f 8/11/1 2/10/1 1/14/1
f 2/10/1 6/13/1 3/6/1
f 5/4/1 3/6/1 6/13/1
f 28/15/2 26/3/2 27/16/2
f 19/17/2 17/18/2 18/19/2
f 25/20/2 23/21/2 24/22/2
f 16/23/2 21/24/2 22/25/2
f 20/26/2 21/24/2 16/23/2
f 25/20/2 26/3/2 23/21/2
f 28/15/2 23/21/2 26/3/2
f 23/21/2 28/15/2 22/25/2
f 15/27/2 22/25/2 28/15/2
f 22/25/2 15/27/2 16/23/2
f 16/23/2 17/18/2 20/26/2
f 19/17/2 20/26/2 17/18/2
s 1
f 32/28/3 29/29/4 30/30/4
f 34/31/5 31/32/6 32/28/3
f 36/33/7 33/34/8 34/31/5
f 38/35/9 35/36/7 36/33/7
f 40/37/10 37/38/9 38/35/9
f 42/39/11 39/40/10 40/37/10
f 42/39/11 43/41/12 41/42/11
f 46/43/13 43/41/12 44/44/12
f 48/45/11 45/46/13 46/43/13
f 50/47/14 47/48/11 48/45/11
f 52/49/7 49/50/14 50/47/14
f 54/51/15 51/52/7 52/49/7
f 56/53/16 53/54/15 54/51/15
f 30/30/4 55/55/16 56/53/16
f 32/28/3 31/32/6 29/29/4
f 34/31/5 33/34/8 31/32/6
f 36/33/7 35/36/7 33/34/8
f 38/35/9 37/38/9 35/36/7
f 40/37/10 39/40/10 37/38/9
f 42/39/11 41/42/11 39/40/10
f 42/39/11 44/44/12 43/41/12
f 46/43/13 45/46/13 43/41/12
f 48/45/11 47/48/11 45/46/13
f 50/47/14 49/50/14 47/48/11
f 52/49/7 51/52/7 49/50/14
f 54/51/15 53/54/15 51/52/7
f 56/53/16 55/55/16 53/54/15
f 30/30/4 29/29/4 55/55/16
